<?xml version="1.0" standalone="no"?>
<!DOCTYPE svg PUBLIC "-//W3C//DTD SVG 20010904//EN"
 "http://www.w3.org/TR/2001/REC-SVG-20010904/DTD/svg10.dtd">
<svg version="1.0" xmlns="http://www.w3.org/2000/svg"
 width="945.000000pt" height="945.000000pt" viewBox="0 0 945.000000 945.000000"
 preserveAspectRatio="xMidYMid meet">
<metadata>
Created by potrace 1.14, written by Peter Selinger 2001-2017
</metadata>
<g transform="translate(0.000000,945.000000) scale(0.100000,-0.100000)"
fill="#000000" stroke="none">
<path d="M4275 7589 c-204 -20 -302 -34 -455 -65 -268 -55 -301 -77 -605 -409
-179 -195 -271 -307 -295 -360 -31 -69 -42 -187 -37 -406 2 -112 10 -272 17
-355 l12 -152 -31 -93 c-17 -52 -48 -154 -70 -227 -50 -169 -58 -177 -181
-178 -93 0 -154 -19 -163 -51 -12 -38 -18 -100 -27 -274 -5 -98 -11 -183 -14
-188 -3 -4 -27 -14 -53 -21 -94 -25 -390 -179 -512 -266 -33 -23 -40 -24 -200
-24 -91 0 -220 -7 -286 -15 -270 -34 -259 -32 -282 -60 -57 -65 -82 -250 -99
-720 -5 -161 -23 -339 -39 -392 -28 -94 -136 -216 -393 -445 -23 -20 -31 -35
-27 -46 3 -10 30 -89 60 -177 110 -328 127 -375 217 -575 56 -124 113 -232
126 -237 8 -3 40 21 76 56 34 33 66 61 72 61 6 0 31 -28 56 -63 78 -106 75
-105 143 -47 33 28 67 50 76 50 10 0 35 -20 56 -45 35 -41 42 -45 64 -36 13 5
71 57 129 116 406 416 542 536 714 637 274 161 428 341 485 565 12 44 34 159
51 254 27 161 31 176 58 200 75 67 95 114 121 277 9 58 22 107 27 109 17 6 69
-119 169 -407 34 -97 115 -281 136 -312 11 -14 32 -50 48 -80 109 -205 238
-402 315 -480 102 -104 183 -133 466 -164 153 -18 789 -26 960 -14 312 23 436
43 532 84 58 25 156 96 218 157 53 54 166 215 280 399 48 78 130 242 130 259
0 4 20 59 45 122 25 63 66 176 90 251 46 143 79 218 95 218 6 0 10 -1 10 -2 0
-2 9 -55 20 -118 34 -199 48 -235 120 -286 55 -39 70 -70 76 -159 3 -33 12
-98 20 -145 9 -47 19 -112 24 -145 8 -60 43 -167 77 -237 20 -41 85 -112 159
-174 88 -75 178 -148 251 -206 103 -83 139 -127 350 -427 80 -114 186 -241
206 -247 16 -5 25 0 37 17 8 13 27 37 42 54 l27 30 52 -52 c68 -69 87 -69 150
0 27 28 49 55 49 60 0 21 39 1 86 -43 29 -27 59 -50 67 -50 21 0 42 28 93 125
25 50 61 115 79 145 70 120 144 263 278 540 51 107 87 197 87 220 0 6 -36 47
-81 91 -135 136 -187 220 -203 324 -4 22 -9 47 -11 55 -9 31 -35 350 -40 500
-18 489 -31 592 -80 624 -41 27 -142 48 -193 41 -31 -4 -61 -1 -87 8 -38 14
-67 17 -248 33 -63 5 -89 14 -242 84 -305 140 -394 171 -502 177 -54 4 -97 11
-103 18 -7 8 -7 45 0 111 11 104 5 256 -12 312 -12 41 -59 72 -109 72 -38 0
-69 24 -69 52 0 9 -9 60 -20 115 -11 54 -29 144 -40 200 l-19 103 54 112 c81
166 109 269 109 393 -1 159 -43 255 -167 389 -46 50 -58 70 -72 124 -37 149
-80 207 -410 560 -33 35 -65 72 -73 83 -35 50 -182 99 -297 99 -56 0 -67 -17
-18 -25 66 -11 159 -45 204 -74 54 -34 316 -307 399 -415 64 -84 100 -153 100
-194 0 -24 -1 -25 -55 -18 -30 3 -55 2 -55 -2 0 -5 19 -19 43 -32 146 -80 269
-226 313 -369 31 -104 10 -250 -56 -382 -44 -87 -48 -88 -131 -45 -39 20 -77
36 -85 36 -20 0 -18 10 17 108 37 106 46 197 29 299 -22 130 -68 204 -174 276
-43 29 -56 43 -43 45 21 4 23 42 3 81 -11 21 -30 33 -81 49 -93 31 -98 30 -90
-18 8 -46 5 -48 -63 -21 -109 43 -419 108 -445 94 -5 -3 0 -14 10 -25 18 -21
18 -21 -10 -14 -149 36 -294 49 -542 48 -199 0 -278 -11 -510 -67 -203 -49
-307 -86 -475 -168 -182 -89 -321 -184 -432 -298 -69 -69 -98 -93 -98 -80 0
27 82 124 144 171 28 22 63 48 77 59 201 153 478 275 869 382 116 32 32 38
-193 14 -273 -29 -576 -122 -835 -257 -52 -26 -92 -43 -90 -37 2 6 44 36 93
66 50 29 92 58 93 64 15 40 -341 -123 -410 -189 -21 -19 -28 -35 -28 -63 0
-21 3 -40 8 -43 4 -2 54 31 112 75 95 72 120 87 120 74 0 -2 -33 -30 -72 -62
-40 -31 -100 -85 -133 -120 -34 -35 -63 -63 -66 -63 -3 0 -5 35 -4 77 0 61 -3
78 -15 81 -21 4 -105 -78 -181 -178 -109 -141 -117 -160 -119 -272 -1 -61 3
-99 10 -103 6 -4 28 5 50 19 29 19 49 47 85 118 44 89 128 223 146 234 17 10
9 -18 -14 -49 -53 -71 -121 -202 -195 -372 -17 -38 -42 -97 -57 -130 -37 -83
-72 -176 -102 -270 -26 -84 -50 -150 -63 -175 -9 -19 -108 -36 -123 -21 -19
19 22 180 129 500 58 173 103 321 102 330 -2 9 -27 -32 -57 -91 -29 -60 -59
-108 -66 -108 -20 0 -25 65 -27 320 -1 275 7 325 62 407 63 95 196 249 348
405 135 138 221 208 317 257 52 27 440 103 591 116 38 4 117 15 175 25 l104
18 -90 0 c-49 0 -126 -4 -170 -9z m1908 -795 c21 -14 36 -28 34 -30 -4 -4 -70
36 -86 52 -15 14 20 0 52 -22z m77 -54 c0 -5 -2 -10 -4 -10 -3 0 -8 5 -11 10
-3 6 -1 10 4 10 6 0 11 -4 11 -10z m160 -257 c6 -23 5 -55 -1 -83 -6 -25 -14
-65 -19 -90 -4 -25 -20 -91 -34 -147 -21 -78 -24 -107 -17 -122 18 -32 13 -70
-23 -181 -41 -126 -83 -296 -94 -376 -4 -33 -4 -115 0 -184 13 -218 13 -209
-9 -232 -39 -38 -44 -23 -94 256 -26 150 -31 196 -26 277 5 88 35 228 82 376
12 37 11 43 -4 57 -38 35 -51 18 -105 -149 -88 -273 -91 -309 -45 -471 50
-170 48 -181 -22 -165 -24 5 -123 19 -219 31 -96 11 -188 23 -205 25 -16 2
-98 9 -182 15 -148 12 -153 11 -182 -9 -24 -17 -44 -21 -108 -21 -100 0 -95 5
-190 -178 -24 -46 -43 -92 -43 -103 0 -34 39 -22 87 26 48 49 49 50 58 35 3
-5 -13 -28 -37 -50 -48 -44 -48 -44 50 -40 31 1 73 -6 102 -16 45 -16 57 -17
118 -5 71 15 102 15 196 5 46 -5 65 -2 91 12 28 15 38 16 60 6 31 -14 149 -16
174 -2 18 9 40 14 119 26 32 5 46 12 49 25 4 12 14 19 30 19 22 0 23 3 17 35
-3 19 -3 35 0 35 17 0 125 -82 130 -97 2 -10 10 -52 16 -93 7 -41 19 -91 27
-110 l14 -35 17 21 c9 12 25 36 34 53 27 49 45 50 85 5 32 -37 34 -38 46 -20
7 10 27 42 46 70 18 28 63 107 98 176 35 69 72 133 82 144 11 10 39 20 65 23
54 6 86 -14 86 -54 0 -24 -18 -36 -72 -47 -28 -6 -98 -61 -98 -77 0 -5 -15
-32 -33 -61 -40 -65 -58 -106 -97 -228 -45 -140 -79 -204 -111 -208 -47 -5
-51 15 -24 114 31 111 23 152 -19 105 -19 -20 -75 -226 -76 -273 0 -15 5 -30
10 -33 6 -3 10 -2 10 3 0 29 92 17 104 -14 4 -11 16 -13 54 -8 48 6 132 -10
132 -25 0 -19 -45 -110 -85 -171 -92 -142 -160 -193 -175 -132 -6 27 -20 33
-30 12 -4 -8 -31 -87 -60 -175 -64 -195 -148 -411 -204 -525 -49 -100 -210
-374 -241 -410 -11 -14 -52 -72 -90 -129 -108 -161 -141 -194 -225 -221 -42
-13 -75 -19 -80 -14 -5 5 10 34 36 69 24 33 58 80 76 104 18 24 37 52 43 61 5
10 67 103 138 208 87 130 139 218 163 278 20 49 44 109 54 134 10 25 35 97 55
160 20 63 40 124 45 135 5 11 21 51 35 89 44 113 44 113 84 120 57 9 103 45
131 102 53 108 53 108 -27 39 -72 -61 -125 -87 -143 -69 -5 5 -10 29 -12 54
l-3 45 -24 -60 c-13 -33 -49 -136 -81 -230 -63 -186 -173 -460 -227 -570 -113
-225 -256 -432 -412 -597 -97 -102 -122 -114 -266 -122 -176 -10 -470 -7 -502
5 -27 10 -96 66 -173 140 -89 86 -317 409 -398 564 -87 168 -185 403 -248 595
-20 63 -43 129 -49 145 -7 17 -18 47 -25 68 -15 49 -26 47 -34 -8 -6 -37 -12
-46 -32 -51 -27 -7 -81 28 -122 78 -32 39 -44 36 -36 -9 l7 -38 -25 23 c-27
24 -38 21 -38 -13 0 -26 -18 -45 -42 -45 -45 0 -268 284 -268 341 0 14 12 19
48 24 26 4 60 11 75 16 18 5 36 5 47 -1 27 -14 33 1 24 68 -10 84 -38 168
-114 342 -37 85 -78 180 -91 210 -33 80 -36 83 -91 78 -27 -3 -52 -8 -55 -12
-4 -4 16 -28 45 -54 44 -39 59 -62 88 -136 20 -48 32 -92 27 -96 -4 -4 -47
-11 -95 -15 -82 -6 -87 -6 -98 15 -26 49 -15 369 13 397 7 7 34 17 60 22 39 7
54 5 95 -14 51 -24 40 -5 152 -250 15 -33 35 -81 43 -106 20 -59 57 -129 67
-129 5 0 15 19 23 43 7 23 20 42 28 42 7 0 25 -22 40 -49 14 -28 31 -52 37
-54 6 -2 18 22 27 55 9 32 29 96 43 143 26 81 29 85 56 85 16 1 35 -6 43 -14
20 -19 102 -1 147 34 34 26 56 32 56 16 0 -6 -28 -23 -63 -40 -34 -16 -73 -41
-86 -55 l-24 -25 24 -5 c13 -3 51 -7 84 -10 33 -3 85 -10 115 -15 42 -6 64 -5
95 6 66 25 104 27 124 9 16 -14 30 -16 81 -10 45 5 60 10 56 20 -3 7 -1 16 4
19 6 4 10 -1 10 -9 0 -11 8 -13 33 -9 21 3 46 -1 65 -11 39 -20 121 -21 158
-1 16 8 41 15 55 15 15 0 41 3 58 6 25 5 30 10 26 25 -8 24 1 24 33 -2 15 -11
28 -16 30 -10 5 16 -47 203 -67 236 -17 30 -18 30 -102 30 -64 0 -90 4 -109
18 -30 21 -69 21 -258 2 -144 -15 -482 -62 -513 -71 -8 -2 -26 -22 -38 -45
-13 -22 -25 -38 -28 -35 -6 5 44 172 74 251 19 52 11 134 -29 280 -16 61 -32
134 -35 162 -5 52 -5 54 38 95 70 68 176 155 236 194 140 89 482 234 532 225
8 -1 17 2 20 7 15 25 313 88 457 97 54 4 115 8 134 9 51 4 322 -11 420 -24 47
-6 139 -23 205 -37 287 -61 462 -123 626 -223 45 -27 86 -50 91 -50 4 0 21 21
37 47 24 38 27 50 18 62 -29 34 -292 137 -412 161 -33 7 -69 16 -80 20 -17 7
-16 9 10 9 28 0 62 -7 138 -28 17 -6 83 -23 145 -40 62 -16 135 -37 163 -46
50 -17 52 -17 72 4 19 18 22 35 25 127 3 58 6 103 9 100 3 -2 9 -22 13 -43z
m-615 -63 c18 -8 18 -9 -5 -9 -14 0 -32 4 -40 9 -12 8 -12 10 5 9 11 0 29 -4
40 -9z m-2073 -83 c-10 -13 -112 -207 -112 -213 0 -13 48 0 95 27 69 39 97 32
31 -7 -27 -16 -67 -41 -90 -56 -44 -30 -75 -36 -77 -15 -3 27 4 46 46 132 47
95 92 158 107 149 5 -3 5 -11 0 -17z m-242 -329 c0 -7 -7 -38 -15 -68 -21 -75
-12 -171 32 -345 19 -77 37 -152 40 -166 3 -17 -15 -76 -55 -175 -33 -82 -72
-182 -87 -221 -15 -40 -30 -73 -35 -73 -14 0 -39 77 -34 104 2 15 13 48 23 74
10 26 29 85 41 131 l23 83 -21 62 c-12 33 -29 93 -37 131 -9 39 -27 104 -40
145 -13 42 -27 108 -30 147 l-7 70 35 27 c33 25 143 84 160 85 4 1 7 -5 7 -11z
m3181 -19 c69 -54 121 -196 148 -400 15 -117 14 -186 -3 -192 -15 -6 -132 7
-158 18 -18 7 -34 54 -74 220 -56 235 -56 232 -22 300 50 99 52 100 109 54z
m-4041 -704 c45 -13 60 -34 60 -86 0 -54 -13 -69 -39 -45 -18 16 -91 35 -91
23 0 -3 18 -25 41 -48 55 -58 68 -79 85 -141 17 -66 18 -122 2 -136 -7 -5 -48
-13 -90 -17 -71 -6 -77 -5 -88 14 -13 25 -12 168 1 286 15 133 18 145 42 155
22 8 29 8 77 -5z m4369 -28 c6 -8 12 -24 13 -37 3 -21 -3 -25 -62 -37 -58 -12
-66 -12 -76 2 -16 21 -7 52 19 70 27 19 91 19 106 2z m28 -144 c4 -16 8 -72 8
-126 0 -86 -2 -100 -19 -113 -23 -16 -131 -19 -141 -4 -14 22 -14 57 0 104 18
58 36 90 79 133 39 40 63 42 73 6z m-1394 -8 c-3 -13 -29 -18 -59 -11 -40 11
-27 27 19 24 23 -2 41 -7 40 -13z m237 0 c28 -15 41 -35 21 -35 -24 0 -71 24
-71 36 0 18 14 18 50 -1z m-1670 -15 c36 -19 10 -34 -36 -21 -53 15 -117 13
-189 -4 -75 -18 -77 -18 -100 -1 -17 12 -18 16 -5 31 13 16 30 17 162 12 81
-3 156 -11 168 -17z m1380 -36 c0 -8 -4 -12 -10 -9 -5 3 -10 10 -10 16 0 5 5
9 10 9 6 0 10 -7 10 -16z m1147 -70 c-6 -83 -18 -111 -50 -119 -34 -9 -77 11
-77 35 0 53 88 174 118 163 12 -5 14 -20 9 -79z m-3650 -226 c20 -16 47 -98
36 -109 -10 -10 -164 -51 -243 -64 -54 -9 -115 -39 -228 -112 l-86 -55 -115
17 c-64 9 -145 20 -180 25 -35 5 -66 11 -69 14 -8 8 26 44 57 60 14 7 85 46
156 86 196 110 218 116 520 149 84 9 132 5 152 -11z m3718 8 c141 -7 239 -26
393 -77 139 -45 312 -122 312 -138 0 -6 -1 -11 -2 -12 -2 0 -23 -2 -48 -5
-138 -14 -209 -28 -238 -45 -18 -10 -46 -19 -61 -19 -45 0 -285 105 -276 120
5 8 188 -36 250 -60 33 -12 55 -13 55 -1 0 14 -247 131 -312 147 -113 29 -172
20 -149 -24 16 -30 1 -35 -75 -27 -76 7 -134 29 -134 50 0 8 8 30 17 50 19 40
51 53 118 49 22 -2 90 -5 150 -8z m630 -23 c93 -32 177 -73 182 -90 6 -17 -64
1 -118 30 -24 14 -74 35 -111 48 -66 23 -86 39 -50 39 9 0 53 -12 97 -27z
m-5085 -38 c-7 -8 -17 -15 -22 -15 -6 0 -59 -25 -120 -55 -60 -30 -113 -55
-116 -55 -30 2 216 130 267 139 2 1 -2 -6 -9 -14z m810 -170 c0 -16 -51 -33
-127 -42 -42 -5 -53 -3 -53 9 0 12 79 33 173 47 4 1 7 -6 7 -14z m3676 -86 c3
-6 -7 -25 -24 -42 -16 -18 -46 -64 -67 -104 -20 -39 -46 -80 -57 -90 -19 -17
-20 -17 -34 2 -19 26 -18 49 6 95 12 23 16 41 10 45 -6 3 0 21 14 43 23 36 29
39 138 61 4 0 10 -4 14 -10z m1575 1 c48 -26 67 -115 79 -375 5 -110 12 -218
14 -240 3 -22 10 -112 16 -200 15 -222 32 -297 99 -435 27 -57 58 -98 128
-171 51 -53 93 -103 93 -112 0 -21 -21 -67 -155 -342 -222 -456 -261 -528
-295 -541 -10 -3 -27 8 -48 33 -26 29 -32 43 -27 63 4 13 10 27 13 30 15 11
61 78 102 150 24 41 49 82 56 90 24 30 186 341 215 415 33 83 33 87 -22 124
-61 42 -174 162 -200 212 -30 60 -59 212 -84 447 -17 154 -41 822 -31 848 6
17 20 18 47 4z m-506 -16 c124 -8 129 -13 133 -149 l4 -105 -27 -12 c-23 -10
-36 -7 -127 40 -56 28 -104 49 -107 47 -7 -8 93 -98 142 -128 26 -16 47 -34
47 -41 0 -11 -23 -99 -95 -361 -31 -114 -55 -246 -54 -294 1 -25 7 -9 20 54
25 120 93 335 130 410 16 34 29 66 29 72 0 6 6 16 14 22 27 22 34 -19 45 -245
24 -474 63 -608 234 -795 54 -59 58 -66 52 -99 -11 -64 -205 -439 -231 -447
-6 -2 -66 52 -135 120 -113 113 -224 207 -244 207 -12 0 -70 49 -140 120 -98
98 -155 219 -216 463 -21 83 -38 117 -60 117 -20 0 -22 -37 -5 -120 26 -126
95 -349 123 -397 43 -75 112 -142 252 -245 75 -55 165 -132 201 -171 60 -65
150 -191 150 -210 0 -10 -29 -67 -34 -67 -3 0 -11 -3 -20 -6 -9 -3 -16 -1 -16
5 0 6 -18 34 -41 63 -75 98 -184 241 -205 270 -47 63 -119 130 -217 202 -131
95 -228 204 -278 312 -35 74 -129 405 -129 454 0 26 23 25 85 -3 45 -21 95
-37 162 -50 41 -9 57 25 63 131 4 85 7 97 24 100 28 6 144 -28 150 -43 2 -7 0
-46 -6 -87 -11 -78 -7 -252 5 -265 13 -12 27 19 27 60 0 56 54 308 89 417 17
52 51 146 76 209 25 63 45 120 45 127 0 7 -19 18 -42 25 -74 19 -200 84 -271
138 -72 55 -97 58 -78 8 6 -15 13 -56 17 -92 l7 -66 61 -28 c51 -23 68 -37 95
-79 50 -78 43 -88 -59 -84 -112 4 -232 36 -268 72 -16 15 -33 48 -40 76 -16
67 -23 231 -11 277 15 55 43 69 156 73 53 2 99 7 102 10 6 6 237 -1 416 -12z
m302 -32 c26 -53 31 -109 37 -447 8 -437 41 -711 97 -814 37 -67 84 -127 150
-188 27 -25 51 -53 54 -63 11 -35 -141 -366 -255 -556 -42 -69 -56 -85 -73
-82 -13 2 -25 14 -31 29 -7 22 -3 37 26 85 56 92 195 372 223 449 l26 69 -49
43 c-61 53 -141 160 -169 228 -31 72 -50 157 -62 265 -6 52 -13 115 -16 140
-3 25 -7 137 -10 249 -3 112 -8 208 -11 213 -4 6 -8 349 -5 416 1 8 10 12 24
10 14 -2 29 -18 44 -46z m-6947 8 c17 -9 17 -12 -2 -72 -34 -108 -47 -215 -57
-463 -11 -258 -35 -526 -52 -590 -19 -71 -70 -137 -231 -300 l-157 -161 15
-59 c22 -87 94 -301 124 -370 5 -11 18 -45 29 -75 11 -30 38 -97 61 -148 44
-102 44 -120 1 -151 l-28 -20 -21 22 c-43 46 -156 294 -215 472 -69 207 -90
281 -89 309 1 25 18 46 104 125 249 231 301 302 312 424 3 34 8 186 11 337 3
151 8 300 10 330 3 30 7 80 10 110 12 144 39 220 94 267 28 25 52 29 81 13z
m1540 -1 c0 -6 15 -8 44 -4 41 7 45 5 69 -27 35 -47 57 -93 57 -121 0 -13 10
-47 21 -75 37 -89 3 -111 -62 -39 -25 27 -47 65 -60 107 -16 48 -33 76 -65
107 -48 47 -54 63 -24 63 11 0 20 -5 20 -11z m-645 -15 c88 -9 175 -23 194
-30 l34 -14 -7 -95 c-7 -94 -26 -188 -46 -226 -22 -40 -74 -56 -289 -90 -88
-13 -100 -5 -71 52 22 43 89 95 143 111 45 14 51 20 66 80 16 68 15 70 -28 49
-106 -55 -371 -120 -371 -92 0 4 23 27 50 50 28 23 50 46 50 50 0 5 -21 -2
-48 -15 -71 -34 -196 -74 -231 -74 -36 0 -38 10 -20 106 16 88 48 127 122 144
57 14 287 10 452 -6z m-629 -9 c3 -8 -1 -36 -10 -63 -26 -78 -44 -248 -56
-537 -13 -317 -32 -499 -60 -575 -31 -85 -79 -146 -237 -301 l-146 -143 47
-141 c26 -77 54 -154 62 -170 9 -17 30 -69 48 -116 27 -70 30 -89 21 -103 -28
-38 -67 -3 -110 98 -12 28 -32 74 -44 101 -13 28 -29 64 -36 80 -21 48 -72
197 -78 231 -8 41 6 61 159 217 72 73 142 153 156 179 53 95 69 188 83 478 3
63 7 160 10 215 3 55 7 156 10 225 7 140 20 253 35 279 14 27 37 43 73 51 50
12 67 11 73 -5z m5611 -17 c6 -7 14 -76 17 -153 14 -280 33 -309 216 -336 97
-14 156 -39 172 -74 16 -36 4 -57 -29 -49 -89 20 -271 77 -320 100 -99 45
-113 82 -120 309 -5 164 -4 171 16 193 25 25 34 27 48 10z m-4581 -28 c37 -15
47 -53 40 -162 -8 -132 -41 -281 -78 -355 -12 -25 -79 -54 -180 -77 -80 -18
-276 -46 -328 -46 -48 0 -51 14 -17 80 18 37 33 50 84 76 35 17 92 36 128 42
83 16 147 44 172 75 25 32 49 131 63 262 6 55 13 106 16 114 4 14 50 10 100
-9z m176 -50 c29 -22 47 -80 41 -131 -35 -291 -68 -429 -111 -467 -31 -25
-212 -87 -317 -108 -60 -12 -165 -19 -165 -11 0 1 -4 17 -10 35 -9 32 -7 34
25 48 19 8 48 14 64 14 39 0 198 38 232 55 41 22 85 78 103 132 27 81 57 253
63 356 6 92 7 97 28 97 12 0 34 -9 47 -20z m4244 8 c4 -6 8 -86 8 -177 l1
-166 34 -62 c36 -68 72 -95 173 -133 62 -23 90 -49 113 -102 32 -78 18 -83
-119 -43 -158 46 -224 93 -246 176 -18 67 -30 197 -30 335 0 118 2 134 21 158
22 29 34 32 45 14z m-5206 -175 c0 -9 13 -55 29 -102 80 -233 134 -464 162
-691 14 -116 17 -126 30 -113 18 18 20 106 7 235 -8 70 -11 135 -7 146 5 13
24 22 65 30 31 7 60 10 62 7 3 -3 -1 -20 -9 -38 -18 -38 -17 -96 2 -108 8 -5
25 -7 39 -4 52 11 247 16 300 8 l55 -8 3 -39 c7 -84 -67 -317 -134 -421 -58
-91 -165 -181 -357 -298 -131 -81 -254 -175 -329 -253 -48 -51 -204 -219 -256
-277 -32 -35 -48 -38 -72 -12 -21 22 -22 27 -10 55 13 31 267 279 352 343 25
20 97 66 160 103 303 181 419 320 488 591 26 101 35 189 20 198 -16 10 -17 8
-45 -86 -23 -76 -75 -192 -140 -307 -56 -101 -156 -193 -310 -289 -44 -27 -87
-52 -95 -56 -61 -28 -247 -175 -371 -294 -53 -51 -93 -83 -107 -83 -30 0 -64
62 -118 215 -42 117 -44 126 -30 152 8 16 69 85 134 155 144 154 184 210 218
308 24 68 26 92 30 260 14 658 13 640 39 640 14 0 34 -47 96 -230 22 -63 44
-124 48 -135 5 -11 19 -60 31 -110 11 -49 25 -106 30 -125 5 -19 14 -75 21
-123 14 -99 32 -112 37 -26 4 55 -8 156 -33 284 -7 39 -16 86 -19 106 -6 32
-58 193 -101 309 l-16 44 33 28 c37 31 68 36 68 11z m5002 -44 c4 -19 17 -101
28 -184 23 -157 46 -232 88 -277 14 -15 22 -31 18 -35 -10 -10 -131 55 -163
87 -50 50 -82 171 -82 318 -1 70 2 84 17 89 9 4 28 15 41 25 32 24 44 19 53
-23z m-4832 17 c0 -3 -4 -8 -10 -11 -5 -3 -10 -1 -10 4 0 6 5 11 10 11 6 0 10
-2 10 -4z m1565 -65 c22 -6 51 -12 65 -13 21 -3 28 -12 43 -63 44 -149 101
-314 132 -379 19 -40 38 -83 44 -98 12 -32 195 -341 228 -384 12 -17 23 -34
23 -38 0 -11 99 -155 152 -221 128 -157 121 -210 -16 -120 -70 46 -134 108
-190 185 -25 36 -68 93 -94 127 -109 143 -184 281 -293 538 -93 221 -189 486
-189 521 0 4 12 -4 28 -18 15 -14 45 -31 67 -37z m-564 -4 c54 -29 58 -48 34
-167 -30 -143 -66 -197 -172 -257 -35 -19 -63 -39 -63 -43 0 -5 17 -10 38 -12
l37 -3 -3 -45 c-6 -105 -92 -369 -150 -465 -94 -155 -142 -207 -282 -308 -218
-157 -291 -212 -400 -306 -125 -108 -281 -259 -402 -390 -42 -46 -83 -81 -90
-79 -7 3 -20 16 -28 31 -13 24 -13 29 6 63 32 56 208 251 329 365 84 79 114
102 275 211 69 46 160 108 202 137 148 101 225 205 281 376 28 84 82 300 93
373 6 36 15 50 56 85 76 64 140 218 173 420 3 20 9 37 14 37 4 0 28 -10 52
-23z m3484 -115 c-50 -182 -116 -380 -175 -527 -52 -126 -134 -255 -314 -491
-115 -151 -150 -185 -229 -223 -57 -27 -127 -41 -127 -26 0 7 81 126 96 140
36 35 111 144 323 470 72 111 187 366 258 570 24 72 50 136 57 143 6 7 39 25
71 42 74 36 76 32 40 -98z m-3144 58 c19 -4 40 -10 46 -13 10 -6 63 -146 98
-257 32 -105 80 -228 127 -330 77 -164 167 -307 318 -505 41 -54 90 -118 108
-143 32 -42 36 -73 10 -71 -65 4 -185 103 -274 226 -32 46 -74 103 -91 127
-18 25 -33 49 -33 54 0 5 -7 15 -15 22 -19 16 -109 171 -178 308 -58 114 -207
533 -207 580 0 21 3 23 28 17 15 -4 43 -11 63 -15z m3688 -454 c6 -7 16 -46
22 -87 16 -103 73 -332 99 -403 27 -70 132 -192 261 -303 92 -80 243 -237 320
-335 140 -177 229 -306 229 -329 0 -17 -36 -59 -50 -59 -7 0 -42 51 -116 165
-121 187 -326 430 -403 478 -20 12 -42 27 -51 35 -8 7 -42 34 -75 59 -154 116
-236 218 -278 348 -36 113 -77 416 -59 438 13 15 87 10 101 -7z m1182 -1358
c9 -17 8 -28 -6 -55 -21 -39 -51 -43 -66 -9 -9 18 -7 30 5 55 19 37 50 41 67
9z m-6867 -61 c23 -31 14 -60 -21 -65 -37 -6 -64 55 -37 82 20 21 32 17 58
-17z"/>
<path d="M4854 4904 c-14 -34 -14 -41 1 -80 18 -47 38 -69 55 -59 7 4 6 13 -2
28 -7 12 -12 49 -13 81 0 72 -18 85 -41 30z"/>
<path d="M4947 4911 c-25 -43 -21 -76 14 -116 36 -41 65 -47 55 -12 -3 12 -6
45 -6 74 0 33 -6 57 -16 67 -21 22 -27 20 -47 -13z"/>
<path d="M4397 4923 c-4 -3 -7 -18 -7 -32 -1 -14 -12 -51 -25 -81 -18 -43 -21
-56 -10 -58 37 -9 95 66 95 122 0 35 -35 68 -53 49z"/>
<path d="M4511 4893 c-6 -21 -17 -60 -25 -87 -8 -27 -13 -53 -10 -58 18 -29
79 30 90 89 15 77 -36 129 -55 56z"/>
<path d="M5066 4908 c-22 -30 -20 -64 4 -104 20 -31 55 -52 67 -40 3 3 0 19
-6 37 -6 18 -11 45 -11 61 0 32 -16 68 -30 68 -5 0 -16 -10 -24 -22z"/>
<path d="M4616 4858 c-9 -35 -19 -73 -22 -85 -5 -17 -2 -23 10 -23 32 0 65 91
52 145 -10 41 -23 29 -40 -37z"/>
<path d="M3264 4754 c-5 -18 4 -48 30 -103 20 -43 40 -98 44 -122 9 -55 28
-53 24 2 -3 48 -70 249 -83 249 -5 0 -12 -12 -15 -26z"/>
<path d="M5165 4162 c-25 -4 -186 -49 -210 -58 -15 -6 -17 -3 -13 14 5 18 1
22 -27 28 -18 3 -49 1 -69 -4 -20 -6 -69 -8 -110 -5 -65 5 -76 3 -94 -15 l-20
-20 -104 20 c-86 17 -110 18 -145 9 -24 -7 -43 -16 -43 -20 0 -5 19 -12 43
-15 23 -4 49 -11 57 -16 12 -7 11 -10 -4 -16 -12 -5 -54 5 -111 24 -89 32
-175 41 -203 23 -9 -5 4 -10 36 -13 48 -5 90 -23 212 -91 51 -29 63 -31 163
-34 68 -1 127 -8 158 -18 27 -9 81 -17 120 -17 60 0 81 5 136 32 l65 32 59
-17 c100 -30 208 -8 314 65 60 41 124 70 158 70 15 0 27 5 27 11 0 20 -107 4
-204 -30 -68 -24 -106 -31 -163 -31 -42 0 -73 4 -73 10 0 11 86 52 134 64 15
4 27 9 25 10 -6 6 -93 12 -114 8z"/>
<path d="M4945 3674 c-11 -3 -30 -10 -42 -16 -15 -7 -45 -8 -90 -2 -110 13
-203 10 -290 -10 -69 -16 -91 -17 -137 -8 -65 13 -125 5 -242 -32 -107 -34
-163 -41 -208 -26 -21 7 -40 9 -43 6 -4 -3 0 -27 8 -54 18 -54 16 -54 134 -24
95 24 198 30 605 37 168 3 358 8 423 10 184 7 548 7 583 -1 27 -5 32 -3 37 18
4 12 7 26 7 29 0 3 -32 9 -71 13 -39 3 -80 11 -91 17 -30 16 -165 23 -228 11
-45 -8 -65 -7 -115 9 -60 19 -202 32 -240 23z"/>
<path d="M4435 3392 c-76 -4 -85 -9 -55 -33 52 -41 125 -71 194 -80 39 -5 112
-19 161 -30 99 -23 185 -20 239 8 18 10 59 16 110 17 69 1 88 5 129 29 42 25
78 69 66 81 -5 5 -769 12 -844 8z"/>
<path d="M2565 4632 c-181 -93 -253 -141 -234 -153 26 -16 50 -9 117 35 66 43
163 98 255 146 45 24 56 42 26 47 -8 2 -81 -32 -164 -75z"/>
<path d="M4720 7579 c-320 -30 -336 -32 -550 -64 -81 -12 -317 -61 -345 -71
-38 -14 -95 -68 -238 -223 -340 -371 -414 -459 -422 -505 -13 -79 -35 -272
-35 -312 0 -32 4 -44 15 -44 8 0 15 5 15 10 0 10 108 136 207 240 36 37 58 71
69 107 9 28 24 62 33 76 88 136 466 533 533 560 153 63 651 195 803 212 77 9
107 25 45 23 -25 0 -83 -4 -130 -9z"/>
<path d="M5270 7580 c-257 -11 -434 -36 -730 -105 -123 -28 -279 -73 -295 -84
-5 -4 -48 -20 -95 -36 -175 -57 -194 -70 -320 -206 -63 -69 -140 -154 -170
-189 -30 -36 -78 -90 -106 -120 -57 -62 -78 -95 -68 -111 10 -16 43 -4 201 72
204 98 280 122 708 224 55 13 127 29 160 35 164 30 597 61 840 62 147 0 443
-18 524 -33 30 -5 72 -9 93 -9 22 0 47 -4 56 -9 9 -4 43 -11 75 -15 53 -6 57
-5 57 14 0 69 -300 364 -485 477 -58 36 -63 37 -165 39 -58 1 -184 -2 -280 -6z"/>
<path d="M5790 7564 c0 -5 41 -47 91 -94 147 -137 299 -292 329 -335 15 -22
33 -58 40 -80 12 -40 12 -40 93 -60 99 -24 101 -24 105 -3 8 39 -66 152 -155
239 -113 109 -246 227 -302 268 -52 36 -201 85 -201 65z"/>
<path d="M5920 7030 c-8 -5 6 -12 36 -19 80 -18 175 -47 233 -70 73 -30 106
-16 63 27 -32 32 -300 82 -332 62z"/>
<path d="M3137 6022 c-18 -20 -23 -82 -7 -82 10 0 40 63 40 86 0 19 -14 17
-33 -4z"/>
</g>
</svg>
