<svg version="1.2" xmlns="http://www.w3.org/2000/svg" viewBox="0 0 720 720" width="720" height="720">
	<title>PhotopeaLogo</title>
	<style>
		.s0 { fill: #000000 } 
	</style>
	<path id="Path 0" fill-rule="evenodd" class="s0" d="m58.4 29c55.6 0.1 57.4 0.1 69.6 2.4 6.9 1.3 15.9 3.7 20 5.4 4.1 1.7 10.2 4.9 13.5 7 3.3 2.1 8.4 6.5 11.4 9.8 3 3.2 6.9 9 8.8 12.9 1.9 3.9 4 10.7 4.9 15.5 1 5.6 1.3 11.1 1 16-0.4 4.1-1.3 9.7-2.2 12.5-0.8 2.7-2.9 7.7-4.7 10.9-1.8 3.3-6 8.6-9.7 12-3.6 3.4-9.1 7.4-12.3 9.1-3.1 1.7-5.7 3.2-5.7 3.5 0 0.3 2.3 1.6 5.2 3 2.9 1.4 8 5.2 11.4 8.5 3.8 3.8 7.1 8.2 8.9 12 1.5 3.3 3.6 10.1 4.6 15 1 4.9 2.3 17.6 2.8 28 0.6 10.4 1.4 20.5 1.8 22.4 0.4 1.8 1.4 3.8 2.1 4.5 0.7 0.6 1.3 1.9 1.2 2.9 0 1.6-2.2 1.7-62 1.7l-1.5-3.5c-0.8-1.9-1.9-9.4-2.5-16.8-0.5-7.2-1.2-15.4-1.6-18.2-0.3-2.8-1.2-7.9-2.1-11.5-0.9-3.6-2.6-8.5-3.8-11-1.3-2.5-3.6-5.7-5.2-7.2-1.5-1.5-4.6-3.5-6.8-4.4-3.3-1.5-7.6-1.8-42.5-2.4v75h-63l-0.2-106.8c-0.1-58.8 0.2-107.2 0.7-107.5 0.5-0.4 26.5-0.7 57.9-0.7zm4.6 95c38.2 0 43.4-0.3 47-1.6 2.5-0.8 5.6-2.3 7-3.3 1.4-1 3.6-4 4.9-6.7 1.8-3.6 2.4-6.5 2.4-10.9-0.1-3.9-0.8-7.4-2.1-10-1-2.2-3.3-5.2-5.1-6.7-1.7-1.6-5.5-3.5-8.3-4.3-4-1.1-10.5-1.5-25.5-1.5h-20.3zm213-95h31.5c29 0 31.6 0.1 32.4 1.8 0.5 0.9 18.2 48.5 39.4 105.7 21.2 57.2 38.8 104.8 39.1 105.8 0.6 1.6-1.4 1.7-65.9 1.7l-10.1-30.5-73.4-0.5-10 31h-31c-17 0-30.9-0.3-30.9-0.6 0.1-0.4 17.5-47.7 38.6-105.3 21.2-57.5 38.9-105.6 39.4-106.8zm16.9 112.5c-4.9 14.8-8.8 27.1-8.6 27.2 0.1 0.1 10 0.1 21.9 0l21.6-0.2c-10.8-33.4-15.4-48.6-17.2-55.3-1.8-6.7-3.7-12.3-4.3-12.3-0.5 0-1.8 3.1-2.8 6.8-0.9 3.7-5.7 18.9-10.6 33.8zm-198.3 340.6c1.1-0.1 7.1 0.3 13.5 0.9 6.3 0.6 15.1 1.9 19.5 3 4.4 1.1 10.4 3 13.5 4.1 3 1.1 8.2 3.6 11.5 5.6 3.3 2 8.4 5.9 11.4 8.7 2.9 2.8 7.1 7.8 9.3 11 2.1 3.3 4.7 9 5.8 12.5 1.1 3.6 2.3 9.6 3.5 20h-62.5l-0.5-3.5c-0.3-2-1.9-5-3.8-7.1-1.8-2-5-4.6-7.2-5.7-3.4-1.8-5.8-2.2-14.5-2.2-9.3 0-11.2 0.4-15.5 2.5-2.7 1.4-5.8 3.9-6.7 5.5-1 1.7-1.8 4.5-1.8 6.3 0 1.8 0.7 4.4 1.7 5.9 1 1.4 3.8 3.6 6.3 4.9 2.4 1.2 8.1 3.2 12.5 4.3 4.4 1.1 15.8 4 25.5 6.3 9.6 2.3 22 5.8 27.5 7.8 5.5 2.1 13.1 5.5 17 7.6 3.8 2.1 10.2 7 14.2 10.9 5.2 5 8.3 9.1 10.8 14 1.9 3.9 4.1 10.4 5 14.5 1.2 5.4 1.5 10.5 1.1 18-0.3 6.6-1.2 13-2.5 17-1.2 3.6-3.8 9.4-5.9 12.9-2 3.5-6.1 8.8-9 11.8-2.9 2.9-7.8 7.1-11 9.2-3.2 2.1-7.7 4.8-10 6-2.3 1.2-7.5 3.2-11.5 4.6-4 1.3-11.5 3.4-16.7 4.5-7.3 1.6-13.1 2.1-24.8 2.1-10.8 0-18.6-0.6-27-2.1-6.5-1.1-16.2-3.6-21.7-5.5-5.5-1.9-13.6-5.6-17.9-8.2-4.5-2.7-10.7-7.8-14.6-11.8-4.6-4.8-8-9.6-10.9-15.5-2.3-4.6-4.8-11.6-5.7-15.5-0.8-3.8-1.4-8.9-1.4-15.5h64l1 4.8c0.6 2.6 2.1 6.3 3.3 8.2 1.2 1.8 4 4.6 6.2 6.1 2.2 1.4 6.2 3.4 9 4.2 2.7 0.9 8.1 1.9 12 2.2 3.8 0.4 9.4 0.2 12.5-0.4 3-0.6 7.5-2.1 10-3.4 2.4-1.2 5.5-3.8 6.8-5.7 1.9-2.8 2.3-4.5 2-8.6-0.3-3.8-1-5.9-2.8-7.9-1.4-1.5-5.4-4-8.8-5.6-3.4-1.6-15.4-5.2-26.5-8-11.1-2.8-23.6-6.2-27.7-7.5-4.2-1.4-12.6-4.9-18.8-7.9-9.6-4.6-12.4-6.6-19.1-13.2-5.1-5-8.7-9.7-10.4-13.3-1.5-3-3.3-8.4-4.2-12-0.8-3.5-1.5-10.3-1.5-15-0.1-5.1 0.7-11.4 1.8-16 1.1-4.1 3.4-10.4 5.2-14 2.1-4.1 5.8-9 10.3-13.5 5.6-5.6 9.3-8.2 16.7-11.8 5.4-2.7 13.7-5.7 19.5-7.2 5.5-1.3 14.7-2.8 20.5-3.3 5.7-0.5 11.4-0.9 12.5-1zm323 3.8c17.3 0 31.6 0.4 31.9 0.8 0.2 0.4 7.4 24.8 16 54.2 8.6 29.5 17.5 60.8 19.6 69.5 2.2 8.8 4.2 16.3 4.5 16.5 0.2 0.3 0.6 0.3 0.8 0 0.1-0.2 2.2-8.1 4.5-17.5 2.3-9.3 11.1-40.8 34.7-123l31-0.2c17-0.1 31.2 0.1 31.6 0.5 0.3 0.4-11.7 38.8-26.6 85.2-15 46.5-30.5 94.6-41.5 129l-70.4-0.5-34.2-106.5c-18.8-58.5-34-106.8-33.7-107.2 0.2-0.4 14.5-0.8 31.8-0.8zm-21-233.9c11.2 0 17.3 0.4 24.5 1.8 5.2 1.1 13.3 3.4 18 5.3 4.6 1.8 11.8 5.5 16 8.3 4.1 2.7 10.6 8.2 14.5 12.1 3.8 3.9 9.1 10.7 11.7 15 2.6 4.4 6.1 11.8 7.7 16.4 1.6 4.7 3.6 12 6.1 24h-31.5c-27.2 0-31.6-0.2-32-1.5-0.3-0.8-0.5-2.1-0.5-3 0-0.8-1.2-3.8-2.5-6.7-1.4-2.9-4.3-7.2-6.5-9.5-2.2-2.3-6.3-5.4-9-6.8-2.8-1.3-8.1-3-11.8-3.6-5.8-1-7.9-0.9-14.7 0.7-5.6 1.2-9.6 2.9-13.2 5.4-2.8 1.9-6.5 5.1-8.1 7-1.7 2-4.5 6.5-6.1 10-1.7 3.6-3.9 9.5-4.9 13-1.3 5.1-1.7 10.3-1.7 23 0 12.8 0.4 18 1.8 23 1 3.6 3.4 9.9 5.5 14 2.5 5.1 5.5 9.1 9.7 13 3.8 3.6 8.1 6.5 12 8 4.8 2 7.7 2.4 15.5 2.4 7.9 0 10.3-0.4 15-2.5 3-1.4 7.2-4 9.4-5.9 2.1-1.9 4.8-5 6-7 1.2-1.9 2.9-5.5 3.8-8 0.9-2.4 1.9-5.7 2.8-10h63l-0.7 5.3c-0.3 2.9-1.7 9.1-3.1 13.7-1.3 4.7-4.4 12.4-6.8 17-2.4 4.7-7 11.7-10.2 15.5-3.2 3.9-9 9.7-12.8 12.9-3.9 3.3-10.9 7.7-15.9 10.2-5 2.3-12.4 5.2-16.5 6.3-4.2 1.1-11.6 2.5-16.5 3.2-5.4 0.7-14.4 1-22 0.7-7.2-0.3-16.6-1.3-21-2.2-4.4-1-11.9-3.1-16.6-4.9-4.7-1.7-12.3-5.4-16.9-8.2-5.1-3-11.8-8.3-17.1-13.5-4.7-4.6-10.6-11.4-13-15-2.4-3.5-6.3-10.5-8.6-15.5-2.4-4.9-5.4-13.2-6.7-18.5-1.4-5.2-3-13.8-3.6-19.2-0.6-5.4-1-12.8-1-16.5 0-3.7 0.7-11.5 1.5-17.3 0.9-5.7 2.8-14.1 4.1-18.5 1.4-4.3 4.7-12.2 7.4-17.5 2.7-5.2 7.9-13.3 11.7-17.9 3.7-4.7 9.7-11 13.4-14 3.6-3.1 10.1-7.6 14.5-10 4.3-2.5 11.7-6 16.4-7.7 4.6-1.8 12.1-3.9 16.5-4.7 4.4-0.8 14.7-1.5 23-1.6zm-364.5 2.9c28.6 0 31 0.2 31.4 1.8 0.2 1 4.3 19.7 8.9 41.7 4.6 22 9.8 47.9 11.5 57.5 1.7 9.7 3.5 20.9 4.1 25 0.7 4.2 1.3 7.3 1.5 7 0.2-0.2 3.6-16.2 7.5-35.5 3.9-19.2 10.1-48.9 20.6-97l28.2-0.2c26.2-0.2 28.3-0.1 28.7 1.5 0.3 1 4.7 21.5 10 45.7 5.2 24.2 11.1 53 13.1 64 2 11 3.8 20.3 4 20.5 0.2 0.3 0.6-0.1 0.9-1 0.2-0.8 1.4-7.5 2.6-15 1.2-7.4 4.1-23.3 6.6-35.5 2.4-12.1 7.2-35 16.9-80l31.5-0.2c29.6-0.3 31.6-0.2 31.7 1.5 0.1 1-12.3 49.2-55.3 212.7l-63.4 0.5-0.6-2.2c-0.2-1.2-5.4-25.6-11.4-54.3-6-28.6-11.7-56.8-12.7-62.7-1-5.9-2.1-10.8-2.3-10.8-0.3 0-1.7 6.4-3.2 14.3-1.4 7.8-7.3 37.1-23.3 115.8h-64l-27.3-106.3c-15-58.4-27.2-106.8-27.2-107.5 0-1 6.8-1.3 31-1.3zm236.9 231l63.3 0.5 34.9 94c19.1 51.8 37.1 100 44.9 120.5h-67l-10-31-73.4 0.5-10.1 30.6-62.5-0.1 2.5-6.7c1.5-3.7 18.8-50.6 38.6-104.3 19.8-53.6 36.6-98.9 37.4-100.7zm16.1 113.3l-9 26.7c34.1 0 44-0.3 44-0.7 0-0.4-3.6-11.8-7.9-25.3-4.4-13.5-8.9-28.1-10.1-32.5-1.2-4.4-2.6-8.4-3.1-9-0.5-0.6-1.7 2.1-2.9 6.5-1.1 4.1-6.1 19.6-11 34.3z"/>
</svg>