<svg version="1.2" xmlns="http://www.w3.org/2000/svg" viewBox="0 0 466 466" width="466" height="466">
	<title>guitar-svgrepo-com-svg</title>
	<style>
		.s0 { fill: #f7893b } 
	</style>
	<g id="Layer">
		<path id="Layer" class="s0" d="m85.3 308.8c-3-2.9-7.7-2.9-10.6 0-3 2.9-3 7.7 0 10.6l71 71c1.4 1.5 3.3 2.2 5.3 2.2 1.9 0 3.8-0.7 5.3-2.2 2.9-2.9 2.9-7.7 0-10.6z"/>
		<path id="Layer" fill-rule="evenodd" class="s0" d="m462.4 57l-2.9 2.9 1.8 1.8c2.9 2.9 2.9 7.7 0 10.6-1.5 1.5-3.4 2.2-5.3 2.2-1.9 0-3.8-0.7-5.3-2.2l-1.8-1.8-8 8 1.8 1.8c2.9 2.9 2.9 7.7 0 10.6-1.4 1.4-3.4 2.2-5.3 2.2-1.9 0-3.8-0.8-5.3-2.2l-1.8-1.8-7.9 8 1.7 1.8c3 2.9 3 7.6 0 10.6-1.4 1.4-3.4 2.2-5.3 2.2-1.9 0-3.8-0.8-5.3-2.2l-3.2-3.3-22.5 11.3-77.7 80.7c12.7 16.6 31.3 49.2 13.1 83.3-12.2 22.7-27.6 28.7-41.2 34.1-10.9 4.2-20.2 7.9-28.7 19.4-4 5.3-6 15.1-8.2 26.6-5.7 28.5-13.5 67.5-60.9 93.2-13.6 7.3-27 10.3-39.9 10.3-41 0-76.5-30.1-92.4-46l-5.9-5.9c-20.9-21-66.3-75.8-35.7-132.3 25.7-47.4 64.7-55.2 93.2-60.9 11.4-2.3 21.3-4.2 26.6-8.2 11.5-8.5 15.2-17.9 19.4-28.7 5.4-13.6 11.4-29.1 34.1-41.2 34-18.2 66.7 0.3 83.3 13.1l80.7-77.8 11.2-22.4-3.2-3.3c-2.9-2.9-2.9-7.6 0-10.6 2.9-2.9 7.7-2.9 10.6 0l1.8 1.8 8-8-1.8-1.7c-2.9-3-2.9-7.7 0-10.6 2.9-3 7.7-3 10.6 0l1.8 1.7 7.9-8-1.7-1.7c-3-3-3-7.7 0-10.6 2.9-3 7.7-3 10.6 0l1.8 1.7 2.8-2.9c1-0.9 2.3-1.6 3.6-2 0.9-0.2 21.4-4.7 39.5 13.4 18 18 13.5 38.6 13.3 39.4-0.3 1.4-1 2.6-2 3.6zm-162.9 152.2l-46.7 48.6q0 1.1 0 2.2c0 12.8-5 24.7-14 33.7-8.9 9-20.9 14-33.7 14-12.7 0-24.7-5-33.7-14-9-9-14-21-14-33.7 0-12.8 5-24.8 14-33.8 9-9 21-13.9 33.8-13.9q1 0 2.1 0l48.6-46.8c-14.2-10.5-39.8-24-65.2-10.4-17.9 9.6-22.2 20.6-27.2 33.5-4.5 11.3-9.5 24.2-24.4 35.3-8.1 5.9-19.5 8.2-32.6 10.8-27.1 5.4-60.7 12.1-83 53.4-25.8 47.6 14.5 95.9 33.1 114.5l5.9 5.9c18.6 18.5 66.8 58.9 114.5 33.1 41.3-22.3 48-56 53.4-83 2.6-13.2 4.8-24.5 10.8-32.6 11.1-14.9 24-20 35.3-24.4 12.8-5 23.9-9.4 33.4-27.2 13.7-25.5 0.2-51-10.4-65.2zm-90.4 18.3q-2-0.2-3.9-0.2c-8.8 0-17 3.4-23.2 9.5-6.2 6.2-9.6 14.4-9.6 23.2 0 8.7 3.4 16.9 9.6 23.1 6.2 6.2 14.4 9.5 23.1 9.5 8.8 0 17-3.3 23.1-9.5 6.2-6.2 9.6-14.4 9.6-23.1q0-2-0.2-4 0-0.1-0.1-0.2c-0.9-7.2-4.1-13.8-9.2-19-5.2-5.2-11.8-8.4-19-9.3q-0.1 0-0.2 0zm163.7-116.1l-19.2-19.1-128.9 124.1c5.2 2.3 10 5.6 14.2 9.8 4.1 4.1 7.4 9 9.8 14.2zm67.6-86.9c-9.4-9.4-19.5-9.8-23.6-9.5l-42.7 42.7-11.3 22.5 21.9 22 22.6-11.3 17.7-17.7q0 0 0 0 0 0 0-0.1l18.6-18.5q0 0 0 0 0 0 0 0l6.4-6.4c0.3-4.1-0.1-14.2-9.6-23.7z"/>
	</g>
</svg>