<svg version="1.2" xmlns="http://www.w3.org/2000/svg" viewBox="0 0 1024 1024" width="1024" height="1024">
	<title>3673dcf5-01e4-43d2-ac71-ed04a7b56b34</title>
	<style>
		.s0 { fill: #f7893b } 
		.s1 { fill: #db7e3c } 
		.s2 { fill: #b97240 } 
		.s3 { opacity: .5;fill: #bfbfbf } 
		.s4 { opacity: .3;fill: #c4c5c4 } 
		.s5 { opacity: .2;fill: #c9caca } 
		.s6 { opacity: .1;fill: #cecfce } 
	</style>
	<g id="Layer 1">
		<path id="Path 0" class="s0" d="m322.2 210.8c-0.6 2-3 6.6-5.4 10.1-2.4 3.6-6.5 8.3-9.3 10.4-2.7 2.2-7.6 5.2-10.7 6.8-3.2 1.6-5.8 3.3-5.8 3.9 0 0.6 0.7 1 1.5 1 0.8 0 4.3 1.4 7.8 3.2 3.4 1.7 8.5 5.4 11.3 8.2 3.2 3.3 6.4 7.9 8.7 12.8 2 4.3 4 7.8 4.5 7.8 0.4 0 1.2-1.7 1.9-3.7 0.7-2.1 2.9-6.5 5.1-9.8 2.1-3.3 5.8-7.7 8.3-9.7 2.4-2 7.4-5 11.2-6.7 3.7-1.7 6.7-3.4 6.7-3.9 0-0.4-3.3-2.2-7.3-4.1-4.6-2.2-9.2-5.4-12.8-9-3.5-3.4-6.9-8.1-8.8-12.1-1.7-3.6-3.1-7.1-3.1-7.8 0-0.6-0.6-1.2-1.4-1.2-0.7 0-1.8 1.7-2.4 3.7zm452.9 76c-1 2.1-3.9 5.8-6.3 8.3-2.5 2.5-7.8 6.1-11.7 8-3.9 1.9-7.1 3.7-7.1 4 0 0.3 2.6 1.6 5.7 3 3.2 1.3 7.9 4.2 10.6 6.2 2.6 2.1 5.9 6 7.5 8.8 2.3 4.3 3.1 5 5.7 5 2.5 0 3.4-0.7 5.5-4.6 1.4-2.6 4.4-6.4 6.8-8.5 2.3-2.2 6.5-5 9.2-6.4 2.8-1.4 5.2-3 5.5-3.5 0.3-0.6-2.1-2.2-5.2-3.7-3.2-1.5-8.1-5-10.9-7.8-2.8-2.7-5.7-6.7-6.5-8.8-1.1-3.1-1.9-3.7-4.1-3.7-2.2 0-3.2 0.8-4.7 3.7zm-559.3 473.1c-0.9 2.6-3.3 6.4-5.2 8.4-2 2.1-6.1 5.3-9.2 7-3.1 1.8-5.8 3.6-6 4-0.2 0.5 0.4 1.1 1.3 1.4 1 0.3 3.3 1.2 5 2 1.8 0.8 4.9 2.9 6.9 4.6 2 1.9 5.1 6.4 6.9 10.3l3.2 7c4.4-9.3 7.5-13.8 9.8-16 2.2-2.1 6.4-4.9 9.2-6.2 2.9-1.3 5.5-2.6 5.7-3.1 0.3-0.4-1.6-1.5-4.2-2.4-2.6-1-6.7-3.5-9.2-5.6-2.5-2.1-6-6.7-7.8-10-1.7-3.4-3.6-6.2-4-6.2-0.5 0-1.6 2.1-2.4 4.7zm54.3 55c-1.5 3.2-5.1 8.3-7.8 11.3-3.4 3.8-7.5 6.8-13.1 9.7-4.5 2.4-8.2 4.8-8.2 5.3 0 0.5 0.6 1 1.2 1 0.7 0 4.2 1.5 7.7 3.3 3.7 1.9 8.5 5.5 11.6 8.7 2.8 3 6.8 8.8 8.8 12.7 2.1 4 3.8 7.3 3.9 7.3 0.2 0 2.1-3.4 4.3-7.6 2.4-4.6 6.2-9.8 9.5-13.1 3-2.9 8.2-6.7 11.5-8.3 3.3-1.6 6.6-3 7.2-3 0.7 0 1.3-0.5 1.3-1 0-0.5-3.4-2.6-7.5-4.5-4.9-2.3-9.3-5.3-12.8-8.8-3-3-6.6-8.1-8.5-12-1.8-3.8-3.8-6.7-4.7-6.7-0.8 0-2.8 2.6-4.4 5.7z"/>
		<path id="Path 1" class="s1" d="m778.1 280.3c-0.7 1.8-0.5 2.2 1.3 2.5 1.1 0.1 2.2 0.1 2.4 0 0.2-0.2 0.1-1.3-0.2-2.6-0.3-1.2-1.1-2.2-1.6-2.2-0.6 0-1.4 1-1.9 2.2zm-1.1 50.8c0 0.6 0.2 1.7 0.5 2.5 0.3 0.8 1.2 1.5 2 1.5 0.8 0 1.5-0.4 1.5-1 0-0.6 0.2-1.7 0.5-2.5 0.4-1.1-0.2-1.5-2-1.5-1.4 0-2.5 0.4-2.5 1z"/>
		<path id="Path 2" fill-rule="evenodd" class="s0" d="m724.1 233c0.5 0 2.2 2.8 3.7 6.3 1.6 3.4 4.4 7.9 6.3 10 1.9 2.2 5.2 4.9 7.4 6.1 2.2 1.3 6.2 3.2 8.8 4.2 2.6 1 4.7 2.1 4.7 2.4 0 0.3-3.3 2.1-7.3 4-4.1 2-9.1 5.4-11.7 8-2.5 2.5-6.1 7.6-8 11.3-1.9 3.7-3.7 6.7-4 6.7-0.3 0.1-1.7-2.5-3.1-5.7-1.5-3.2-4.1-7.6-5.9-9.8-1.8-2.2-4.9-5.2-6.9-6.7-2-1.4-5.9-3.5-8.6-4.6-2.8-1.1-5.1-2.4-5.2-2.8-0.2-0.5 3.4-2.8 8-5.1q8.2-4.1 11.9-8.5c2-2.4 4.8-6.9 6.3-10.1 1.4-3.1 3-5.7 3.6-5.7zm-218.8 18.2c0.4-0.1 0.7 12.5 0.2 56.3l-27.3 0.3c-14.9 0.1-27.2-0.1-27.2-0.5 0-0.5 4-3.3 8.8-6.5 4.8-3.1 11.5-7 21.2-11.8v-6.5c0-4.5-0.4-6.5-1.3-6.5-0.6 0-3.2 0.6-5.7 1.4-2.5 0.7-7.9 3-12 5.1-4.1 2.1-11.1 6.1-15.5 8.9-4.4 2.9-10.8 7.8-20.5 16.6l-11-1v-7c0-6.8-0.1-7-2.3-6.4-1.2 0.3-6.9 2.9-12.7 5.8-5.8 2.9-13.4 7-17 9.2-3.6 2.2-11 7.3-16.5 11.4-5.5 4.1-17.3 14.8-42.5 40h-15.5c-8.5 0-15.5-0.3-15.5-0.7 0-0.5 3.6-4.9 8.1-9.8 4.4-4.9 12.2-13.1 17.3-18 5-4.9 12.5-11.7 16.6-15.1 4.1-3.4 11.5-9 16.5-12.6 4.9-3.6 14.2-9.6 20.5-13.3 6.3-3.8 16.4-9.2 22.5-12.1 6-2.9 16.7-7.3 23.7-9.8 7.1-2.5 17.6-5.9 23.5-7.6 6-1.6 17.5-4.1 25.8-5.6 8.2-1.4 19.9-3 26-3.4 6-0.4 11.4-0.8 11.8-0.8zm17.2 0.5l11.5 0.6c6.3 0.3 16.2 1.3 22 2.2 5.8 0.9 15.9 2.9 22.5 4.6 6.6 1.6 16.5 4.3 22 6.1 5.5 1.7 14.7 5.1 20.5 7.5 5.8 2.4 15.5 7 21.5 10.2 6 3.1 15.6 8.6 21.3 12.2 5.7 3.5 15.8 10.6 22.5 15.8 6.7 5.2 20.1 17.3 29.8 27 9.7 9.7 18.1 18.6 19.9 22.1h-33.5l-14-14.7c-9-9.4-18.1-17.7-25.5-23.2-6.3-4.8-15.8-11.2-21-14.3-5.2-3-12-6.9-15-8.5-3-1.6-7.4-3.7-14-6.3v14l-10.5 1.3-8.5-7.2c-4.7-4-11.4-9.2-15-11.6-3.6-2.4-10.3-6.2-15-8.4-4.7-2.2-10.4-4.4-17-6.1v13l6.2 3.4c3.5 1.8 10.2 5.8 15 9 4.9 3.1 8.8 6 8.8 6.6 0 0.6-9.5 0.9-54 0.5zm-254.3 10.4c0.5 0.2 1.9 2.8 3.1 5.9 1.3 3 3.7 7.6 5.5 10.2 1.7 2.6 5.5 6.5 8.4 8.6 2.9 2.1 7.9 5 11 6.3 3.2 1.3 5.8 2.6 5.8 2.9 0 0.2-2.4 1.5-5.3 2.7-2.9 1.3-7.4 3.9-10 5.8-2.6 1.9-6.5 5.8-8.7 8.7-2.2 2.9-5.1 8-6.4 11.3-1.4 3.3-2.9 6.1-3.3 6.2-0.5 0.1-2.1-2.8-3.6-6.5-1.5-3.7-4.3-8.9-6.3-11.5-1.9-2.6-5.6-6.3-8.2-8.2-2.6-1.9-6.8-4.2-9.2-5.2-2.5-0.9-5-2-5.5-2.4-0.6-0.4 2.3-2.5 6.4-4.6 4.1-2.1 9.9-6.1 12.9-8.8 3.5-3.3 6.5-7.4 8.8-12 1.9-3.9 3.5-7.6 3.5-8.4 0.1-0.7 0.5-1.1 1.1-1zm129 56.9c0.4 0 0.8 0.8 0.7 1.7 0 1.3 1.1 2 3.8 2.5 2.1 0.4 5.4 0.8 10.9 0.8l-14.1 14.2c-7.7 7.9-15.1 15.8-18.7 21.3l-13.7-0.4c-10.4-0.2-14-0.7-15.1-1.8-1.4-1.3-0.5-2.5 8-10.5 5.2-4.9 11.7-10.7 14.5-12.8 2.7-2.1 9-6.4 13.9-9.4 4.9-3.1 9.3-5.6 9.8-5.6zm234.7 1.5c0.9 0.3 3.9 2 6.9 3.8 2.9 1.7 7.8 5.1 11 7.4 3.1 2.4 11 8.9 17.5 14.5 6.5 5.7 12.3 11.1 12.8 12 0.8 1.7-0.2 1.8-31.6 1.9l-7.2-8.8c-3.9-4.9-11.4-13-26.3-27.3h7c6.1 0 7-0.3 7.7-2.1 0.4-1.3 1.2-1.8 2.2-1.4zm-194.7 3l13.6 0.3c7.5 0.2 13.8 0.5 13.9 0.8 0.1 0.2-0.6 1.6-1.6 3.1-1.1 1.5-4.4 7.7-7.4 13.8-3 6-6 12.7-7.7 18.5h-48l1.9-2.8c1.1-1.5 7-7.8 13.2-13.9 6.3-6.1 13.8-13.1 16.7-15.5zm46.2 0.4l22.1 0.6v35l-20.2 0.3c-11.2 0.1-20.3 0-20.3-0.3 0-0.3 2.4-5.6 5.4-11.7 3-6.2 7.2-14.1 9.2-17.6zm60.7 0.1l2.6 3.2c1.4 1.8 5.7 9.7 9.5 17.5 3.8 7.9 6.9 14.5 6.9 14.8 0 0.3-9.1 0.4-40.1 0l-0.3-17.3c-0.1-10.9 0.2-17.5 0.8-17.7 0.6-0.2 5.4-0.4 20.6-0.5zm48.5 0l13.5 12.3c7.4 6.8 15.6 15 18.2 18.3 2.6 3.2 4.7 5.9 4.5 5.9-0.1 0-11.2-0.1-48.7-0.5l-2.2-5.8c-1.2-3.1-4-9.3-6.2-13.7-2.1-4.4-5-9.7-6.3-11.8-1.3-2-2.3-3.9-2.3-4.2 0-0.3 6.6-0.5 29.5-0.5zm-280.4 53.2c0.3-0.1 0.4 0.5 0.2 1.3-0.2 0.8-2.6 4.5-5.2 8.2-2.7 3.7-7.9 12.2-11.5 18.8-3.7 6.6-8.4 16.3-10.6 21.5-2.2 5.2-4.4 10.7-6 15h-15.5c-8.6 0-15.6-0.4-15.6-0.8 0-0.4 1.8-5.2 4-10.7 2.1-5.5 5.4-13.4 7.4-17.5 1.9-4.1 5.6-11.1 8.2-15.5 2.6-4.4 6.5-10.6 12.5-19.5l15.7-0.3c8.7-0.1 16-0.4 16.4-0.5zm55.1 0c0.4-0.1 0.8 0.2 0.8 0.8 0 0.5-1.8 3.3-4 6.2-2.1 2.9-6.1 8.9-8.8 13.3-2.7 4.4-7.2 12.5-10 18-2.7 5.5-6.5 13.7-11.7 26.4h-18.8c-10.3 0.1-18.7-0.1-18.7-0.4 0-0.3 0.4-1.3 0.9-2.3 0.6-0.9 2.2-4.6 3.6-8.2 1.5-3.6 4.7-10.3 7.2-15 2.5-4.7 6.4-11.4 8.6-15 2.3-3.6 6.7-10.2 15.7-23l17.2-0.3c9.5-0.1 17.6-0.4 18-0.5zm137.5 0c1-0.2 1.2 6.5 0.8 64.3l-62.5 0.5 0.6-4.3c0.3-2.3 1.6-9.6 2.9-16.2 1.3-6.6 3.7-17.4 5.5-24 1.7-6.6 3.8-13.7 6-19.5l22.7-0.3c12.5-0.1 23.3-0.4 24-0.5zm156.9 0.2c0.7 0.3 8.9 0.6 34.9 0.6l6.4 9.7c3.6 5.4 8.3 12.7 10.4 16.3 2.2 3.6 6.4 11.2 9.2 17 2.9 5.8 6.2 12.8 9.5 21h-38.5l-2.9-7.8c-1.6-4.2-5.8-13.6-9.4-20.7-3.6-7.2-9.3-17.3-12.7-22.5-3.3-5.2-6.6-9.9-7.3-10.3-0.7-0.4-1.2-1.4-1.1-2.3 0.1-1 0.7-1.4 1.5-1zm55 0c0.7 0.3 8.4 0.6 32.9 0.6l5.6 9.3c3.1 5 8 13.9 10.9 19.7 2.9 5.8 7.2 15.3 9.6 21.2 2.4 5.9 4.4 11.5 4.4 12.3 0 1.3-2.3 1.4-31.2 1l-4.9-12c-2.8-6.6-7.5-16.7-10.6-22.5-3-5.8-8.4-14.7-11.9-19.8-3.6-5.1-6.4-9.5-6.3-9.8 0.1-0.4 0.8-0.4 1.5 0zm-329.3 0.6l54.2 0.1-4.3 13.7c-2.4 7.5-5.6 20.4-7.2 28.7-1.6 8.2-3.1 16.3-3.5 21l-15.8 0.2c-14.6 0.3-15.7 0.2-15.3-1.5 0.2-0.9 1.2-4.4 2.1-7.7 0.9-3.3 3.2-9.1 5.1-12.8 1.8-3.7 3.4-7.2 3.4-7.7 0-0.6-3-2.4-6.5-4-3.6-1.7-6.8-3-7-3-0.3 0-2.5 3.7-5 8.2-2.4 4.6-5.3 10.8-6.4 13.8-1.1 3-2.5 7.6-4.1 15h-13c-7.2 0-13.1-0.1-13.1-0.3 0-0.1 1.9-4.7 4.3-10.2 2.4-5.5 6.5-14.1 9.2-19 2.7-5 7.4-12.6 10.4-17 2.9-4.4 7-10.2 8.9-12.8zm135.2 0h47.5l2.5 8.3c1.3 4.5 3.8 13.4 5.4 19.7 1.7 6.4 3.9 16.3 5.1 22 1.1 5.8 2 11.3 2 12.3 0 1.6-2.1 1.7-62 1.2zm118 0l5.5 7.5c3 4.1 7.9 11.4 10.8 16.3 2.9 4.8 8.2 14.6 11.7 21.7 3.5 7.2 6.6 14.3 7.5 18.5h-74l-0.5-2.2c-0.2-1.3-0.9-5.4-1.6-9.3-0.6-3.8-2.7-13.3-4.5-21-1.9-7.7-4.5-17.1-5.8-21-1.3-3.8-2.8-7.8-3.2-8.7-0.7-1.7 0.9-1.8 54.1-1.8zm-368.3 81.3c0.4-0.2 0.9 0.1 1.1 0.6 0.1 0.4-0.6 3.7-1.6 7.2-1 3.5-3.1 13-4.7 20.9-1.7 8-3.6 21.4-5.5 44.9l-30.8 0.6 0.6-12.7c0.4-7 1.1-16.3 1.7-20.5 0.6-4.3 2.4-14.1 4.1-21.8 1.7-7.7 3.5-15 4-16.2 0.8-2.2 1.4-2.3 15.6-2.5 8.1-0.2 15.1-0.4 15.5-0.5zm169.5 0.2c0.7 0.3 15.4 0.5 64.3 0.5v73h-34c-18.7 0-34.4-0.1-34.8-0.2-0.4-0.2-0.7-9.5-0.6-20.8 0-11.2 0.6-26.5 1.3-34 0.6-7.4 1.4-14.7 1.8-16.3 0.4-1.8 1.1-2.6 2-2.2zm117.3 0.3c16.2 0.2 29.5 0.4 29.6 0.5 0.1 0.1 0.9 7.4 1.7 16.2 0.9 8.8 1.9 25.3 3 57l-69.8-0.3-0.5-34.3c-0.3-18.9-0.3-35.4 0-36.6 0.3-1.5 1.3-2.2 3.5-2.5 1.6-0.1 16.2-0.1 32.5 0zm123.5 0.2l0.8 2.3c0.4 1.2 2.1 7.6 3.7 14.2 1.6 6.6 3.6 16.5 4.4 22 0.8 5.5 1.8 15.5 3.1 34.5h-85.5v-17.7c0-11.3-0.8-24.2-2-35.3-1.1-9.6-2-18.1-2-19 0-1.3 4.8-1.4 77.5-1zm19.9-0.6c1.7 0.4 10.2 0.7 34.6 0.6l2.5 7.8c1.3 4.2 3.6 13.4 4.9 20.2 1.3 6.9 2.9 16.9 3.5 22.3 0.6 5.3 1.1 12.7 1.1 22.7h-38l-0.5-5.2c-0.2-2.9-0.9-10.7-1.5-17.3-0.6-6.6-2-16.7-3.1-22.5-1.1-5.7-3.1-14.1-4.5-18.5-1.3-4.4-2.3-8.6-2.3-9.3 0.1-1 1-1.2 3.3-0.8zm84.1 0.5l3.1 13.3c1.7 7.3 3.8 19.4 4.7 26.8 0.9 7.5 1.8 17.9 2.7 33l-15.3 0.3c-9.3 0.1-15.5-0.2-16-0.8-0.4-0.5-0.7-4.8-0.7-9.5 0-4.6-0.9-14-2-20.7-1.1-6.8-2.9-16.2-4-21-1.1-4.8-2.9-11.5-3.9-14.8-1.1-3.3-1.8-6.2-1.6-6.5 0.1-0.2 7.6-0.4 33-0.1zm-496.2 0.1h18.8c10.4 0 18.9 0.1 18.9 0.3 0 0.1-1.6 6.5-3.6 14.2-1.9 7.7-4.4 20.9-5.5 29.3-1.1 8.4-1.9 18.4-1.9 29.2h-18.5c-10.2 0-18.9-0.1-19.3-0.2-0.4-0.2-0.6-3.9-0.5-8.3 0.2-4.4 0.8-12 1.3-17 0.6-4.9 1.7-12.3 2.6-16.5 0.8-4.1 2.4-11.3 3.5-16 1.1-4.6 2.5-9.9 3.1-11.7zm55 0h39.3c37 0 39.4 0.1 38.9 1.7-0.2 1-0.9 5.4-1.4 9.8-0.6 4.4-1.5 14.8-2.1 23.2-0.5 8.4-1 20.5-1 38.3h-41c-22.6 0-41.7 0.2-42.5 0.5-1.3 0.4-1.5-1-1.5-9.3 0-5.3 0.6-15.1 1.4-21.7 0.8-6.6 1.9-14.3 2.5-17 0.6-2.8 2.5-9.6 4.2-15.3zm27 17.8c-2.8 3.4-7 7.7-9.4 9.5-2.4 1.8-6.9 4.3-9.9 5.7l-5.4 2.4c11.4 5.8 16.4 9.5 20.5 13.6 3.5 3.6 7.6 8.8 9 11.5l2.6 5c3.4-7.3 7.2-12.5 10.7-16.2 4.2-4.4 8.8-8 13.3-10.4 6.5-3.5 6.7-3.8 4.4-4.7-1.4-0.5-4.1-1.6-6-2.4-2-0.8-6.2-3.9-9.5-7-3.8-3.4-7.2-7.8-9.2-11.6-1.7-3.4-3.6-6.2-4.1-6.2-0.6 0-1.3 1-1.6 2.3-0.3 1.2-2.7 5-5.4 8.5zm-141.6 73.2h32.4v6c0 3.3 0.4 9.5 1 13.8 0.6 4.2 2 12.7 3.1 18.7 1.1 6.1 3.1 14.6 4.3 19 1.3 4.4 2.9 9.5 4.6 14.5l-32.3-0.5-2.4-7.5c-1.3-4.1-3.3-12-4.4-17.5-1.2-5.5-2.7-14.2-3.5-19.5-0.8-5.2-1.8-13.4-2.1-18.2zm48 0h38.3l0.6 5.7c0.3 3.2 1.2 10.7 2 16.8 0.9 6 2.6 15.7 3.9 21.5 1.3 5.8 3.5 13.9 5 18 1.4 4.1 2.5 8 2.5 8.7 0 1-4.5 1.3-38.5 1.3l-2.7-8.2c-1.5-4.6-3.4-11-4.2-14.3-0.8-3.3-2.4-11.2-3.6-17.5-1.1-6.3-2.3-16.1-2.7-21.8zm55.4 0l42.7 0.3c27.8 0.1 42.7 0.6 42.6 1.2-0.1 0.6 0.2 9.4 0.7 19.5 0.5 10.2 1.6 24.2 2.4 31 0.9 6.9 1.9 14.2 3 20.1l-77.9-0.6-3.2-10c-1.7-5.5-4.1-14.7-5.3-20.5-1.2-5.7-2.8-15-3.6-20.5-0.8-5.5-1.4-12.3-1.4-15.2zm102 0h70v23.2c-0.1 12.8-0.4 29-1.5 48.8h-63l-1.8-12.7c-1-7.1-2.2-19.3-2.7-27.3-0.6-8-1-18.4-1-23.3zm87 0h70v5.8c0 3.2-0.5 12-1.1 19.7-0.5 7.7-1.6 20.3-2.5 28-0.8 7.7-1.7 15.1-2.4 18.5h-64zm86.3 0h84.7l-0.6 5.8c-0.3 3.2-1.2 10.5-2 16.2-0.8 5.8-2.6 15.5-4 21.5-1.3 6.1-3.7 14.9-8.1 28l-76.3 0.5 0.5-2.2c0.2-1.2 1.4-9.7 2.5-18.8 1.1-9 2.3-24.2 2.6-33.7zm101 0h38.8l-0.6 7.2c-0.3 4-1 10.9-1.6 15.3-0.5 4.4-1.6 11.4-2.4 15.5-0.9 4.1-3.2 13.5-8.9 34h-19.8c-15.3 0-19.7-0.3-19.4-1.3 0.2-0.6 1.8-5.7 3.4-11.2 1.7-5.5 3.6-12.5 4.2-15.5 0.7-3 2.1-10.7 3.1-17 1.1-6.3 2.3-15 2.6-19.3zm55 0h15.4c8.4 0 15.5 0.4 15.8 0.8 0.2 0.4-0.2 6.1-1 12.7-0.8 6.6-2.5 17.9-3.9 25-1.4 7.2-3.7 16.9-5.1 21.5-1.4 4.7-2.8 9.3-3 10.3-0.4 1.6-2 1.7-16 1.7-11.9 0-15.4-0.2-15.1-1.2 0.2-0.7 1.5-5.3 2.9-10.3 1.4-4.9 3.5-13.7 4.6-19.5 1.1-5.7 2.5-13.2 3.1-16.5 0.6-3.3 1.4-10.1 1.7-15.2zm-482.8 90.1l6 12.7c3.3 7 8.7 17.2 12.1 22.7 3.3 5.5 7.9 12.5 10.2 15.5 2.3 3 4.2 5.8 4.2 6.2 0 0.5-7.2 0.8-32 0.8l-3.1-4.3c-1.7-2.3-5.5-8.1-8.5-13-2.9-4.8-8.7-15.5-12.9-23.7-4.1-8.3-7.5-15.5-7.5-16 0-0.6 5.9-1 31.5-0.9zm36.5-0.1c14.6 0 19 0.3 19 1.2 0 0.7 3.6 8.5 8 17.3 4.3 8.8 11.3 21.2 15.5 27.5 4.2 6.3 7.6 11.6 7.6 11.7-0.1 0.2-7.8 0.3-34.6 0.2l-4.6-6.2c-2.6-3.4-7.4-10.5-10.6-15.7-3.3-5.2-9-15.1-12.6-22-3.7-6.9-6.6-12.8-6.7-13.3 0-0.4 8.6-0.7 19-0.7zm35.2 0h73.8l0.6 4.7c0.3 2.7 1.7 9.5 3.1 15.3 1.3 5.8 4.2 16.5 6.4 23.7 2.1 7.3 3.9 13.6 3.9 14 0 0.5-11.9 0.7-53 0.3l-5.4-7.3c-3-3.9-8.4-12.2-12.1-18.2-3.7-6.1-8.3-14.2-10.3-18-2-3.9-4.4-8.7-5.3-10.8zm90.2 0h61.6v58h-47l-3-9.7c-1.7-5.4-4.5-14.9-6.1-21.3-1.7-6.3-3.6-14.9-4.3-19.2zm78.2 0h61.5l-0.5 2.2c-0.3 1.3-1.4 6.6-2.5 11.8-1.2 5.2-3 12.9-4.1 17-1.1 4.1-3.5 11.9-8.4 27h-46zm77.7 0h36.4c20 0 36.4 0.2 36.4 0.5 0 0.3-1.5 3.5-3.3 7.2-1.8 3.8-5.1 9.9-7.2 13.8-2.1 3.8-6.2 10.6-9 15-2.9 4.4-7.6 11-16 21.5h-25.8c-24 0-25.7-0.1-25.1-1.8 0.3-0.9 1.9-6.2 3.5-11.7 1.6-5.5 4.3-15.6 5.8-22.5 1.6-6.9 3.2-14.6 3.6-17.3zm90.1 0h18.9c10.3 0 18.8 0.4 18.8 0.8 0 0.4-2.6 5.5-5.6 11.2-3.1 5.8-8.1 14.4-11.1 19-3.1 4.7-8.5 12.7-18.8 26.9l-34.5 0.1 5.9-8.7c3.2-4.8 8.1-12.6 10.7-17.3 2.7-4.6 7.3-13.8 10.3-20.2zm55.2 0h15.2c8.4 0 15.3 0.3 15.3 0.7 0 0.4-3 6.9-6.6 14.3-3.6 7.4-9 17.5-11.9 22.5-3 4.9-7.3 11.6-14 20.5l-10.5 0.5c-5.8 0.3-12.9 0.3-21-0.5l9.2-13.8c5.1-7.6 12.6-20.6 16.8-29zm-362.5 76l3.9 5.2c2.2 2.9 9 10.2 15 16.3 6.1 6 11.1 11.2 11.1 11.5 0 0.3-4.2 0.5-18.7 0.5l-12.9-8.6c-7.1-4.7-17-12.1-22.1-16.5-5-4.4-9-8.1-8.8-8.4 0.1-0.3 7.5-0.4 32.5 0zm-54.5 0.1l11.5 11.2c6.3 6.2 15.8 14.5 21 18.4 5.2 3.9 13.5 9.7 18.5 12.8 4.9 3.1 14.8 8.6 35 18.6l0.5-12.1h6.5c6.3 0 6.6 0.1 11.7 4.6 2.9 2.6 7.5 6.1 10.3 7.9 2.7 1.8 9 5.3 14 7.7 4.9 2.5 11.8 5.5 15.2 6.7 3.5 1.1 6.7 2.1 7.3 2.1 0.5 0 1-2.9 0.9-13.5l-9.5-5c-7.1-3.8-9.4-5.5-9.4-7 0-1.9 0.9-2.1 13.7-2.8 7.6-0.4 17.5-0.7 30.3-0.7v52h-4.3c-2.3 0-10.3-0.7-17.7-1.6-7.4-0.8-20-2.8-28-4.4-8-1.6-19.5-4.4-25.5-6.3-6.1-1.9-15.3-5.1-20.5-7.2-5.2-2.1-15.1-6.6-22-10-6.9-3.4-17-9-22.5-12.5-5.5-3.5-12.3-7.9-15-9.9-2.8-1.9-8.4-6.2-12.5-9.5-4.1-3.3-14.8-13.2-23.8-22-8.9-8.9-16.2-16.4-16.2-16.9 0-0.4 6.8-0.7 30.5-0.6zm74-0.1h23.7c18.3 0 23.8 0.3 23.8 1.2 0 0.7 3.2 7.8 7.2 15.8 4 8 7.4 14.8 7.5 15.2 0.2 0.5-6 0.8-27.7 0.8l-6.8-5.9c-3.7-3.3-11.4-10.7-17.2-16.5zm63.6 0h39.7l-0.3 32.5-21.5 0.5-2.7-4.3c-1.5-2.3-4.5-7.6-6.7-11.7-2.3-4.1-5.1-9.6-6.3-12.3zm55.6 0h20.1c11.1 0 20 0.4 19.9 0.8-0.1 0.4-1.8 3.7-3.6 7.2-1.8 3.6-5.9 10.7-14.6 25.1l-20.5-0.1v-14.2c-0.1-7.8-0.3-15.3-0.7-16.5zm57.3 0h23c12.6 0 23 0.3 23 0.7-0.1 0.5-4.7 5.3-10.3 10.8-5.6 5.5-13.3 12.6-24.2 21.5h-14.2c-7.9 0-14.3-0.2-14.3-0.5 0-0.3 1.9-3.5 4.2-7.3 2.3-3.7 6.1-10.9 8.4-16zm66.5 0h15.3c8.4 0 15.2 0.4 15 0.9-0.1 0.5-3.8 4-8.2 7.8-4.4 3.8-10.7 8.9-14 11.3-3.3 2.5-9.4 6.4-13.5 8.8-7.3 4.2-7.7 4.3-26 4.2l11.2-10.8c6.2-6 13.3-13.5 15.8-16.5zm53 0.3l15.8-0.2c8.6-0.1 15.7 0.1 15.7 0.4 0 0.2-5.5 6.1-12.2 13.1-6.8 6.9-16.5 16.2-21.8 20.6-5.2 4.4-13.7 11-19 14.7-5.2 3.7-14.2 9.6-20 13.1-5.7 3.5-16.3 9.1-23.5 12.5-7.1 3.4-15.9 7.4-19.5 8.8-3.5 1.4-12.1 4.1-19 6.1-6.8 2-17.9 4.7-24.5 6-6.6 1.4-17.5 3.1-24.2 4-6.8 0.9-14.7 1.6-23.3 1.6l-0.2-25.6c-0.2-14.1-0.1-25.8 0.2-26 0.2-0.3 12.1-0.4 26.5-0.4 23.3 0 25.8 0.2 24 1.5-1.1 0.8-7.5 4.3-26.4 14l-0.1 14.5 7-2.5c3.9-1.4 11.2-4.6 16.3-7.2 5.1-2.5 11.7-6.3 14.7-8.4 3.1-2.1 7.8-5.6 10.5-7.9 4.7-3.7 5.5-4 17.5-4v6c0 3.3 0.3 6 0.5 6 0.3 0 2.9-1.1 5.8-2.4 2.9-1.3 9.1-4.5 13.7-7.1 4.7-2.7 13-7.8 18.5-11.4 5.5-3.6 13.6-9.2 18-12.6 4.4-3.3 12.8-10.8 18.5-16.6z"/>
		<path id="Path 3" class="s2" d="m347.4 358l-1.9 2.1c31-0.5 31-0.5 19-0.9-8.8-0.2-12.4-0.7-13.6-1.8-1.4-1.2-1.8-1.2-3.5 0.6zm107.6 408.8c0 0.4 1.2 1.4 2.7 2.2 1.5 0.8 3.1 1.6 3.6 1.7 0.4 0.2 0.7-0.6 0.7-1.7 0-1.8 0.8-2 9.3-2.3 7.9-0.2 7.4-0.3-3.5-0.5-7.1-0.1-12.8 0.1-12.8 0.5z"/>
		<path id="Path 4" class="s3" d="m505.3 614c0 4.7 0.2 6.5 0.4 4 0.2-2.5 0.2-6.3 0-8.5-0.2-2.2-0.4-0.2-0.4 4.5z"/>
		<path id="Path 5" class="s4" d="m296.5 459.7c3.3 0.2 8.3 0.2 11 0 2.8-0.2 0.1-0.3-6-0.3-6.1 0-8.3 0.1-5 0.3zm466.5 0c4.1 0.2 10.6 0.2 14.5 0 3.9-0.1 0.5-0.3-7.5-0.3-8 0-11.1 0.2-7 0.3z"/>
		<path id="Path 6" class="s5" d="m248 459.7c3.6 0.2 9.6 0.2 13.5 0 3.9-0.2 0.9-0.3-6.5-0.3-7.4 0-10.6 0.1-7 0.3zm102 0c2.5 0.2 6.1 0.2 8 0 1.9-0.2-0.1-0.4-4.5-0.4-4.4 0-6 0.2-3.5 0.4zm40.5 0c6.1 0.2 15.5 0.2 21 0 5.5-0.1 0.6-0.3-11-0.3-11.6 0-16.1 0.2-10 0.3zm102 0c2.8 0.2 6.8 0.2 9 0 2.2-0.2-0.1-0.3-5-0.3-4.9 0-6.8 0.1-4 0.3z"/>
		<path id="Path 7" class="s6" d="m719.5 377.7c1.6 0.2 4.8 0.2 7 0 2.2-0.2 0.9-0.4-3-0.4-3.9 0-5.6 0.2-4 0.4zm-404 82c2.2 0.2 6 0.2 8.5 0 2.5-0.2 0.7-0.4-4-0.4-4.7 0-6.7 0.2-4.5 0.4zm140 0c2.2 0.2 6 0.2 8.5 0 2.5-0.2 0.7-0.4-4-0.4-4.7 0-6.7 0.2-4.5 0.4z"/>
	</g>
</svg>