<svg version="1.2" xmlns="http://www.w3.org/2000/svg" viewBox="0 0 512 512" width="512" height="512">
	<title>amp</title>
	<style>
		.s0 { fill: #4b8dc2 } 
	</style>
	<path id="Path 0" fill-rule="evenodd" class="s0" d="m203.5 64c40.9 0 45.3 0.2 48.4 1.8 1.9 0.9 4.4 3 5.5 4.5 1.7 2.4 2.1 4.6 2.6 22.7h62.3c52 0 62.9 0.2 66.7 1.4 2.5 0.9 6.8 3.5 9.5 5.9 3.1 2.7 6 6.4 10 15.2l0.5 254.5h3.3c1.7 0 5.7 0.6 8.7 1.3 3 0.7 7.6 2.7 10.3 4.5 2.6 1.8 5.8 4.7 7.1 6.5 1.4 1.7 3.3 5 4.2 7.2 1.3 2.9 2 7.9 2.4 18 0.5 11.5 1 14.7 2.7 18 1.2 2.2 3.2 5 4.5 6.2 1.2 1.2 4 2.9 6.1 3.7 2 0.9 5.7 1.6 8.2 1.6 2.5 0 6.2-0.7 8.3-1.6 2-0.8 4.8-2.5 6.1-3.7 1.3-1.2 3.4-4.4 7.1-12.2v-162.5h-14v-23c0-21 0.2-23.3 2-27 1.1-2.2 3.5-5.1 5.3-6.4 1.7-1.2 4-2.6 5-3 1.5-0.5 1.7-2.3 1.7-18.1 0-17 0.1-17.5 2.3-19 1.3-0.9 3-1.2 4.2-0.8 1.1 0.3 2.3 1.1 2.7 1.7 0.4 0.6 0.8 8.9 0.8 35.6l3.3 1.4c1.7 0.7 4.4 2.6 5.9 4.2 1.5 1.6 3.2 4.1 3.7 5.7 0.7 1.6 1.1 11.8 1.1 48.7h-14l-0.5 168.5-2.6 5c-1.5 2.7-4.6 6.8-7 8.9-2.4 2.2-6.4 4.9-8.9 6-3.3 1.5-6.6 2-12.5 2-5.8 0-9.2-0.5-12.5-2-2.5-1.1-6.5-3.8-9-6.1-2.6-2.3-5.5-6.3-6.9-9.4-2.1-4.6-2.6-7.5-3.1-19.4-0.5-12.8-0.8-14.4-3.3-18.8-1.5-2.6-4.5-5.9-6.9-7.5-3-1.9-5.8-2.8-15.3-3.4l-0.6 14.8c-0.4 11.9-0.9 15.8-2.5 19.4-1.1 2.5-3.6 6.2-5.5 8.3-1.9 2.2-6.1 5.2-9.4 6.8-3.3 1.6-7.2 2.9-8.7 2.9-2.8 0-2.8 0-2.8 14h-28v-14h-295v14h-28v-7c0-6.8-0.1-7-2.5-7-1.4 0-4.9-0.9-7.7-1.9-2.9-1.1-7.2-3.8-9.5-6-2.4-2.3-5.4-6.5-9.3-14.6v-295l2.4-5c1.2-2.8 3.6-6.5 5.2-8.3 1.6-1.9 5.6-4.7 14.9-9.2h125.5v-9.8c0-8.2 0.3-10.2 2.1-12.8 1.2-1.6 3.5-3.8 5.2-4.7 2.9-1.5 8.2-1.7 48.2-1.7zm-45.7 14.2c0.1 0.4 20.9 0.8 46.2 0.8 45.7 0 46 0 45-2-1-2-2-2-44.8-2-32.6 0-44.2 0.3-45.2 1.2-0.8 0.7-1.3 1.6-1.2 2zm46.2 14.8c40.2 0 46-0.2 46-1.5 0-1.3-5.8-1.5-46-1.5-40.2 0-46 0.2-46 1.5 0 1.3 5.8 1.5 46 1.5zm-188 16c-2.3 2.3-4.4 5.6-5 7.7-0.6 2.5-1 55.2-1 146.8v143c3.8 7.7 6.4 11 8.2 12.2 1.8 1.3 4.9 2.7 6.8 3.3 2.3 0.7 63 1 180 1h176.5c8.8-4.2 11.4-6.3 13.2-9.2l2.8-4.2c0.5-287.4 0.4-291.7-1.4-295.4-1-2-3-4.7-4.3-5.9-1.2-1.2-4-2.9-6.1-3.7-3.3-1.4-22.7-1.6-181.4-1.5-103.4 0-179.2 0.5-181 1-1.8 0.5-5.1 2.7-7.3 4.9zm469 104.2c-0.6 1.8-1 6.3-1 10v6.8h18c0-15.9-0.3-17.3-2.2-19.5-1.3-1.4-3.7-2.7-5.3-3-1.7-0.3-4.2 0.1-5.7 1-1.6 0.9-3.2 2.9-3.8 4.7zm8 32.8c8.9 0 9 0 9-2.5 0-2.5-0.1-2.5-9-2.5-8.9 0-9 0-9 2.5 0 2.5 0.1 2.5 9 2.5zm-450.5 190c2.4 0 3.5-0.5 3.5-1.5 0-1-1.1-1.5-3.5-1.5-2.4 0-3.5 0.5-3.5 1.5 0 1 1.1 1.5 3.5 1.5zm323 0c2.4 0 3.5-0.5 3.5-1.5 0-1-1.1-1.5-3.5-1.5-2.4 0-3.5 0.5-3.5 1.5 0 1 1.1 1.5 3.5 1.5zm-340.5-321h358v296h-358zm11 53h228v-42h-228zm238 0h98v-42h-98zm-238 232h336v-222h-336zm25.7-268.8c3.2 0.2 6.2 1.1 8 2.4 1.5 1.2 3.7 3.6 4.7 5.5 1.3 2.2 1.9 5.2 1.8 8.4 0 3.3-0.7 5.9-2 7.5-1 1.4-3.4 3.5-5.3 4.8-2.4 1.6-4.8 2.2-8.4 2.2-3.6 0-6-0.7-8.7-2.5-2.5-1.6-4.4-4-5.4-6.8-1-2.7-1.4-5.6-1-8.2 0.3-2.2 1.4-5.1 2.4-6.5 1-1.4 3.4-3.6 5.3-4.8 2.7-1.9 4.4-2.3 8.6-2zm-4.2 19.3c0.8 0.8 2.3 1.5 3.3 1.5 0.9 0.1 2.5-0.7 3.4-1.7 1-1 1.8-2.4 1.8-3.1 0-0.9-0.6-0.8-2.2 0.3-1.3 0.8-2.9 1.5-3.5 1.5-0.7 0-1.9-0.7-2.7-1.6-1.2-1.4-1.3-1.4-1.5 0 0 0.9 0.6 2.3 1.4 3.1zm45.3-19.5c1.7 0 4.7 0.6 6.5 1.3 1.7 0.7 4.4 2.9 5.8 4.8 1.5 1.9 2.9 4.7 3.2 6.4 0.3 1.6 0.2 4.8-0.3 7-0.6 2.3-2.3 5.4-4.2 7.3-2.2 2.2-4.6 3.5-7.3 3.9-2.2 0.3-5.7 0.3-7.7-0.1-2.3-0.3-5-1.8-6.8-3.6-1.6-1.7-3.5-4.7-4.1-6.8-0.6-2-0.9-5.4-0.5-7.5 0.3-2 1.7-5.1 2.9-6.8 1.3-1.8 3.9-3.8 5.8-4.5 1.9-0.7 4.9-1.3 6.7-1.4zm-3.1 19.2c1 1 2.5 1.8 3.3 1.8 0.8 0 2.3-0.7 3.2-1.7 1-1 1.8-2.4 1.8-3.1 0-0.9-0.6-0.8-2.2 0.3-1.4 0.9-3.1 1.2-4.3 0.8-1.1-0.3-2.3-1.1-2.7-1.7-0.5-0.7-0.8-0.6-0.8 0.4 0 0.8 0.7 2.3 1.7 3.2zm46.8-18.8c2.8 0.3 6.1 1.3 7.4 2.3 1.3 1 3.3 3.1 4.5 4.6 1.5 2.1 2.1 4.3 2.1 8q-0.1 5.2-2.2 8.7c-1.1 1.9-3.7 4.3-5.7 5.2-2 1-5.4 1.8-7.6 1.8-2.2 0-5.6-0.8-7.6-1.8-2-0.9-4.4-3.1-5.4-4.7-1-1.7-2.1-4.4-2.5-6-0.3-1.7-0.2-4.8 0.4-7 0.6-2.2 2.3-5.2 3.8-6.7 1.5-1.5 3.9-3.2 5.3-3.7 1.4-0.6 4.8-0.9 7.5-0.7zm-4.8 18.8c1 1 2.5 1.8 3.3 1.8 0.8 0 2.3-0.7 3.2-1.7 1-1 1.8-2.4 1.8-3.1 0-0.9-0.6-0.8-2.5 0.3-2.2 1.3-2.8 1.3-5 0-1.8-1.2-2.4-1.2-2.5-0.3 0 0.7 0.7 2.1 1.7 3zm46.8-18.8c2.8 0.2 6.1 1.3 7.4 2.3 1.3 1 3.2 2.9 4.3 4.3 1.1 1.4 2.2 4.5 2.4 7 0.4 3.5 0 5.5-1.8 8.9-1.3 2.5-3.8 5.2-5.8 6.3-2.6 1.4-5 1.8-9.2 1.6-5-0.3-6.2-0.7-9.3-3.8-2.2-2.1-3.9-5.1-4.5-7.5-0.5-2.2-0.6-5.4-0.3-7 0.3-1.7 1.6-4.5 2.9-6.4 1.3-1.8 3.8-3.9 5.6-4.7 2-0.9 5.3-1.3 8.3-1zm-4.8 18.8c1 1 2.5 1.8 3.3 1.8 0.8 0 2.3-0.7 3.2-1.7 1-1 1.8-2.5 1.8-3.3 0-0.9-0.3-1.1-0.8-0.4-0.4 0.6-1.6 1.4-2.7 1.7-1.2 0.5-2.9 0.1-4.2-0.8-1.7-1.2-2.2-1.2-2.3-0.3 0 0.7 0.7 2.1 1.7 3zm45.8-19.2c2.6 0 5.2 0.7 7.4 2.2 1.9 1.3 4.3 3.4 5.3 4.8 1 1.4 2.1 4.3 2.4 6.5 0.4 2.6 0 5.5-1 8.2-1 2.8-2.9 5.2-5.3 6.8-2.8 1.8-5.2 2.5-8.8 2.5-3.6 0-6-0.6-8.4-2.2-1.9-1.3-4.3-3.4-5.3-4.8-1.2-1.6-1.9-4.3-2-7.5 0-2.8 0.6-6.4 1.5-8 0.8-1.7 2.3-3.8 3.3-4.7 1.1-0.9 3-2.1 4.4-2.7 1.4-0.5 4.3-1 6.5-1.1zm-3.8 19.2c1 1 2.6 1.8 3.5 1.8 0.9 0 2.4-0.7 3.2-1.5 0.9-0.8 1.6-2 1.6-2.5 0-0.6-1-0.5-2.4 0.2-2.1 1.1-2.9 1-5-0.5-1.8-1.2-2.5-1.4-2.6-0.5 0 0.7 0.7 2.1 1.7 3zm94.3-19.2h40v32h-40zm11 21h18v-11h-18z"/>
</svg>