<svg version="1.2" xmlns="http://www.w3.org/2000/svg" viewBox="0 0 512 512" width="512" height="512">
	<title>cd</title>
	<style>
		.s0 { fill: #4b8dc2 } 
	</style>
	<path id="Path 0" fill-rule="evenodd" class="s0" d="m172.5 88.5c8.3 0.2 18.8 1.1 23.5 1.9 4.7 0.9 13 2.9 18.5 4.5 5.5 1.6 12.5 3.8 15.5 5.1 3 1.2 10 4.5 25.5 12.7l14-6.8c7.8-3.8 19.1-8.4 25.5-10.3 6.3-1.8 15.8-4.1 21-5 5.2-0.9 14.7-1.9 21-2.3 6.6-0.3 16.6-0.1 23.5 0.6 6.6 0.7 16.5 2.3 22 3.6 5.5 1.3 14.3 3.9 19.5 5.8 5.2 1.9 13.2 5.3 17.8 7.6 4.5 2.2 10.8 5.8 13.9 7.8 3.2 2 9.4 6.4 13.8 9.7 4.4 3.4 11.8 9.9 16.4 14.6 4.6 4.7 10.9 11.9 14 16 3.2 4.1 7.7 10.7 10.1 14.5 2.4 3.8 6.2 11.1 8.5 16 2.3 4.9 5.4 12.6 6.8 17 1.4 4.4 3.3 10.9 4.3 14.5 0.9 3.6 2.2 10.6 3 15.5 0.7 4.9 1.4 16 1.4 24.5 0 8.5-0.7 19.6-1.4 24.5-0.8 4.9-2.1 11.9-3 15.5-1 3.6-2.9 10.1-4.3 14.5-1.4 4.4-4.5 12.1-6.8 17-2.3 4.9-6.1 12.1-8.5 16-2.4 3.9-6.9 10.4-10.1 14.5-3.1 4.1-9.2 11.1-13.5 15.5-4.4 4.4-11 10.5-14.9 13.6-3.9 3.1-10.4 7.8-14.5 10.4-4.1 2.7-12.4 7.2-18.5 10-6.1 2.9-14.6 6.4-19 7.9-4.4 1.4-12.1 3.5-17 4.6-4.9 1.1-15.5 2.5-23.5 3.2-11.3 0.9-17.3 0.9-27 0-6.9-0.7-15.9-1.9-20-2.8-4.1-0.8-12.9-3.3-19.5-5.5-6.6-2.2-17.1-6.7-34.5-15.9l-10.3 5.4c-5.6 3-12.7 6.4-15.7 7.6-3 1.3-10 3.5-15.5 5.1-5.5 1.6-14.1 3.7-19 4.6-6.2 1.2-14.5 1.7-27 1.7-9.9 0-21.6-0.6-26-1.3-4.4-0.7-11.6-2.1-16-3.2-4.4-1.1-11.6-3.3-16-4.8-4.4-1.6-12.2-4.9-17.3-7.5-5-2.5-11.8-6.3-14.9-8.3-3.2-2-9.4-6.4-13.8-9.7-4.4-3.4-11.8-9.9-16.4-14.6-4.6-4.7-10.9-11.9-14-16-3.2-4.1-7.7-10.6-10.1-14.5-2.4-3.9-6.2-11.1-8.5-16-2.3-4.9-5.4-12.6-6.8-17-1.4-4.4-3.3-10.9-4.3-14.5-0.9-3.6-2.2-10.6-3-15.5-0.7-4.9-1.4-16-1.4-24.5 0-8.5 0.7-19.6 1.4-24.5 0.8-4.9 2.1-11.9 3-15.5 1-3.6 2.9-10.1 4.3-14.5 1.4-4.4 4.5-12.1 6.8-17 2.3-4.9 6.1-12.2 8.5-16 2.4-3.8 6.9-10.4 10.1-14.5 3.1-4.1 9.4-11.3 14-16 4.6-4.7 12-11.2 16.4-14.6 4.4-3.3 10.6-7.7 13.8-9.7 3.1-2 9.9-5.8 15-8.3 5-2.6 12.8-5.9 17.2-7.5 4.4-1.5 11.6-3.7 16-4.8 4.4-1.1 11.6-2.4 16-3 4.4-0.6 9.6-1.3 11.5-1.5 1.9-0.2 10.3-0.3 18.5-0.1zm-42 20.4c-4.4 1.1-11.4 3.2-15.5 4.7-4.1 1.4-10.2 4-13.5 5.6-3.3 1.7-8.7 4.6-12 6.6-3.3 2-9.4 6.1-13.5 9.2-4.1 3.1-11.3 9.5-15.9 14.1-4.7 4.6-10.8 11.6-13.6 15.4-2.9 3.9-7 9.9-9.2 13.5-2.2 3.6-5.8 10.6-8 15.5-2.3 4.9-5 11.9-6.1 15.5-1.2 3.6-2.8 9.2-3.6 12.5-0.8 3.3-2 9.8-2.6 14.5-0.8 5.6-1.1 14.4-0.7 25.5 0.3 9.9 1.3 20.1 2.2 24.5 0.9 4.1 2.8 11 4.1 15.3 2.3 7.5 2.5 7.7 4.7 6.4 1.2-0.8 18.5-10.6 38.5-21.8l36.3-20.4c-0.1-15.9 0.5-21.6 1.9-27 1.1-4.4 3.5-10.5 5.2-13.5 1.7-3 4.9-7.7 7.1-10.5 2.2-2.7 6.4-6.9 9.1-9.3 2.8-2.4 8.7-6.1 13.1-8.3 4.4-2.2 11.4-4.6 15.5-5.5 4.4-0.9 10.8-1.4 15.4-1.2l7.8 0.3c33.1-58.9 42.8-76.2 42.8-76.5 0-0.3-3.9-1.7-8.7-3.2-4.9-1.5-11-3.1-13.8-3.7-2.7-0.6-8.8-1.5-13.5-2.1-4.7-0.5-12.6-1-17.5-0.9-4.9 0.1-13.3 0.7-18.5 1.4-5.2 0.7-13.1 2.2-17.5 3.4zm177 0c-4.4 1.1-11.6 3.3-16 4.9-4.4 1.6-10.9 4.4-14.5 6.1l-6.5 3.3c8.5 7.1 14.1 12.3 17.9 16.2 3.7 3.9 9.8 11.2 13.5 16.1 3.7 4.9 9 13.1 11.8 18 2.8 4.9 6.2 11.4 7.5 14.4 2.1 4.8 2.5 5.2 4.8 4.7 1.4-0.3 5-1.1 8-1.6 3-0.6 8.8-0.9 12.9-0.8l7.3 0.3c33.1-58.9 42.8-76.2 42.8-76.5 0-0.3-4.1-1.7-9.2-3.2-5.1-1.5-13.1-3.4-17.8-4.3-4.7-0.8-14.6-1.7-22-2-8.5-0.2-17.1 0.1-23 1-5.2 0.7-13.1 2.2-17.5 3.4zm-92.8 48.1c-11.4 20.4-20.7 37.3-20.7 37.8 0 0.4 2.4 1.9 5.3 3.4 2.8 1.5 7.5 4.7 10.3 7 2.7 2.4 6.9 6.6 9.1 9.3 2.2 2.8 5.4 7.4 6.9 10.2 1.6 2.9 3.2 5.2 3.5 5 0.4-0.1 17.1-9.4 37.3-20.7 20.1-11.3 36.6-20.7 36.6-21 0-0.3-1.6-3.6-3.7-7.3-2.1-3.8-6.7-10.8-10.3-15.5-3.6-4.8-10.4-12.5-15.1-17.2-4.7-4.7-12.7-11.4-17.8-15-5-3.6-11.8-8-15-9.7l-5.7-3.3zm176.9 0.1c-11.3 20.3-20.6 37.3-20.6 37.7 0 0.4 2.3 1.9 5.2 3.4 2.9 1.5 7.6 4.7 10.3 7 2.8 2.4 6.9 6.6 9.2 9.3 2.2 2.8 5.3 7.4 6.9 10.3 1.6 2.8 3.2 5.1 3.5 5 0.3-0.2 17.1-9.5 37.2-20.8 20.2-11.3 36.7-20.7 36.7-21 0-0.3-1.7-3.6-3.7-7.3-2.1-3.8-6.7-10.8-10.3-15.5-3.6-4.8-10.4-12.5-15.1-17.2-4.8-4.6-12.6-11.3-17.5-14.8-4.9-3.4-11.7-7.8-15-9.7l-6.2-3.4zm-158.7 89.5c0.1 15.9-0.5 21.5-1.9 27-1.1 4.4-3.4 10.4-5.1 13.5-1.7 3-5 7.7-7.2 10.5-2.2 2.7-6.3 6.9-9.1 9.3-2.8 2.3-8.7 6.1-13.1 8.2-4.4 2.2-11.4 4.7-15.5 5.6-4.4 0.9-10.8 1.4-15.3 1.2l-7.9-0.3c-33.1 58.9-42.8 76.2-42.8 76.5 0 0.2 3.9 1.7 8.7 3.1 4.9 1.5 11.1 3.2 13.8 3.8 2.8 0.6 8.8 1.5 13.5 2 4.7 0.6 12.1 1.1 16.5 1.1 4.4 0 11.8-0.5 16.5-1.1 4.7-0.5 11.9-1.7 16-2.6 4.1-0.9 12-3.2 17.5-5.1 5.5-1.9 14.3-5.6 19.5-8.4 5.2-2.7 13.9-8 19.3-11.9 7.6-5.4 10.5-6.9 13.2-6.9 2.4 0 4.2 0.7 5.5 2.2 1.2 1.3 2 3.6 2 5.5 0 2.3-0.9 4.2-3 6.3l-3 3c14.3 6.7 22.1 9.8 26.5 11.2 4.4 1.5 11.2 3.3 15 4.1 3.9 0.9 12 2.1 18 2.7 6.7 0.7 15.4 0.9 22 0.5 6.1-0.4 15.5-1.6 21-2.7 5.5-1.1 13.6-3.2 18-4.5 4.4-1.4 12.5-4.7 18-7.3 5.5-2.7 14.1-7.5 19-10.8 5-3.3 12.3-8.9 16.2-12.4 4-3.5 10.2-9.7 13.8-13.8 3.7-4.2 9.2-11.4 12.3-16 3.1-4.7 7.8-12.8 10.3-18 2.5-5.3 5.8-13.1 7.2-17.5 1.4-4.4 3.3-10.7 4.1-14 0.8-3.3 2-9.9 2.7-14.5 0.8-5.6 1-14.4 0.6-25.5-0.3-10-1.3-20.2-2.2-24.5-0.9-4.2-2.8-11-4.1-15.3-2.3-7.6-2.4-7.7-4.6-6.4-1.3 0.7-18.6 10.5-38.6 21.7l-36.3 20.5c0.1 15.9-0.5 21.5-1.9 27-1.1 4.4-3.4 10.4-5.1 13.5-1.7 3-5 7.7-7.2 10.5-2.2 2.7-6.3 6.9-9.1 9.3-2.8 2.3-8.7 6.1-13.1 8.2-4.4 2.2-11.1 4.7-15 5.5-3.8 0.8-9.5 1.4-12.5 1.4-3 0-8-0.4-11-0.9-3-0.5-6.8-1.2-8.5-1.5-3-0.6-3-0.5-9.2 12.2-3.5 7-8 15-10.1 17.8-3.4 4.4-4.2 5-8 5.2-3.3 0.2-4.6-0.2-6.2-2-1.1-1.2-2-3.6-2-5.2 0-1.8 1.5-5.3 3.7-8.5 2-3.1 6-10.3 8.9-16 2.8-5.8 6.2-13.5 7.4-17 1.2-3.6 3.4-11.3 4.8-17 2.4-9.8 2.6-12.1 2.6-33 0.1-22.3 0-22.7-3.3-35.5-1.8-7.2-3.9-14-4.5-15.1-1.2-2.1-2.5-1.4-39.5 19.5zm-80.4-37.9c-2.8 0.9-7.5 3.1-10.5 4.9-3 1.8-7.9 5.9-10.9 9.1-2.9 3.2-6.4 7.9-7.6 10.4-1.2 2.4-3 6.9-4 10-1.4 4.2-1.7 7.7-1.4 15.5 0.4 9.3 0.7 10.6 4.6 18.5 2.8 5.7 5.9 10.1 9.5 13.6 2.9 2.9 8 6.8 11.3 8.8 3.6 2.2 9 4.2 13.5 5.2 5.4 1.2 9.4 1.4 14.5 0.9 3.8-0.4 9.2-1.5 12-2.5 2.7-0.9 7.5-3.3 10.5-5.2 3-1.9 7.7-5.9 10.4-8.9 2.6-3 5.8-7.5 7.1-9.9 1.2-2.5 3-7 4-10 1.4-4.3 1.7-7.8 1.4-15.5-0.4-9.3-0.7-10.6-4.6-18.5-2.8-5.8-5.9-10.2-9.5-13.7-2.9-2.9-8-6.8-11.3-8.8-3.3-1.9-9-4.2-12.8-5-3.7-0.9-8.6-1.5-11-1.4-2.3 0.1-5.6 0.3-7.2 0.6-1.7 0.2-5.3 1.1-8 1.9zm176.3 0.2c0.1 0.4 0.8 2.9 1.5 5.7 1.3 4.9 1.4 5 4.8 4.5 1.9-0.3 6.5-0.5 10.4-0.5 4.4 0 8.9 0.7 12 1.9 2.7 1 6.9 3.1 9.2 4.7 2.4 1.6 5.9 5 7.8 7.6 2 2.6 4.5 7.2 5.6 10.3 1.7 4.4 2 7.3 1.7 14.5-0.3 7.2-0.8 10.1-3.1 14.7-1.5 3.2-4.7 7.8-7.2 10.3-2.5 2.4-7.5 5.9-11.3 7.7-6.1 3-7.5 3.2-15.7 3.1-5-0.1-9.9-0.3-10.9-0.5-1.6-0.3-2.2 0.6-3.3 5.2-0.7 3-1.2 5.6-1.1 5.7 0.2 0.1 3.9 0.7 8.3 1.4 6.5 1 9.4 1 15.5-0.1 4.1-0.8 10.2-2.7 13.5-4.4 3.4-1.7 8.8-5.8 12.6-9.6 3.6-3.6 7.7-8.8 9.1-11.5 1.4-2.8 3.3-7.5 4.3-10.5 1.4-4.3 1.7-7.8 1.4-15.5-0.4-9.3-0.8-10.7-4.6-18.5-3-6.2-5.7-10-10-14.1-3.2-3.1-8.1-6.9-10.8-8.5-2.8-1.6-8.2-3.7-12-4.7-3.9-0.9-9.5-1.7-12.5-1.6-3 0-7.7 0.5-10.5 1.1-2.7 0.5-4.9 1.3-4.7 1.6zm6.1 27.7v39c4.3 1.8 7.4 2.4 9.6 2.4 2.5 0.1 6.1-1 9.5-2.7 3.6-1.8 6.5-4.2 8.5-7.1 2.7-3.9 3-5.1 3-12.1 0-7.1-0.3-8.3-3-12.2-1.7-2.4-4.9-5.4-7-6.6-2.2-1.2-6.5-2.5-9.5-2.8-3.4-0.3-6.6 0-8.3 0.8zm-302.9 87.5c0 0.3 1.6 3.6 3.7 7.3 2.1 3.8 6.7 10.8 10.3 15.5 3.6 4.8 10.4 12.5 15.1 17.2 4.7 4.7 12.7 11.4 17.8 15 5 3.6 11.7 7.9 14.9 9.7l5.7 3.3c32.2-57.4 41.5-74.3 41.5-74.8 0-0.4-2.4-1.9-5.3-3.4-2.8-1.5-7.5-4.7-10.3-7-2.8-2.4-6.9-6.6-9.1-9.3-2.2-2.8-5.2-7.4-6.5-10.3-1.3-2.8-2.9-5.2-3.4-5.1-0.5 0-17.4 9.4-37.6 20.7-20.2 11.4-36.8 20.9-36.8 21.2zm138-105.5c5.7 0.3 9 1.2 13.7 3.5 3.5 1.6 8.3 5 10.8 7.5 2.5 2.5 5.7 7.1 7.2 10.2 2.5 5.2 2.8 6.9 2.8 16.3 0 9.4-0.3 11.1-2.8 16.2-1.5 3.2-4.7 7.8-7.2 10.3-2.5 2.5-7.5 6-11.3 7.7-6 3-7.6 3.3-15.7 3.3-8.1 0-9.7-0.3-15.8-3.3-3.7-1.7-8.7-5.2-11.2-7.7-2.5-2.5-5.7-7.1-7.3-10.3-2.4-5.1-2.7-6.8-2.7-16.2 0-9.4 0.3-11.1 2.7-16.3 1.6-3.1 4.8-7.7 7.3-10.2 2.5-2.5 6.7-5.6 9.5-7 2.7-1.4 6.7-2.9 8.7-3.5 2.1-0.5 7.2-0.7 11.3-0.5zm-20.5 25.4c-2.7 3.9-3 5-3 12 0 6.8 0.3 8.3 2.7 11.9 1.6 2.3 4.9 5.4 7.5 6.9 2.9 1.6 6.8 2.9 9.8 3.1 4.1 0.3 5.9-0.1 10.1-2.5 2.8-1.6 6.6-4.8 8.5-7.2 3.2-4 3.4-4.7 3.4-12 0-6.8-0.3-8.3-2.8-11.9-1.5-2.4-4.8-5.4-7.5-6.9-2.8-1.7-6.7-2.9-9.7-3.1-4-0.3-6 0.2-10.5 2.5-3.4 1.8-6.6 4.5-8.5 7.2z"/>
</svg>