<svg version="1.2" xmlns="http://www.w3.org/2000/svg" viewBox="0 0 512 512" width="512" height="512">
	<title>clarinet</title>
	<style>
		.s0 { fill: #ca403f } 
	</style>
	<path id="Path 0" fill-rule="evenodd" class="s0" d="m414.5 0l97.5 97.5v4.5c0 3.4-0.5 5-2.2 6.6-1.9 1.8-4.1 2.3-11.8 2.9-5.2 0.4-12.6 1.3-16.5 2-3.9 0.7-10.5 2.5-14.8 3.9-4.2 1.4-11.2 4.4-15.4 6.5-4.3 2.2-11.2 6.3-15.3 9.2-4.4 3.1-24.1 21.6-47.8 44.9-22.2 21.7-42.1 41.1-48.3 46.5l9.3 9.3c9 8.9 9.3 9.4 9.3 18.2l-26.5 26.6c-14.6 14.6-27.7 27.2-29.3 28-1.7 0.9-3.9 1.2-6 0.8-2.3-0.5-5.6-3.1-21.2-19.4l-76.5 74.6c-42.1 41-89.3 87.3-105 102.9-26.4 26.2-29.5 29-42.3 37.4-11.9 7.9-14.3 9.1-18 9.1-4.1 0-4.6-0.4-18.9-14.8-14.4-14.3-14.8-14.8-14.8-18.9 0-3.7 1.2-6.1 9.1-18 8.5-12.8 11.3-16 39.8-44.8 16.9-17.1 42.3-42.9 82.3-84l-10-10c-5.5-5.5-10.2-11.1-10.5-12.5-0.3-1.4 0-3.9 0.8-5.5 0.7-1.6 13.5-15 28.5-29.8 25.7-25.2 27.4-26.7 30.9-26.7 3.2 0.1 4.7 1.1 23.6 19.9l63.5-65.1c34.9-35.7 75.4-77.2 90-92.2 16.2-16.6 28.6-30.3 32-35.2 3-4.3 7.3-11.9 9.7-16.9 2.3-5 5.4-13.3 6.8-18.5 1.4-5.2 3-15.1 3.6-22 0.9-10.4 1.4-12.9 3.2-14.8 1.5-1.7 3.1-2.2 11.2-2.2zm1.6 35.7c-0.7 3.8-2.7 10.8-4.3 15.8-1.7 5-5.3 13.5-8.1 19-2.9 5.5-7.7 13.4-10.9 17.5-3.1 4.1-7.2 9.2-9 11.3l-3.3 3.9 28.3 28.3c6-5.1 11.1-9.2 15.2-12.3 4.1-3.2 12-8.1 17.5-10.9 5.5-2.8 13.4-6.3 17.5-7.7 4.1-1.4 11.2-3.3 15.8-4.3l8.2-1.8-65.5-65.5zm-90.6 123.4l27.4 27.3 43.2-42c-21.8-22.1-28.3-28.5-28.5-28.5-0.2 0-9.8 9.7-21.3 21.6zm-21 21.3c-4.4 4.7-23.3 24.1-42 43.1l-34 34.6 25.5 25.4c26.8-26.4 46.1-45.3 60.2-59.1l25.7-24.9-27.4-27.7zm10 69.6l10 10 12.5-12.5c-7.3-7.4-9.7-9.5-10-9.5-0.3 0-3.2 2.7-6.5 6zm-26 25.1l10.5 10.4 12.5-12.4c-7.8-7.8-10.2-10.1-10.5-10.1-0.3 0-3.3 2.7-6.5 6zm-130.5 6.5l11 11 12.5-12.5-11.1-11zm-26.2 76l22.8 22.4c6.9-6.1 26.3-25 47.5-45.8l38.5-38c-18.6-18.7-24.3-24.1-24.7-24.1-0.4 0-19.4 19.2-42.4 42.8zm0.8-50.5l11.5 11.5 12.5-12.5c-8.6-8.6-11.3-11.1-11.6-11.1-0.3 0.1-3.2 2.8-6.5 6.1zm-42.6 93.7c0.1 0.4 4.8 5.5 10.5 11.2l10.5 10.5c7.5-6.4 14.4-13.1 20.1-18.9l10.5-10.6c-17-17-22.3-22-22.6-22-0.3 0-7 6.6-14.9 14.5-7.8 8-14.2 14.9-14.1 15.3zm-25.9 25.7l21.5 21.6 12.5-12.6-21.5-21.5zm-37.8 41l-6.1 9 15.4 15.4c15.5-10.6 23.8-17.5 28.5-22.3l8.5-8.6c-16.3-16.3-21.3-21-21.5-21-0.3 0-4.7 4.2-9.7 9.3-5 5.1-11.8 13.3-15.1 18.2zm280.9-271.5c2.8 0 4.6 0.7 6.4 2.5 1.8 1.9 2.5 3.6 2.5 6.5 0 3.3-0.6 4.5-3.3 6.6-2.6 2.2-3.9 2.5-6.7 2-1.9-0.3-4.3-1.3-5.3-2.3-0.9-1-2-3.3-2.3-5.3-0.5-2.8-0.1-4.1 2.1-6.7 2.2-2.7 3.4-3.3 6.6-3.3zm-25.9 25.1c0.4 0 2.4 0.6 4.3 1.4 2.4 1.1 3.8 2.5 4.5 4.8 0.6 1.8 0.7 4.1 0.4 5.2-0.4 1.1-1.7 3.1-2.8 4.3-1.5 1.7-3.2 2.3-6.1 2.2-2.8 0-4.7-0.7-6.3-2.2-1.6-1.6-2.3-3.4-2.3-6.3 0-2.8 0.7-4.6 2.3-6.1 1.3-1.2 3-2.4 3.8-2.7 0.8-0.3 1.8-0.5 2.2-0.6zm-25.5 26c1.3 0 3.4 0.5 4.8 1.2 1.4 0.7 2.9 2.2 3.5 3.5 0.5 1.2 1 3.1 1 4.2 0 1.1-0.5 3-1 4.3-0.6 1.2-2.1 2.8-3.5 3.5-1.4 0.7-3.6 1.2-5 1.2-1.5 0-3.8-1.2-5.5-3-1.7-1.7-3-4-3-5.5 0-1.3 0.5-3.6 1.2-5 0.7-1.3 2.2-2.9 3.3-3.4 1.1-0.5 3-1 4.2-1zm-42.6 42.9c2.8 0 4.6 0.7 6.4 2.5 1.7 1.8 2.5 3.6 2.5 6.3 0 2.6-0.6 4.4-2.2 5.9-1.3 1.1-3.4 2.4-4.8 2.8-1.5 0.4-3.7 0.1-5.4-0.6-1.6-0.8-3.5-2.6-4.3-4.1-0.7-1.5-1.4-3.6-1.4-4.7-0.1-1 1.1-3.3 2.6-5 2.1-2.4 3.4-3.1 6.6-3.1zm-24.2 25.4c2 0.4 4.4 1.4 5.3 2.4 1 0.9 2.1 3.3 2.4 5.2 0.5 2.9 0.1 4.2-2 6.8-2.2 2.7-3.3 3.2-6.6 3.2-2.9 0-4.7-0.6-6.5-2.5-1.8-1.7-2.5-3.6-2.6-6.4 0-3.2 0.5-4.4 3.2-6.6 2.7-2.2 4-2.6 6.8-2.1zm-26.8 25.6c2.8 0 4.6 0.7 6.4 2.5 1.8 1.9 2.5 3.6 2.5 6.5 0 3.3-0.6 4.5-3 6.5-1.7 1.5-4.3 2.5-6 2.5q-3 0-6-3c-1.9-1.8-3.1-4.1-3.1-5.9-0.1-1.9 0.8-4 2.6-6 2.1-2.4 3.4-3.1 6.6-3.1z"/>
</svg>