<svg version="1.2" xmlns="http://www.w3.org/2000/svg" viewBox="0 0 512 512" width="512" height="512">
	<title>domra</title>
	<style>
		.s0 { fill: #f1db2b } 
	</style>
	<path id="Path 0" fill-rule="evenodd" class="s0" d="m474 0.3c8.6 0.3 11.5 0.8 16 2.8 3 1.4 7.5 4.3 9.9 6.5 2.4 2.1 5.5 6.2 6.9 8.9 2 4 2.5 6.5 2.6 12.5 0 5.9-0.5 8.7-2.5 12.9-1.3 3-4.1 6.9-6.2 8.8-2 1.8-5.4 3.7-7.5 4.3-2 0.5-5.1 1-6.7 1-1.6 0-5.5-0.7-8.5-1.5-3-0.8-6.4-1.7-7.5-2-1.8-0.6-2.2 0.2-3.9 8.2-1 4.8-2.9 12.2-4.3 16.3-1.3 4.1-4.1 10.4-6.2 14-2.1 3.6-5.8 8.8-8.2 11.7-2.4 2.8-7.3 7.5-10.9 10.4-3.6 2.8-10.6 7.2-24.5 14l-169 173.2 3.7 7.6c2 4.2 4.6 10.5 5.7 14.1 1.2 3.6 2.5 9 3.1 12 0.6 3 1.5 10.4 2 16.5 0.6 6.9 0.6 15.1 0 22-0.5 6.1-1.9 15.5-3 21-1.1 5.5-3.7 14.7-5.6 20.5-2 5.8-6 15.2-8.8 21-2.9 5.8-7.5 13.9-10.3 18-2.8 4.1-8 10.9-11.5 15-3.5 4.1-10.3 10.6-15.1 14.5-4.8 3.9-12.4 9.1-17 11.8-4.5 2.6-11.8 6.1-16.2 7.8-4.4 1.7-11.8 4-16.5 5.2-7.3 1.9-11.3 2.2-28.5 2.2-18.6 0-20.7-0.2-30.3-2.8-5.6-1.5-14.1-4.4-18.9-6.5-4.9-2.1-12.7-6.3-17.6-9.5-7.8-5.1-8.8-5.5-10-4.1-0.6 0.9-2 2-3 2.5-1.1 0.6-2.5 0.4-4.2-0.6-1.5-0.9-2.5-2.4-2.5-3.7 0-1.3 0.8-3.1 1.8-4.1 1.6-1.8 1.6-1.8-1.6-0.3-2.9 1.4-3.5 1.4-5.7 0.1-1.5-0.9-2.5-2.4-2.5-3.7 0-1.3 0.8-3.1 1.8-4.1 1.7-1.8 1.6-1.8-1.4 0-3 1.7-3.3 1.7-5.8 0.1-1.4-1-2.7-2.8-2.7-4-0.1-1.2 0.8-3.2 4.1-6.8l-4.4-6.7c-2.5-3.8-6.3-10.6-8.4-15.3-2.2-4.7-5-11.4-6.1-15-1.2-3.6-2.9-10.3-3.8-15-1.1-5.5-1.7-13.4-1.7-22.5 0-7.7 0.6-17.4 1.3-21.5 0.7-4.1 2.7-11.8 4.3-17 1.7-5.2 4.6-12.6 6.6-16.5 1.9-3.9 5.4-9.9 7.8-13.5 2.3-3.6 6.8-9.4 9.9-13 3.1-3.6 8.6-9.1 12.3-12.3 3.7-3.2 10.1-8.1 14.2-11 4.1-2.8 12.2-7.5 18-10.3 5.8-2.9 15-6.8 20.5-8.7 5.5-1.9 14-4.4 19-5.5 5-1.2 13.9-2.6 20-3.3 6.4-0.7 15.9-0.9 22.8-0.5 6.4 0.3 15.6 1.5 20.4 2.5 4.9 1.1 11.7 3 15.3 4.4 3.6 1.3 8.8 3.6 16.5 7.5l173-168.7 0.7-6.3c0.4-3.5 1-9.7 1.9-21.3l7.7-2.4c4.2-1.4 8.5-2.8 9.5-3.3 1.5-0.7 1.1-1.4-2.8-5.8-3.2-3.6-4.5-5.9-4.5-8q0-3 2-4c1.1-0.5 2.4-1 3-1 0.6 0 3.9 2.7 14 12l1.9-2.8c1.1-1.5 3.1-5.2 7-13.7l-5.4-5.8c-3.7-3.8-5.5-6.5-5.5-8.2 0-1.6 0.9-3 2.5-4 1.7-1 3.1-1.2 4.3-0.6 0.9 0.5 3.1 2.3 4.7 4 1.6 1.7 3.2 3.1 3.5 3.2 0.3 0 1.9-3 6.5-13.2l-4.8-4.7c-3.6-3.5-4.8-5.5-4.9-7.7 0-1.8 0.7-3.5 1.9-4.3 1-0.7 2.4-1.2 3.1-1.2 0.6 0 3.5 2 11.2 9l3.3-2.6c1.7-1.5 5-3.6 7.2-4.7 2.2-1.1 5.6-2.6 7.5-3.3 2.4-0.9 6.9-1.3 14-1.1zm-18.4 14.7c-2.2 1.4-5.6 4.3-7.5 6.6-2.4 2.7-5.9 9.6-10.5 20.5-3.7 9-8.4 18.8-10.5 21.8-2 3-5.2 6.6-7.1 8.1-1.9 1.5-4.9 3.4-6.5 4.3-1.6 0.8-6 2.4-9.8 3.6-6.3 2-6.7 2.3-7.1 5.3-0.3 1.8-0.7 6.2-1 9.8l-0.5 6.5 16.4 16.5c10.9-5.6 16.4-9.1 19.3-11.4 2.9-2.2 7.4-6.8 10.1-10.1 2.7-3.3 6.5-9.4 8.5-13.5 2.5-5.1 4.9-13.3 7.7-25.5 2.2-9.9 4.3-18.1 4.5-18.3 0.2-0.1 2.5 0.9 5.2 2.2 2.6 1.3 7 3.1 9.7 4 2.9 1 7.3 1.5 10.4 1.4 4.8-0.3 5.7-0.7 8.2-3.8 1.6-1.9 3.2-5.5 3.7-8 0.6-3.1 0.5-5.9-0.5-9-0.7-2.5-2.5-5.8-4-7.3-1.6-1.6-5-4-7.8-5.4-3.6-1.9-6.9-2.7-12-2.9-4-0.2-8.7 0.2-11 0.9-2.2 0.7-5.8 2.4-7.9 3.7zm-239.1 265.7c-18.3 40.9-23.4 53.4-23.1 54 0.3 0.7 1 1.3 1.6 1.3 0.6 0 45.7-45.8 100.3-101.8 54.5-56 101-103.7 103.2-106l4-4.2c-9.3-9.3-12.2-12-12.5-12-0.3 0-39.4 38-87 84.4zm-77.9-11.9c-1 0.9-3.3 3.9-5.1 6.6-1.8 2.8-4 7.5-5 10.5-1.3 4-1.6 7.7-1.4 13.5 0.3 6.3 1.1 9.4 3.5 14.5 1.7 3.6 4.6 8.3 6.5 10.4 1.9 2.2 5.2 4.8 7.4 5.7 2.2 1 6.2 2.1 9 2.5 2.7 0.4 7.2 1.7 10 3 2.7 1.3 6.7 4.1 8.9 6.1 2.1 2.1 5 6.1 6.3 8.8 1.4 2.8 2.8 7.5 3.1 10.5 0.2 3.1 0.2 7.6-0.2 10-0.3 2.6-2.3 7.5-4.6 11.3-2.3 3.8-4 8-4 9.7 0 2.3 1.4 4.5 6.2 9.6 3.5 3.6 9.4 8.5 13.3 10.9 3.8 2.4 10.3 5.5 14.2 6.9 4 1.5 10.6 3 14.5 3.4 4 0.5 9 0.6 11.1 0.3 3.6-0.6 3.8-0.7 6.6-8.6 1.6-4.4 3.8-11.8 4.9-16.5 1.1-4.6 2.6-12.3 3.3-17 0.7-5.3 1-14.1 0.6-23.5-0.4-10.8-1.1-17.4-2.7-23.5-1.2-4.6-3.8-11.8-5.7-16l-3.4-7.5c-30.9 31.4-40.2 40.5-40.7 40.5-0.4 0-4-3.2-8-7.2l-7.3-7.3 25.8-57c-10.2-4.9-17-7.4-21.7-8.8-4.7-1.3-13.1-2.9-18.8-3.6-5.6-0.6-12.1-1-14.5-0.9-2.3 0.1-5.6 0.3-7.2 0.6-1.7 0.2-3.9 1.1-4.9 2.1zm-43.1 8.6c-3.9 1.4-11.1 4.8-16 7.3-5 2.6-12.4 7.1-16.5 10.1-4.1 3-9.8 7.4-12.5 9.7-2.8 2.4-7.5 7.3-10.5 10.9-3 3.7-7.2 9.2-9.3 12.3-2.1 3.2-5.2 8.7-6.9 12.2-1.7 3.6-4.1 9.7-5.5 13.5-1.3 3.9-3 10.6-3.9 15-0.8 4.5-1.5 13.5-1.5 20.5 0 7.2 0.7 16 1.6 20.5 0.8 4.4 2.2 10.3 3.1 13 0.9 2.8 3 8.2 4.7 12 1.6 3.9 4.4 9.3 6 12 1.7 2.8 5.1 7.7 7.6 11 2.5 3.3 7.7 9.1 11.6 12.9 3.8 3.8 10.6 9.2 15 12.1 4.4 2.9 10.7 6.7 14 8.3 3.3 1.6 9.4 4.1 13.5 5.5 4.1 1.5 12 3.4 17.5 4.3 7.3 1.2 13.5 1.5 23 1.1 9.4-0.4 15.8-1.2 23-3.1 6.2-1.6 14.5-4.8 22-8.5 7.6-3.8 15.1-8.5 20.5-12.8 4.7-3.8 11.6-10.6 15.5-15 3.8-4.5 9.3-11.9 12.2-16.5 2.9-4.5 5.4-8.9 5.8-9.8 0.4-1.2-0.9-1.6-6.7-2.3-4-0.5-11-1.9-15.6-3.3-4.5-1.3-10.6-3.5-13.5-5-2.8-1.4-7.9-4.5-11.2-6.9-3.3-2.3-8.8-7.2-12.3-10.8-4.3-4.7-6.5-7.9-7.3-10.9-0.6-2.4-0.8-6.1-0.5-8.3 0.4-2.2 2.2-6.2 4-9 1.8-2.7 3.9-6.8 4.6-9 0.8-2.4 1-5.7 0.6-8.5-0.4-2.4-1.7-6.2-2.9-8.3-1.2-2.1-4.2-5.2-6.7-6.8-2.5-1.6-5.4-3.1-6.5-3.3-1.1-0.2-5.2-1.1-9-2-3.9-0.9-8.8-2.8-11-4.4-2.2-1.5-6.1-5.4-8.6-8.7-2.5-3.3-5.6-8.7-6.8-12-1.3-3.3-2.7-9.1-3.2-13-0.6-4.5-0.5-9.4 0.2-14 0.6-3.8 2.4-9.9 4-13.5 1.6-3.5 2.9-6.6 2.9-6.7 0-0.2-0.3-0.2-0.8-0.2-0.4 0-5.2 1.3-10.7 2.9-5.5 1.5-13.2 4-17 5.5zm54 68.6c3.2 0 6.6 0.7 9.4 2.2 2.5 1.2 5.5 3.8 6.8 5.7 1.2 2 2.6 5.6 2.9 8 0.5 3.1 0.2 5.9-0.9 9-0.9 2.5-3.2 6-5.1 7.8-2 1.8-5.3 3.7-7.4 4.2-2 0.6-4.8 1-6.2 1-1.4 0-4.8-1.1-7.5-2.4-3.1-1.6-6-4-7.5-6.3-1.5-2.4-2.6-5.6-2.8-8.8-0.3-3 0.2-6.6 1.2-9 0.8-2.2 2.6-4.9 3.8-6.1 1.3-1.2 3.6-2.8 5.3-3.7 1.6-0.9 5.2-1.6 8-1.6zm-6.9 15c-0.8 1.4-1.5 3.2-1.6 4.2 0 0.9 1.1 3.1 2.5 4.7 1.9 2.4 3.3 3 6.2 3.1 2.7 0 4.4-0.7 6-2.3 1.1-1.2 2.2-3.2 2.4-4.3 0.2-1.1 0-3.2-0.4-4.7-0.4-1.7-1.9-3.4-3.7-4.3-1.7-0.8-3.6-1.5-4.3-1.4-0.6 0-2.2 0.6-3.4 1.3-1.2 0.8-2.8 2.4-3.7 3.7zm-61.8 13.6c0.9 0.2 14.6 13.3 30.4 29.1 22.2 22.1 28.8 29.3 28.8 31.2 0 1.4-0.5 3.1-1.2 3.8-0.7 0.7-2.4 1.2-3.8 1.2-2 0-8.7-6.2-31.8-29.2-25.1-25-29.3-29.6-28.9-31.7 0.2-1.4 1.4-3 2.6-3.7 1.2-0.6 2.9-1 3.9-0.7z"/>
</svg>