<svg version="1.2" xmlns="http://www.w3.org/2000/svg" viewBox="0 0 1024 1024" width="1024" height="1024">
	<title>DALL·E 2023-11-26 00</title>
	<style>
		.s0 { opacity: .2;fill: #f7a1d5 } 
		.s1 { fill: #f7a1d5 } 
	</style>
	<filter id="f0">
		<feFlood flood-color="#f7a1d5" flood-opacity="1" />
		<feBlend mode="normal" in2="SourceGraphic"/>
		<feComposite in2="SourceAlpha" operator="in" />
	</filter>
	<g id="Background" filter="url(#f0)">
		<path id="Path 0" fill-rule="evenodd" class="s0" d="m233.8 242.1c7.2-0.1 18.3 0.6 24.4 1.5 6.2 0.8 16.5 2.6 22.8 4 6.3 1.3 17.1 4.1 24 6.3 6.9 2.1 16 5.3 20.2 7 4.3 1.7 11.5 4.9 16 7.2 4.6 2.3 11.9 6.5 16.3 9.4 4.4 3 10.6 7.7 13.9 10.7 3.2 2.9 7 7.3 8.4 9.8 1.7 2.9 2.7 6.6 3 10.5 0.3 3.3 0 7.7-0.7 9.8-0.7 2.3-2.7 5-5.4 7.2-2.3 2-7 4.5-10.7 5.7-5 1.6-10 2.2-22 2.6-11.5 0.3-18.7 0-28-1.3-6.9-0.9-13.5-2.3-14.8-3.1-1.7-1.1-2.2-2.3-2.2-5.4 0-2.3 0.7-4.6 1.6-5.5 0.8-0.8 3-1.5 4.7-1.5 1.8 0 5 0.5 7.2 1 2.2 0.5 10.3 1.4 18 2 10.4 0.9 15.9 0.9 21.2 0.1 4-0.6 9.1-2 11.3-3.1 2.2-1.1 4.7-3.1 5.5-4.5 1.3-2.2 1.3-2.9 0.1-5.2-0.7-1.6-4.2-5.5-7.7-8.8-3.5-3.3-10.2-8.3-14.9-11.1-4.7-2.9-10.8-6.3-13.5-7.7-2.8-1.4-9.5-4.3-15-6.5-5.5-2.2-15.4-5.7-22-7.7-6.6-2-14.9-4.3-18.5-5.1-3.6-0.9-12.4-2.4-19.5-3.5-7.2-1-17.5-1.9-23-1.9-5.5 0-12.9 0.7-16.5 1.6-3.6 0.8-7.9 2.3-9.5 3.4-1.7 1-3.6 3-4.3 4.4-1.1 2.3-0.9 3.1 2 7.3 1.8 2.6 6.2 7 9.8 9.9 3.6 2.8 8.5 6.4 11 7.9 2.5 1.6 8.3 4.7 13 7 4.7 2.3 11.9 5.4 16 6.9 5.8 2.1 7.7 2.4 8.2 1.4 0.4-0.7 0.8-1.6 0.8-2 0-0.5 3.1-2.8 7-5.3 3.9-2.5 7.2-4.8 7.5-5.2 0.2-0.5-0.7-1.9-2.1-3.3-1.8-1.9-2.4-3.5-2.4-6.7 0-3.5 0.5-4.7 2.7-6.4 2.5-1.9 3.8-2.1 10.8-1.6 6 0.3 9.7 1.2 14.5 3.4 3.6 1.6 7.5 4.2 8.8 5.9 1.3 1.6 2.6 4 2.9 5.4 0.3 1.4-0.1 3.8-0.9 5.4-0.8 1.8-2.9 3.7-5.3 4.8-2.2 1-6.4 1.8-9.5 1.8-3 0-6.1 0.4-6.8 0.8-1.1 0.6-1.1 1.3 0.2 4 0.9 1.7 1.6 5.5 1.6 8.2 0 3-0.7 6.2-1.8 8-0.9 1.6-3.2 3.8-8.2 6.5v65.3c0 63.9 0 65.2-2 67.2-1.2 1.2-3.3 2-5.5 2-2.5 0-3.9-0.6-5-2.2-1.3-2-1.5-11.1-1.6-132.3l-3.2-3.6c-2.5-2.8-5.5-4.5-13.2-7.4-5.5-2.1-13.6-5.4-18-7.4-4.4-2.1-12.5-6.7-18-10.2-5.5-3.6-13-9.4-16.6-12.9-3.6-3.6-7.5-8.6-8.7-11.2-1.3-2.9-2.2-6.8-2.2-9.8 0-3 0.8-6.6 2-9 1.1-2.2 3.5-5.1 5.2-6.4 1.8-1.4 5.1-3.2 7.3-4.2 2.2-0.9 6.7-2.2 10-2.9 3.3-0.8 12-1.4 19.2-1.4zm42.5 72.3c0.5 0.9 1.6 1.5 2.5 1.3 1-0.1 1.8-1.1 1.8-2.1 0-1.1-0.5-2.1-1-2.3-0.6-0.1-1.7 0.1-2.5 0.6-0.9 0.6-1.2 1.5-0.8 2.5zm493.8-71.9c13.3 0.2 20.2 0.8 24.5 2 3.3 0.9 7.6 2.5 9.5 3.5 1.9 1 4.7 3.1 6.2 4.7 1.5 1.5 3.4 4.5 4.2 6.6 0.9 2 1.6 5.2 1.6 7 0 1.7-0.6 5-1.3 7.2-0.7 2.5-3.6 6.5-7.7 10.9-3.6 3.8-10.8 9.7-16 13.2-5.2 3.5-13.8 8.2-19 10.5-5.2 2.2-13.4 5.4-18.3 7-6 2-10.7 2.9-15.2 2.9-5.8 0-6.8-0.3-9.1-2.7-1.4-1.6-4.7-5.8-11.9-16.4l-7 0.1c-3.9 0-8.5-0.4-10.3-1-1.7-0.5-3.7-1.9-4.2-3-0.5-1.1-1-3.7-1-5.7 0-2.9 0.7-4.5 2.7-6.5 1.6-1.5 5.5-3.9 8.8-5.4 4.4-2 8.2-2.9 14-3.3 6.4-0.4 8.6-0.1 10.7 1.2 2.3 1.4 2.8 2.4 2.8 6 0.1 2.7-0.6 5.2-4 9.7l4.5 6.5c2.6 3.8 5.2 6.5 6.2 6.5 1 0 4.9-0.9 8.8-2.1 3.8-1.2 10.8-3.8 15.5-5.8 4.7-2 12.5-6.3 17.5-9.6 5-3.2 11.1-8 13.7-10.7 2.7-2.6 5.1-6 5.4-7.5 0.3-1.7 0-3.6-0.9-4.8-0.7-1.1-3.1-2.8-5.3-3.9-2.1-1-7.5-2.5-11.9-3.4-5.8-1-11.7-1.3-21.5-0.9-8.1 0.4-18.7 1.6-26.5 3.1-7.2 1.4-18.6 4.1-25.5 6-6.9 1.9-16.8 5-22 6.9-5.2 2-13.1 5.5-17.5 7.8-4.4 2.3-11.4 6.4-15.5 9-4.1 2.6-9.9 7.2-12.8 10.3-3.9 4.2-5.2 6.4-5.2 8.6 0 2.1 0.9 3.7 2.7 5.3 1.6 1.3 5.3 3.2 8.3 4.2 4.7 1.7 8 2 22 1.9 11.9-0.1 20-0.7 29-2.3 6.9-1.1 13.7-2.1 15.2-2.1 1.6 0 3.7 0.9 4.8 2 1.1 1.1 2 3 2 4.3 0.1 1.2-0.7 3.2-1.7 4.5-1.5 1.9-3.9 2.6-14.8 4.4-10.3 1.7-17.6 2.1-35 2.2-18.1 0.1-23-0.2-27.5-1.6-3-0.9-7.7-3.2-10.3-5-3-2-5.6-4.8-6.8-7.3-1.2-2.6-1.9-6.2-1.9-10 0-3.6 0.8-7.6 1.8-10 1-2.2 3.4-5.7 5.3-7.9 1.9-2.1 6.3-6 9.9-8.6 3.6-2.6 10.8-7.1 16-10 5.2-2.8 14.2-7.2 20-9.7 5.8-2.4 15.5-6 21.5-7.8 6-1.8 16.6-4.5 23.5-5.9 6.9-1.5 16.5-3.3 21.5-4.1 6.3-1 14.5-1.3 27.5-1zm-355.5 109.6c12.2-0.1 17.2 0.4 26.5 2.3 6.3 1.3 14.9 3.6 19 5.1 4.1 1.5 11.1 4.6 15.5 7 4.4 2.4 9.9 5.7 12.2 7.4 2.4 1.7 5.2 4.6 6.3 6.4 1.8 2.9 2 5 2 19.7 0 13.1-0.3 17-1.5 18.8-1.1 1.7-2.5 2.2-5.5 2.2-3 0-4.4-0.5-5.5-2.2-0.8-1.3-1.5-4.1-1.5-6.3 0-2.2-0.7-5-1.5-6.2-0.8-1.3-4.3-4.3-7.8-6.7-3.4-2.4-9.3-5.9-13.2-7.9-3.9-1.9-11.3-4.8-16.5-6.5-5.2-1.6-13.7-3.5-18.8-4.1-6.3-0.8-11.8-0.8-17.5-0.1-4.5 0.5-10.5 1.7-13.2 2.5-2.8 0.8-6.2 2.5-7.7 3.7-2.4 2-3.5 5.1-8.3 24.3-3.1 12.1-5.8 22.3-6.1 22.8-0.2 0.4 1.7 0.4 4.3 0 2.7-0.5 10-0.7 16.3-0.7 8 0.1 15.4 1 24.2 2.8 7.1 1.4 16.7 4.1 21.5 6 4.9 1.8 10.8 4.3 13.3 5.6 2.5 1.2 7.4 4.4 11 7 3.6 2.6 7.8 6.7 9.4 9.1 1.6 2.4 3.1 6.2 3.4 8.4 0.2 2.2 0 5.7-0.7 7.8-0.6 2.2-2.7 5-4.9 7-2.2 1.7-8 4.9-13 7-5.1 2-9.1 3.9-9 4.2 0.2 0.2 3.2-0.5 6.8-1.6 3.6-1.1 11.7-2.9 18-4.1 9.6-1.7 14.2-1.9 28-1.5 11.5 0.3 19.5 1.1 26.5 2.6 5.5 1.2 13.1 3.3 17 4.6 3.9 1.3 7.1 2.2 7.3 2.2 0.1-0.1-4.1-3.1-9.5-6.6-5.4-3.5-11.3-7.7-13.2-9.5-1.8-1.7-4.4-5.3-5.7-8.1-1.6-3.4-2.4-6.8-2.4-10.5 0-3.6 0.8-7.2 2.3-10.5 1.5-3.1 4.6-7 8.3-10.3 3.2-3 9.5-7.1 13.9-9.2 4.4-2.2 12.5-5.1 18-6.6 8.5-2.3 12.5-2.7 27.5-3.1 14.1-0.3 19.2 0 26.2 1.4 6.7 1.4 8.8 1.5 8.8 0.6 0-0.7-1.6-7.5-3.5-15-2-7.6-3.5-15.3-3.5-17 0-1.8 0.7-4 1.6-4.8 0.8-0.8 3-1.5 4.7-1.5 1.8-0.1 4 0.7 5 1.7 0.9 1 2.3 4.5 3.1 7.8 0.7 3.3 3.7 15.7 6.5 27.5 4.2 17.4 5.2 22.8 4.6 34.9l8-0.6c4.4-0.3 14.6 0 22.7 0.6 8.2 0.6 17.9 1.8 21.8 2.6 3.9 0.8 8.3 2.2 10 3 1.6 0.8 3.7 2.5 4.5 3.8 1.3 1.8 1.5 7.4 1.5 35 0 31.4-0.1 32.8-2 34.7-1.1 1.1-3.8 2.2-6.3 2.5-2.3 0.2-10.3 0.6-17.7 0.9-7.4 0.3-15.3 1-17.5 1.6-2.9 0.9-6.6 3.7-23.5 20.5v9.8c0 5.3-0.5 10.6-1 11.7-0.8 1.6-2 2-5.5 2-3.6 0-4.8-0.5-6-2.2-1-1.5-1.5-4.8-1.6-17.3l-7.2-8.5c-4-4.6-9.8-11.1-12.9-14.5-5.1-5.3-5.7-6.5-5.8-10.2 0-3.4 0.5-4.6 2.2-5.8 2-1.3 8.8-1.5 91.8-1.5l-0.5-35.4-4.5-1.4c-2.8-0.9-11.5-1.6-23-1.9-15.2-0.4-18.8-0.8-20.3-2.2-1-0.9-1.8-3-1.7-4.8 0-2.1 0.8-4.1 2.2-5.5 2.2-2.1 2.8-2.1 20.8-1.5 10.2 0.3 19.6 0.8 21 1.2 2.1 0.5 2.2 0.4 0.5-0.4-1.1-0.5-6.7-1.4-12.5-2.1-6.3-0.8-16.1-1.1-24.5-0.7-7.7 0.3-16.5 1.1-19.5 1.7-3 0.7-8.4 2.7-12 4.5-3.6 1.8-9.9 4.5-14 5.9-4.1 1.5-11.1 3.6-15.5 4.7-4.4 1-12.5 2.2-28 3.2l3.5 2.9c1.9 1.6 9.5 7.3 16.8 12.6 9.4 6.9 13.5 10.4 13.9 12.2 0.3 1.4 0.2 3.6-0.3 5-0.5 1.3-2 3.1-3.4 3.9-1.5 0.8-3.5 1.1-5 0.7-1.4-0.3-11.2-7.6-21.8-16.1-10.5-8.5-19.4-15.5-19.7-15.5-0.3 0 1.3 1.7 3.4 3.8 2.5 2.3 4.2 5.1 4.8 7.5 0.7 3.3 1.5 4.1 6.3 6.4 3 1.5 9.3 5.3 14 8.4 4.7 3.1 11.4 8.4 15 11.6 3.6 3.3 9.5 9.5 13.1 13.9 3.7 4.3 8.7 11.1 11.2 14.9 2.5 3.9 6.3 11 8.5 16 2.2 5 5.1 12.6 6.5 17 1.3 4.4 3.1 11.4 3.8 15.5 0.7 4.1 1.3 13.6 1.3 21 0.1 7.4-0.2 16.8-1.4 28h3c1.6 0 3.7 0.3 4.6 0.8 0.9 0.4 2.3 1.9 3 3.5 0.8 1.5 1.4 4.4 1.4 6.5 0 2-0.9 6.9-2.1 10.7-1.2 3.9-3.7 10.5-8.9 22.5l6.9 12.8c3.7 7 13 23.8 20.5 37.5 8.9 16.3 13.6 25.7 13.6 27.7 0 1.7-0.7 3.7-1.5 4.5-1 1-3 1.4-5.7 1.3-3.9-0.3-4.4-0.7-7.1-5.3-1.6-2.7-6.7-12-11.2-20.5-4.6-8.5-11.6-21.6-15.7-29.1-4-7.5-7.6-13.8-8-14-0.3-0.2-2.6 2.5-4.9 6.1-2.4 3.6-9.3 11.5-15.4 17.5-6.1 6.1-14.8 13.5-19.5 16.7-4.7 3.1-13.7 8.1-20 11.2-6.3 3-16.2 7.1-22 9.1-5.8 2-15.2 4.6-21 5.8-8.8 1.8-13.9 2.1-31.5 2.2-16.7 0-23.1-0.4-31-1.9-7.1-1.4-10.5-2.5-11.9-4-1.6-1.7-1.8-3-1.3-6.8 0.7-4.6 0.5-4.9-2.8-7.8-1.9-1.6-3.8-3-4.3-3-0.4-0.1 0.1 0.7 1 1.7 1 1 1.8 3.4 1.8 5.3 0.1 2.1-0.6 4.1-1.6 5-1.2 1.1-2.9 1.3-6.8 0.8-3.2-0.4-9.6-2.8-17.1-6.5-6.6-3.3-15.6-8.4-20-11.3-4.4-3-12.1-9.4-17-14.4-5-5-11.5-12.6-14.5-16.8-3-4.3-5.7-7.7-6-7.8-0.3 0-2.1 3.2-4.1 7.2-2 4-9.7 18.6-17.2 32.3-7.4 13.8-14.4 26-15.6 27.3-1.1 1.2-3.2 2.2-4.6 2.2-1.4 0-3.4-0.9-4.5-2-1.1-1.1-2-3.3-2-5 0-1.8 2.7-8.1 6.9-15.7 3.8-7.1 9.4-17.4 12.5-23 3.1-5.7 5.6-10.5 5.6-10.8 0-0.3-1-0.5-2.3-0.5-1.2 0.1-3.1-0.9-4.2-2.1-1.1-1.2-4-5.8-6.5-10.4-2.5-4.5-6.3-11.4-8.5-15.3-2.2-4-4.2-7.2-4.5-7.2-0.3 0-4.6 2.3-9.5 5.1-5 2.8-13.4 7.3-18.8 10-5.3 2.7-10.9 4.9-12.5 4.9-1.5 0-5.2-1.5-8.2-3.2-3-1.7-12.5-7.1-21-12.1-8.5-4.9-16.2-8.7-17-8.5-0.8 0.3-7.8 8.7-15.5 18.7-7.7 10-17.5 23-21.8 28.9-4.2 5.9-8.4 11.5-9.2 12.5-0.8 0.9-2.7 1.7-4.3 1.7-1.5 0-3.7-0.7-5-1.5-1.5-1-2.2-2.5-2.2-4.7-0.1-2.2 1.2-5.2 3.6-8.8 2-3 5.3-7.5 7.4-10 2-2.5 10.4-13.3 18.6-24 8.1-10.7 23.8-31.4 34.7-46 11-14.6 23.2-30.5 27-35.5 6.6-8.4 7.1-9.3 7.1-14.1 0.1-3 0.7-5.8 1.6-6.8 0.9-1 2.9-1.7 5.2-1.6 3 0 4.3 0.6 5.8 2.8 1.4 1.7 2.1 4.2 2 7 0 3.3 0.9 5.5 3.8 10 2.2 3.1 7.9 12.5 12.9 20.7 5 8.3 15.5 26 23.4 39.5 7.8 13.5 16.3 28.3 23.2 41.5l9.2-18.3-3.7-7.9c-2-4.3-4.8-11.4-6.3-15.8-2-5.9-2.6-9.2-2.2-12.5 0.4-3.2 1.3-5.2 3.1-6.7 1.5-1.3 3.9-2.3 8.6-2.3l-0.8-6.2c-0.4-3.5-0.6-12.8-0.6-20.8 0.1-10.6 0.8-17.3 2.4-25 1.2-5.8 3.3-14.1 4.8-18.5 1.4-4.4 4.7-12 7.2-17 2.5-5 6.5-11.7 9-15 2.4-3.3 7.2-9.4 10.6-13.5 3.4-4.1 9-9.7 12.3-12.5 3.4-2.7 5.9-5.2 5.6-5.5-0.3-0.3-1.1 0.1-1.7 0.8-0.7 0.6-2.8 1.2-4.7 1.2-2 0.1-4.2-0.5-4.9-1.2-0.7-0.8-1.1-3.2-0.7-10.3l14.9-12c8.2-6.6 15.1-12.6 15.3-13.2 0.2-0.9-1.2-1.3-5-1.3-2.8 0-9.9-1.1-15.7-2.5-5.8-1.4-16.4-4.5-23.5-6.9-7.2-2.4-17.5-5.2-23-6.2-8.3-1.6-14.2-1.9-34.5-1.7-15.3 0.1-27.1 0.7-38.5 2.8l-0.5 49.3c-0.5 47.9-0.6 49.4-2.5 50.8-1.1 0.8-3.1 1.4-4.5 1.4-1.4 0-3.5-1-7-4.5l0.3-52.7c0.2-51.2 0.3-52.8 2.2-54.7 1.6-1.6 5.2-2.5 16.5-4.2 11-1.6 19.4-2.1 35-2.1 11.3-0.1 22.3 0.2 28.5 1.3l-0.4-7.3c-0.3-5.7 0.1-8.3 1.7-11.8 1.1-2.5 5.2-17.1 9.1-32.5 3.8-15.4 7.6-32.3 8.4-37.5 0.8-6 2.1-10.7 3.4-12.8 1.2-1.8 4.1-4.2 6.5-5.4 2.3-1.2 7.4-2.9 11.3-3.9 5-1.3 11.2-1.8 22-1.8zm-24 16.8l-2 1.2c3.1-0.8 6.9-1.5 10.5-2.1 3.6-0.5 10.3-1 15-1 4.7 0 13 0.7 18.5 1.5 5.5 0.9 14 2.9 19 4.6 4.9 1.7 12.8 5 17.5 7.4 5.8 3 7.5 3.6 5.5 2-1.7-1.4-6.2-4-10-5.9-3.9-1.9-10.6-4.6-15-6.1-4.4-1.4-11.8-3.2-16.5-4-4.7-0.9-13-1.5-18.5-1.4-5.5 0-12.7 0.6-16 1.3-3.3 0.7-6.9 1.8-8 2.5zm171.7 75.1c-3.4 1.1-8.8 3.2-11.9 4.8-3.1 1.5-7.7 4.5-10.1 6.7-2.4 2.2-5.1 5.6-5.8 7.5-1.3 3.1-1.2 3.9 0.4 7 1 1.9 3.4 4.5 5.3 5.8 1.9 1.3 5.2 2.8 7.4 3.5 2.5 0.7 10.7 1.2 21.5 1.2 15.1 0 18.7-0.4 26-2.3 4.7-1.3 12.3-4 17-6 6.2-2.7 9.9-5.1 13.7-8.9 4.1-4.1 5.3-6 5.3-8.3 0-1.7-1-4.2-2.3-5.7-1.3-1.6-4.6-3.8-7.3-5-2.7-1.2-8.9-2.9-13.9-3.7-5-0.9-12.1-1.6-16-1.5-3.9 0-10.6 0.7-15 1.5-4.4 0.8-10.8 2.3-14.3 3.4zm-191.4 5.8c-1.5 0.6-3.4 2.1-4.2 3.4-0.8 1.3-1.1 3.1-0.8 4.2 0.4 1.1 2.5 3.8 4.7 6 2.2 2.2 7.1 5.5 11 7.2 3.9 1.8 10.6 4.3 15 5.7 4.4 1.4 12.7 3.2 18.5 4.1 5.8 0.9 14.1 1.6 18.5 1.6 4.4 0 10.9-0.5 14.5-1.1 3.6-0.6 8-1.7 9.7-2.5 2.2-0.9 3.3-2.1 3.3-3.4 0-1.2-2.2-3.9-5.3-6.6-2.8-2.5-9.3-6.6-14.2-9-4.9-2.4-13.1-5.5-18-6.9-4.9-1.4-13.3-3.3-18.5-4-5.2-0.8-12-1.4-15-1.4-3 0.1-8 0.5-11 0.9-3 0.4-6.7 1.2-8.2 1.8zm100.2 57.1c-4.5 0.8-7.1 1.6-6.5 2.1 0.6 0.6 4.7 0.3 10-0.5 5.1-0.9 15.5-1.5 24-1.5 8.4 0.1 18.1 0.7 22 1.4 3.9 0.8 7.2 1.2 7.5 1 0.3-0.2 0.3-0.6 0-0.9-0.3-0.3-4.1-1.1-8.5-1.9-4.4-0.8-12.9-1.7-19-2-6.1-0.2-13.5-0.1-16.5 0.3-3 0.5-8.9 1.4-13 2zm-23.5 9.4c0.3 0.9 1.1 1.7 1.7 1.7 0.7 0.1 1.9-0.6 2.5-1.5 1-1.2 1-1.8 0-3-0.6-0.9-1.5-1.6-1.8-1.5-0.4 0-1.2 0.6-1.8 1.3-0.6 0.6-0.9 2-0.6 3zm94 0.2c0.3 0.8 0.8 1.5 1.2 1.5 0.5 0.1 1.5-0.6 2.3-1.5 1.3-1.4 1.3-1.8 0-3.1-1.4-1.3-1.7-1.3-2.8 0-0.7 0.9-1 2.3-0.7 3.1zm-80 10.4c-1.1 1-3 2.4-4.3 3-1.2 0.6-4.9 1.1-8.2 1.1-3.3 0-6.9-0.4-8-1-1.5-0.8-3.2-0.4-7.3 1.6-2.8 1.5-8.3 4.8-12.2 7.3-3.8 2.5-11.2 8.7-16.4 13.6-5.1 5-11.5 11.9-14.2 15.5-2.7 3.6-6.9 10.3-9.3 15-2.5 4.7-5.9 12.8-7.6 18-1.7 5.2-3.7 13.3-4.6 18-0.8 4.7-1.4 14.2-1.4 21.3 0 8.6 0.6 15.8 2 22.5 1 5.3 3.1 12.7 4.5 16.5 1.4 3.7 4.5 10.6 6.9 15.5 2.4 4.8 7.9 13.2 12.3 18.7 4.4 5.5 10.9 12.7 14.4 16.1 3.5 3.3 9.1 8 12.4 10.5 3.3 2.4 9.6 6.3 14 8.6 4.4 2.2 11.8 5.4 16.5 7.1 4.7 1.6 13.2 4 19 5.3 8.9 2.1 13.1 2.4 28 2.3 15.7 0 18.6-0.3 28.5-2.8 6-1.6 14.8-4.5 19.5-6.5 4.7-2 12.3-5.9 17-8.6 4.7-2.8 11.6-7.5 15.5-10.6 3.9-3 10.3-9.1 14.4-13.5 4.1-4.3 9.6-11 12.4-14.9 2.7-3.8 6.8-11 9.2-16 2.3-4.9 5.1-11.9 6.3-15.5 1.2-3.6 2.9-9.9 3.7-14 0.9-4.1 1.9-11.8 2.2-17 0.3-5.5 0-13.3-0.7-18.5-0.6-4.9-2.3-12.8-3.6-17.5-1.3-4.7-4.8-13.4-7.8-19.5-3-6-7.6-14-10.3-17.6-2.6-3.7-6.9-8.9-9.4-11.5-2.5-2.7-7.2-7.3-10.5-10.3-3.2-3-8.2-7.1-10.9-9.1-2.8-2-8.3-5.5-12.3-7.8-6.7-3.9-7.4-4.1-10-2.8-1.5 0.7-4.1 1.6-5.7 1.9-1.6 0.3-4.8 0.2-7-0.3-2.2-0.6-5.1-2.1-6.5-3.4-1.5-1.5-5.1-3.2-9-4.1-4.2-1.1-12.3-1.8-23-2.1-13.5-0.3-18.3 0-26.5 1.6-6.2 1.2-10.8 2.7-12 3.9zm171 23.9c1.6 2.3 3.2 4.2 3.5 4.2 0.3 0 2.9-2.5 5.9-5.5l5.4-5.5c-17.5 0-19.3 0.3-18.6 1.3 0.4 0.7 2.2 3.2 3.8 5.5zm-373 105.8c-5.5 7.6-12.6 17.2-15.8 21.3-3.2 4.2-5.4 7.9-5 8.3 0.4 0.3 7.5 4.5 15.8 9.2l15 8.5c0.4-24.3 0.4-38.1 0.3-46.3l-0.3-14.8zm23.5 17.1c0 16.1 0.2 29.3 0.5 29.3 0.3 0 6.1-3.2 13-7 12.2-6.8 12.5-7.1 11.1-9.3-0.7-1.2-6.6-11.2-13-22.2l-11.6-20zm83 23.7c2.6 5.5 7.1 13.7 10.1 18.2 3 4.6 8.1 11.3 11.3 15 3.3 3.8 9.2 9.7 13 13.1 3.9 3.4 9.6 7.9 12.6 9.9 3 2.1 9.8 5.8 15 8.4 5.2 2.6 10.6 5 12 5.4 1.4 0.3-2.5-1.8-8.5-4.7-6.1-3-13.9-7.4-17.5-9.8-3.6-2.4-11-8.7-16.4-13.9-5.4-5.3-12.5-12.9-15.6-17.1-3.1-4.1-7.8-11.1-10.3-15.5-2.5-4.4-6.2-12-8.2-17-2.1-4.9-4.2-9.4-4.7-10-0.5-0.5-0.2 1.1 0.7 3.5 1 2.5 3.9 9 6.5 14.5zm260.6 0c-1.8 3.9-6.2 11.5-9.8 17-3.6 5.5-10.1 13.8-14.4 18.4-4.4 4.6-11.7 11.3-16.4 14.8-4.7 3.6-14.4 9.4-21.5 12.9-7.2 3.5-17.7 8-23.5 9.9-5.8 1.9-15.7 4.2-22 5.1-9 1.3-15.3 1.6-29 1.1-9.6-0.3-19.1-0.9-21-1.3-2.1-0.4-3.3-0.4-2.9 0.2 0.4 0.5 4.2 1.6 8.5 2.4 5 1 13.3 1.5 22.4 1.5 10.8-0.1 17.4-0.7 26-2.4 6.3-1.3 16.4-4.1 22.5-6.2 6-2.2 15.5-6.2 21-9 5.5-2.7 13.6-7.6 17.9-10.7 4.4-3.1 11.9-9.5 16.5-14.2 4.7-4.7 11.1-12.1 14.3-16.5 3.1-4.4 7.9-12.2 10.6-17.5 2.8-5.2 6.1-12.6 7.4-16.4 1.3-3.8 2.3-7.1 2.2-7.4 0-0.2-1.3 2.2-2.8 5.4-1.6 3.3-4.3 9.1-6 12.9zm105.2-318.4c2.1 0 4.4 0.7 5.5 1.7 1.6 1.6 1.7 3.9 1.6 44.7l3.8 0.8c2.1 0.4 6.5 0.7 9.8 0.8 3.3 0 10.7 0.7 16.5 1.5 5.8 0.8 13.2 2.2 16.5 3 3.3 0.9 6.8 2.3 7.8 3.2 1.3 1.3 1.7 2.9 1.5 5.7-0.3 3.8-0.6 4.2-5.8 6.7-3 1.5-9.1 3.4-13.5 4.2-4.4 0.8-10.2 1.8-12.8 2.1-4.1 0.5-5.8 1.5-13.5 8.3-4.8 4.2-9.1 8.2-9.5 8.7-0.4 0.6-0.7 34.6-0.8 150l11.3 15c6.2 8.3 15.5 21 20.8 28.2 5.2 7.2 16 22 24 32.9 8 10.8 20.2 27.2 27.2 36.3 11.1 14.5 12.7 17.1 12.8 20.4 0 2.1-0.7 4.4-1.6 5.2-0.9 0.9-3.1 1.5-5 1.5q-3.4 0.1-5.4-2.2c-1.1-1.2-8.4-11-16.1-21.8-7.7-10.7-17.3-23.6-21.2-28.7-4-5-7.6-9.2-8-9.2-0.4 0-2.4 1-4.5 2.3-2 1.3-11.1 6.5-20.2 11.6-9.1 5.1-18.1 9.5-20 9.7-2.8 0.5-5.4-0.4-13-4.2-5.2-2.6-14.4-7.4-20.3-10.8-6.8-3.8-11.1-5.8-11.6-5.2-0.5 0.6-3.1 4.4-5.8 8.5-2.8 4.2-6.7 10.7-8.8 14.5-2.1 3.9-4.9 8.5-6.2 10.3-1.9 2.6-3 3.2-5.8 3.2-1.9 0-4.2-0.6-5-1.5-0.8-0.8-1.8-2.5-2.1-3.7-0.5-1.5 0.2-3.8 1.8-6.8 1.3-2.4 7-11.7 12.4-20.5 5.5-8.8 14.2-22.5 19.3-30.5 5.1-7.9 13.2-20.3 17.9-27.5 4.7-7.1 10.9-16.2 19.2-27.5v-149l-18.5-16.2-12-2.4c-7-1.4-14.3-3.5-17.5-5.1-5.3-2.6-5.5-2.9-5.5-6.6 0-3 0.6-4.4 2.5-5.8 1.4-1.1 5-2.5 8-3.3 3-0.8 10.1-2.2 15.7-3 5.7-0.9 14.1-1.6 27.3-1.6l-0.1-21.7c-0.1-18.8 0.1-22.1 1.5-24 1.2-1.6 2.7-2.2 5.4-2.2zm6.2 62.7c4.1-0.2 0.5-0.4-8-0.4-8.5 0-11.9 0.2-7.5 0.4 4.4 0.2 11.4 0.2 15.5 0zm1 231.5c0 16.4 0.2 29.7 0.5 29.7 0.3 0 6.2-3.2 13.2-7.1 7-3.9 13.6-7.7 14.5-8.3 1-0.6 1.7-1.4 1.6-1.8 0-0.3-4.8-7.1-10.5-15-5.8-7.8-12.4-17.2-14.9-20.8l-4.4-6.5zm-16.5-25.7c-1.1 1.7-7.2 11.3-13.7 21.5l-11.7 18.5c4.2 3.1 10.3 6.8 16.4 10.1l11 6.1c0.4-23.4 0.4-36.7 0.3-44.7l-0.3-14.4z"/>
		<path id="Path 1" fill-rule="evenodd" class="s1" d="m233.8 243.1c6.7-0.1 17.3 0.6 23.4 1.5 6.2 0.8 16.5 2.6 22.8 4 6.3 1.3 17.1 4.1 24 6.3 6.9 2.1 16 5.3 20.2 7 4.3 1.7 11.5 4.9 16 7.2 4.6 2.3 11.9 6.5 16.3 9.4 4.4 3 10.6 7.7 13.9 10.7 3.2 2.9 6.9 7.1 8.2 9.3 1.3 2.2 2.7 6.5 3 9.5 0.4 3.2 0.2 7.1-0.5 9.3-0.7 2.3-2.7 5-5.4 7.2-2.3 2-7 4.5-10.7 5.7-4.9 1.5-10.1 2.2-21 2.6-10.6 0.3-17.8 0-27-1.3-6.9-0.9-13.5-2.3-14.8-3.1-1.5-0.9-2.2-2.4-2.2-4.4 0-1.6 0.7-3.7 1.6-4.5 0.8-0.8 2.5-1.5 3.7-1.5 1.2 0 4 0.5 6.2 1 2.2 0.5 10.5 1.4 18.5 2.1 11 0.9 16.4 0.9 22.2 0 4.3-0.6 9.6-2 11.8-3.1 2.2-1.1 4.7-3 5.6-4.2 1.1-1.6 1.3-3.3 0.9-5.3-0.4-1.6-3.3-5.6-6.4-8.8-3.1-3.3-8.5-7.8-12.1-10.2-3.6-2.4-9.9-6.1-14-8.4-4.1-2.2-11.8-5.8-17-7.9-5.2-2.2-13.9-5.4-19.3-7.1-5.3-1.7-14.1-4.2-19.5-5.6-5.3-1.4-15.8-3.4-23.2-4.5-7.4-1.1-18.4-2-24.5-2-6.4 0-13.7 0.7-17.5 1.6-3.6 0.8-7.9 2.3-9.5 3.3-1.7 1.1-3.6 3.2-4.3 4.7-1.2 2.5-1.1 3.4 0.4 6.4 0.9 1.9 4 5.8 6.8 8.5 2.8 2.8 8.3 7.1 12.1 9.7 3.9 2.6 10.8 6.6 15.5 8.9 4.7 2.3 12.4 5.7 26 10.9l1.4-2.7c0.7-1.6 4-4.4 7.2-6.5 3.3-2 6.7-4.4 7.6-5.5 1.7-1.7 1.7-1.9-1.2-4.8-2.2-2.1-3-3.9-3-6.2 0-2.4 0.8-3.9 2.7-5.4 2.4-1.8 3.7-2.1 9.8-1.6 4.5 0.3 9.2 1.5 13 3.2 3.3 1.4 6.8 3.4 7.9 4.3 1 0.9 2.5 3.1 3.3 4.7 1.2 2.5 1.3 3.4 0.1 5.9-0.8 1.8-2.8 3.7-5.3 4.8-2.3 1-6.4 1.8-9.5 1.8-3 0-6.3 0.5-7.3 1.2-1.8 1.3-1.8 1.4 0.2 4.8 1.2 2.1 2.1 5.2 2.1 7.8 0 2.3-0.8 5.5-1.8 7.2-0.9 1.6-3.2 3.8-8.2 6.5v65.3c0 63.9 0 65.2-2 67.2-1.1 1.1-3.1 2-4.5 2-1.5 0-3.1-0.9-4-2.2-1.3-2-1.5-11.1-1.6-132.3l-3.2-3.6c-2.5-2.8-5.5-4.5-13.2-7.4-5.5-2.1-13.6-5.4-18-7.4-4.4-2.1-12.5-6.7-18-10.2-5.5-3.6-13-9.4-16.6-12.9-3.6-3.6-7.5-8.6-8.7-11.2-1.2-2.7-2.2-6.6-2.2-8.8 0-2.2 0.9-5.8 2-8 1.1-2.2 3.5-5.1 5.2-6.4 1.8-1.4 5.1-3.2 7.3-4.2 2.2-0.9 6.7-2.2 10-2.9 3.3-0.8 11.5-1.4 18.2-1.4zm42.5 71.3c0.5 0.9 1.6 1.5 2.5 1.3 1-0.1 1.8-1.1 1.8-2.1 0-1.1-0.4-2.1-1-2.3-0.6-0.1-1.7 0.1-2.5 0.6-0.9 0.6-1.2 1.5-0.8 2.5zm493.8-70.9c12.3 0.2 19.3 0.9 23.5 2 3.3 0.9 7.6 2.5 9.5 3.5 1.9 1 4.7 3.1 6.2 4.7 1.5 1.5 3.4 4.5 4.2 6.6 0.9 2 1.6 4.7 1.6 6 0 1.2-0.6 4-1.3 6.2-0.7 2.5-3.6 6.5-7.7 10.9-3.6 3.8-10.8 9.7-16 13.2-5.2 3.5-13.8 8.2-19 10.5-5.2 2.2-13.4 5.4-18.3 7-5.3 1.8-10.8 2.9-14.2 2.9-4.7 0-5.9-0.4-8.1-2.7-1.4-1.6-4.7-5.8-11.9-16.4l-7 0.1c-3.9 0-8.5-0.4-10.3-1-1.7-0.5-3.7-1.9-4.2-3-0.5-1.1-1-3.2-1-4.7 0-1.8 1-3.8 2.7-5.5 1.6-1.5 5.5-3.9 8.8-5.4 4-1.8 8.4-2.9 13-3.3 5.5-0.4 7.6-0.1 9.7 1.2 2.2 1.3 2.8 2.5 2.8 5.2 0 2.3-0.9 4.6-5 9.5l5 7c2.7 3.9 5.6 7.2 6.2 7.4 0.7 0.1 4.4-0.6 8.3-1.6 3.9-1.1 11.5-3.8 17-6.1 5.5-2.4 14-6.9 19-10.1 5-3.3 11.1-8 13.6-10.5 2.5-2.5 5-5.9 5.6-7.6 0.9-2.4 0.8-3.6-0.6-6-0.9-1.6-3.5-3.8-5.7-4.9-2.1-1-7.5-2.5-11.9-3.4-5.9-1.1-11.8-1.3-22.5-0.9-9.4 0.4-19.1 1.5-27.5 3.1-7.1 1.4-18.6 4.1-25.5 6-6.9 1.9-16.8 5-22 6.9-5.2 2-13.1 5.5-17.5 7.8-4.4 2.3-11.4 6.4-15.5 9-4.1 2.6-9.9 7.2-12.8 10.3-4.5 4.8-5.2 6.2-5.2 9.6 0 3.1 0.6 4.5 2.7 6.3 1.6 1.3 5.3 3.2 8.3 4.2 4.7 1.7 8 2 23 1.9 13-0.1 20.7-0.7 30-2.3 6.9-1.1 13.3-2.1 14.2-2.1 1 0 2.7 0.9 3.8 2 1.1 1.1 2 2.6 2 3.3 0.1 0.6-0.7 2.2-1.7 3.5-1.5 1.9-3.9 2.6-14.8 4.4-10.1 1.6-17.7 2.1-34 2.2-17.1 0.1-22-0.2-26.5-1.6-3-0.9-7.7-3.2-10.3-5-3-2-5.6-4.8-6.8-7.3-1.1-2.3-1.9-6.1-1.9-9 0-2.7 0.9-6.8 1.8-9 1-2.2 3.4-5.7 5.3-7.9 1.9-2.1 6.3-6 9.9-8.6 3.6-2.6 10.8-7.1 16-10 5.2-2.8 14.2-7.2 20-9.7 5.8-2.4 15.5-6 21.5-7.8 6-1.8 16.6-4.5 23.5-5.9 6.9-1.5 16.5-3.3 21.5-4.1 6.3-1 14.3-1.3 26.5-1zm-355.5 109.6c11.1-0.1 16.4 0.4 25.5 2.3 6.3 1.3 14.9 3.6 19 5.1 4.1 1.5 11.1 4.6 15.5 7 4.4 2.4 9.9 5.7 12.2 7.4 2.4 1.7 5.2 4.6 6.3 6.4 1.8 2.8 2 5 2 18.7 0 12.2-0.3 16-1.5 17.8q-1.5 2.2-4.5 2.2c-2 0-3.5-0.8-4.6-2.2-0.9-1.5-1.4-3.6-1.1-5.8 0.3-2.5-0.2-4.3-1.7-6.4-1.1-1.6-4.8-4.8-8.1-7.2-3.3-2.3-9.1-5.7-13-7.7-3.9-1.9-11.3-4.8-16.5-6.5-5.2-1.7-14-3.5-19.5-4.2-7.3-0.8-12.3-0.9-18.5-0.1-4.7 0.6-10.8 1.7-13.5 2.6-2.8 0.8-6.2 2.5-7.7 3.7-2.4 2-3.5 5.1-8.2 23.8-3.1 11.8-5.9 22.6-7.1 26.2l7.5-0.8c4.1-0.5 11.8-0.8 17-0.6 5.2 0.1 15 1.3 21.7 2.7 6.8 1.4 16.2 4 21 5.9 4.9 1.8 10.8 4.3 13.3 5.6 2.5 1.2 7.4 4.4 11 7 3.6 2.6 7.8 6.7 9.4 9.1 1.6 2.4 3.1 5.8 3.4 7.4 0.2 1.7-0.1 4.7-0.7 6.8-0.6 2.2-2.7 5-4.9 7-2.2 1.7-7.9 4.9-12.8 6.9-4.9 2.1-11.9 5.9-15.5 8.5-3.6 2.7-11.5 8.8-17.5 13.8-6 4.9-12.9 10.6-15.4 12.7-2.6 2.2-5.6 3.9-7 3.9-1.4 0-3.1-0.6-3.8-1.3-0.7-0.7-1.1-2.9-1-4.8 0.3-3.1 1.4-4.4 10.8-11.8 5.8-4.6 13.1-10.7 16.3-13.5 4.2-3.7 5.5-5.4 4.5-5.9-0.7-0.4-3.6-0.8-6.3-0.8-2.8 0-9.7-1.1-15.5-2.5-5.8-1.4-16.4-4.5-23.5-6.9-7.1-2.4-17.5-5.2-23-6.2-8.3-1.6-14.3-1.9-35.5-1.7-16.2 0.1-28 0.6-39.5 2.8l-0.5 49.3c-0.5 47.9-0.6 49.4-2.5 50.8-1.1 0.8-2.7 1.4-3.5 1.4-0.8 0-2.5-1-6-4.5l0.3-51.7c0.2-50.2 0.3-51.8 2.2-53.7 1.6-1.6 5.2-2.5 16.5-4.1 10.3-1.5 19.7-2.2 32.5-2.2 9.9-0.1 21.4 0.3 25.5 0.7 7.2 0.8 7.5 0.7 6.6-1.1-0.5-1-1.1-4.4-1.4-7.4-0.3-4.1 0.1-6.6 1.6-10 1.1-2.5 5.2-17.1 9.1-32.5 3.8-15.4 7.6-32.3 8.4-37.5 0.8-6 2.1-10.7 3.4-12.8 1.2-1.8 4.1-4.2 6.5-5.4 2.3-1.2 7.4-2.9 11.3-3.9 4.9-1.2 11.2-1.8 21-1.8zm-24 15.8l-2 1.2c3.1-0.8 6.9-1.5 10.5-2.1 3.6-0.5 10.3-1 15-1 4.7 0 13 0.7 18.5 1.5 5.5 0.9 14 2.9 19 4.6 4.9 1.7 12.8 5 17.5 7.4 5.8 3 7.5 3.6 5.5 2-1.6-1.4-6.1-4-10-5.9-3.9-1.9-10.6-4.6-15-6.1-4.4-1.4-11.8-3.2-16.5-4-4.7-0.9-13-1.5-18.5-1.4-5.5 0-12.7 0.6-16 1.3-3.3 0.7-6.9 1.8-8 2.5zm-19.7 80.9c-1.5 0.6-3.4 2.1-4.2 3.4-0.8 1.3-1.1 3.1-0.8 4.2 0.4 1.1 2.5 3.8 4.7 6 2.2 2.2 7.1 5.5 11 7.2 3.9 1.8 10.6 4.3 15 5.7 4.4 1.4 12.7 3.2 18.5 4.1 5.8 0.9 14.1 1.6 18.5 1.6 4.4 0 10.9-0.5 14.5-1.1 3.6-0.6 8-1.7 9.7-2.5 2.2-0.9 3.3-2.1 3.3-3.4 0-1.2-2.2-3.9-5.3-6.6-2.8-2.5-9.3-6.6-14.2-9-5-2.4-13.1-5.5-18-6.9-5-1.4-13.3-3.3-18.5-4-5.2-0.8-12-1.4-15-1.4-3 0.1-8 0.5-11 0.9-3 0.4-6.7 1.2-8.2 1.8zm361-69.8c1.5 0 3.5 0.8 4.5 1.8 1.6 1.5 1.8 3.8 1.7 44.7l3.7 0.7c2.1 0.4 6.5 0.8 9.8 0.8 3.3 0 10.7 0.7 16.5 1.5 5.8 0.8 13.2 2.2 16.5 3.1 3.3 0.8 6.8 2.3 7.8 3.2 1.2 1.1 1.7 2.8 1.5 4.7-0.3 2.5-1.2 3.4-5.8 5.7-3 1.4-9.1 3.3-13.5 4.2-4.4 0.8-10.1 1.7-12.8 2-4.1 0.5-5.8 1.5-13.5 8.3-4.8 4.3-9 8.2-9.4 8.8-0.4 0.5-0.8 35-0.8 152l11.2 15c6.2 8.3 15.5 20.9 20.8 28.1 5.2 7.3 16 22.1 24 32.9 8 10.9 20.2 27.2 27.2 36.4 9.2 11.9 12.8 17.4 12.8 19.4 0 1.5-0.7 3.4-1.6 4.2-0.8 0.8-2.6 1.5-4 1.5-1.3 0-3.3-1-4.4-2.2-1.1-1.3-8.8-11.8-17.2-23.3-8.3-11.5-17.9-24.4-21.1-28.5-3.3-4.1-6.4-8-6.8-8.5-0.5-0.6-3.2 0.5-7.1 3-3.5 2.2-13.1 7.7-21.3 12.3-8.3 4.6-16.1 8.6-17.5 8.9-1.8 0.3-5.9-1.2-14.5-5.6-6.6-3.3-16.2-8.3-30.5-16.1l-5.8 8.8c-3.2 4.8-7.6 11.9-9.7 15.7-2.1 3.9-4.9 8.5-6.2 10.3-1.4 2-3.1 3.2-4.6 3.2-1.2 0-2.7-0.4-3.3-0.8-0.6-0.4-1.6-1.7-2.3-2.9-0.9-1.9-0.7-3 1.2-6.5 1.3-2.4 6.9-11.5 12.4-20.3 5.5-8.8 14.1-22.5 19.2-30.5 5.1-8 13.2-20.3 17.9-27.5 4.7-7.1 10.9-16.3 19.2-27.5v-151l-18.5-16.3-12-2.3c-7-1.4-14.3-3.5-17.5-5.1-4.5-2.3-5.5-3.3-5.8-5.5-0.1-2.1 0.5-3.4 2.5-4.8 1.6-1.2 4.4-2.5 6.3-3.1 1.9-0.5 7.3-1.6 12-2.5 4.7-0.9 14-1.9 33.2-2.9l-0.1-21.5c-0.1-18.1 0.1-21.9 1.4-23.7 1-1.5 2.6-2.3 4.3-2.3zm6.2 61.7c4.1-0.1 0.5-0.3-8-0.3-8.5 0-11.9 0.2-7.5 0.3 4.4 0.2 11.4 0.2 15.5 0zm1 231.6c0 16.3 0.2 29.7 0.5 29.7 0.3 0 6.2-3.2 13.2-7.2 7.1-3.9 13.6-7.6 14.6-8.2 0.9-0.6 1.6-1.4 1.6-1.8-0.1-0.4-4.9-7.1-10.6-15-5.7-7.9-12.4-17.2-14.9-20.8l-4.4-6.5zm-16.5-25.7c-1.1 1.6-7.2 11.3-13.7 21.5l-11.7 18.5c4.2 3.1 10.3 6.7 16.4 10.1l11 6.1c0.4-23.4 0.4-36.8 0.3-44.7l-0.3-14.5zm-98.2-256.5c1.2-0.1 3 0.7 3.9 1.7 1 1 2.4 4.5 3.1 7.8 0.8 3.3 3.7 15.7 6.6 27.5 4.6 18.8 5.2 22.3 4.1 35l8.2-0.6c4.6-0.3 14.9-0.1 23 0.5 8.1 0.6 17.9 1.8 21.8 2.6 3.8 0.8 8.3 2.2 10 3 1.6 0.8 3.6 2.5 4.5 3.7 1.2 1.9 1.5 7.4 1.5 34 0 30.5-0.1 31.9-2 33.8-1.2 1.1-3.9 2.2-6.3 2.5-2.3 0.2-10.3 0.6-17.7 0.9-7.5 0.2-15.3 1-17.5 1.6-3 0.9-6.6 3.7-23.5 20.5v9.7c0 5.4-0.5 10.7-1 11.8-0.8 1.4-2 2-4.5 2-2.6 0-4-0.6-5-2.3-1-1.5-1.6-4.7-1.6-17.2l-7.2-8.5c-4-4.6-9.8-11.1-12.9-14.5-4.5-4.7-5.8-6.7-5.8-9.3 0-2.2 0.6-3.7 2.2-4.7 1.9-1.3 8.8-1.5 91.8-1.5l-0.5-37.4-4.5-1.4c-2.8-0.9-11.5-1.6-23-1.9-15.3-0.4-18.9-0.8-20.3-2.2-1-0.9-1.8-2.6-1.8-3.9 0-1.2 1.1-3.2 2.3-4.4 2.2-2.1 2.7-2.1 19.8-1.6 9.6 0.4 19.8 1.2 22.7 2 4.5 1.1 5.2 1.1 5-0.1-0.1-0.8-1.8-2-3.7-2.6-2-0.7-8.3-1.8-14-2.5-6.4-0.8-16.4-1.1-25.5-0.7-8.3 0.2-17.5 1-20.5 1.7-3.1 0.7-8.5 2.7-12 4.5-3.6 1.8-9.9 4.5-14 5.9-4.2 1.5-11.1 3.6-15.5 4.7-4.4 1-13 2.2-30 3.2l4.5 3.9c2.4 2.2 10.5 8.3 17.8 13.7 9.6 6.9 13.4 10.3 13.8 12.1 0.3 1.4-0.2 3.5-1.1 4.7-0.8 1.3-2.4 2.5-3.5 2.8-1.1 0.3-3-0.1-4.3-0.9-1.2-0.7-10.6-8-20.7-16.1-10.2-8.2-23.5-18.1-29.5-22.1-6.1-3.9-12.2-8.5-13.7-10-1.5-1.6-3.6-4.9-4.8-7.4-1.1-2.5-2-6.5-2-9 0-2.6 0.9-6.6 2.3-9.5 1.4-3.1 4.6-7 8.2-10.3 3.3-3 9.6-7.1 14-9.2 4.4-2.2 12.5-5.1 18-6.6 8-2.1 13-2.7 25.5-3.1 12.1-0.4 17.4-0.2 24.5 1.2 4.9 0.9 9.8 2.1 10.7 2.6 1 0.5 2 0.8 2.3 0.6 0.3-0.1-1.3-7.6-3.5-16.7-2.2-9.1-4.1-17.5-4.1-18.7 0-1.2 0.7-2.9 1.6-3.7 0.9-0.9 2.6-1.6 3.8-1.6zm-62.1 53c-3.4 1.1-8.8 3.2-11.9 4.7-3.1 1.6-7.7 4.6-10.1 6.8-2.5 2.2-5.1 5.6-5.9 7.5-1.2 3.1-1.2 3.9 0.5 7 1 1.9 3.4 4.5 5.3 5.8 1.8 1.2 5.2 2.8 7.4 3.5 2.4 0.7 10.6 1.2 21.5 1.2 15.1 0 18.6-0.4 26-2.4 4.6-1.2 12.3-3.9 16.9-5.9 6.3-2.7 9.9-5.1 13.8-9 4-4 5.3-5.9 5.3-8.2 0-1.7-1.1-4.2-2.4-5.8-1.3-1.5-4.5-3.7-7.2-4.9-2.7-1.2-9-2.9-13.9-3.8-5-0.8-12.2-1.5-16-1.4-3.9 0-10.6 0.7-15 1.5-4.4 0.8-10.8 2.3-14.3 3.4zm-63.7 48.4c12.3 0.3 19.6 0.9 26.5 2.4 5.2 1.1 12.4 3 16 4.1 3.5 1 8.5 3.4 11 5.3 3.4 2.5 4.8 4.5 6 8.1 1.3 4.2 2 5 7 7.4 3 1.5 9.3 5.3 14 8.4 4.6 3.1 11.4 8.4 15 11.6 3.5 3.3 9.4 9.5 13.1 13.9 3.6 4.3 8.6 11 11.1 14.9 2.5 3.8 6.4 11 8.5 16 2.2 4.9 5.1 12.6 6.5 17 1.4 4.4 3.1 11.4 3.8 15.5 0.7 4.1 1.4 13.1 1.4 20 0 6.9-0.3 16.2-1.4 29h3.5c2.1 0 4.2 0.8 5.5 2 1.1 1.1 2.3 3.2 2.6 4.7 0.4 1.6 0.2 5.3-0.5 8.3-0.6 3-3.2 10.7-10.3 28.5l5.7 11c3.1 6 7 13 8.5 15.5 1.5 2.5 8.2 14.5 14.9 26.7 6.6 12.3 12.1 23.2 12.1 24.3 0 1.1-0.8 2.7-1.8 3.6-1 0.9-3 1.4-4.7 1.2-2.3-0.2-3.5-1.4-5.8-5.3-1.7-2.8-6.2-11.1-10.2-18.5-3.9-7.4-11.2-20.9-16.1-29.9-4.9-9-9.3-16.5-9.7-16.7-0.4-0.2-2.9 2.9-5.5 6.8-2.5 4-9.6 12.2-15.7 18.3-6.1 6.1-14.8 13.5-19.5 16.7-4.7 3.1-13.7 8.1-20 11.2-6.4 3-16.3 7.1-22 9.1-5.8 1.9-15.3 4.6-21 5.8-8.7 1.8-14 2.1-30.5 2.2-15.7 0-22.2-0.4-30-1.9-7.2-1.4-10.6-2.6-11.9-4-1.5-1.7-1.8-3-1.2-6.6 0.6-3.9 0.3-4.8-1.6-6.9-1.3-1.3-8.6-5.4-16.3-9-7.7-3.7-17-8.7-20.5-11.1-3.6-2.5-11-8.8-16.4-14-5.5-5.2-12.5-12.9-15.6-17-3.2-4.1-8-11.6-10.8-16.5-2.8-5-6.5-12.8-8.4-17.4-1.8-4.6-3.9-8.6-4.6-9-0.7-0.3-1.6-0.3-2 0.2-0.4 0.4 0.6 4 2.2 8 1.6 3.9 4.6 10.6 6.6 14.7 2.1 4.1 6.4 11.5 9.7 16.5 3.3 4.9 8.4 11.7 11.3 14.9 3 3.3 7.7 8 10.3 10.5 2.7 2.5 7.4 6.5 10.5 8.8 3.1 2.3 9.3 6.2 13.7 8.6 4.4 2.4 11.1 5.7 15 7.2 3.8 1.5 7.8 3.4 8.7 4.3 1 1 1.8 2.8 1.8 4.2 0 1.4-0.7 3.2-1.6 4-1.2 1.1-2.7 1.3-5.8 0.8-2.3-0.4-9.5-3.4-16.1-6.6-6.6-3.2-15.6-8.3-20-11.2-4.4-3-11.9-9.3-16.6-14-4.7-4.7-11.7-12.7-22.4-27.1l-7.4 14.3c-4 7.9-11.1 21-15.6 29.3-4.6 8.2-9.5 17.4-10.9 20.2-1.5 2.9-3.6 5.8-4.9 6.4-1.6 0.8-2.8 0.8-4.5 0-1.2-0.6-2.5-2.3-2.9-3.9-0.5-2.1 0.5-4.8 4.5-12.2 2.8-5.2 8.7-16 13.1-24 4.5-8 11.2-20.7 22.1-42l-4-8.3c-2.1-4.5-5.1-11.8-6.6-16.2-1.9-5.8-2.5-9.1-2.1-11.8 0.5-2.4 1.6-4.4 3.4-5.7 1.5-1.2 4.1-2.1 8.8-2.1l-0.9-4.7c-0.5-2.6-0.9-11.9-0.9-20.7 0-12.8 0.4-18.1 2.2-26.5 1.2-5.8 3.4-14.1 4.8-18.5 1.5-4.4 4.7-12.1 7.2-17 2.6-5 8-13.5 12.1-19 4.1-5.5 10.4-12.9 14-16.5 3.6-3.6 10.6-9.4 15.5-12.8 4.9-3.5 12-7.8 15.7-9.5q6.7-3.2 6.7-5c0.1-0.9 0.7-3.3 1.6-5.2 0.8-1.9 3.4-4.9 5.7-6.6 2.4-1.6 7.9-4.1 12.3-5.5 4.4-1.4 12.5-3.4 18-4.4 8-1.6 13.2-1.9 27-1.6zm134 58.4c1.6 2.3 3.2 4.2 3.5 4.2 0.2 0 2.9-2.5 5.9-5.5l5.4-5.5c-17.6 0-19.3 0.3-18.7 1.3 0.5 0.7 2.2 3.2 3.9 5.5zm-161.5-43.9c-4.6 0.8-7.1 1.6-6.5 2.1 0.6 0.5 4.7 0.3 10-0.5 5.1-0.9 15.4-1.5 24-1.5 8.4 0 18 0.7 22 1.4 3.8 0.8 7.2 1.2 7.5 1 0.2-0.2 0.2-0.6 0-0.9-0.3-0.3-4.1-1.1-8.5-1.9-4.4-0.8-13-1.7-19-2-6.1-0.2-13.5-0.1-16.5 0.3-3.1 0.4-8.9 1.3-13 2zm-23.5 9.3c0.2 1 1 1.8 1.7 1.8 0.7 0.1 1.8-0.6 2.5-1.5 1-1.2 1-1.8 0-3.1-0.7-0.8-1.5-1.5-1.9-1.5-0.3 0.1-1.1 0.7-1.7 1.3-0.6 0.7-0.9 2.1-0.6 3zm94 0.3c0.2 0.8 0.8 1.5 1.2 1.5 0.4 0.1 1.4-0.6 2.3-1.5 1.3-1.4 1.3-1.8-0.1-3.1-1.3-1.3-1.6-1.3-2.7 0-0.7 0.9-1 2.3-0.7 3.1zm-80 10.4c-1.1 1-3 2.3-4.3 3-1.2 0.6-4.9 1.1-8.2 1.1-3.3 0-6.9-0.5-8-1-1.6-0.8-3.2-0.4-7.3 1.6-2.9 1.5-8.4 4.8-12.2 7.3-3.9 2.5-11.2 8.6-16.4 13.6-5.2 4.9-11.6 11.9-14.3 15.5-2.6 3.6-6.8 10.3-9.3 15-2.4 4.7-5.8 12.8-7.5 18-1.7 5.2-3.8 13.3-4.6 18-0.8 4.7-1.5 14.2-1.4 21.2 0 8.7 0.6 15.9 1.9 22.5 1.1 5.4 3.1 12.8 4.5 16.5 1.4 3.8 4.5 10.7 6.9 15.5 2.4 4.9 8 13.3 12.4 18.8 4.4 5.5 10.8 12.7 14.4 16.1 3.5 3.3 9.1 8 12.4 10.5 3.3 2.4 9.6 6.3 14 8.5 4.4 2.3 11.8 5.5 16.5 7.2 4.6 1.6 13.2 4 19 5.3 8.9 2 13.1 2.4 28 2.3 15.7 0 18.6-0.3 28.5-2.8 6-1.6 14.8-4.5 19.5-6.5 4.6-2 12.3-5.9 17-8.6 4.6-2.8 11.6-7.5 15.5-10.6 3.8-3 10.3-9.1 14.4-13.5 4-4.3 9.6-11.1 12.3-14.9 2.8-3.9 6.9-11.1 9.2-16 2.4-5 5.2-11.9 6.4-15.5 1.2-3.6 2.8-9.9 3.7-14 0.9-4.1 1.8-11.8 2.1-17 0.4-5.5 0.1-13.3-0.6-18.5-0.7-5-2.3-12.8-3.6-17.5-1.4-4.7-4.9-13.5-7.9-19.5-2.9-6.1-7.5-14-10.2-17.6-2.7-3.7-6.9-8.9-9.4-11.5-2.5-2.7-7.2-7.3-10.5-10.3-3.3-3-8.2-7.1-10.9-9.1-2.8-2-8.3-5.5-12.3-7.8-6.7-3.9-7.4-4.1-10-2.9-1.5 0.8-4.1 1.7-5.7 2-1.7 0.3-4.8 0.2-7-0.4-2.2-0.5-5.2-2-6.5-3.3-1.5-1.5-5.1-3.2-9-4.1-4.3-1.1-12.3-1.8-23-2.1-13.5-0.3-18.4 0-26.5 1.6-6.3 1.2-10.8 2.7-12 3.9zm165.1 170.6c-1.8 3.8-6.2 11.5-9.8 17-3.6 5.5-10.1 13.8-14.5 18.4-4.3 4.6-11.7 11.3-16.3 14.8-4.7 3.5-14.4 9.3-21.5 12.8-7.2 3.6-17.8 8-23.5 9.9-5.8 1.9-15.7 4.2-22 5.2-9 1.3-15.4 1.5-29 1-9.7-0.3-19.1-0.9-21-1.3-2.1-0.4-3.3-0.3-2.9 0.3 0.3 0.5 4.2 1.6 8.5 2.4 4.9 0.9 13.3 1.5 22.4 1.4 10.8-0.1 17.4-0.7 26-2.4 6.3-1.2 16.4-4 22.5-6.2 6-2.1 15.5-6.1 21-8.9 5.5-2.8 13.5-7.6 17.9-10.7 4.4-3.2 11.8-9.6 16.5-14.2 4.7-4.7 11.1-12.2 14.2-16.5 3.2-4.4 8-12.3 10.7-17.5 2.8-5.2 6.1-12.6 7.4-16.4 1.3-3.8 2.3-7.1 2.2-7.4 0-0.3-1.3 2.1-2.8 5.4-1.6 3.2-4.3 9-6 12.9zm-350.5-89.5c2 0 3.5 0.9 4.9 2.7 1.5 2 2 3.9 1.8 6.9-0.2 2.8 0.2 4.8 1.3 6 0.8 1.1 5.2 7.7 9.6 14.9 4.4 7.1 12.7 21.1 18.4 31 5.8 9.9 14.4 24.5 19 32.5 4.7 8 10 17.4 11.8 21 3.2 6.3 3.2 6.6 1.7 9.7-1.1 2.2-2.4 3.3-3.9 3.3-1.2 0-3.2-1-4.4-2.2-1.1-1.3-2.9-3.9-3.8-5.8-1-1.9-5-9-8.9-15.8-3.9-6.8-7.2-12.3-7.4-12.2-0.1 0-4.6 2.5-10 5.6-5.3 3.1-14.1 7.8-19.5 10.5-5.3 2.7-10.4 4.9-11.2 4.9-0.9 0-4.6-1.7-8.3-3.7-3.7-2-13.7-7.7-22.2-12.5-8.6-4.9-15.9-8.8-16.3-8.8-0.4 0-3.1 3-6 6.7-3 3.8-10.5 13.5-16.9 21.8-6.3 8.2-14.3 19.1-17.9 24.2-4.4 6.3-7.2 9.4-8.9 9.9-1.6 0.3-3.4-0.1-4.8-1-1.2-0.9-2.3-2.6-2.3-3.9 0-1.2 1.6-4.7 3.7-7.7 2-3 5.3-7.5 7.3-10 2.1-2.5 10.5-13.3 18.6-24 8.2-10.7 23.8-31.4 34.8-46 11-14.6 23.2-30.5 27.1-35.5 6.7-8.4 7.1-9.2 7.1-14.1 0-2.8 0.6-5.8 1.3-6.8 0.8-0.9 2.7-1.6 4.3-1.6zm-16.6 48.6c-5.5 7.6-12.6 17.2-15.8 21.3-3.2 4.2-5.4 7.9-5 8.2 0.4 0.4 7.5 4.6 15.8 9.3l15 8.5c0.4-24.3 0.4-38.1 0.2-46.3l-0.2-14.8zm23.4 17.1c0.1 16.1 0.3 29.3 0.6 29.3 0.2 0 6.1-3.2 13-7 12.1-6.8 12.4-7.1 11.1-9.3-0.7-1.2-6.6-11.2-13-22.2l-11.7-20z"/>
		<path id="Path 2" fill-rule="evenodd" class="s0" d="m731.8 322c2.1 0 4.5 0.8 5.5 1.8 1.6 1.5 1.8 3.9 1.7 24.9 0 23 0 23.3-2.2 24.8-1.3 0.8-3.2 1.5-4.3 1.5-1.1 0.1-3.2-0.8-7.5-4l-0.1-22.3c-0.1-19.2 0.1-22.6 1.6-24.5 1.1-1.6 2.6-2.2 5.3-2.2zm-146.8 29.5c7.4 0.2 16.3 1.1 19.8 2 3.4 0.8 8.8 2.8 12 4.4 3.1 1.6 6.7 4 7.9 5.2 1.2 1.3 2.6 3.6 3.2 5.2 0.6 1.5 1.1 4.6 1.1 7 0 2.4-0.8 5.5-2 7.5-1.1 1.7-3 3.5-4.2 3.8-1.3 0.3-4.1 0.3-6.3 0.1-2.2-0.3-7.8-1.6-12.5-3-4.7-1.3-11.9-2.8-16-3.2-4.3-0.4-11.5-0.2-16.7 0.4-5.1 0.6-13 2.3-17.5 3.7-4.6 1.4-11.9 4.5-16.3 6.7-4.9 2.6-10.4 6.4-14.2 10.2-6 5.8-6.2 6.1-5.6 10 0.5 3.2 0.2 4.4-1.6 6.3-1.3 1.4-3.3 2.2-5.3 2.2-1.8 0-3.8-0.4-4.4-0.8-0.6-0.4-1.6-1.7-2.3-2.9-0.7-1.4-1.1-8-1.1-17.3 0-12.2 0.3-15.7 1.8-18.6 0.9-2 3.5-5.1 5.7-6.9 2.2-1.8 6.7-4.8 10-6.8 3.3-1.9 9.4-4.9 13.5-6.6 4.1-1.6 11.6-4 16.5-5.1 5-1.2 11.7-2.6 15-3 3.3-0.5 12.1-0.7 19.5-0.5zm-36 18.1c-4.7 1.4-11.6 4.2-15.5 6-3.8 1.9-8.6 4.8-10.5 6.5l-3.5 3c7.8-4.6 12.9-7.3 16.5-8.9 3.6-1.6 11.2-4.2 17-5.6 7.3-1.9 14.4-2.9 23-3.3 7.3-0.3 15.8-0.1 20.5 0.5 4.4 0.7 9.1 1.4 10.5 1.7 1.4 0.3 0-0.4-3-1.6-4.6-1.9-7.9-2.2-21-2.5-8.5-0.1-17.7 0.1-20.5 0.6-2.7 0.5-8.8 2.1-13.5 3.6zm-17.5 54.3c2.2 0.2 4.6 0.9 5.3 1.5 0.7 0.6 1.3 2.5 1.3 4.1 0 1.6-0.9 4.1-2 5.5-1.8 2.3-2.6 2.5-18.2 2.5l0.1 23.5c0 19.5-0.2 23.9-1.5 25.8-1.4 2.1-2.1 2.2-16.2 2.2-8.2 0-15.5-0.5-16.3-1-1.2-0.8-1.6-4.9-2.1-22.7-0.4-14.6-0.2-22.7 0.5-24.4 1.1-2.6 1-2.6-3.9-3.2-2.7-0.4-7.9-0.7-11.5-0.7-4.8 0-7-0.5-8.3-1.8-1-0.9-1.7-3.1-1.7-4.7 0-1.6 0.5-3.7 1-4.5 0.8-1.3 6.2-1.6 35.2-2 18.9-0.3 36.1-0.3 38.3-0.1zm-36.6 34.2c0.1 14 0.4 17 1.6 17.4 0.8 0.3 2.9 0.5 4.5 0.5h3v-38c-11.7 0-12.1 0.2-10.8 1.6 1.2 1.2 1.5 4.9 1.7 18.5zm-237.4 119.9c1.1 0 3.6 1 5.5 2.2 1.9 1.2 6 3.4 9 4.8 3 1.5 9.3 4 14 5.4 4.7 1.5 13.7 3.6 20 4.7 6.3 1 18.5 2.2 27 2.6 13.1 0.6 15.8 1 17.3 2.5 0.9 1 1.7 2.7 1.7 3.8 0 1.1-0.5 3-1.1 4.2-0.7 1.3-1.7 2.6-2.3 3-0.6 0.4-4.5 0.8-8.6 0.8-4.1 0-14-0.7-22-1.5-8-0.8-17-1.9-20-2.5-3-0.6-10.2-2.4-16-4.1-5.8-1.6-14.3-4.8-19-7-4.7-2.2-9.5-5-10.8-6.2-1.4-1.4-2.2-3.3-2.2-5.2 0-1.6 0.4-3.5 0.8-4 0.4-0.6 1.6-1.6 2.7-2.2 1.1-0.7 2.9-1.3 4-1.3z"/>
		<path id="Path 3" fill-rule="evenodd" class="s1" d="m731.8 323c1.5-0.1 3.5 0.7 4.4 1.7 1.6 1.6 1.8 4.1 1.3 46.7l-2.7 1.6c-2.5 1.4-2.9 1.3-8.3-2.7l-0.3-21.3c-0.3-18.2-0.1-21.6 1.2-23.6 1-1.5 2.6-2.4 4.4-2.4zm-146.8 29.5c6.9 0.3 15.3 1.1 18.8 2 3.4 0.8 8.8 2.8 12 4.4 3.1 1.6 6.7 4 7.9 5.2 1.2 1.3 2.6 3.6 3.2 5.1 0.6 1.6 1.1 4.3 1.1 6 0 1.8-0.9 4.8-2 6.5-1.2 2-3.1 3.6-4.7 3.9-1.6 0.4-3.9 0.4-5.3 0.1-1.4-0.3-6.5-1.7-11.5-3.1-4.9-1.4-12.6-2.8-17-3.2-4.4-0.3-12.2-0.1-17.2 0.5-5.1 0.6-13 2.3-17.5 3.7-4.6 1.4-11.9 4.5-16.3 6.7-4.8 2.5-10.5 6.6-14.3 10.2-6.2 5.9-6.3 6.1-5.8 10.3 0.5 3.4 0.2 4.6-1.4 6.2-1.1 1.1-3 2-4.2 2-1.3 0-2.8-0.4-3.4-0.8-0.6-0.4-1.6-1.7-2.3-3-0.7-1.3-1.1-7.6-1.1-16.2 0-11.3 0.3-14.7 1.8-17.6 0.9-2 3.5-5.1 5.7-6.9 2.2-1.8 6.7-4.8 10-6.8 3.3-1.9 9.4-4.9 13.5-6.6 4.1-1.6 11.6-4 16.5-5.1 5-1.2 11.7-2.6 15-3 3.3-0.5 11.6-0.7 18.5-0.5zm-36 17.1c-4.7 1.4-11.6 4.2-15.5 6-3.8 1.9-8.6 4.8-10.5 6.5l-3.5 3c7.8-4.6 12.9-7.3 16.5-8.9 3.6-1.6 11.2-4.2 17-5.6 7.3-1.9 14.4-2.9 23-3.3 7.3-0.3 15.8-0.1 20.5 0.5 4.4 0.7 9.1 1.4 10.5 1.7 1.4 0.3 0-0.4-3-1.6-4.6-1.9-7.9-2.2-21-2.5-8.5-0.1-17.7 0.1-20.5 0.6-2.7 0.5-8.8 2.1-13.5 3.6zm-17.5 55.3c1.7 0.2 3.6 0.9 4.3 1.5 0.7 0.6 1.3 2 1.3 3.1 0 1.1-0.9 3.1-2 4.5-1.8 2.3-2.6 2.5-18.4 2.5l0.2 23.5c0.1 19.5-0.1 23.9-1.4 25.8-1.4 2.1-2.1 2.2-15.2 2.2-7.6 0-14.5-0.5-15.3-1-1.2-0.7-1.6-4.7-2-21.7-0.4-13.4-0.2-21.7 0.5-23.3 0.7-1.7 1.9-2.6 4-2.8 1.8-0.2 3.7 0.3 4.8 1.2 1.5 1.4 1.7 3.7 1.7 18.6 0 14.2 0.2 17.1 1.5 17.5 0.8 0.3 3.3 0.5 9.5 0.5v-20c0-18.4-0.1-20-1.7-20-1 0-10.8-0.2-21.8-0.5-17.1-0.5-20.3-0.8-21.8-2.3-1-0.9-1.7-2.6-1.7-3.7 0-1.1 0.5-2.7 1-3.5 0.8-1.3 6.2-1.6 35.2-2 18.9-0.3 35.7-0.3 37.3-0.1zm-274 154.1c0.6 0 2.6 1 4.5 2.2 1.9 1.2 6 3.4 9 4.8 3 1.5 9.3 4 14 5.4 4.7 1.5 13.5 3.6 19.5 4.6 6.1 1 17.5 2.2 25.5 2.5 8 0.3 15.5 0.8 16.8 1.1 1.2 0.2 2.7 1.3 3.2 2.4 0.6 1.1 0.8 2.9 0.5 4-0.3 1.1-1.2 2.7-2.1 3.5-1.1 1-3.6 1.5-8.2 1.5-3.7 0-13.2-0.7-21.2-1.5-8-0.8-17-1.9-20-2.5-3-0.6-10.2-2.4-16-4.1-5.8-1.6-14.3-4.8-19-7-4.7-2.2-9.5-5-10.8-6.2-1.2-1.2-2.2-3.1-2.2-4.2 0-1.1 0.4-2.5 0.8-3 0.4-0.6 1.6-1.6 2.7-2.2 1.1-0.7 2.5-1.3 3-1.3z"/>
		<path id="Path 4" fill-rule="evenodd" class="s0" d="m279.5 310.2c1.5 0.2 2 1.1 2 3.3 0 2.7-0.3 3-3 3-2.5 0-3.1-0.5-3.3-2.5-0.2-1.4 0.3-2.8 1-3.3 0.7-0.4 2.2-0.6 3.3-0.5zm-3.3 4.2c0.5 0.9 1.6 1.5 2.5 1.3 1-0.1 1.8-1.1 1.8-2.1 0-1.1-0.4-2.1-1-2.3-0.6-0.1-1.7 0.1-2.5 0.6-0.9 0.6-1.2 1.5-0.8 2.5zm142.3 50c12.1 0.3 16.9 0.9 24.5 2.9 5.2 1.4 12.9 4 17 5.7 4.1 1.8 10.6 5.3 14.4 7.9 3.8 2.5 7.7 5.6 8.5 6.9 0.9 1.2 1.3 2.5 0.8 2.7-0.4 0.3-2.8-1-5.5-2.9-2.6-1.8-8-5-12-7-3.9-2-11.1-4.9-16-6.6-4.8-1.6-13.2-3.6-18.7-4.5-5.5-0.8-13.3-1.5-17.3-1.5-3.9 0-10.5 0.5-14.5 1.1-3.9 0.6-8.9 1.8-11 2.5-3.2 1.2-3.7 1.2-3.7-0.1 0-0.8 1.5-2.2 3.2-3.1 1.8-0.9 6-2.3 9.3-3 4.1-0.9 10.7-1.2 21-1zm-28 4.5l-2 1.2c3.1-0.8 6.9-1.5 10.5-2.1 3.6-0.5 10.3-1 15-1 4.7 0 13 0.7 18.5 1.5 5.5 0.9 14 2.9 19 4.6 4.9 1.7 12.8 5 17.5 7.4 5.8 3 7.5 3.6 5.5 2-1.6-1.4-6.1-4-10-5.9-3.9-1.9-10.6-4.6-15-6.1-4.4-1.4-11.8-3.2-16.5-4-4.7-0.9-13-1.5-18.5-1.4-5.5 0-12.7 0.6-16 1.3-3.3 0.7-6.9 1.8-8 2.5zm201 69.2c4.4-0.1 12 0.6 17 1.5 5 0.8 11.2 2.5 13.9 3.7 2.7 1.2 6 3.4 7.3 5 1.6 1.8 2.3 4 2.3 6.7 0 3.5-0.7 4.7-5.3 9.3-3.8 3.8-7.5 6.2-13.7 8.9-4.7 2-12.3 4.7-17 6-7.4 2-10.8 2.3-27 2.3-11.6 0-20-0.4-22.5-1.2-2.2-0.7-5.5-2.2-7.4-3.5-1.9-1.3-4.3-4.1-5.4-6.3-1.8-3.6-1.9-4.4-0.6-7.9 0.8-2.2 3.4-5.7 5.9-8 2.5-2.3 7.2-5.3 10.3-6.8 3.1-1.6 8.5-3.7 11.9-4.8 3.5-1.1 9.9-2.6 14.3-3.4 4.4-0.8 11.6-1.5 16-1.5zm-29.3 5.9c-3.4 1.1-8.8 3.2-11.9 4.8-3.1 1.5-7.7 4.5-10.1 6.7-2.4 2.2-5.1 5.6-5.8 7.5-1.3 3.1-1.2 3.9 0.4 7 1 1.9 3.4 4.5 5.3 5.8 1.9 1.3 5.2 2.8 7.4 3.5 2.5 0.7 10.7 1.2 21.5 1.2 15.1 0 18.7-0.4 26-2.3 4.7-1.3 12.3-4 17-6 6.2-2.7 9.9-5.1 13.7-8.9 4.1-4.1 5.3-6 5.3-8.3 0-1.7-1-4.2-2.3-5.7-1.3-1.6-4.6-3.8-7.3-5-2.7-1.2-8.9-2.9-13.9-3.7-5-0.9-12.1-1.6-16-1.5-3.9 0-10.6 0.7-15 1.5-4.4 0.8-10.8 2.3-14.3 3.4zm169.3-3.9c21.1 0.1 27.3 0.3 25 1.1-1.8 0.7-12.5 1.1-26 1.2-16.5 0.1-23.6-0.2-25-1.1-1.6-1 3.6-1.2 26-1.2zm6.5 1.6c4.1-0.1 0.5-0.3-8-0.3-8.5 0-11.9 0.2-7.5 0.3 4.4 0.2 11.4 0.2 15.5 0zm-348 4.4c3.6 0 10.8 0.6 16 1.4 5.2 0.7 13.5 2.6 18.5 4 4.9 1.4 13.2 4.6 18.2 7 6.2 3 11.1 6.3 14.8 9.8 4.5 4.3 5.3 5.6 4.7 7.5-0.4 1.3-2.1 2.9-3.7 3.7-1.7 0.7-5.9 1.8-9.5 2.4-3.6 0.6-10.6 1.1-15.5 1.1-5 0-13.7-0.7-19.5-1.6-5.8-0.9-14.1-2.7-18.5-4.1-4.4-1.4-11.2-3.9-15-5.7-3.9-1.7-8.8-5-11-7.2-2.2-2.2-4.3-5.4-4.8-7-0.5-2-0.3-3.6 0.8-5.1 0.8-1.3 2.7-2.8 4.2-3.4 1.6-0.6 5.3-1.5 8.3-1.9 3-0.4 8.4-0.8 12-0.9zm-19.2 3.7c-1.5 0.6-3.4 2.1-4.2 3.4-0.8 1.3-1.1 3.1-0.8 4.2 0.4 1.1 2.5 3.8 4.7 6 2.2 2.2 7.1 5.5 11 7.2 3.8 1.8 10.6 4.3 15 5.7 4.4 1.4 12.7 3.2 18.5 4.1 5.8 0.9 14.1 1.6 18.5 1.6 4.4 0 10.9-0.5 14.5-1.1 3.6-0.6 8-1.7 9.7-2.5 2.2-0.9 3.3-2.1 3.3-3.4 0-1.2-2.2-3.9-5.3-6.6-2.8-2.5-9.3-6.6-14.2-9-5-2.4-13.1-5.5-18-6.9-5-1.4-13.3-3.3-18.5-4-5.2-0.8-12-1.4-15-1.4-3 0.1-8 0.5-11 0.9-3 0.4-6.7 1.2-8.2 1.8zm361.2 4.2c2.7 0 5 0.3 5 0.8 0 0.4-1 1.7-4.5 5.2l-2.8-2c-1.5-1.1-2.7-2.4-2.7-3 0-0.6 2.2-1 5-1zm-238 49.1c3 0 9.8 0.4 15 0.9 5.2 0.6 12 1.5 15 2.1 4.5 0.9 5.5 1.5 5.2 3-0.1 1.1-0.5 1.9-1 1.9-0.4 0-4.2-0.7-8.5-1.5-4.5-0.9-13.3-1.5-21.5-1.5-7.5 0-18 0.7-23.2 1.5-5.2 0.9-10.1 1.3-10.8 1-0.6-0.3-1.2-1.1-1.2-1.9 0-1 2.3-1.8 7.3-2.7 3.9-0.6 9.7-1.5 12.7-1.9 3-0.4 8-0.8 11-0.9zm-23 3.8c-4.5 0.8-7.1 1.6-6.5 2.1 0.6 0.6 4.7 0.3 10-0.5 5.1-0.9 15.5-1.5 24-1.5 8.4 0.1 18.1 0.7 22 1.4 3.9 0.8 7.2 1.2 7.5 1 0.3-0.2 0.3-0.6 0-0.9-0.3-0.3-4.1-1.1-8.5-1.9-4.4-0.8-13-1.7-19-2-6.1-0.2-13.5-0.1-16.5 0.3-3 0.5-8.9 1.4-13 2zm-20.7 4.3c1.1 0.2 2.5 1.1 3.1 2.1 0.8 1.2 0.8 2.2 0 3.5-0.6 0.9-2.3 1.8-3.8 2-2.1 0.1-2.7-0.3-3.1-2.3-0.3-1.4 0-3.2 0.7-4 0.6-0.9 2-1.5 3.1-1.3zm-2.8 5.1c0.3 0.9 1.1 1.7 1.7 1.7 0.7 0.1 1.9-0.6 2.5-1.5 1-1.2 1-1.8 0-3-0.6-0.9-1.5-1.6-1.8-1.5-0.4 0-1.2 0.6-1.8 1.3-0.6 0.6-0.9 2-0.6 3zm96.2-5.1c0.9 0.2 2.1 1.1 2.7 2.1 0.8 1.2 0.8 2.2 0 3.5-0.6 0.9-2 1.8-3 2-1 0.2-2.5-0.4-3.2-1.2-1-1.3-0.9-2.1 0.4-4.2 0.9-1.4 2.3-2.4 3.1-2.2zm-2.2 5.3c0.3 0.8 0.8 1.5 1.2 1.5 0.5 0.1 1.5-0.6 2.3-1.5 1.3-1.4 1.3-1.8 0-3.1-1.4-1.3-1.7-1.3-2.8 0-0.7 0.9-1 2.3-0.7 3.1zm-41.5 3.9c11.9 0.3 19.6 0.9 24 2.1 4.1 1 7.7 2.7 9.7 4.6 1.8 1.6 4.5 3 6 3 1.6 0.1 3.7 0.1 4.8 0 1.1-0.1 3.7-0.9 5.8-1.9 3.8-1.7 4-1.7 8.5 0.8 2.5 1.4 7.5 4.5 11.1 6.9 3.7 2.4 9.3 6.7 12.6 9.6 3.3 2.9 8.6 7.9 11.7 11.1 3.2 3.2 8 9 10.9 12.9 2.8 3.9 7.5 12 10.5 18 3 6 6.5 14.8 7.8 19.5 1.3 4.7 3 12.5 3.6 17.5 0.8 5.3 1 13.4 0.7 19.5-0.3 5.8-1.3 13.9-2.2 18-0.8 4.1-2.5 10.4-3.7 14-1.2 3.6-4 10.5-6.3 15.5-2.4 5-6.5 12.1-9.2 16-2.8 3.9-8.3 10.6-12.4 14.9-4.1 4.4-10.5 10.5-14.4 13.5-3.9 3.1-10.8 7.8-15.5 10.6-4.7 2.7-12.3 6.6-17 8.6-4.7 2-13.5 4.9-19.5 6.5-10 2.5-12.6 2.8-29.5 2.8-15.9 0.1-20-0.2-29-2.3-5.8-1.3-14.3-3.7-19-5.3-4.7-1.7-12.1-4.9-16.5-7.1-4.4-2.3-10.7-6.2-14-8.6-3.3-2.5-8.9-7.2-12.4-10.5-3.5-3.4-10-10.6-14.4-16.1-4.4-5.5-9.9-13.9-12.3-18.7-2.4-4.9-5.5-11.8-6.9-15.5-1.4-3.8-3.5-11.2-4.5-16.5-1.4-6.9-2-13.9-2-23.5 0-7.6 0.6-17.6 1.4-22.3 0.9-4.7 2.9-12.8 4.6-18 1.7-5.2 5.1-13.3 7.6-18 2.4-4.7 6.6-11.4 9.3-15 2.7-3.6 9.1-10.5 14.2-15.5 5.2-5 12.6-11.1 16.4-13.6 3.9-2.5 9.5-5.9 12.5-7.4 4.8-2.4 5.9-2.6 8.5-1.6 1.6 0.6 5.1 1.1 7.7 1.1 2.7 0 5.8-0.5 7-1.1 1.3-0.6 3.2-2 4.3-3 1.2-1.2 5.8-2.6 12-3.9 8.2-1.6 13.1-1.9 27.5-1.6zm-38.5 6.5c-1.1 1-3 2.4-4.3 3-1.2 0.6-4.9 1.1-8.2 1.1-3.3 0-6.9-0.5-8-1-1.5-0.8-3.2-0.4-7.3 1.6-2.8 1.5-8.3 4.8-12.2 7.3-3.8 2.5-11.2 8.6-16.4 13.6-5.1 5-11.5 11.9-14.2 15.5-2.7 3.6-6.9 10.3-9.3 15-2.5 4.7-5.9 12.8-7.6 18-1.7 5.2-3.7 13.3-4.6 18-0.8 4.7-1.4 14.2-1.4 21.3 0 8.6 0.6 15.8 2 22.5 1 5.3 3.1 12.7 4.5 16.5 1.4 3.7 4.5 10.6 6.9 15.5 2.4 4.8 7.9 13.2 12.3 18.7 4.4 5.5 10.9 12.7 14.4 16.1 3.5 3.3 9.1 8 12.4 10.5 3.3 2.4 9.6 6.3 14 8.6 4.4 2.2 11.8 5.4 16.5 7.1 4.7 1.6 13.2 4 19 5.3 8.9 2.1 13.1 2.4 28 2.3 15.7 0 18.6-0.3 28.5-2.8 6-1.6 14.8-4.5 19.5-6.5 4.7-2 12.3-5.9 17-8.6 4.7-2.8 11.6-7.5 15.5-10.6 3.9-3 10.3-9.1 14.4-13.5 4.1-4.3 9.6-11 12.4-14.9 2.7-3.9 6.8-11 9.2-16 2.3-5 5.1-11.9 6.3-15.5 1.2-3.6 2.9-9.9 3.7-14 0.9-4.1 1.9-11.8 2.2-17 0.3-5.5 0-13.3-0.7-18.5-0.6-5-2.3-12.8-3.6-17.5-1.3-4.7-4.8-13.5-7.8-19.5-3-6-7.6-14-10.3-17.6-2.6-3.7-6.9-8.9-9.4-11.5-2.5-2.7-7.2-7.3-10.5-10.3-3.2-3-8.2-7.1-10.9-9.1-2.8-2-8.3-5.5-12.3-7.8-6.7-3.9-7.4-4.1-10-2.8-1.5 0.7-4.1 1.6-5.7 1.9-1.6 0.3-4.8 0.2-7-0.3-2.2-0.6-5.1-2.1-6.5-3.4-1.5-1.5-5.1-3.2-9-4.1-4.2-1.1-12.3-1.8-23-2.1-13.5-0.3-18.3 0-26.5 1.6-6.2 1.2-10.8 2.7-12 3.9zm176 16.1c6.3 0 11.5 0.3 11.5 0.8 0 0.4-2.8 3.5-6.3 7-3.4 3.4-6.4 6.2-6.7 6.2-0.3 0-2.6-2.9-5.3-6.5-2.6-3.6-4.7-6.7-4.7-7 0-0.3 5.2-0.5 11.5-0.5zm-5 7.8c1.6 2.3 3.2 4.2 3.5 4.2 0.3 0 2.9-2.5 5.9-5.5l5.4-5.5c-17.5 0-19.3 0.3-18.6 1.3 0.4 0.7 2.2 3.2 3.8 5.5zm-362.3 89.2c0.5 0 0.8 14.9 0.8 33 0 18.1-0.1 33-0.3 33-0.1 0-7.4-4-16.2-9.1-8.8-5-16.5-9.6-17.2-10.2-0.9-0.9 0.5-3.5 6.5-11.3 4.2-5.5 11.8-15.8 16.7-22.7 4.9-6.9 9.3-12.6 9.7-12.7zm-10.7 16.6c-5.5 7.6-12.6 17.2-15.8 21.3-3.2 4.2-5.4 7.9-5 8.3 0.4 0.3 7.5 4.5 15.8 9.2l15 8.5c0.4-24.3 0.4-38.1 0.3-46.3l-0.3-14.8zm466-16l0.3 15.9c0.1 8.8 0.1 23.5-0.3 49.3l-12-6.7c-6.6-3.6-13.4-7.8-18.3-11.6l7-11c3.9-6.1 10.7-16.6 15.2-23.5zm-3 7c-1.1 1.6-7.3 11.3-13.7 21.5l-11.7 18.5c4.1 3.1 10.3 6.7 16.4 10.1l11 6.1c0.4-23.4 0.4-36.7 0.2-44.7l-0.2-14.5zm15.9-6.5c0.3 0 2.8 3.3 5.5 7.2 2.7 4 9.9 14 16 22.3 6.1 8.2 11 15.3 11 15.7 0 0.5-1 1.4-2.2 2.1-1.3 0.8-8.5 4.8-16 9-7.6 4.3-14 7.7-14.3 7.7-0.2 0-0.5-14.4-0.5-32 0-17.6 0.3-32 0.5-32zm0.5 32.2c0 16.4 0.3 29.8 0.5 29.8 0.3 0 6.3-3.2 13.3-7.2 7-3.9 13.5-7.6 14.5-8.2 0.9-0.6 1.7-1.4 1.6-1.8-0.1-0.4-4.8-7.1-10.6-15-5.7-7.9-12.4-17.2-14.8-20.8l-4.5-6.5zm-455.4-29.8c0.9 1.1 7.2 11.6 14 23.3 6.8 11.7 12.4 21.7 12.4 22.2 0 0.6-5.9 4.4-13.2 8.5-7.3 4.1-13.6 7.5-14 7.5-0.4 0-0.8-14.2-0.7-31.7 0-28.7 0.2-31.6 1.5-29.8zm-0.6 30.3c0 16.1 0.2 29.2 0.5 29.2 0.3 0 6.1-3.1 13-7 12.2-6.8 12.5-7 11.2-9.2-0.8-1.2-6.6-11.3-13.1-22.3l-11.6-20zm352.5 4.3c0.8 0 1.5 0.6 1.5 1.2 0 0.7-1.1 4.4-2.5 8.3-1.5 3.8-4.9 11.3-7.6 16.5-2.8 5.2-7.6 13.1-10.7 17.5-3.1 4.3-9.5 11.8-14.2 16.5-4.7 4.7-12.2 11.1-16.5 14.2-4.4 3.1-12.5 7.9-18 10.7-5.5 2.8-14.5 6.6-20 8.6-5.5 2-15.4 4.8-22 6.2-10.4 2.3-14.3 2.6-30 2.6-11.8-0.1-20.1-0.6-24-1.5-4.9-1.1-6-1.8-6.2-3.6-0.2-1.7 0.1-2.1 1.5-1.7 0.9 0.2 4.9 0.9 8.7 1.5 3.9 0.5 12.9 1 20 1 7.2 0 17.7-0.7 23.5-1.6 5.8-0.8 15.2-3.1 21-5 5.8-1.9 16.4-6.3 23.5-9.9 7.2-3.5 16.8-9.3 21.5-12.8 4.7-3.5 12.1-10.2 16.4-14.8 4.3-4.6 10.8-12.9 14.4-18.4 3.6-5.5 8-13.2 9.8-17 1.8-3.9 4.4-9.6 5.8-12.8 1.5-3.4 3.1-5.7 4.1-5.7zm-8.9 19.5c-1.8 3.8-6.2 11.5-9.8 17-3.6 5.5-10.1 13.8-14.4 18.4-4.3 4.6-11.7 11.3-16.4 14.8-4.7 3.5-14.3 9.3-21.5 12.8-7.1 3.6-17.7 8-23.5 9.9-5.8 1.9-15.7 4.2-22 5.2-9 1.3-15.3 1.5-29 1-9.6-0.3-19.1-0.9-21-1.3-2.1-0.4-3.2-0.3-2.9 0.3 0.4 0.5 4.2 1.6 8.5 2.4 5 0.9 13.3 1.5 22.4 1.4 10.8-0.1 17.4-0.7 26-2.4 6.3-1.2 16.5-4 22.5-6.2 6.1-2.1 15.5-6.1 21-8.9 5.5-2.8 13.6-7.6 18-10.7 4.3-3.1 11.8-9.5 16.5-14.2 4.7-4.7 11.1-12.2 14.2-16.5 3.1-4.4 7.9-12.3 10.7-17.5 2.7-5.2 6-12.6 7.3-16.4 1.3-3.8 2.3-7.1 2.3-7.4-0.1-0.3-1.4 2.1-2.9 5.4-1.5 3.2-4.2 9-6 12.9zm-46.1-333.4c9.7-0.1 15.9 0.4 20 1.4 3.3 0.9 8 2.5 10.4 3.8 2.4 1.2 4.6 2.6 4.7 3.2 0.2 0.5-3.4-0.1-7.9-1.4-7.2-2.1-10.3-2.4-25.2-2.5-15.5-0.1-17.9 0.2-28 2.8-6 1.5-14.1 4.2-18 6-3.8 1.8-9.5 4.8-12.5 6.7-3 2-6.3 4.3-7.2 5.2-1.7 1.6-1.8 1.6-1.8-0.3 0-1.2 2.2-3.9 5.3-6.5 2.8-2.5 8.4-6 12.2-7.9 3.9-1.9 10.8-4.6 15.5-6 4.7-1.5 10.8-3.1 13.5-3.5 2.8-0.5 11.3-0.9 19-1zm-31.5 5.5c-4.7 1.4-11.6 4.2-15.5 6-3.8 1.9-8.6 4.8-10.5 6.5l-3.5 3c7.8-4.6 12.9-7.3 16.5-8.9 3.6-1.7 11.2-4.2 17-5.6 7.3-1.9 14.4-2.9 23-3.3 7.3-0.3 15.9-0.1 20.5 0.5 4.4 0.7 9.1 1.4 10.5 1.7 1.4 0.3 0-0.4-3-1.6-4.6-1.9-7.9-2.2-21-2.5-8.5-0.1-17.7 0.1-20.5 0.6-2.7 0.5-8.8 2.1-13.5 3.6z"/>
	</g>
</svg>