<svg version="1.2" xmlns="http://www.w3.org/2000/svg" viewBox="0 0 1024 1024" width="1024" height="1024">
	<title>f9cca628-b87a-4880-b2b3-a38e94b48d6f</title>
	<style>
		.s0 { fill: #ca403f } 
		.s1 { fill: #8e909a } 
	</style>
	<g id="Background">
		<path id="Path 0" class="s0" d="m336.6 837.5c-1 0.9-1.7 2.1-1.7 2.6 0.1 0.5 0.9 1.7 1.9 2.6 1 1 2.6 2.3 3.6 2.8 1.5 0.9 1.3 1.6-2 6.5-2.8 4.1-3.4 5.9-2.7 7 0.6 0.8 2.3 1.5 3.9 1.5 2.1 0 3.4-0.8 4.9-3.1 1.1-1.8 2.4-3.9 3-4.8 0.9-1.4 1.4-1.5 4.2-0.4 2.6 1.1 3.4 1.1 4.8-0.2 0.9-0.8 1.5-2.4 1.3-3.5-0.2-1.2-3.2-3.9-7.6-6.8-3.9-2.6-8.2-5-9.5-5.3-1.5-0.3-3 0.1-4.1 1.1z"/>
		<path id="Path 1" fill-rule="evenodd" class="s0" d="m526.5 778.1c2.4-0.1 5.2 0.7 7 1.9 1.6 1.1 3.5 3 4.2 4.3 0.7 1.2 1.2 4.2 1.2 6.7 0 3.9-0.5 5-3.8 8.2-3.5 3.4-4.4 3.8-9 3.8-4.2 0-5.7-0.5-8.2-2.8-1.6-1.5-3.5-4.3-4.1-6.2-0.5-1.9-0.7-4.6-0.3-6 0.4-1.4 1.6-3.8 2.7-5.3 1.1-1.6 3-3.2 4.2-3.7 1.1-0.5 3.9-0.9 6.1-0.9zm-5.7 13c0.1 1.3 0.7 3 1.4 3.7 0.7 0.7 2.5 1.2 4 1.2 1.8 0 3.4-0.8 4.3-2.3 0.8-1.2 1.5-2.8 1.5-3.5 0-0.6-0.9-2.1-2-3.2-1.1-1.1-2.8-2-3.9-2-1 0-2.6 0.8-3.6 1.8-1 1-1.8 2.9-1.7 4.3z"/>
		<path id="Path 2" fill-rule="evenodd" class="s0" d="m457 772.1c1.4 0 4.5 0.9 6.9 2.2 2.5 1.2 6.5 4.4 8.9 7.2 2.4 2.7 6.6 9.5 9.2 15 2.7 5.5 5.6 12.7 6.5 16 0.9 3.3 1.8 11 2.1 17 0.5 9.9 0.3 11.3-1.5 14.2-1.2 1.8-3.7 4-5.6 4.8-2.7 1.1-4.4 1.3-7.3 0.5-2-0.5-5.3-2.1-7.2-3.5-1.9-1.5-5.4-5.2-7.8-8.3-2.3-3.1-6.4-10-9.1-15.2-2.7-5.2-5.9-12.9-7-17-1.2-4.2-2.1-10.5-2.1-14.3 0-4.6 0.6-7.9 1.9-10.5 1.1-2 3-4.4 4.3-5.2 1.3-0.8 3-1.8 3.8-2.2 0.8-0.4 2.6-0.7 4-0.7zm-6.5 15.9c-0.5 3.4-0.2 6.5 1.4 12.2 1.1 4.3 3.6 11.1 5.5 15 1.9 4 6.2 11 9.5 15.5 3.4 4.6 7.5 9 9.1 9.8 2.2 1.1 3.6 1.2 5 0.5 1.1-0.5 2.3-2 2.6-3.3 0.3-1.2 0.1-5.8-0.5-10.2-0.6-4.4-1.8-10.5-2.7-13.5-0.9-3-3.7-10-6.4-15.5-3.4-7.1-6.2-11.2-9.4-14.3-2.7-2.5-5.6-4.2-7-4.2-1.3 0-3.2 0.8-4.3 1.8-1.1 1-2.3 3.8-2.8 6.2z"/>
		<path id="Path 3" fill-rule="evenodd" class="s0" d="m509.8 737.6c0.6 0.2 1.9 0.4 2.7 0.4 0.8 0 3.1 1.4 5 3 2.1 1.8 3.7 4.3 4.1 6.2 0.4 1.8 0.4 4.5 0 6-0.3 1.6-2.1 4.4-3.9 6.3-2 2.3-4.4 3.7-6.7 4.1-2.1 0.3-5-0.1-7.3-1-2-0.9-4.6-3.1-5.7-4.9-1.1-1.7-2-4.7-2-6.5 0-1.7 0.4-4.3 1-5.7 0.6-1.4 2-3.4 3.2-4.5 1.3-1.2 3.7-2.5 5.3-3 1.6-0.4 3.6-0.6 4.2-0.4zm-5.8 11.3c-0.7 1.9-0.6 3.2 0.6 4.8q1.5 2.3 4.5 2.3 3 0 4-2c0.5-1.1 1-2.9 1-4 0-1.1-1-2.7-2.3-3.5-1.2-0.8-2.7-1.5-3.2-1.4-0.6 0-1.6 0.3-2.3 0.6-0.7 0.3-1.7 1.7-2.3 3.2z"/>
		<path id="Path 4" class="s0" d="m532.5 713.7c-0.5 0.3-0.8 1.8-0.7 3.2 0.1 1.4 1.6 5.4 3.2 8.8 1.7 3.5 3.5 6.5 4 6.8 0.5 0.3 0.9 1.7 0.8 3.2-0.1 1.6 0.2 3.8 0.5 5 0.4 1.3 1.7 2.6 2.9 2.9 1.7 0.5 2.8 0 4.1-1.7 1-1.3 1.8-2.9 1.8-3.4-0.1-0.6-0.9-2.1-1.8-3.5-1-1.4-3-6.1-4.5-10.5-1.6-4.4-3.6-8.8-4.6-9.8-0.9-1-2.4-1.8-3.3-1.7-0.9 0-1.9 0.3-2.4 0.7z"/>
		<path id="Path 5" fill-rule="evenodd" class="s0" d="m483 700.5c1.9 0.3 4.5 1.2 5.8 2 1.2 0.8 2.9 2.5 3.7 3.8 0.8 1.2 1.8 4 2.1 6.2 0.4 3 0 4.8-1.5 7.3-1.2 1.7-3.6 4.1-5.3 5.2-1.9 1.1-5 2-7.3 2-3.3-0.1-4.7-0.8-8.2-4.3-3.5-3.5-4.2-4.9-4.3-8.2 0-2.6 0.8-5.2 2.2-7.5 1.3-1.9 3.9-4.3 5.8-5.3q3.5-1.8 7-1.2zm-6.8 14c0.2 1.9 1.2 3.5 2.9 4.5 2.4 1.4 2.9 1.3 5.3-0.3 1.8-1.2 2.6-2.6 2.6-4.7 0-1.6-0.7-3.7-1.5-4.5-0.8-0.8-2.6-1.5-3.9-1.5-1.4 0-3.2 0.8-4.1 1.7-1 1.1-1.5 3-1.3 4.8z"/>
		<path id="Path 6" class="s0" d="m525.9 700.1c-1 1-1.9 2.8-1.9 3.9 0 1.1 1 2.6 2.3 3.4 1.2 0.8 3.1 1.1 4.1 0.8 1.1-0.4 2.3-1.6 2.9-2.7 0.6-1.3 0.6-2.7-0.1-4-0.5-1.1-1.9-2.3-3.2-2.7-1.5-0.4-2.8-0.1-4.1 1.3z"/>
		<path id="Path 7" class="s0" d="m637.8 585.8c-0.7 0.9-3.3 5.5-5.5 10.2-2.3 4.7-6.5 11.1-9.3 14.4-2.9 3.2-8.2 8.3-11.8 11.3-3.7 3-8.9 6.6-11.7 8-2.7 1.4-5.8 3.3-6.8 4.2-1 0.9-1.8 2.2-1.7 2.9 0 0.6 0.9 1.7 2 2.2 1.3 0.7 3.1 0.7 5.3-0.1 1.7-0.6 6.3-3.1 10.1-5.7 3.8-2.6 9.8-7.4 13.4-10.7 3.6-3.3 8.4-8.7 10.7-12 2.4-3.3 5.6-8.7 7.2-12 1.7-3.3 3.3-7.2 3.7-8.7q0.6-2.8-0.9-4.3c-0.8-0.8-1.9-1.5-2.4-1.5-0.4 0-1.5 0.8-2.3 1.8z"/>
		<path id="Path 8" class="s0" d="m546.2 482.8c-1.3 0.2-4.6 4-8.8 10-3.7 5.3-10.8 15.3-15.6 22.2-4.9 6.9-8.8 13.3-8.8 14.2 0 1 0.8 2.2 1.7 2.8 1.2 0.6 2.3 0.5 3.4-0.3 0.9-0.7 8.7-11.1 17.3-23.2 8.6-12.1 15.8-22.5 15.9-23.1 0.1-0.6-0.6-1.5-1.5-2-0.8-0.5-2.5-0.8-3.6-0.6z"/>
		<path id="Path 9" class="s0" d="m552 467.2c-0.8 0.6-1.3 2.1-1.2 3.3 0.1 1.1 0.7 2.6 1.4 3.3 0.7 0.7 2.2 1.2 3.3 1.3 1.1 0 2.6-0.6 3.3-1.3 0.7-0.7 1.1-2.7 1-4.3-0.3-2.5-0.8-3-3.3-3.3-1.7-0.2-3.7 0.3-4.5 1z"/>
		<path id="Path 10" class="s0" d="m622.4 427.8c-1 0.9-3.8 4.8-6.3 8.7-2.5 3.9-7.5 11.1-11.1 16-3.7 4.9-15.4 21.4-26 36.5-10.7 15.1-22.2 31.7-25.7 36.7-3.5 5.1-6.3 10.2-6.3 11.3 0 1.1 0.7 2.2 1.5 2.5 0.8 0.3 2.2 0.2 3.2-0.3 0.9-0.4 5.7-6.5 10.7-13.5 5-7.1 11.3-16.1 14-20 2.7-4 9.2-13.3 14.4-20.7 5.2-7.4 12.7-18 16.5-23.5 3.9-5.5 9.6-13.6 12.7-18 3.2-4.4 6.5-9.5 7.4-11.3 1.3-2.6 1.4-3.5 0.4-4.7-0.7-0.9-1.8-1.6-2.5-1.5-0.6 0-1.9 0.8-2.9 1.7z"/>
		<path id="Path 11" class="s0" d="m471.5 415.4c-2.2 0.7-6.3 2.4-9 3.8-2.8 1.4-7.9 4.8-11.4 7.4-3.5 2.7-8.2 6.9-10.4 9.4-2.2 2.5-6.3 8.1-9.2 12.5-2.9 4.4-6.1 10-7.3 12.5-1.1 2.5-3 7-4.2 10-1.2 3-3.2 9.8-4.5 15-1.3 5.2-3.5 17.1-4.9 26.5-1.5 9.4-4 21.5-5.7 27-1.7 5.5-4.4 12.7-6.1 16-1.6 3.3-4.9 8.7-7.3 12-2.3 3.3-7.8 9.4-12.1 13.5-4.4 4.1-12.4 10.5-17.9 14.1-5.5 3.6-19.4 12.2-30.8 19-11.5 6.8-24.8 15.3-29.5 18.9-4.8 3.5-12.6 10.3-17.3 15-4.7 4.7-10.9 11.9-13.8 16-2.9 4.1-6.6 10.1-8.2 13.3-1.6 3.1-4.3 9.9-6.1 15-2.9 8.4-3.2 10.5-3.6 24.7-0.3 12.2-0.1 17.3 1.3 24 1 4.7 2.8 11.7 4.2 15.5 1.3 3.9 4.2 10.4 6.4 14.5 2.3 4.1 6.2 10.7 8.7 14.5 2.6 3.9 10.5 12.9 17.7 20 7.6 7.7 16.5 15.4 21.5 18.8 4.7 3.1 9.3 5.7 10.3 5.7 0.9 0 2.1-0.8 2.6-1.7 0.4-1 0.7-2.4 0.5-3-0.2-0.7-4.8-4.5-10.2-8.5-5.3-4-13.8-11.3-18.7-16.3-5-4.9-11.1-11.7-13.6-15-2.5-3.3-6.5-9.1-8.8-13-2.3-3.8-5.5-10.4-7.2-14.5-1.7-4.1-4.1-10.9-5.2-15-1.6-5.8-2-10.6-2.1-21.5 0-8.1 0.6-16.5 1.3-20 0.7-3.3 2.6-9.3 4.2-13.2 1.6-4 4.8-10.5 7.1-14.5 2.8-4.7 8.4-11.4 15.8-18.9 6.7-6.7 15.7-14.6 21.5-18.6 5.5-3.9 19.2-12.6 30.5-19.3 11.3-6.7 24.5-15 29.4-18.4 4.9-3.3 12.3-9.5 16.5-13.7 4.2-4.2 10.1-11.2 13.1-15.5 3-4.3 7.1-11.5 9.1-15.9 2-4.4 4.6-11.8 5.7-16.5 1.1-4.7 3-15.5 4.2-24 1.2-8.5 3-19.1 4.1-23.5 1.1-4.4 3.2-11.1 4.6-15 1.4-3.9 3.9-9.7 5.6-13 1.6-3.3 4.3-8 6-10.5 1.7-2.5 5.1-6.7 7.5-9.5 2.5-2.7 6.6-6.6 9.1-8.6 2.5-2 7.3-5.1 10.6-6.8 3.3-1.7 8.3-3.4 11-3.7 2.8-0.4 6.2-0.4 7.8 0 1.5 0.3 3.8 1.8 5.2 3.4 1.7 1.7 2.6 3.8 2.5 6 0 2.5-1.3 4.7-6 10-3.4 3.7-7.2 9-8.5 11.7-1.3 2.8-3 7.9-3.6 11.5-1 5.1-1 8 0 13.5 0.7 3.9 2.3 9.3 3.6 12 1.3 2.8 4.5 7.3 7.2 10.1 2.6 2.9 7.3 6.5 10.3 8 4.7 2.4 6.7 2.8 13.6 2.9 6.8 0 8.5-0.3 10.3-2 1.2-1.1 2.2-2.7 2.2-3.5 0-0.8-0.7-2.2-1.6-3-1.3-1.2-2-1.3-4-0.2-1.4 0.6-4.9 1.2-7.8 1.2-4.1 0-6.3-0.7-10.7-3.2-3-1.9-7.1-5.5-9.2-8.3-2-2.7-4.5-7.5-5.4-10.5-1.2-3.9-1.5-7.7-1.2-13 0.3-4.8 1.2-9 2.5-11.5 1.1-2.2 4.5-6.9 7.5-10.5 3.1-3.6 6.3-8 7.2-9.7 0.9-1.8 1.6-4.4 1.6-5.8 0-1.4-0.5-3.7-1.1-5.2-0.5-1.6-2.2-4.1-3.7-5.7-1.5-1.6-4.5-3.7-6.7-4.7-2.2-1-6-1.8-8.5-1.8-2.5 0-6.3 0.6-8.5 1.3z"/>
		<path id="Path 12" class="s0" d="m488.9 400.9c-0.6 1.1-1 2.7-1 3.5 0.1 0.9 1.2 2.3 2.6 3.1 2.2 1.3 2.8 1.3 5 0 1.5-0.9 2.5-2.4 2.5-3.7 0-1.3-0.5-2.9-1.2-3.6-0.7-0.7-2.5-1.2-4-1.2-1.6 0-3.2 0.8-3.9 1.9z"/>
		<path id="Path 13" class="s0" d="m720.6 192.1c-1.3 0.6-1.9 2-1.8 3.7 0.1 1.5 0.7 3.3 1.4 4 0.7 0.7 2.2 1.2 3.3 1.2 1.1 0.1 2.9-0.9 4-2 1.6-1.7 1.8-2.6 1-4.8q-1-2.7-3.5-2.9c-1.4-0.2-3.4 0.2-4.4 0.8z"/>
		<path id="Path 14" class="s0" d="m737.5 182.5c-1.3 2.2-1.3 2.8 0 5 1 1.6 2.4 2.5 4 2.5 1.6 0 3.2-1 4.3-2.6 1.4-2.1 1.5-2.9 0.5-5-1-1.7-2.1-2.4-4.3-2.4-2.1 0-3.4 0.7-4.5 2.5z"/>
		<path id="Path 15" class="s0" d="m755.3 171.6c-1.5 2.1-1.6 2.9-0.5 5 0.8 1.7 2 2.4 4 2.4 1.5 0 3.3-0.6 4-1.2 0.7-0.7 1.2-2.4 1.2-3.8 0-1.4-0.5-3.1-1.2-3.8-0.7-0.7-2.3-1.2-3.5-1.2-1.3 0-3 1.1-4 2.6z"/>
		<path id="Path 16" class="s0" d="m772.2 161.3c-0.7 1.6-0.7 2.9 0.2 4.7 0.7 1.6 2.1 2.6 3.9 2.7 1.9 0.2 3.2-0.4 4.4-2.3 1.5-2.1 1.6-2.9 0.5-5-0.9-1.8-2-2.4-4.6-2.4-2.5 0-3.6 0.6-4.4 2.2z"/>
		<path id="Path 17" class="s0" d="m790.6 148.8c-1 1-1.5 2.9-1.4 4.7 0.2 2.2 1 3.2 3 4 2.2 0.8 3.1 0.6 4.8-1 1.1-1.1 2.1-2.9 2.1-4 0-1.1-0.8-2.8-1.8-3.7-1-1-2.5-1.8-3.4-1.8-0.9 0-2.4 0.8-3.3 1.7z"/>
		<path id="Path 18" class="s0" d="m807 139c-1.1 1.1-2 2.7-2 3.5 0 0.8 0.9 2.4 2 3.5 1.1 1.1 2.7 2 3.5 2 0.8 0 2.4-0.9 3.5-2 1.1-1.1 2-2.9 2-4 0-1.1-0.7-2.7-1.5-3.5-0.8-0.8-2.4-1.5-3.5-1.5-1.1 0-2.9 0.9-4 2z"/>
		<path id="Path 19" fill-rule="evenodd" class="s0" d="m836 146c4.1 0 8 0.7 10.5 1.8 2.2 1 6 3.6 8.4 5.8 2.4 2.1 5.5 6.2 6.7 8.9 1.7 3.6 2.4 6.8 2.4 11.5 0 4.4-0.7 8-2.1 11-1.1 2.5-3.5 6-5.2 7.8-1.8 1.9-4.4 4-6 4.8-1.5 0.8-5.8 2.1-9.7 2.9-3.9 0.8-8.5 2.1-10.3 2.9-1.7 0.8-4.4 2.6-6 4-1.5 1.4-3.6 4.4-4.7 6.6-1.1 2.2-3.1 8.4-4.5 13.8-1.4 5.3-3.6 11.9-4.9 14.7-1.3 2.8-4.6 6.9-7.3 9.3-2.6 2.3-6.8 4.9-9.3 5.7-2.5 0.8-7.9 2-12 2.6-4.1 0.6-9.2 2-11.3 3-2.2 1.1-6.2 5.1-9.8 9.7-3.4 4.2-8.5 11.1-11.5 15.2-2.9 4.1-9.5 13.4-14.6 20.7-5.1 7.2-14.2 20.3-20.2 29-6.1 8.7-15.1 21.5-20 28.5-5 7-12.4 17.4-16.3 23-4 5.7-10.7 15.2-15 21.3-4.2 6.1-10.8 15.7-14.8 21.5-3.9 5.8-14 20.2-22.5 32-8.5 11.9-17.7 24.7-20.3 28.5-2.7 3.9-9.1 13.1-14.3 20.5-5.2 7.4-13.1 18.7-17.4 25-4.3 6.3-10.6 15.3-13.9 20-3.4 4.7-11 15.2-16.9 23.4-5.9 8.1-13.3 18.4-16.4 22.7-4.8 6.6-5.6 8.2-4.5 9.4 0.6 0.8 2.7 1.7 4.5 2 1.8 0.3 3.6 1.3 4.2 2.5q1 2 0 4c-0.7 1.4-2 2-4.3 2-2.4 0-8.4-3.4-25.4-14.5-12.3-8-22.5-14.5-22.8-14.5-0.3 0-5.9 7.6-12.5 17-6.6 9.4-12 17.3-12 17.8 0 0.4 1.5 1.7 6.5 5.1l8.5-11.6c7.4-9.9 8.8-11.4 11-11.1 1.7 0.2 2.6 1 2.7 2.6 0.2 1.4-2.4 6-7.7 13.2-4.4 6-7.9 11.1-7.8 11.3 0.2 0.2 1.7 1.1 6.3 3.9l2.7-3.6c2.1-2.7 3.5-3.6 5.8-3.6 1.7 0 3.1 0.6 3.1 1.3 0.1 0.6 0 2.1-0.1 3.2-0.1 1.1-1.1 3.2-2.1 4.8-1 1.5-1.8 2.8-1.7 3 0.2 0.2 1.4 1 2.8 1.9 2.4 1.6 2.6 1.5 4.2-1.3 1-1.6 3-3.2 4.5-3.5 1.9-0.4 3.3-0.1 4.3 1 1.3 1.5 1.3 2.1-0.8 5.6-1.2 2.2-2.2 4.2-2.2 4.5 0 0.3 1.6 1.4 3.5 2.5 2.2 1.2 3.5 2.8 3.5 4 0 1.1-0.7 2.7-1.5 3.5-0.9 0.9-2.4 1.3-3.8 0.9-1.2-0.4-3.2-1.6-4.4-2.8-1.3-1.1-2.4-1.9-2.6-1.6-0.2 0.3-3.7 5-7.9 10.5-4.1 5.5-11.2 15.4-15.8 22-4.6 6.6-10.5 14.8-13.2 18.3-3.3 4.3-5.5 6.2-7 6.2-1.3 0.1-2.9-0.5-3.6-1.2-1-1.1 1.3-4.8 12.1-19.8 7.3-10.2 16.8-23.2 21-29 4.3-5.8 7.7-10.7 7.7-11 0-0.3-1.8-1.5-4-2.7-3.8-2.2-4.1-2.2-6-0.5-2 1.6-2.1 1.6-3.8-0.1-1.3-1.4-1.5-2.1-0.6-3.5 1-1.4 0.6-2.1-2.5-4-2-1.3-3.9-2-4.2-1.5-0.3 0.4-3.3 4.4-6.6 8.8-3.3 4.4-8.2 11.3-15.8 22.7l2.5 1.9c1.4 1 2.9 1.9 3.5 1.9 0.6 0 5.2-5.6 10.3-12.5 5-6.9 9.9-12.5 10.7-12.5 0.8 0 2.2 0.2 3 0.5 0.8 0.3 1.5 1.4 1.5 2.5 0 1.1-5.3 9.3-11.7 18.3-6.4 8.9-15.4 21.3-28.3 38.7l6.8 4.3c3.7 2.4 9.1 5.7 12 7.3 2.9 1.6 5.3 3.6 5.3 4.4 0 0.8 4.6 4.4 10.2 8 5.6 3.6 13.5 9.9 17.7 14 4.1 4.1 9.3 10.6 11.6 14.5 2.3 3.9 5.5 10.1 7.1 14 1.7 3.9 4.2 10.1 5.6 14 1.5 3.9 4.1 9.2 5.9 11.9 1.9 2.9 4.9 5.7 7.1 6.7 2 1.1 5.1 1.9 6.7 1.9 1.6 0 4.8-0.9 7-2 2.2-1.1 5.1-3.7 6.5-5.8 1.4-2 3.7-7.2 5-11.5 1.7-5.2 2.6-10.5 2.8-16.5 0.1-4.8-0.2-12.3-0.6-16.7-0.8-6.8-0.6-8.3 0.8-9.8 0.9-0.9 2.1-1.7 2.6-1.7 0.5 0 1.7 1.2 2.7 2.7 1.4 2.3 1.7 5.2 1.7 19.8-0.1 15.7-0.3 17.6-2.8 25-1.4 4.4-4.2 10.4-6.2 13.2-2 3-5.3 6.4-7.7 7.8-2.4 1.4-6.5 2.8-9.3 3.1-4 0.5-6.1 0.2-10.4-1.7-3.1-1.4-7.1-4.2-9.2-6.7-2.2-2.3-4.9-6.1-6-8.5-1.2-2.3-3.6-8-5.4-12.7-1.8-4.7-4.7-11.4-6.5-15-1.8-3.6-4.7-8.5-6.4-11-1.7-2.5-5.3-6.7-8.1-9.4-2.7-2.7-7.2-6.6-10-8.7-2.7-2-7.2-5.1-15-9.7l-6 8.5c-3.3 4.7-7.4 10.4-9 12.7-2 2.6-4.5 4.6-7 5.5-2.2 0.8-5.1 1.1-6.5 0.8-1.4-0.3-5.3-2.3-8.6-4.4-3.4-2.1-11.9-7.4-18.9-11.8-7-4.4-14.9-9.9-17.6-12.3-3.7-3.2-5.1-5.1-5.5-8-0.4-2-0.1-5.3 0.5-7.2 0.6-1.9 4.9-8.2 17.8-24.5l-3.6-2.6c-2-1.4-5.1-4.7-6.8-7.5-1.8-2.7-3.8-7.2-4.4-9.9-0.7-2.8-0.9-7.9-0.6-11.5 0.3-3.9 1.7-9.5 3.6-14 1.7-4.1 5.5-10.6 8.4-14.4 2.8-3.8 8.5-9.9 12.6-13.5 4-3.6 14.4-11.8 23.1-18.1 8.7-6.3 18.4-13.7 21.6-16.5 3.2-2.7 8.9-9 12.7-14 3.8-5 8.6-12.6 10.8-17 2.2-4.4 5.2-13.2 6.8-19.5 2.5-9.7 3.4-11.9 6-14.2 1.7-1.6 4.3-3.1 5.9-3.4 1.5-0.4 4.2-0.4 6 0 2 0.4 5.3 2.6 8.7 5.9 4.9 4.6 5.5 5.6 5.3 8.7-0.3 3.2-0.6 3.5-3.3 3.5-2.2 0-3.3-0.6-4.1-2.5-0.7-1.4-2.6-3.7-4.3-5.2-1.7-1.6-3.9-2.8-4.8-2.8-1-0.1-2.8 0.7-4.1 1.7-1.7 1.3-2.9 4.5-4.9 12.3-1.4 5.8-3.8 13.2-5.3 16.5-1.4 3.3-3.9 7.8-5.3 10-1.5 2.2-2.7 4.2-2.7 4.5-0.1 0.3 1.7 1.7 4 3.3 2.2 1.5 4.2 2.6 4.3 2.5 0.2-0.2 2.3-3.2 4.7-6.8 2.4-3.6 5.7-8.2 7.4-10.3 2.4-3 3.7-3.8 5.6-3.5 1.6 0.2 2.6 1 2.8 2.3 0.2 1.2-2.6 5.9-14.8 22.5l2.3 1.5c1.2 0.8 2.6 1.5 3.2 1.5 0.6 0 3.7-3.7 7.1-8.2 3.4-4.6 9.3-13 13.1-18.8 3.9-5.8 8.9-12.9 11.2-15.7 3-3.9 4.8-5.3 6.6-5.3 1.4 0 2.7 0.7 3 1.5 0.3 0.8 0.2 2.3-0.2 3.3-0.5 1-3.4 5.3-6.5 9.7-3.2 4.4-10.5 14.8-16.3 23-5.8 8.3-10.6 15.1-10.5 15.3 0 0.1 1.5 1 6.5 3.9l14.5-20.5c8-11.3 15.7-22 17.3-23.8 1.5-1.9 3.4-3.4 4.2-3.4 0.8 0 2 0.9 2.5 2 0.7 1.4 0.6 2.7-0.1 4.3-0.7 1.2-4 6-7.4 10.7-3.4 4.7-9.3 13-13.1 18.5-3.8 5.5-8.2 11.5-9.9 13.3-1.6 1.8-2.8 3.4-2.5 3.5 0.3 0.2 2.1 1.3 7.5 4.5l6.3-8.6c3.4-4.8 9.3-12.9 13-18.1 3.7-5.1 10.7-15.1 15.7-22.1 5-7.1 12.4-17.6 16.5-23.5 4.1-5.9 18.2-25.9 31.3-44.4 13-18.5 26.3-37.2 29.4-41.6 3.1-4.4 10-14.3 15.3-22 5.3-7.7 14-20.1 19.3-27.5 5.3-7.4 13.9-19.8 19.2-27.5 5.3-7.7 14.8-21.2 21-30 6.3-8.8 16-22.7 21.7-31 5.7-8.2 13.3-19.1 17.1-24.2 3.7-5.1 6.6-9.4 6.5-9.6-0.2-0.2-1.4-1.1-2.8-2-1.4-1-3.1-1.7-3.7-1.7-0.7 0-6.8 7.8-13.6 17.3-6.8 9.4-17.7 24.8-24.3 34.2-6.6 9.4-18.7 26.4-26.9 38-8.2 11.6-18.4 26.1-22.7 32.3-7 10-8.1 11.2-10.5 11-2.3-0.3-2.8-0.8-2.8-2.8 0-1.6 6.3-11.3 17.5-27 9.5-13.5 24.8-35.1 34-48 9.1-12.9 19.3-27.3 22.6-32 3.2-4.7 8.9-12.6 12.6-17.5 3.7-4.9 6.8-9.6 6.8-10.2 0-0.7-1.1-2-2.5-2.8-1.4-0.8-2.8-1.3-3.3-1.1-0.4 0.2-5.4 6.6-11.2 14.3-5.8 7.7-13.2 17.8-16.4 22.4-3.3 4.6-14.6 20.5-25.1 35.4-10.6 14.9-25.9 36.4-34.2 48-8.2 11.6-21.2 30-28.9 40.9-7.6 11-18.6 26.8-24.4 35.2-5.8 8.4-14.1 20.4-18.4 26.6-4.4 6.2-11.8 16.7-16.5 23.3-4.7 6.6-11.1 15.5-14.3 19.8-3.3 4.3-6.6 7.7-7.6 7.7-0.9 0.1-2.3-0.6-3-1.5-1-1.2-0.3-2.8 4.1-9.3 2.9-4.2 10.6-15.3 17.2-24.7 6.5-9.4 18.2-26 26-37 7.8-11 21-29.9 29.5-42 8.4-12.1 22.8-32.6 32-45.5 9.2-12.9 25.6-36.1 36.5-51.5 10.9-15.4 22-30.9 24.6-34.5 2.6-3.6 9-12.4 23.9-32.5l-8.5-5.4-5.6 8.2c-3 4.5-13.6 19.7-23.5 33.7-9.9 14-20.3 28.6-23 32.5-2.8 3.9-10.2 14.2-16.6 23-6.3 8.8-14.8 20.7-18.9 26.5-4.1 5.8-9 12.8-10.9 15.6-1.9 2.9-10.7 15.5-19.6 28-8.8 12.6-18.5 26.5-21.4 30.9-2.9 4.4-5.8 8.3-6.4 8.7-0.6 0.4-1.9 0.8-2.9 0.8-0.9 0-2.2-0.9-2.7-2-0.9-1.7 1.7-5.9 17.4-28.3 10.1-14.4 23.2-33.2 29.3-41.7 6-8.5 15.3-21.8 20.8-29.5 5.4-7.7 18.7-26.4 29.5-41.5 10.8-15.1 25.5-35.8 32.7-46 7.2-10.2 14-20.3 15.2-22.5 1.7-3.2 2.1-5.7 2.1-13 0-4.9 0.5-10.8 1.1-13 0.7-2.2 2.1-5.5 3.3-7.3 1.1-1.8 5.2-5.4 9.1-8.1 3.9-2.7 13.3-8.7 21-13.4 7.7-4.6 20.7-12.6 29-17.7 8.2-5.2 22.4-13.8 31.5-19.3 9.1-5.5 18.7-11 21.5-12.3 3.7-1.8 6.7-2.4 11.5-2.4zm-12 11c-2.5 1.3-16.9 10.1-32 19.5-15.1 9.4-33.8 20.9-41.5 25.5-7.7 4.6-17.3 10.4-21.4 12.9-4.4 2.7-8.7 6.3-10.3 8.6-2.7 3.8-2.9 4.5-2.8 14.8 0 10.7 0 10.7 2.7 12 1.6 0.7 3.9 2.1 5.3 3l2.5 1.7c6.9-9.7 11.4-15.7 14.3-19.5 3-3.8 6.1-7.4 7-7.9 1-0.5 2.5-0.6 3.4-0.2 1 0.3 1.8 1.4 1.8 2.4 0 0.9-4.5 7.8-10 15.2-5.5 7.4-10 13.8-10 14.3 0 0.4 1.1 1.4 2.5 2.2 1.4 0.8 2.8 1.5 3.2 1.5 0.5 0 3.6-3.7 7-8.2 3.3-4.6 6.9-9.1 8-10.1 1.1-1.2 2.6-1.6 4-1.3 1.3 0.3 2.3 1.3 2.3 2.1 0 0.8-2.9 5.8-6.5 11-3.6 5.2-7.1 9.8-7.8 10.1-0.7 0.4 0.3 1.5 2.8 3.2l4 2.5c2.8-3.7 5.2-6.7 7.1-9 1.9-2.4 5.1-5.4 7.1-6.8 2.8-1.9 6.4-2.9 13.3-3.9 5.2-0.8 11.2-2.1 13.2-3 2.1-0.9 5-2.8 6.4-4.3 1.4-1.6 3.4-4.4 4.4-6.3 1-1.9 3-8.2 4.5-14 1.5-5.8 3.9-12.7 5.3-15.4 1.5-2.7 4.5-6.4 6.7-8.3 2.2-1.9 5.1-4.1 6.5-4.8 1.4-0.7 6.3-2.3 11-3.5 5.1-1.3 9.9-3.2 11.9-4.8 1.9-1.5 4.4-4.7 5.4-7.2 1.3-3.1 1.7-5.7 1.3-8.5-0.3-2.2-2-6.2-3.8-9-2.2-3.3-4.8-5.6-7.8-7.1-2.5-1.2-5.9-2.4-7.5-2.7-1.6-0.2-4.4-0.1-6 0.3-1.6 0.4-5 1.7-7.5 3zm-371.2 438.8c-4 4.1-11.1 10.1-15.8 13.5-4.7 3.4-13 9.5-18.5 13.6-5.5 4.1-13.5 10.9-17.8 15-4.3 4.2-9.1 9.6-10.7 12.1-1.6 2.5-3.8 7.4-5 11-1.7 5-2.1 8.1-1.8 13.5 0.3 4.4 1.2 8.5 2.5 11 1.1 2.2 4 5.5 6.4 7.2l4.4 3.3c10.9-15 14.6-20.4 15.2-21.7 1.2-2.1 1-2.5-2.2-4.8-1.9-1.4-3.5-3.3-3.5-4.3 0-0.9 0.5-2.3 1.2-3 0.7-0.6 2-1.2 3-1.2 1 0 3.3 1.2 5 2.6 1.8 1.4 3.6 2.1 4 1.7 0.3-0.4 5.6-7.8 11.7-16.3l11.1-15.5c-6.2-5.8-7.9-8.2-7.8-9.1 0.2-0.9 1.1-2.2 2-2.8 1.2-0.8 2.3-0.8 4 0.1 1.3 0.7 3.2 2 4.3 2.8 1.9 1.5 2.5 0.9 14.2-14.7 6.7-9 12.4-17 12.7-17.8 0.4-1-0.8-2.4-3.6-4.2-2.4-1.5-4.6-2.8-5-2.8-0.4 0-1.2 0.8-1.7 1.7-0.6 1-4.3 5.1-8.3 9.1zm-21.5 65.2c-3.5 4.7-6.3 8.8-6.3 9.2 0 0.5 1.6 1.6 3.5 2.5 1.9 1 3.6 1.6 3.8 1.3 0.2-0.3 3.5-4.8 7.2-10 3.8-5.2 8.8-12.2 11.2-15.5l4.3-6c-3.5-3.3-5-4.5-5.7-4.9-0.7-0.4-3.1 2.3-6.4 7.1-2.9 4.3-8.1 11.6-11.6 16.3zm-23.1 30.7l-6.2 8.3c5.4 3.1 7.3 4 7.7 4 0.5 0.1 4.2-4.8 8.3-10.7 4.1-5.9 7.6-11.1 7.7-11.5 0.2-0.4-0.5-1.5-1.5-2.3-0.9-0.9-2.4-1.9-3.3-2.4-1.3-0.7-2.2-0.1-4 2.7-1.3 2-5.2 7.3-8.7 11.9zm10.3 18c1.1 0.8 2.8 1.9 3.7 2.4 1.5 0.8 3.1-0.9 9.8-10.4 4.5-6.1 8.1-11.4 8-11.7 0-0.3-1.6-1.5-3.5-2.8-1.9-1.2-3.7-2.2-3.9-2.2-0.2 0-3.9 5.2-8.2 11.6-7.7 11.2-7.8 11.6-5.9 13.1zm-27.8 3.5l-3.7 4.8c27.5 17.9 38.8 25.3 42.7 28.1 4 2.7 7.3 4.6 7.3 4.1-0.1-0.4 2-3.5 4.5-7l4.5-6.2c-4.3-3.2-12.3-8.4-20.5-13.6-8.3-5.2-18-11.4-21.7-13.9-6.2-4-6.9-4.2-8.1-2.7-0.7 0.9-3 3.8-5 6.4zm-10.5 17.3c0.3 2.7 2.4 4.4 21.8 17.2 13 8.6 22.5 14.3 24 14.3 1.4 0.1 3.4-0.9 4.5-2 1.8-1.8 1.8-2.2 0.5-3.5-0.8-0.7-9.8-6.7-20-13.2-10.2-6.6-20.5-13.4-23-15.1-2.5-1.8-4.8-3.2-5.1-3.2-0.4 0-1.2 0.6-1.8 1.2-0.6 0.7-1 2.7-0.9 4.3z"/>
		<path id="Path 20" class="s0" d="m728.6 225.8c-0.9 0.9-1.5 2.8-1.4 4.1 0.2 1.3 1.2 3 2.3 3.7 1.6 1.1 2.5 1.1 4.5 0.1 1.7-0.8 2.6-2.2 2.8-4.2 0.1-1.7-0.3-3.6-1-4.3-0.7-0.7-2.2-1.3-3.4-1.2-1.2 0-2.9 0.8-3.8 1.7zm18.7-11.2c-1.5 2.2-1.6 3-0.6 5.1 1 1.9 2 2.3 4.4 2.1 1.9-0.1 3.7-1 4.5-2.2 1.1-1.6 1.1-2.5 0.1-4.5-0.8-1.5-2.3-2.6-3.9-2.8-1.9-0.2-3.1 0.4-4.5 2.3zm17.2-10.9c-0.9 0.8-1.6 2.5-1.6 3.7 0 1.2 0.6 2.8 1.3 3.5 0.7 0.7 2.3 1.2 3.5 1.2 1.4 0 2.9-1 3.8-2.5 1.3-2.2 1.3-2.8 0-5-0.8-1.4-2.4-2.5-3.4-2.5-1.1 0-2.7 0.7-3.6 1.6zm17.6-11.1c-1.4 1-2.3 2.5-2.3 3.8 0.1 1.2 0.7 2.8 1.4 3.5 0.7 0.7 2.2 1.2 3.3 1.2 1.2 0 2.6-0.6 3.3-1.3 0.7-0.6 1.2-2.1 1.2-3.2 0.1-1.1-0.7-2.8-1.7-3.7-1-1-2-1.8-2.3-1.8-0.3 0-1.6 0.7-2.9 1.5zm17-11c-1.3 0.9-2.3 2.5-2.2 3.6 0 1 0.3 2.6 0.6 3.4 0.3 0.9 1.7 1.5 3.3 1.5 1.5 0 3.3-0.6 4-1.3 0.7-0.6 1.2-2.4 1.2-4 0-1.7-0.7-3.1-2-3.7-1.1-0.6-2.1-1-2.3-1-0.1 0-1.3 0.7-2.6 1.5zm15.9-10.3c-0.8 0.7-1.3 2.2-1.2 3.5 0.1 1.3 0.9 3 1.7 3.8 0.8 0.8 2.2 1.5 3 1.5 0.8 0 2.4-0.9 3.5-2 1.1-1.1 2-2.3 2-2.8 0-0.4-0.7-1.7-1.5-3-0.8-1.2-2.5-2.2-3.8-2.2-1.3 0-2.9 0.5-3.7 1.2z"/>
		<path id="Path 21" class="s0" d="m632 563.9c-1.9 1-4.6 3.1-6 4.7-1.4 1.6-3.9 5.6-5.5 8.8-1.6 3.2-4.6 7.7-6.5 9.8-1.9 2.2-6.4 5.5-10 7.3-3.6 1.7-9.2 3.7-12.5 4.4-4.4 0.9-7.7 1-12.5 0.2-3.6-0.5-8.5-1.9-11-2.9-2.5-1-6-3.4-7.9-5.3-1.8-1.9-4.1-4.6-5-6.2-0.9-1.5-2.2-2.9-2.8-3.2-0.7-0.3-2.2 0-3.3 0.5-1.2 0.6-2 2-2 3.5 0 1.6 1.8 4.5 5.4 8.3 2.9 3.1 7.8 6.9 10.7 8.4 3.2 1.7 8.7 3.3 13.4 4 6.3 1 9.6 0.9 15.5 0 4.4-0.7 10.4-2.6 14.5-4.6 4.8-2.3 8.8-5.3 12.5-9.3 3.1-3.2 6.8-8.3 8.3-11.3 1.5-3 3.4-6.2 4.4-7.1 0.9-0.8 2.5-2.1 3.5-2.7 1-0.7 2.9-1.2 4.3-1.2 1.4 0 3.9 0.7 5.5 1.5 1.7 0.9 3.9 3.3 5.1 5.8 1.8 3.4 2.1 5.5 1.7 11.2-0.3 5.4-1.3 8.8-4.2 15-2.1 4.4-5.7 10.7-8 14-2.4 3.3-7.9 9.4-12.3 13.5-4.3 4.1-13.5 11.3-20.4 16-6.8 4.7-15.9 11.9-20.2 16-4.4 4.1-9.7 10.2-11.8 13.5-2.2 3.3-5.2 9.6-6.7 14l-2.7 8c0.5 68.3 0.2 78.3-1 87.5-0.9 6.5-3.1 16-5.1 22-1.9 5.8-5.3 13.9-7.5 18-2.3 4.1-6.6 11-9.7 15.4-3.2 4.3-8.8 10.8-12.7 14.5-3.9 3.7-9.7 8.5-13 10.7-3.3 2.3-9.1 5.7-13 7.6-3.9 1.9-10.6 4.7-15 6.1-4.4 1.4-9.4 2.8-11 3.2-1.6 0.3-6.8 1-11.5 1.4-5.1 0.5-12.7 0.5-19-0.1-5.8-0.5-14.2-1.8-18.8-2.9-4.5-1-11.2-3-15-4.4-3.7-1.4-11-4.9-16.2-7.7-5.2-2.8-11.4-6.3-13.8-7.9-2.6-1.8-5.2-2.8-7-2.6-2.3 0.2-2.7 0.7-2.7 3.1 0 2.5 1 3.5 9.5 8.6 5.2 3.2 14.4 7.9 20.5 10.5 6.1 2.6 15.3 5.9 20.5 7.3 8.8 2.3 11.2 2.5 31.5 2.6 19.9 0 22.8-0.2 30.5-2.3 4.7-1.2 12.6-4.1 17.5-6.5 4.9-2.3 12.6-6.6 17-9.6 4.4-3 11.6-9.1 16-13.5 4.5-4.4 11.1-12.5 14.7-18 3.7-5.5 8.3-13.4 10.2-17.5 1.9-4.1 4.6-10.9 5.9-15 1.4-4.1 3.3-12 4.2-17.5 1-6 1.7-16 1.8-25 0.1-8.2 0-25.6-0.2-38.5-0.2-18.4 0.1-25.1 1.3-31 0.9-4.1 2.8-10 4.3-13 1.5-3 5.5-8.4 8.8-11.9 3.3-3.5 10.3-9.3 15.5-12.9 5.2-3.6 12.9-9.1 17-12.2 4.1-3.2 10.2-8.4 13.5-11.6 3.3-3.2 8.4-9 11.3-12.9 3-3.8 7.1-10.6 9.3-15 2.3-4.7 4.4-10.9 5.1-15 0.9-5.7 0.9-8.2-0.2-13-0.8-3.6-2.6-7.5-4.4-9.9-1.7-2.1-4.7-4.7-6.6-5.8-2-1-5.5-1.8-8-1.8-2.5 0.1-6.1 0.9-8 1.9z"/>
		<path id="Path 22" class="s1" d="m453 892.7c2.5 0.2 6.1 0.2 8 0 1.9-0.2-0.1-0.4-4.5-0.4-4.4 0-6 0.2-3.5 0.4z"/>
	</g>
</svg>