<svg version="1.2" xmlns="http://www.w3.org/2000/svg" viewBox="0 0 1365 1365" width="1365" height="1365">
	<title>grammy-svgrepo-com</title>
	<style>
		.s0 { fill: #f1db2b } 
	</style>
	<path id="Path 0" fill-rule="evenodd" class="s0" d="m499.5 0h42l6 3.5c3.3 2 8.4 6 11.3 8.8 2.9 2.9 6.8 8.1 8.7 11.7 1.8 3.6 4.1 9.2 4.9 12.5 0.9 3.3 1.6 9.4 1.6 13.5 0 4.1-0.6 10-1.4 13-0.8 3-6 16.3-21.5 53.5l8.8 9c4.9 4.9 126 131.4 269.1 281 143.2 149.6 265.3 277.2 271.4 283.5 6.1 6.4 15.8 16.5 21.6 22.5 5.8 6.1 20.7 21.6 33 34.5 12.4 12.9 25.8 27.1 29.9 31.5 4.1 4.4 9.4 10.7 11.9 14 2.4 3.3 6.2 9.1 8.5 13 2.2 3.9 5.5 10.4 7.3 14.5 1.8 4.1 4.4 11.5 5.9 16.5 1.4 5 3.2 13.4 4 18.8 0.8 5.3 1.5 14.4 1.5 20.2 0 5.8-0.7 14.9-1.5 20.3-0.8 5.3-2.6 13.7-4 18.7-1.5 5-4.2 12.6-6.2 17-1.9 4.4-5.5 11.4-8 15.5-2.5 4.1-6.6 10.2-9.2 13.5-2.5 3.3-7.9 9.4-12.1 13.5-4.1 4.2-10.9 10.1-15 13.2-4.1 3.1-11.8 7.9-17 10.6-5.2 2.7-13.3 6.4-18 8-4.7 1.7-10.5 3.6-13 4.2-2.5 0.7-8.5 1.8-13.5 2.6-6.8 1-22.7 1.4-121.5 1.4v106l3.2 2.9c1.8 1.5 42 36.5 89.3 77.8 47.3 41.2 88 77.2 90.4 79.9 2.4 2.7 5.6 7.5 7.2 10.6 1.6 3.2 3.6 8.8 4.5 12.5 1.1 4.8 1.4 9.1 1 14.8-0.3 4.4-1.4 10.5-2.3 13.5-1 3-3.4 8.1-5.3 11.4-1.9 3.2-6.3 8.4-9.6 11.5-3.4 3.1-8.1 6.6-14.9 10.1l-903-0.1-5.5-3.2c-3-1.7-7.9-5.7-10.9-8.7-2.9-3-6.8-8.2-8.6-11.5-1.8-3.3-4.1-8.7-5-12-1.3-4.6-1.6-8.5-1.2-16.5 0.3-7.2 1.1-12.2 2.5-16 1.2-3 4-8.4 6.4-11.9 3.6-5.5 18.7-19.1 186.8-165.6v-109c0-96.5 0.2-109.7 1.6-115 0.9-3.3 3-8.5 4.7-11.5 1.7-3 5.8-8.2 9.1-11.5 3.4-3.3 8.1-7.2 10.6-8.6 2.5-1.5 7.6-3.6 18.5-6.9h242.5c216.3 0 243.1 0.2 248.5 1.5 3.3 0.9 8.7 3.1 12 5 3.3 1.8 8.4 5.7 11.3 8.7 2.9 2.9 6.6 7.3 8.2 9.8 1.7 2.5 3.9 7.4 5 11 1 3.6 2.1 8.2 3 14l107.5-0.5 5.4-2.5c3-1.4 7.3-4.6 9.7-7.3 2.4-2.6 5.3-6.8 6.5-9.5 1.5-3.3 2.1-6.8 2.1-11.7 0.1-5.5-0.5-8.2-2.6-12.8-2-4.5-7-10.3-23.4-27.5-11.5-11.9-21.9-22.9-25.7-27.2h-801l-6.4 15.8c-3.6 8.6-8.6 20.7-11.3 26.7-3.5 8.1-6.2 12.6-10.1 17-2.9 3.3-7.8 7.6-10.8 9.6-3 2.1-7.9 4.7-10.9 5.9-3.9 1.6-8.5 2.3-16 2.7-7.9 0.4-12.1 0.1-17-1.1-3.6-0.9-9-3.1-12-4.8-3-1.7-7.3-4.7-9.5-6.6-2.2-2-5.6-5.7-7.5-8.2-1.9-2.5-4.6-7.2-6.1-10.5-1.5-3.3-3.2-8.4-3.8-11.3-0.6-2.8-1.1-7.6-1.1-10.5 0-2.8 0.7-8.1 1.6-11.7 0.8-3.6 11-29.2 22.6-57 11.5-27.8 22.1-53 23.4-56 1.3-3 55.7-134 120.9-291 65.3-157 120.1-289.1 122-293.5 1.9-4.4 11.8-28.3 22-53 10.2-24.8 20.2-47.4 22.1-50.3 1.9-2.8 5.1-6.9 7.3-9 2.1-2 6.7-5.4 10.2-7.5zm-191.2 700.6c252.1 0.3 399 0.3 489.1 0.2l163.8-0.2c-352-367.8-454.5-474.5-455-474.5-0.4 0-45.1 106.7-99.3 237.2zm208.7 390.5h360v-127h-360zm-106 171c467.4 0 572.1-0.3 571.5-0.9-0.6-0.5-17-14.9-36.5-32l-35.5-31-426.3-0.1z"/>
</svg>