<svg version="1.2" xmlns="http://www.w3.org/2000/svg" viewBox="0 0 512 512" width="512" height="512">
	<title>gramophone</title>
	<style>
		.s0 { fill: #f7893b } 
	</style>
	<path id="Path 0" fill-rule="evenodd" class="s0" d="m370.5 0h4.5c3.3 0 5.1 0.6 6.8 2.3 1.4 1.4 2.2 3.4 2.2 5.5 0 1.7-1.8 8.6-4 15.2-2.2 6.6-5.2 17.5-6.6 24.3-2.1 10-2.7 15.9-3.1 33.2-0.4 16.6-0.2 23.4 1.1 32.5 0.9 6.3 3 16.4 4.5 22.5 1.6 6.1 4.6 15.5 6.6 21 2 5.5 6 14.5 8.8 20 2.9 5.5 7.8 14.1 11.1 19 3.2 4.9 8.6 12.4 12 16.5 3.4 4.1 10.1 11.7 14.9 17 5 5.4 9.5 11.3 12.2 18h7.3c6.3 0 7.5 0.3 12.2 5l-0.3 48.8c-0.4 48.3-0.4 48.8-2.9 59.2-1.4 5.8-4.4 15.2-6.7 21-2.2 5.8-6.2 14.1-8.7 18.5-2.6 4.4-7.2 11.4-10.2 15.5-3.1 4.1-13.1 15.1-22.4 24.5-9.2 9.4-16.8 17.8-16.8 18.7 0 1.5 1.1 1.9 6.2 2.2 5.3 0.3 6.7 0.7 8.5 3 2.2 2.5 2.3 3.3 2.3 23.1 0 20.4 0 20.5-4.9 25.5h-298.1l-5-5v-20.5c0-19.8 0.1-20.6 2.3-23.1 1.8-2.3 3.2-2.7 14.7-3.4v-39c0-29.2 0.3-39.6 1.3-41.5 0.6-1.4 2.2-2.9 3.5-3.5 1.2-0.5 4.5-1 12.2-1v-13.5c0-8.3 0.4-14.4 1.2-15.8 0.6-1.2 1.8-2.7 2.7-3.4 1-0.8 5.4-1.2 22.1-1.3v-8h-6c-5.1 0-6.4-0.4-11-5v-29.3c-0.1-27.5 0-29.3 3.8-34.2l20.9-0.3c17.2-0.2 21.2 0 23.1 1.3 1.2 0.8 2.7 2.9 3.2 4.5 0.6 1.6 1.3 3 1.8 3 0.4 0 37.2 1.5 81.7 3.5 44.6 1.9 84.3 3.7 95.5 4.5v-14c0-13.3-0.1-14.1-2.2-16-1.3-1.1-7.2-5.3-13.3-9.4-6-4.1-17.1-10.4-24.5-14-7.4-3.6-18.4-8.2-24.5-10.1-6-2-16.4-4.7-23-6-6.6-1.3-18.3-2.9-26-3.5-9.9-0.8-17.8-0.8-27-0.1-7.1 0.6-15.7 1.6-19 2.2-3.3 0.6-10.5 2.2-16 3.6-5.5 1.3-13.6 3.8-18 5.4-4.4 1.6-9.5 2.9-11.2 2.9-2.2 0-4.2-0.9-5.8-2.5-1.8-1.8-2.5-3.6-2.5-6.2 0-3.7 2.9-6.8 104.2-108.6zm-157 0.1c3.6 0 5.2 0.9 15 8.8 6.1 4.9 12.8 10.8 15 13.2 2.1 2.5 5 6.7 6.2 9.5 1.3 2.7 2.8 7.9 3.4 11.5 0.7 4.5 0.7 8.4 0 13-0.6 3.5-2.2 8.8-3.6 11.7-1.3 2.9-2.9 5.3-3.5 5.3-0.5 0-4.1-2.1-15-9l2.2-4.8c1.3-2.9 2.1-6.7 2.1-9.7 0-2.8-0.8-6.8-1.7-9-0.9-2.2-3.5-6-5.9-8.3-2.3-2.3-4.5-4.3-4.9-4.3-0.4 0.1-0.8 16.4-0.7 72.6l-2.8 5.4c-1.8 3.5-4.4 6.6-7.3 8.8-2.4 1.8-6.7 3.8-9.5 4.4-2.7 0.6-7 0.9-9.5 0.6-2.4-0.3-6.3-1.4-8.5-2.5-2.2-1.1-5.7-3.9-7.8-6.4-2.3-2.6-4.4-6.5-5.3-9.8-1-3.3-1.4-7.4-1.1-10 0.3-2.5 1.4-6.3 2.5-8.5 1.1-2.2 4-5.8 6.4-8 2.5-2.2 6.5-4.6 8.9-5.4 2.4-0.7 7-1.2 15.9-0.6v-30.8c0-25.4 0.3-31.2 1.5-33.6 0.9-1.6 2.1-3.2 2.8-3.5 0.7-0.3 3-0.5 5.2-0.6zm-25.6 93c0.1 0.5 0.6 2.1 1.1 3.5 0.6 1.3 2 3.2 3.3 4 1.4 1 3.3 1.4 5 1 1.5-0.3 3.6-1.4 4.7-2.5 1.1-1.2 2-3.4 2-5 0-1.9-0.9-4-2.5-5.5-1.5-1.6-3.6-2.5-5.4-2.5-2 0-3.7 0.9-5.6 3-1.5 1.7-2.6 3.5-2.6 4zm17.6 100.6c1.1-0.3 4.7-1 8-1.6 3.3-0.5 12.1-1.5 19.5-2.1 7.5-0.6 18.3-0.8 24-0.4 5.8 0.3 15.5 1.2 21.5 2 6.1 0.8 15.5 2.6 21 3.9 5.5 1.3 14.5 4 20 5.8 5.5 1.9 11.2 4 12.5 4.7 2.5 1.2 3.1 0.7 19.8-16.1l17.3-17.3c-6.1-16.3-9-25.5-10.4-31-1.4-5.5-3.3-14.1-4.1-19-0.9-5-2-15.3-2.5-23-0.6-8.9-0.6-19 0-27.5 0.5-7.5 1.6-17.1 2.4-21.5 0.7-4.4 1.2-8.1 1.1-8.2-0.1-0.2-34.4 34-76.1 75.8-41.8 41.8-75.1 75.8-74 75.5zm146.6 21.9l15.4 9.2 19.5-19.2c-4.4-7-6.5-10.5-7.6-12.3l-2-3.2zm30.8 20l13.6 11.5h24.5c-13.8-15.1-19.1-21-20.6-22.8l-2.9-3.3zm10.1 45.5c27.4 0 28.1 0.1 31 2.5l3 2.5c0 41.1-0.4 51.1-1.5 57-0.8 4.7-2.4 11.7-3.6 15.5-1.1 3.9-3.8 10.4-5.8 14.5-2.1 4.1-5.4 10-7.4 13-2 3-6.3 8.7-9.7 12.5l-6 7 0.1 25c16.7-17.2 24.3-26.3 28.1-32 3.6-5.5 8.2-13.4 10.1-17.5 1.9-4.1 4.6-11.2 6-15.7 1.5-4.6 3.4-12.4 4.2-17.5 1.1-7 1.5-18.2 1.5-46v-36.8h-50zm-230 34h16v-33h-16zm34-8c21.3 0.8 61 2.2 102 3.6 41 1.5 77.4 2.4 81 2.1 3.6-0.2 9.4-1.6 13-3.1 3.6-1.4 8.6-4 11.2-5.8 2.6-1.8 4.8-3.6 4.8-4 0-0.4-6.7-0.8-14.8-0.8-8.1 0-55.4-1.8-105.2-4-49.8-2.2-90.9-4-91.3-4-0.4 0-0.7 3.6-0.7 8zm191.5 22.9c-7.5 1.4-14.5 1.3-99.5-1.6-70.7-2.5-91.6-2.9-92-2-0.2 0.7-1.5 2.5-2.7 4-2.1 2.4-3 2.7-8.3 2.7h-6v8c186 0 198.8 0.2 200.7 1.5 1.3 0.8 2.7 3.2 3.3 5.3 0.5 2 1 8.9 1 15.2l0.1 11.5 6.6 4c4.8-7.7 7.5-12.9 9.2-16.5 1.7-3.6 4-10.1 5.1-14.5 1.1-4.4 2.3-11.7 2.6-16.2 0.3-4.6 0.1-8.2-0.3-8.2-0.5 0-3.3 1.2-6.3 2.7-3 1.4-9.1 3.2-13.5 4.1zm-234.5 45.1h212v-16h-212zm-17 85h238v-67h-238zm-17 34h272v-16h-272zm-27.1-452c1.1 0 3.1 0.4 4.3 0.9 1.3 0.5 14 10.7 28.3 22.7 14.3 11.9 26.5 22.4 27.2 23.3 0.9 1.2 1.2 11.4 1.3 39.6 0 32.1-0.2 38.7-1.6 42.5-0.8 2.5-2.6 6-4 7.8-1.3 1.8-4.6 4.5-7.2 6-4.1 2.4-5.8 2.7-13.2 2.7-7.5 0-9.1-0.3-13.3-2.7-2.6-1.5-5.8-4.2-7.2-6-1.3-1.8-3.1-5.3-4-7.8-0.9-2.5-1.5-6.7-1.5-9.5 0-2.8 0.9-7 2.1-9.5 1.1-2.5 3.4-6 5.2-7.8 1.7-1.9 5-4.3 7.2-5.5 3.1-1.6 5.8-2.1 19.5-2.2v-38l-32.5-27.2-0.5 27.6c-0.4 22.2-0.8 28.3-2.1 31.1-0.9 1.9-2.9 5.1-4.6 7-1.7 1.9-5.4 4.6-8.4 5.9-3.8 1.6-7.3 2.4-11.4 2.4-3.3 0-7.6-0.7-9.5-1.5-1.9-0.8-5.3-3-7.4-4.9-2.2-1.8-5-5.6-6.3-8.4q-2.3-5-2.3-10.5c0-3 0.6-7.3 1.2-9.4 0.7-2.2 3.1-6 5.4-8.5 2.2-2.5 6-5.4 8.5-6.5 3.1-1.4 6.4-1.9 18.9-1.6l0.1-46.1 2.9-3c1.5-1.6 3.8-2.9 4.9-2.9zm-21.7 72.4c-1.2 1.2-2.3 3.2-2.3 4.6 0 1.4 0.9 3.8 2 5.3 1.5 2 3 2.7 5.3 2.8 1.8 0 4.3-0.8 5.5-1.8 1.2-1 2.4-2.9 2.7-4.3 0.4-1.4 0-3.6-0.7-4.9-0.7-1.3-2.6-3-4.3-3.6-1.7-0.7-3.7-1-4.5-0.7-0.8 0.3-2.4 1.4-3.7 2.6zm48.9 48c-0.1 1.5 0.9 3.7 2.4 5.1 1.6 1.6 3.6 2.5 5.5 2.5 2 0 4-0.9 5.5-2.5 1.4-1.4 2.5-3.6 2.5-5 0-1.4-1.3-3.7-3-5.5-1.7-1.6-4-3-5.1-3-1.1 0-3.4 1.3-4.9 2.9-1.6 1.7-2.9 4.1-2.9 5.5zm186.9 238.7c4.8-0.1 7.8 0.6 11.5 2.3 2.7 1.3 6.2 3.7 7.7 5.2 1.5 1.6 3.6 4.9 4.7 7.4 1.3 2.8 2 6.6 2 10 0 3-0.5 7.3-1.2 9.5-0.7 2.4-3.2 6.1-6.2 9.2-3.8 3.9-6.3 5.5-10.5 6.7-3 0.9-6.6 1.6-8 1.6-1.4 0-4.8-0.6-7.5-1.4-2.8-0.8-6.8-3-9-4.9-2.2-1.9-4.9-5-8-10.6l-15.4-0.3c-15.3-0.3-15.3-0.3-17.7-3-2.2-2.6-2.4-3.6-2.4-23.8h18v9h17.5l2.5-4.6c1.4-2.5 3.8-5.6 5.5-6.9 1.6-1.3 4.6-3 6.5-3.8 1.9-0.9 6.3-1.6 10-1.6zm-7.6 24.7c-0.4 1.7 0 3.6 1 5 0.9 1.2 2.7 2.7 4.1 3.2 1.4 0.6 2.9 1 3.5 1 0.5 0 2.3-1.1 4-2.5 2.1-1.7 3-3.4 3-5.5 0-1.8-1-3.9-2.5-5.5-1.6-1.5-3.7-2.5-5.5-2.5-1.7 0-3.9 0.9-5 2-1.1 1.1-2.3 3.3-2.6 4.8z"/>
</svg>