<svg version="1.2" xmlns="http://www.w3.org/2000/svg" viewBox="0 0 512 512" width="512" height="512">
	<title>gramophone</title>
	<style>
		.s0 { fill: #f7a1d5 } 
	</style>
	<path id="Path 0" fill-rule="evenodd" class="s0" d="m126 0c3.2 0 7.2 0.8 9.5 1.9 2.2 1 4.9 2.8 6 4.1 1.1 1.2 4.9 3.7 8.5 5.5 3.6 1.8 11.4 5.4 17.5 8 6.1 2.6 16.2 6.5 22.5 8.6 6.3 2.2 17.3 5.5 24.5 7.4 7.2 1.9 17.1 4.1 22 5 4.9 0.8 16.1 1.9 24.8 2.5 9.3 0.6 17.6 1.7 20.4 2.6 2.7 0.9 6.6 2.9 8.8 4.4 2.2 1.5 5.3 4.2 6.9 6.1 1.6 1.9 4 5.8 7.6 13.9h43.8c40.9 0 44.2 0.1 51.7 2 4.4 1.2 10.9 3.5 14.5 5.3 3.6 1.8 9.4 5.5 12.9 8.2 3.5 2.8 8.5 7.7 11.2 11 2.7 3.3 6.4 8.9 8.3 12.5 1.9 3.6 4.4 9.7 5.7 13.5 2.1 6.6 2.3 8.9 2.9 70.5l3.2 1c1.8 0.5 5.1 2.4 7.2 4.2 2.2 1.8 5 5.6 8.6 13.3v51.3c0 47.9 0.1 51.2 1.7 51.7 1 0.2 3.4 2 5.3 3.8 1.9 1.9 4.4 5.1 5.5 7.3 1.4 2.7 1.9 6 2 10.9 0 5.1-0.5 8.1-2 10.9-1.1 2.2-3.6 5.4-5.5 7.3-1.9 1.8-4.3 3.6-5.3 3.8-1.6 0.5-1.7 3.2-1.7 39 0 35.8 0.1 38.5 1.7 39 1 0.2 3.4 2 5.3 3.8 1.9 1.9 4.4 5.1 5.4 7.3 1.1 2.1 2.1 6.4 2.4 9.4 0.3 3.8-0.2 6.9-1.4 10-1 2.5-3.4 6.3-5.3 8.4-2 2.2-5.4 4.7-7.6 5.7-2.8 1.3-6.4 1.9-20.5 1.9v22l-6.8 7h-59.2l-7-7v-22h-134v9.5c0 5.6-0.5 10.8-1.3 12.8-0.8 1.7-2.6 4-4 4.9-2.4 1.6-5.8 1.8-31.7 1.8-25.9 0-29.3-0.2-31.7-1.8-1.4-0.9-3.2-3.2-4-5-0.8-1.9-1.3-7.1-1.3-22.2l-9.3-0.3c-8.3-0.2-9.6-0.5-13.7-3.3-2.5-1.6-5.8-5-7.4-7.4-2.4-3.6-3.1-5.9-3.5-11.5-0.3-4.6 0-8.2 0.9-10.5 0.8-1.9 2.5-5 3.9-6.9 1.4-1.8 4.1-4.2 9.1-7.1v-48h-34v22c0 21.8 0 22-4.8 27.5l-37.2 0.5-1.9 3.7c-1 2.1-3.4 5.1-5.2 6.7-1.9 1.6-4.9 3.5-6.6 4.3-2.1 0.8-7.3 1.3-13.8 1.3-6.5 0-11.7-0.5-13.7-1.3-1.8-0.8-4.8-2.7-6.7-4.3-1.9-1.6-4.5-5.2-5.8-7.9-1.4-3.1-2.3-6.9-2.3-10 0-3.1 0.9-6.9 2.3-10 1.3-2.8 3.9-6.3 5.8-7.9 1.9-1.6 4.9-3.5 6.7-4.3 2-0.8 7.2-1.3 13.7-1.3 6.4 0 11.8 0.5 13.8 1.3 1.7 0.8 4.8 2.7 6.7 4.4 1.9 1.6 4.2 4.4 6.5 9.4l26.5-0.1v-22.3c-0.1-20.8 0.1-22.4 4-27.7h46v-6.5c0-6.3-0.1-6.6-3.2-8.4-1.8-1-4.5-3.4-5.9-5.2-1.4-1.9-3.1-5-3.9-6.9-0.9-2.3-1.2-5.9-0.9-10.5 0.4-5.6 1.1-7.9 3.5-11.5 1.6-2.4 4.9-5.8 7.4-7.5 4.3-2.9 4.9-3 29-3.5v-5.8c0-3.1 0.5-7.4 1-9.5 0.6-2 2.5-5.3 4.3-7.4 1.7-2 5-4.4 7.2-5.4 3.7-1.7 8.6-1.9 77.5-1.9 68.9 0 73.8 0.2 77.5 1.9 2.2 1 5.5 3.4 7.3 5.4 1.7 2.1 3.6 5.4 4.2 7.4 0.5 2.1 1 6.4 1 15.3h15v-67h-77.5l-5.7 5.5c-3.8 3.6-7.6 6.1-15.8 9v5c0.1 3.5-0.5 5.8-2 7.7-1.6 2.3-2.8 2.8-6 2.8-3.2 0-4.4-0.5-6-2.8-1.5-1.9-2.1-4.2-2-12.7l-5.2-1.9c-3.7-1.3-7-3.6-10.9-7.5-4.3-4.4-6-7-7.7-12.1-1.2-3.6-2.2-8.5-2.2-11 0-2.5 0.7-7 1.6-10 0.9-3 2.6-7.1 3.9-9 1.2-1.9 4.2-5.2 6.6-7.3 2.4-2.1 6.8-4.7 9.7-5.7 3.3-1.3 7.7-2 12.2-2 4.4 0 8.9 0.7 12.3 1.9 2.9 1.1 7.7 4.2 16.7 12.1h79.5l3.5-4.7c2.1-2.9 5.3-5.7 8-7 2.7-1.3 6.5-2.2 14-2.3v-26.5c0-21.7-0.3-27.2-1.6-30.3-0.8-2-2.5-4.8-3.7-6-1.2-1.3-4-3.4-6.2-4.5-3.9-2.1-5.2-2.2-84.5-2.7l-0.6 4.2c-0.3 2.4-1.6 6.5-2.8 9.3-1.3 2.7-3.6 6.5-5.2 8.4-1.6 1.9-5.1 4.9-7.9 6.7-2.7 1.7-6.8 3.7-9 4.3-2.2 0.6-11 1.5-19.5 2.1-8.5 0.5-19.6 1.7-24.5 2.5-4.9 0.9-14.8 3.1-22 5-7.1 1.9-18.2 5.2-24.5 7.4-6.3 2.1-16.4 6-22.5 8.6-6.1 2.6-13.9 6.2-17.5 8-3.6 1.8-7.4 4.3-8.5 5.5-1.1 1.3-3.8 3.1-6 4.1-2.3 1.1-6.3 1.9-9.5 1.9-3.2 0-7.2-0.8-9.5-1.9-2.2-1-5.5-3.4-7.2-5.4-1.8-2.1-3.7-5.4-4.3-7.5-0.6-2.3-1-34.5-1-85.7 0-51.2 0.4-83.4 1-85.8 0.6-2 2.5-5.3 4.3-7.4 1.7-2 5-4.4 7.2-5.4 2.3-1.1 6.3-1.9 9.5-1.9zm-6.2 100.6c0.1 76.2 0.2 81 1.9 82.6 1 1 2.9 1.8 4.3 1.8 1.4 0 3.3-0.7 4.2-1.7 1.6-1.7 1.8-7.5 1.8-82.8 0.1-76.4 0-81.1-1.7-82.7-1-1-3-1.8-4.4-1.8-1.4 0-3.4 0.8-4.4 1.8-1.8 1.8-1.9 5.6-1.7 82.8zm28.5 71.4c0.1 0 4.7-1.9 10.2-4.4 5.5-2.4 15.7-6.4 22.8-9 7-2.5 18.7-6.2 26-8.1 7.2-1.9 18.6-4.4 25.2-5.5 6.6-1.2 18.8-2.5 27-2.9 11.9-0.7 15.8-1.3 19-2.9 2.2-1.1 5-3.1 6.2-4.4 1.2-1.2 2.9-4 3.7-6 1.3-3.1 1.6-8.4 1.6-28.3 0-19.9-0.3-25.2-1.6-28.2-0.8-2.1-2.5-4.9-3.7-6.1-1.2-1.3-4-3.3-6.2-4.4-3.2-1.6-7.1-2.2-19-2.9-8.2-0.4-20.4-1.7-27-2.9-6.6-1.1-18-3.6-25.2-5.5-7.3-1.9-19-5.6-26-8.1-7.1-2.6-17.3-6.6-22.8-9-5.5-2.5-10.1-4.4-10.2-4.4-0.2 0-0.3 32.2-0.3 71.5 0 39.3 0.1 71.5 0.3 71.5zm157.7-64h22v-23h-22zm38 0h16v-23h-16zm32-0.5c14.1 1 17.9 1.8 21.5 3.6 2.8 1.3 7.1 4.5 9.8 7.2 2.6 2.6 5.9 7.3 7.5 10.5l2.7 5.7 0.5 58.5h22c-0.6-57.9-0.8-61.1-2.7-67-1.2-3.6-4.6-10.1-7.5-14.4-3-4.5-7.7-9.9-10.8-12.4-3-2.4-8.1-5.7-11.2-7.3-3.2-1.6-8.4-3.5-11.5-4.3-3.2-0.8-9-1.7-13-2.1l-7.2-0.6zm17.1 104.3c-2.1 2.6-2.1 3.6-2.1 51.4v48.8h68c0-78.9-0.3-97.8-1-99-0.5-1.1-2.5-2.7-4.5-3.5-2.8-1.2-8.3-1.5-28.7-1.4-13.9 0.1-26.2 0.3-27.5 0.6-1.2 0.2-3.1 1.6-4.2 3.1zm-138.7 3c-1.3 1.8-2.9 4.9-3.5 6.9-0.6 2.1-0.8 5.4-0.5 7.3 0.3 1.9 1.6 5 2.9 6.9 1.2 1.9 3.4 4.3 4.7 5.3 1.4 1.1 4.8 2.2 7.5 2.5 2.8 0.3 6.6 0.1 8.5-0.5 2-0.6 5-2.7 6.8-4.7 1.8-1.9 3.8-5.2 4.4-7.3 0.6-2 0.8-5.3 0.5-7.2-0.3-1.9-1.6-5.1-2.9-6.9-1.2-1.9-3.5-4.4-5.1-5.5-1.9-1.5-4.6-2.2-8.5-2.4-3.1-0.1-7.2 0.4-9.1 1.1-1.8 0.8-4.4 2.8-5.7 4.5zm47.6 15.2h73v-8h-73zm-104.2 69.9c-1.3 1.1-1.8 3-1.8 6.8v5.3h148c0.1-9.4-0.4-11-2-12.5-2.1-2-3.7-2-70.8-2.2-37.8-0.1-69.3 0.1-70.2 0.4-0.8 0.3-2.3 1.3-3.2 2.2zm-40.2 31.3c-0.9 1.3-1.6 3.6-1.6 5.3 0 1.6 0.7 4 1.5 5.2 0.9 1.3 3.2 2.7 5.3 3.3 2.1 0.5 16.8 1 33.2 0.9 28.9 0 29.6 0.1 31.5 2.2 1.2 1.2 2 3.5 2 5.4 0 1.9-0.8 4.2-2 5.4-1.9 2.1-2.6 2.1-29.7 2.1h-27.8v72l177.5-0.1c3.5 3.6 4.5 5.9 4.6 7.6 0 1.6-0.9 4.2-2 5.7l-2.1 2.8c-147.7 0-182.8 0.4-185.2 1-2.1 0.5-4.4 2-5.3 3.2-0.8 1.3-1.5 3.7-1.5 5.5 0 2 0.9 4.2 2.3 5.6 1.4 1.5 4 2.7 6.7 3.1 2.5 0.4 71.6 0.5 153.5 0.4 130.5-0.3 149.3-0.5 151.3-1.8 1.2-0.8 2.8-2.9 3.4-4.5 0.8-2 0.9-3.8 0.3-5.4-0.5-1.3-2.2-3.4-3.8-4.5-2.7-2.1-3.9-2.1-44.2-2.4l-41.5-0.2c-3.1-4.3-4-6.6-4-8 0-1.4 0.9-3.8 2-5.3l2-2.7h75v-72h-197.5c-3.1-3.3-4-5.6-4-7.5 0-1.9 0.9-4.2 2-5.4l2-2.2c192.7-0.4 206.3-0.6 208.3-1.9 1.2-0.8 2.8-2.9 3.4-4.5 0.8-2 0.9-3.8 0.3-5.4-0.5-1.3-2.2-3.4-3.8-4.5l-2.8-2.1c-241.6-0.3-302.6 0-304.5 0.6-1.8 0.5-3.9 1.9-4.8 3.1zm-119 97c-0.8 1.9-0.7 3.4 0.2 5.2 0.7 1.4 2.8 3.3 4.7 4.1 2 0.8 5.1 1.5 7 1.5 2 0 5.1-0.7 7-1.5 2-0.8 4.1-2.7 4.8-4.1 0.9-1.8 1-3.3 0.2-5.2-0.5-1.5-2.5-3.5-4.5-4.5-1.9-0.9-5.3-1.7-7.5-1.7-2.2 0-5.5 0.8-7.4 1.7-2 1-4 3-4.5 4.5zm151.4 68.8h42v-14h-42zm207 0h43v-14h-43z"/>
</svg>