<svg version="1.2" xmlns="http://www.w3.org/2000/svg" viewBox="0 0 518 531" width="518" height="531">
	<title>headphones-simple-icon-in-thin-line-style-vector-21668990</title>
	<style>
		.s0 { fill: #f3f4f4 } 
		.s1 { fill: #f6f6f6 } 
		.s2 { fill: #f2f2f2 } 
		.s3 { fill: #e8e8e8 } 
		.s4 { fill: #f0f0f0 } 
		.s5 { fill: #ececec } 
		.s6 { fill: #eaeaea } 
		.s7 { fill: #eeeeee } 
		.s8 { fill: #5dab54 } 
	</style>
	<g id="Background">
		<path id="Path 0" fill-rule="evenodd" class="s0" d="m542 536v12h-16v16h-16v16h-16v8h-16v8h-16v16h-16c-13.6 0-16 0.2-16 1.5 0 1.3-20.2 1.5-176 1.5-155.8 0-176-0.2-176-1.5 0-1.2-1.6-1.5-16-1.5v-8h-16v-8h-16v-16h-20v-8h-12v-24h-16v-8h12c11.3 0 12 0.1 12 2 0 1.9 0.7 2 16 2 15.3 0 16 0.1 16 2 0 1.9 0.7 2 12 2 7.3 0 12-0.4 12-1 0-0.6 3-1 7-1 4 0 7 0.4 7 1 0 0.5 0.9 1 2 1 1.1 0 2 0.5 2 1 0 0.6 3 1 7 1 4 0 7-0.4 7-1 0-0.6 3.3-1 8-1 5.3 0 8.1 0.4 8.3 1.2 0.1 0.8 6.8 1.2 23.9 1.2 22 0.1 23.8 0.2 23.8 1.9 0 1.5-1 1.7-8 1.7-4.7 0-8-0.4-8-1 0-0.6-3.3-1-16-1v8h8c7.3 0 8 0.2 8 2 0 1.8 0.7 2 16 2v8h16v8h48v8h96v-8h32v-8h16v-8h8c7.3 0 8-0.2 8-2 0-1.8 0.7-2 16-2v-8h-8c-4.7 0-8-0.4-8-1 0-0.6 8.7-1 24-1 15.3 0 24-0.4 24-1 0-0.6 3.3-1 8-1 4.7 0 8-0.4 8-1 0-0.6 3.3-1 8-1 4.7 0 8-0.4 8-1 0-0.6 7.3-1 20-1 19.3 0 20-0.1 20-2 0-1.9 0.7-2 12-2 11.3 0 12-0.1 12-2 0-1.8 0.7-2 16-2zm-184 14c7.3 0 8 0.2 8 2 0 1.8-0.7 2-8 2-4.7 0-8 0.4-8 1 0 0.7-27.3 1-80 1-52.7 0-80-0.3-80-1 0-0.6 3.3-1 8-1 4.7 0 8-0.4 8-1 0-0.7 24.7-1 72-1 47.3 0 72-0.3 72-1 0-0.6 3.3-1 8-1z"/>
		<path id="Path 1" class="s1" d="m126 556v4c15.3 0 16 0.2 16 2 0 1.8 0.7 2 8 2h8v8h16v8h48v8h96v-8h32v-8h16v-8c15.3 0 16-0.2 16-2 0-1.8 0.7-2 8-2h8v-8c-26 0-32 0.4-32 1 0 0.6-3.3 1-8 1-4.7 0-8 0.4-8 1 0 0.7-27.3 1-80 1-79.3 0-80 0-80-2 0-1.9-0.7-2-16-2-10 0-16 0.4-16 1 0 0.6-3.3 1-8 1-4.7 0-8-0.4-8-1 0-0.6-3.3-1-8-1h-8z"/>
		<path id="Path 2" fill-rule="evenodd" class="s2" d="m-242-236h1000v851h-164c-145.1 0-164-0.2-164-1.5 0-1.3 2.4-1.5 32-1.5v-16h16v-8h16v-8h16v-16h16v-16h16v-12h-8c-7.3 0-8 0.2-8 2 0 1.9-0.7 2-12 2-11.3 0-12 0.1-12 2 0 1.9-0.7 2-20 2-12.7 0-20 0.4-20 1 0 0.6-3.3 1-8 1-4.7 0-8 0.4-8 1 0 0.6-3.3 1-8 1-4.7 0-8 0.4-8 1 0 0.6-8.7 1-24 1-15.3 0-24 0.4-24 1 0 0.6-3.3 1-8 1-4.7 0-8-0.4-8-1 0-0.6-3.3-1-8-1-4.7 0-8 0.4-8 1 0 0.7-24.7 1-72 1-47.3 0-72 0.3-72 1 0 0.6-3.3 1-8 1-4.7 0-8-0.4-8-1 0-0.6-6-1-16-1-8.8 0-16-0.3-16-0.8 0-0.4-10.7-0.7-23.8-0.8-17.1 0-23.8-0.4-23.9-1.2-0.2-0.8-3-1.2-8.3-1.2-4.7 0-8 0.4-8 1 0 0.6-3 1-7 1-4 0-7-0.4-7-1 0-0.5-0.9-1-2-1-1.1 0-2-0.5-2-1 0-0.6-3-1-7-1-4 0-7 0.4-7 1 0 0.6-4.7 1-12 1-11.3 0-12-0.1-12-2 0-1.9-0.7-2-16-2-15.3 0-16-0.1-16-2 0-1.9-0.7-2-24-2v8h16v24h12v8h20v16h16v8h16v8h8c6.4 0 8 0.3 8 1.5 0 1.3-18.4 1.5-320 1.5zm242 767h518v-531h-518z"/>
		<path id="Path 3" class="s0" d="m206-128v4h-32v8h-32v8h-16v8h-32v8h-16v8h-16v8h-16v16h-16v8h-16v8h-16v16h-16v16h-16v16h-16v16h-8v16h-8v16h-16v16h-8v16h-8v16h-8v32h-8v16h-8v32h-8v32h-8v112h8c0 47.3 0.1 48 2 48 1.1 0 2-0.5 2-1 0-0.5 0.7-1 1.5-1 0.8 0 2.2 0.7 3 1.5 1.1 1.1 1.5 3.7 1.5 9 0 6 0.3 7.5 1.5 7.5 0.8 0 2.2 0.7 3 1.5 1.2 1.2 1.5 4.4 1.5 16v14.5h16v28c7.3 0 8 0.3 8 2 0 1.7 0.7 2 4 2h4v16h8v16h8v16h8v8h-8v8h8v-8h8v-8c6.2 0 8-0.5 8-1 0-0.5 1.8-1 4-1 3.8 0 4-0.2 4-3v-3c15 0 16 0.2 16 1.8 0 1.4 1 1.7 5.5 1.9 4.9 0.3 5.5 0.1 5.5-1.7q0-2 2.5-2.5c2.1-0.4 2.5-1.1 2.5-4 0-1.9 0.4-3.5 1-3.5 0.6 0 1-3.3 1-8 0-4.7-0.4-8-1-8-0.6 0-1-3.3-1-8v-8h-8v-16h-8v-16h-16v-32h-8v-16h-8v-32h-8v-16h-8c0-47.3 0.1-48 2-48 1.6 0 2-0.7 2-3 0-2.3-0.4-3-2-3-1.9 0-2-0.7-2-21v-21h8v-48h8v-16h8v-32h8v-16h8v-16h8v-16h16c0-12.7 0.4-16 1-16 0.6 0 1-12 1-34v-34h78v-12h16v-8h16v-8h16v-8h32v-8h16v-8h48v-8h96v8h16v8h32v8h16v8h32v16h16v8c15.3 0 16 0.2 16 2 0 2 0.7 2 36 2h36c0 71.3 0 72 2 72 1.7 0 2 0.7 2 4 0 3.3 0.3 4 2 4q2 0 2 2c0 1.7 0.7 2 4 2h4v16h8v16h8v16h8v32h12c0 19.3 0.1 20 2 20 1.9 0 2 0.7 2 22v22h8v80h-8v48h-8v16h-8v32h-16v16h-8v16h-8v16h-8v36c7.3 0 8 0.3 8 2q0 2 2 2 2 0 2 2c0 1.8 0.7 2 8 2 4.7 0 8 0.4 8 1 0 0.6 2.7 1 6 1 3.3 0 6 0.4 6 1 0 0.5 0.9 1 2 1 1.7 0 2 0.7 2 4v4h12v-8h8v-16h8v-16c10.4 0 11.9-0.4 13.7-2.2 2.1-2.2 2.3-3.2 2.3-16.1v-13.7c10.4 0 11.9-0.4 13.7-2.2 2.1-2.2 2.3-3.2 2.3-16v-13.8h8v-16h8v-32h8v-32h8v-112h-8v-48h-8c0-23.3-0.1-24-2-24-1.7 0-2-0.7-2-4 0-3.3-0.3-4-2-4-1.8 0-2-0.7-2-8v-8h-8v-16h-8v-16h-8v-16h-8v-16c-7.3 0-8-0.3-8-2q0-2-2-2c-1.8 0-2-0.7-2-6v-6h-12c0-15.3-0.2-16-2-16q-2 0-2-2 0-2-2-2-2 0-2-2 0-2-2-2-2 0-2-2 0-2-2-2c-1.9 0-2-0.7-2-10v-10h-32v-16h-16v-24h-16v-8h-16v-8h-16v-8h-16c0-11.3-0.2-12-2-12q-2 0-2-2c0-1.9-0.7-2-14-2h-14v-8h-16v-8h-16v-8h-16v-8h-48v-8h-112z"/>
		<path id="Path 4" class="s3" d="m141.8 531.7c9.9 0.2 16.2 0.7 16.2 1.3 0 0.6 3.3 1 8 1 4.7 0 8 0.4 8 1 0 0.7 30 1 88 1 87.3 0 88 0 88-2 0-1.8 0.8-2 8.2-2.3 4.6-0.2-45.9-0.3-112.2-0.3-66.3 0-113.2 0.2-104.3 0.3z"/>
		<path id="Path 5" class="s4" d="m-2 495.3c0 2.1-0.2 2.2-5.4 1.5-4.4-0.5-5.6-0.3-6.5 1-0.7 1-1.6 2.4-2.2 3.2-0.8 1.1-1.2 1.2-1.5 0.2-0.2-0.6-0.8-1.2-1.4-1.2-0.6 0-1 1.8-1 4v4h-14v12h8v8c6.2 0 8 0.5 8 1 0 0.6 3.7 1 9 1h9v-10c-17.3 0-18-0.1-18-2 0-1.8 0.7-2 8-2h8c0-12.7 0.4-16 1-16 0.6 0 1-1.6 1-3.5 0-1.9-0.4-3.5-1-3.5-0.6 0-1 1-1 2.2zm520 17.5v17.8c-19 1.2-28 1.5-32.2 1.5-7.1 0-7.8 0.2-7.8 2 0 1.9-0.7 2-16 2-10 0-16 0.4-16 1 0 0.6-3.3 1-8 1-4.7 0-8 0.4-8 1 0 0.6-3.3 1-8 1-4.7 0-8-0.4-8-1 0-0.6-3-1-7-1-4 0-7 0.4-7 1 0 0.6-6.3 1-17 1-10.7 0-17 0.4-17 1 0 0.6-3.3 1-8 1-4.7 0-8 0.4-8 1 0 0.6-6 1-16 1-10 0-16 0.4-16 1 0 0.6-14 1-40 1-26 0-40-0.4-40-1 0-0.6-8.7-1-24-1-15.3 0-24 0.4-24 1 0 0.6-3 1-7 1-4 0-7-0.4-7-1 0-0.5-0.9-1-2-1-1.1 0-2-0.5-2-1 0-0.6-3-1-7-1-4 0-7-0.4-7-1 0-0.6-2.9-1-6.7-1-5.7 0-7.1 0.3-8.3 2-1.3 1.7-2.6 2-9.2 2-4.5 0-7.8-0.4-7.8-1 0-0.5-1.8-1-4-1-3.3 0-4-0.3-4-2 0-1.7-0.7-2-4-2-2.2 0-4 0.5-4 1 0 0.6-5.6 1-14.7 1-13.7 0-14.9-0.1-16.3-2-1.4-1.9-2.6-2-17.2-2-14.4 0-15.8-0.2-15.8-1.8 0-1.4-1.2-1.9-6.2-2.5-3.5-0.4-13.5-0.6-22.3-0.6-8.8 0.1-15 0.3-13.7 0.5 1.4 0.3 2.2 1.1 2.2 2.4 0 1.9 0.7 2 16 2 15.3 0 16 0.1 16 2 0 1.7 0.7 2 4 2 2.2 0 4 0.5 4 1 0 0.6 5.9 1 15.8 1 14.6 0 15.8 0.1 17.2 2 1.2 1.6 2.6 2 7.3 2 3.6 0 5.9-0.4 6.1-1.3 0.3-0.9 0.7-0.8 1.6 0.3 0.9 1.1 1.3 1.2 1.6 0.2 0.3-0.8 3.5-1.2 11.4-1.2 8 0 11.1 0.3 11.3 1.2 0.3 1 6.6 1.2 28 1 18-0.1 27.7 0.2 27.7 0.8 0 0.6 3.3 1 8 1 4.7 0 8 0.4 8 1 0 0.7 27 1 79 1 52 0 79-0.3 79-1 0-0.5 0.9-1 2-1 1.1 0 2-0.5 2-1 0-0.6 8.3-1 23-1 14.7 0 23-0.4 23-1 0-0.6 6-1 16-1 10 0 16-0.4 16-1 0-0.6 6-1 16-1 10 0 16-0.4 16-1 0-0.6 3.3-1 8-1 4.7 0 8-0.4 8-1 0-0.6 3.3-1 8-1 4.7 0 8-0.4 8-1 0-0.6 3.3-1 8-1 4.7 0 8-0.4 8-1 0-0.6 3-1 7-1 4 0 7-0.4 7-1 0-0.5 0.9-1 2-1 1.1 0 2-0.5 2-1 0-0.6 3-1 7-1h7c0-5.3 0.4-6 2-6 1.7 0 2-0.7 2-4v-4h12v-8h-12c0-5.3-0.4-6-2-6-1.1 0-2-0.5-2-1 0-0.6-2.7-1-6-1-3.3 0-6-0.3-6-0.8 0-0.4-1.5-1.5-3.5-2.5-1.9-0.9-4.6-1.7-6-1.7h-2.5z"/>
		<path id="Path 6" class="s5" d="m52.8 531.7c3.9 0.2 7.2 0.8 7.2 1.3 0 0.6 3.7 1 9 1 5.3 0 9 0.4 9 1 0 0.6 3.3 1 8 1 4.7 0 8 0.4 8 1 0 0.6 5.7 1 15 1 9.3 0 15 0.4 15 1 0 0.5 0.9 1 2 1 1.1 0 2 0.4 2 1 0 0.6 2.7 1 6 1 3.9 0 6.1-0.4 6.4-1.3 0.3-0.9 0.7-0.8 1.6 0.3 0.9 1.1 1.3 1.2 1.6 0.2 0.3-0.8 2.7-1.2 7.4-1.2 4 0 7-0.4 7-1 0-0.6-5.7-1-15-1-9.3 0-15-0.4-15-1 0-0.6-0.9-1-2-1-1.1 0-2-0.5-2-1 0-0.6-5.7-1-15-1-12.7 0-15-0.2-15-1.5 0-1.3-3.3-1.5-24.3-1.3-13.3 0.1-20.9 0.3-16.9 0.5zm369.4 0c-4.6 0.2-8.2 0.7-8.2 1.3 0 0.6-3.3 1-8 1-4.7 0-8 0.4-8 1 0 0.6-3.3 1-8 1-4.7 0-8 0.4-8 1 0 0.6-3.3 1-8 1-4.7 0-8 0.4-8 1 0 0.6 6.3 1 17 1 10.7 0 17-0.4 17-1 0-0.6 3-1 7-1 4 0 7-0.4 7-1 0-0.6 6-1 16-1 10 0 16-0.4 16-1 0-0.6 4.7-1 12-1 7.3 0 12-0.4 12-1 0-0.6 1.9-1.1 4.3-1.3 2.3-0.2-6.6-0.3-19.8-0.3-13.2 0-27.7 0.1-32.2 0.3zm-248.3 9.3c0 0.6 3.3 1 8 1 4.7 0 8 0.4 8 1 0 0.6 8.7 1 24 1 15.3 0 24 0.4 24 1 0 0.6 3.3 1 8 1 4.7 0 8-0.4 8-1 0-0.6 8.7-1 24-1 15.3 0 24-0.4 24-1 0-0.6 3.3-1 8-1 4.7 0 8 0.4 8 1 0 0.6 6 1 16 1 15.3 0 16-0.1 16-2 0-2-0.7-2-48-2-31.3 0-48 0.3-48 1 0 0.6-3.3 1-8 1-4.7 0-8-0.4-8-1 0-0.6-11.3-1-32-1-20.7 0-32 0.4-32 1z"/>
		<path id="Path 7" class="s1" d="m222-56v4h-48v8h-16v8h-32v8h-16v8h-16v8h-16v12c367.3 0 368 0 368-2 0-1.8-0.7-2-8-2h-8v-8h-16v-16h-32v-8h-16v-8h-32v-8h-16v-8h-96zm-224 132v8h-16v16h-8v16h-8v16h-8v32h-8v16h-8v48h-8c0 41.3 0.1 42 2 42 1.6 0 2 0.7 2 3 0 2.3-0.4 3-2 3-1.9 0-2 0.7-2 24v24h8v16h8v32h8v16h8v32h16v16h8v16h8c0 12.7 0.4 16 1 16 0.7 0 1-67.3 1-200 0-132.7-0.3-200-1-200-0.6 0-1 3.3-1 8zm520 186v190h8v-16h8v-16h8v-16h16v-32h8v-16h8v-48h8v-80h-8c0-43.3-0.1-44-2-44-1.9 0-2-0.7-2-10v-10h-12v-32h-8v-16h-8v-16h-8v-16c-7.3 0-8-0.3-8-2q0-2-2-2c-1.7 0-2-0.7-2-4 0-3.3-0.3-4-2-4-2 0-2 0.7-2 190zm-16 284c0 1.7 0.7 2 4 2 3.3 0 4-0.3 4-2 0-1.7-0.7-2-4-2-3.3 0-4 0.3-4 2z"/>
		<path id="Path 8" class="s2" d="m-2 487.5c0 2.9-0.4 3.6-2.5 4q-2.5 0.5-2.5 2.5c0 1.1-0.8 2.2-1.8 2.4-0.9 0.2 0.2 0.4 2.5 0.5 3.7 0.1 4.3-0.2 4.3-1.9 0-1.1 0.4-2 1-2 0.6 0 1-2 1-4.5 0-2.5-0.4-4.5-1-4.5-0.6 0-1 1.6-1 3.5z"/>
		<path id="Path 9" class="s6" d="m94.1 532.4c-0.1 1.4 1.7 1.6 14.9 1.6 9.3 0 15 0.4 15 1 0 0.5 0.9 1 2 1 1.1 0 2 0.5 2 1 0 0.6 5.7 1 15 1 9.3 0 15 0.4 15 1 0 0.6 14 1 40 1 26 0 40 0.4 40 1 0 0.6 3.3 1 8 1 4.7 0 8-0.4 8-1 0-0.7 19.3-1 56-1 36.7 0 56-0.3 56-1 0-0.6 3.3-1 8-1 4.7 0 8-0.4 8-1 0-0.6 3.3-1 8-1 4.7 0 8-0.4 8-1 0-0.6 3.3-1 8-1 4.7 0 8-0.4 8-1 0-0.6 3.6-1.1 8.3-1.3 4.5-0.2-4.4-0.4-19.8-0.5-15.4-0.1-33.5 0.1-40.3 0.5-10.7 0.7-12.2 1-12.2 2.6 0 1.6-4.9 1.7-88 1.7-58 0-88-0.3-88-1 0-0.6-3.3-1-8-1-4.4 0-8.1-0.4-8.2-0.9-0.2-0.5-14.5-1.2-31.9-1.6-28.8-0.7-31.7-0.6-31.8 0.9z"/>
		<path id="Path 10" class="s7" d="m-2 508v8c-15.3 0-16 0.2-16 2 0 1.9 0.7 2 9 2h9c0-16-0.4-20-1-20-0.6 0-1 3.3-1 8zm44.3 23.7c2.9 0.2 3.7 0.7 3.7 2.3 0 1.9 0.7 2 15.8 2 14.6 0 15.8 0.1 17.2 2 1.4 1.9 2.6 2 16.3 2 9.1 0 14.7-0.4 14.7-1 0-0.6-3.3-1-8-1-4.7 0-8-0.4-8-1 0-0.6-3.3-1-8-1-4.7 0-8-0.4-8-1 0-0.6-3.7-1-9-1-4.9 0-9.1-0.4-9.2-0.9-0.2-0.4-5-1-10.8-1.3-5.8-0.2-8.8-0.3-6.7-0.1zm431.9 0c-2.3 0.2-4.2 0.8-4.2 1.3 0 0.6-4.7 1-12 1-7.3 0-12 0.4-12 1 0 0.6-6 1-16 1-15.3 0-16 0.1-16 2 0 1.8 0.7 2 8 2 4.7 0 8-0.4 8-1 0-0.6 3.3-1 8-1 4.7 0 8-0.4 8-1 0-0.6 6-1 16-1 15.3 0 16-0.1 16-2 0-1.9 0.8-2 12.3-2.3l12.2-0.3c-18.6 0-25.9 0.1-28.2 0.3zm-356.3 8.3c0 1.7 0.7 2 4 2 2.2 0 4 0.5 4 1 0 0.6 3.3 1 8 1 7.3 0 8-0.2 8-2 0-1.1-0.4-2-1-2-0.5 0-1 0.5-1 1 0 0.6-2.7 1-6 1-3.3 0-6-0.4-6-1 0-0.5-0.9-1-2-1-1.1 0-2-0.5-2-1 0-0.5-1.3-1-3-1-2.3 0-3 0.4-3 2zm40 1c0 0.6 3 1 7 1 4 0 7 0.4 7 1 0 0.5 0.9 1 2 1 1.1 0 2 0.5 2 1 0 0.6 3 1 7 1 6.3 0 7-0.2 7-2 0-1.8-0.7-2-8-2-4.7 0-8-0.4-8-1 0-0.6-3.3-1-8-1-4.7 0-8 0.4-8 1zm192 0c0 0.6 3.3 1 8 1 4.7 0 8-0.4 8-1 0-0.6-3.3-1-8-1-4.7 0-8 0.4-8 1zm-48 2c0 0.6-8.7 1-24 1-15.3 0-24 0.4-24 1 0 0.6 11.3 1 32 1 31.3 0 32 0 32-2 0-1.8-0.7-2-8-2-4.7 0-8 0.4-8 1z"/>
		<path id="Path 11" class="s0" d="m538 248v4h16v-8h-16zm-562 3c0 0.6-0.9 1-2 1-1.7 0-2 0.7-2 4 0 3.3 0.3 4 2 4q2 0 2 2c0 1.1 0.4 2 1 2 0.6 0 1-0.9 1-2 0-1.7 0.7-2 4-2 3.8 0 4-0.2 4-3 0-2.3-0.4-3-2-3q-2 0-2-2c0-1.6-0.7-2-3-2-1.7 0-3 0.4-3 1zm-14 21v4h16v-8h-16z"/>
		<path id="Path 12" class="s1" d="m-116 379c0 4 0.4 7 1 7 0.6 0 1-3 1-7 0-4-0.4-7-1-7-0.6 0-1 3-1 7z"/>
		<path id="Path 13" fill-rule="evenodd" class="s8" d="m263 14.5c11.2 0.3 23.6 1.2 31.5 2.4 7.1 1.1 18.6 3.4 25.5 5.1 6.9 1.7 17.9 5.2 24.5 7.6 6.6 2.4 17.2 7 23.5 10.2 6.3 3.1 15.3 8 19.8 10.7 4.6 2.8 12.9 8.4 18.5 12.6 5.6 4.2 14.5 11.4 19.7 16 5.2 4.7 13.5 13.1 18.5 18.8 5 5.7 12 14.4 15.7 19.5 3.7 5 9.5 13.8 13 19.6 3.4 5.8 8.7 15.9 11.6 22.5 3 6.6 7 16.3 8.9 21.5 1.9 5.2 4.9 15.6 6.8 23 1.8 7.4 4.1 19.4 5.1 26.5 1.7 11.7 1.9 20 1.9 151l-2.5 5c-1.4 2.8-4.1 6.6-6.1 8.5-1.9 1.9-5.1 4.3-7 5.2-1.9 0.9-4.6 2.1-8.9 3.8l-0.1 58.5-23.9 24v6.5c0 4-0.7 8-1.8 10.5-1 2.2-3.2 5-4.8 6.3-1.6 1.3-4.5 2.8-6.4 3.3-2 0.6-10.4 0.9-35.8 0.4l-3.9-3.1c-2.1-1.7-4.7-4.6-5.8-6.5-2-3.3-2-5.4-2.2-103.9-0.2-71.3 0-101.7 0.8-104.5 0.6-2.2 2.8-5.6 4.8-7.6 2.2-2.2 5.4-4.1 8.1-4.9 2.9-0.8 9.6-1.1 19-0.8 12.8 0.3 15 0.6 18.5 2.6 2.2 1.3 5.1 3.9 6.5 5.9 2.1 3 2.6 5.1 3.1 19.8l23.9 24v28.3c0 15.5 0.3 28.2 0.7 28.2 0.5 0 2.4-1 4.3-2.3 1.9-1.3 4.5-4.3 8-11.2l-0.3-68.5c-0.3-58.8-0.6-70-2.1-79-0.9-5.8-3.2-16.6-5-24-1.9-7.4-5.1-18-7.1-23.5-2-5.5-6.4-15.5-15.5-34.5h-13.8c-9.6 0-14.2-0.3-15.3-1.2-0.8-0.7-4.2-5.1-7.5-9.7-3.2-4.7-11.1-13.8-17.4-20.4-6.3-6.6-15.3-15-20-18.7-4.7-3.7-13-9.7-18.5-13.3-5.5-3.6-16.1-9.5-23.5-13-7.4-3.6-18.5-8.1-24.5-10.1-6-2-15-4.5-20-5.7-5-1.1-13.7-2.7-19.5-3.5-5.8-0.7-18.3-1.4-27.8-1.4-9.7 0-22.1 0.7-28.4 1.5-6.2 0.8-15.8 2.6-21.3 3.9-5.5 1.4-14.3 3.9-19.5 5.6-5.2 1.7-16.3 6.4-24.5 10.5-8.3 4-18.8 9.9-23.5 13-4.7 3.2-12.3 8.8-17 12.5-4.7 3.8-13 11.4-18.5 17.1-5.6 5.7-13.3 14.7-17.2 19.9-4 5.2-7.9 10.3-8.8 11.3-1.3 1.5-3.4 1.7-29.5 1.7l-5.9 12.3c-3.2 6.7-7.7 17.1-9.9 23.2-2.2 6.1-5.4 16.6-7.1 23.5-1.7 6.9-3.8 17.2-4.7 23-1.5 9-1.8 20.4-2.5 147.5l2.4 4.5c1.3 2.5 3.9 5.5 5.8 6.8 1.9 1.2 3.7 2.2 4.1 2.2 0.5 0 0.8-12.7 0.8-56.5l23.9-24 0.3-8.1c0.2-6.6 0.7-8.7 2.8-11.7 1.4-2 4.3-4.6 6.5-5.9 3.5-2 5.7-2.3 18.5-2.6 9.4-0.3 16.1 0 19 0.8 2.7 0.8 5.9 2.7 8.1 4.9 2 2 4.2 5.4 4.8 7.6 0.8 2.8 1.1 33.1 1.1 102.5 0 62.1-0.4 99.9-1 102.3-0.6 2-2.2 5.1-3.7 6.9-1.6 1.7-4.6 4-6.8 4.9-3.3 1.5-6.6 1.9-19 1.8-10.6 0-16.2-0.4-19-1.5-2.2-0.8-4.9-2.2-5.9-3.2-1-0.9-2.7-3.5-3.7-5.7-1.2-2.5-1.9-6.4-1.9-17l-23.5-23.5-1-59.2-5-1.8c-2.8-1-7-3.8-9.5-6.2-2.5-2.4-5.7-6.5-9.5-14.3l-0.3-62c-0.2-40.1 0.1-66.6 0.8-75 0.6-7.1 2-17.9 3-24 1.1-6.1 3.5-16.6 5.4-23.5 1.9-6.9 5.1-16.8 7.1-22 2-5.2 6.1-14.4 9-20.5 3-6.1 7.8-14.9 10.7-19.8 2.9-4.8 8.7-13.3 12.9-19 4.2-5.6 11.2-14.3 15.6-19.2 4.3-4.9 12.2-12.8 17.4-17.4 5.2-4.6 14-11.8 19.5-16 5.6-4.2 13.7-9.7 18-12.3 4.4-2.5 12.2-6.9 17.4-9.6 5.2-2.7 14.7-7 21-9.4 6.3-2.5 13.8-5.2 16.5-6.1 2.8-0.9 9.5-2.7 15-4.1 5.5-1.3 14.5-3.2 20-4.1 5.5-0.9 13.8-2 18.5-2.5 4.7-0.5 16.8-0.7 27-0.5zm-38.5 14.1c-6.6 0.9-17.9 3.1-25 4.9-7.1 1.8-17.5 4.9-23 7-5.5 2-15.9 6.5-23 10-7.1 3.5-19.1 10.4-26.5 15.3-7.4 5-18.7 13.5-25 18.9-6.3 5.5-15.4 14.4-20.3 19.9-4.8 5.4-11.3 13.4-14.5 17.6-3.1 4.2-6.5 9-7.4 10.7l-1.8 3.1 14.5-0.1c12.4-16.3 21.4-26.3 28-32.8 6.6-6.5 16.5-15.1 22-19.2 5.5-4.1 14.1-9.9 19-12.9 4.9-3 13.9-7.7 20-10.6 6.1-2.9 16.2-7 22.5-9.2 6.3-2.2 16.4-5.1 22.5-6.5 6.1-1.5 16.3-3.3 22.8-4.2 6.5-0.8 19.2-1.5 28.7-1.5 9.5 0 22.2 0.7 28.8 1.5 6.4 0.9 16.7 2.7 22.7 4.2 6 1.4 16.2 4.3 22.5 6.5 6.3 2.2 16.9 6.5 23.5 9.7 6.6 3.1 16.5 8.5 22 12 5.5 3.5 14.7 10 20.4 14.4 5.7 4.5 15.6 13.6 22 20.3 6.4 6.6 14.3 15.7 17.6 20.2l6 8.2c12.7 0 14.3-0.3 13.8-1.2-0.3-0.7-2-3.3-3.6-5.8-1.7-2.5-6.2-8.6-10.2-13.5-3.9-4.9-11.2-13.1-16.1-18.1-4.9-4.9-13.2-12.6-18.4-16.9-5.2-4.3-14.9-11.4-21.5-15.8-6.6-4.3-17.9-10.7-25-14.2-7.1-3.5-17.5-8-23-10-5.5-2.1-16.1-5.2-23.5-7.1-7.4-1.8-18.2-4-24-4.9-5.8-0.9-18.8-1.8-29-2-10.2-0.1-20.3-0.1-22.5 0.1-2.2 0.2-9.4 1.1-16 2zm-154.7 268.9c-0.4 0.5-0.8 45.9-0.8 100.8 0 98.4 0 99.7 2 101.7 1.8 1.8 3.3 2 16.5 2h14.5c4-5.5 4.1-6.5 4-104.2v-98.8c-4.9-4.9-5.4-5-18.3-5-8.5 0.1-13.9 0.5-15.2 1.3-1.1 0.6-2.3 1.6-2.7 2.2zm340.3 1.4c-0.2 196.7-0.1 197.6 1.9 200.4l2 2.7c27.7 0 29.2-0.2 31-2 2-2 2-3.3 2-101.7 0-54.9-0.4-100.3-0.8-100.9-0.4-0.6-1.7-1.6-3-2.3-1.3-0.6-7.4-1.1-15.2-1.1-12.6 0-13.2 0.1-15.5 2.5zm-366.5 41.6l0.4 115.4c9.2 9.7 12.1 12.3 12.4 12 0.3-0.2 0.5-31.9 0.3-70.2l-0.2-69.8zm415.4 57.2c0.1 38.6 0.4 70.2 0.8 70.3 0.4 0 3.3-2.7 6.5-6l5.8-6.1v-115.5l-13.1-13z"/>
	</g>
</svg>