<svg version="1.2" xmlns="http://www.w3.org/2000/svg" viewBox="0 0 518 531" width="518" height="531"><style>.a{fill:#5dab54}</style><path fill-rule="evenodd" class="a" d="m263 14.5c11.2 0.3 23.6 1.2 31.5 2.4 7.1 1.1 18.6 3.4 25.5 5.1 6.9 1.7 17.9 5.2 24.5 7.6 6.6 2.4 17.2 7 23.5 10.2 6.3 3.1 15.3 8 19.8 10.7 4.6 2.8 12.9 8.4 18.5 12.6 5.6 4.2 14.5 11.4 19.7 16 5.2 4.7 13.5 13.1 18.5 18.8 5 5.7 12 14.4 15.7 19.5 3.7 5 9.5 13.8 13 19.6 3.4 5.8 8.7 15.9 11.6 22.5 3 6.6 7 16.3 8.9 21.5 1.9 5.2 4.9 15.6 6.8 23 1.8 7.4 4.1 19.4 5.1 26.5 1.7 11.7 1.9 20 1.9 151l-2.5 5c-1.4 2.8-4.1 6.6-6.1 8.5-1.9 1.9-5.1 4.3-7 5.2-1.9 0.9-4.6 2.1-8.9 3.8l-0.1 58.5-23.9 24v6.5c0 4-0.7 8-1.8 10.5-1 2.2-3.2 5-4.8 6.3-1.6 1.3-4.5 2.8-6.4 3.3-2 0.6-10.4 0.9-35.8 0.4l-3.9-3.1c-2.1-1.7-4.7-4.6-5.8-6.5-2-3.3-2-5.4-2.2-103.9-0.2-71.3 0-101.7 0.8-104.5 0.6-2.2 2.8-5.6 4.8-7.6 2.2-2.2 5.4-4.1 8.1-4.9 2.9-0.8 9.6-1.1 19-0.8 12.8 0.3 15 0.6 18.5 2.6 2.2 1.3 5.1 3.9 6.5 5.9 2.1 3 2.6 5.1 3.1 19.8l23.9 24v28.3c0 15.5 0.3 28.2 0.7 28.2 0.5 0 2.4-1 4.3-2.3 1.9-1.3 4.5-4.3 8-11.2l-0.3-68.5c-0.3-58.8-0.6-70-2.1-79-0.9-5.8-3.2-16.6-5-24-1.9-7.4-5.1-18-7.1-23.5-2-5.5-6.4-15.5-15.5-34.5h-13.8c-9.6 0-14.2-0.3-15.3-1.2-0.8-0.7-4.2-5.1-7.5-9.7-3.2-4.7-11.1-13.8-17.4-20.4-6.3-6.6-15.3-15-20-18.7-4.7-3.7-13-9.7-18.5-13.3-5.5-3.6-16.1-9.5-23.5-13-7.4-3.6-18.5-8.1-24.5-10.1-6-2-15-4.5-20-5.7-5-1.1-13.7-2.7-19.5-3.5-5.8-0.7-18.3-1.4-27.8-1.4-9.7 0-22.1 0.7-28.4 1.5-6.2 0.8-15.8 2.6-21.3 3.9-5.5 1.4-14.3 3.9-19.5 5.6-5.2 1.7-16.3 6.4-24.5 10.5-8.3 4-18.8 9.9-23.5 13-4.7 3.2-12.3 8.8-17 12.5-4.7 3.8-13 11.4-18.5 17.1-5.6 5.7-13.3 14.7-17.2 19.9-4 5.2-7.9 10.3-8.8 11.3-1.3 1.5-3.4 1.7-29.5 1.7l-5.9 12.3c-3.2 6.7-7.7 17.1-9.9 23.2-2.2 6.1-5.4 16.6-7.1 23.5-1.7 6.9-3.8 17.2-4.7 23-1.5 9-1.8 20.4-2.5 147.5l2.4 4.5c1.3 2.5 3.9 5.5 5.8 6.8 1.9 1.2 3.7 2.2 4.1 2.2 0.5 0 0.8-12.7 0.8-56.5l23.9-24 0.3-8.1c0.2-6.6 0.7-8.7 2.8-11.7 1.4-2 4.3-4.6 6.5-5.9 3.5-2 5.7-2.3 18.5-2.6 9.4-0.3 16.1 0 19 0.8 2.7 0.8 5.9 2.7 8.1 4.9 2 2 4.2 5.4 4.8 7.6 0.8 2.8 1.1 33.1 1.1 102.5 0 62.1-0.4 99.9-1 102.3-0.6 2-2.2 5.1-3.7 6.9-1.6 1.7-4.6 4-6.8 4.9-3.3 1.5-6.6 1.9-19 1.8-10.6 0-16.2-0.4-19-1.5-2.2-0.8-4.9-2.2-5.9-3.2-1-0.9-2.7-3.5-3.7-5.7-1.2-2.5-1.9-6.4-1.9-17l-23.5-23.5-1-59.2-5-1.8c-2.8-1-7-3.8-9.5-6.2-2.5-2.4-5.7-6.5-9.5-14.3l-0.3-62c-0.2-40.1 0.1-66.6 0.8-75 0.6-7.1 2-17.9 3-24 1.1-6.1 3.5-16.6 5.4-23.5 1.9-6.9 5.1-16.8 7.1-22 2-5.2 6.1-14.4 9-20.5 3-6.1 7.8-14.9 10.7-19.8 2.9-4.8 8.7-13.3 12.9-19 4.2-5.6 11.2-14.3 15.6-19.2 4.3-4.9 12.2-12.8 17.4-17.4 5.2-4.6 14-11.8 19.5-16 5.6-4.2 13.7-9.7 18-12.3 4.4-2.5 12.2-6.9 17.4-9.6 5.2-2.7 14.7-7 21-9.4 6.3-2.5 13.8-5.2 16.5-6.1 2.8-0.9 9.5-2.7 15-4.1 5.5-1.3 14.5-3.2 20-4.1 5.5-0.9 13.8-2 18.5-2.5 4.7-0.5 16.8-0.7 27-0.5zm-38.5 14.1c-6.6 0.9-17.9 3.1-25 4.9-7.1 1.8-17.5 4.9-23 7-5.5 2-15.9 6.5-23 10-7.1 3.5-19.1 10.4-26.5 15.3-7.4 5-18.7 13.5-25 18.9-6.3 5.5-15.4 14.4-20.3 19.9-4.8 5.4-11.3 13.4-14.5 17.6-3.1 4.2-6.5 9-7.4 10.7l-1.8 3.1 14.5-0.1c12.4-16.3 21.4-26.3 28-32.8 6.6-6.5 16.5-15.1 22-19.2 5.5-4.1 14.1-9.9 19-12.9 4.9-3 13.9-7.7 20-10.6 6.1-2.9 16.2-7 22.5-9.2 6.3-2.2 16.4-5.1 22.5-6.5 6.1-1.5 16.3-3.3 22.8-4.2 6.5-0.8 19.2-1.5 28.7-1.5 9.5 0 22.2 0.7 28.8 1.5 6.4 0.9 16.7 2.7 22.7 4.2 6 1.4 16.2 4.3 22.5 6.5 6.3 2.2 16.9 6.5 23.5 9.7 6.6 3.1 16.5 8.5 22 12 5.5 3.5 14.7 10 20.4 14.4 5.7 4.5 15.6 13.6 22 20.3 6.4 6.6 14.3 15.7 17.6 20.2l6 8.2c12.7 0 14.3-0.3 13.8-1.2-0.3-0.7-2-3.3-3.6-5.8-1.7-2.5-6.2-8.6-10.2-13.5-3.9-4.9-11.2-13.1-16.1-18.1-4.9-4.9-13.2-12.6-18.4-16.9-5.2-4.3-14.9-11.4-21.5-15.8-6.6-4.3-17.9-10.7-25-14.2-7.1-3.5-17.5-8-23-10-5.5-2.1-16.1-5.2-23.5-7.1-7.4-1.8-18.2-4-24-4.9-5.8-0.9-18.8-1.8-29-2-10.2-0.1-20.3-0.1-22.5 0.1-2.2 0.2-9.4 1.1-16 2zm-154.7 268.9c-0.4 0.5-0.8 45.9-0.8 100.8 0 98.4 0 99.7 2 101.7 1.8 1.8 3.3 2 16.5 2h14.5c4-5.5 4.1-6.5 4-104.2v-98.8c-4.9-4.9-5.4-5-18.3-5-8.5 0.1-13.9 0.5-15.2 1.3-1.1 0.6-2.3 1.6-2.7 2.2zm340.3 1.4c-0.2 196.7-0.1 197.6 1.9 200.4l2 2.7c27.7 0 29.2-0.2 31-2 2-2 2-3.3 2-101.7 0-54.9-0.4-100.3-0.8-100.9-0.4-0.6-1.7-1.6-3-2.3-1.3-0.6-7.4-1.1-15.2-1.1-12.6 0-13.2 0.1-15.5 2.5zm-366.5 41.6l0.4 115.4c9.2 9.7 12.1 12.3 12.4 12 0.3-0.2 0.5-31.9 0.3-70.2l-0.2-69.8zm415.4 57.2c0.1 38.6 0.4 70.2 0.8 70.3 0.4 0 3.3-2.7 6.5-6l5.8-6.1v-115.5l-13.1-13z"/></svg>