<svg version="1.2" xmlns="http://www.w3.org/2000/svg" viewBox="0 0 525 517" width="525" height="517">
	<title>minimal-microphone-icon-or-design-element-vector-19952682</title>
	<style>
		.s0 { fill: #f2f3f3 } 
		.s1 { fill: #111224 } 
		.s2 { fill: #eeeeee } 
		.s3 { fill: #e8e8e8 } 
		.s4 { fill: #e5e5e5 } 
		.s5 { fill: #ebebeb } 
		.s6 { fill: #f0f1f1 } 
		.s7 { fill: #f4f5f4 } 
		.s8 { fill: #e3e3e3 } 
		.s9 { fill: #e0e0e0 } 
		.s10 { fill: #4b8dc2 } 
	</style>
	<g id="Background">
		<path id="Path 0" fill-rule="evenodd" class="s0" d="m-239-239h1000v1000h-1000zm239 756h525v-517h-525z"/>
		<path id="Path 1" class="s1" d="m-239 801v40h1000v-80h-1000z"/>
		<path id="Path 2" class="s0" d="m-56 204.8c0 2.3-0.4 4.2-1 4.2-0.6 0-1 1.8-1 4 0 2.2 0.4 4 1 4 0.6 0 1.3-3.4 1.7-7.6 0.3-4.1 0.3-7.9-0.1-8.2-0.3-0.4-0.6 1.2-0.6 3.5z"/>
		<path id="Path 3" class="s2" d="m-7.2 498.3c1.2 0.7 2.2 1.5 2.2 1.9 0 0.5-1.5 0.6-3.3 0.5-1.7-0.2-4-0.7-5-1-0.9-0.4-1.7-0.2-1.7 0.3 0 0.5 0.7 1 1.5 1 0.8 0 1.5 0.5 1.5 1 0 0.5-0.7 1-1.5 1-0.8 0-1.5 0.5-1.5 1 0 0.5-0.6 1-1.3 1-0.6 0-2 1.5-3 3.5-1.2 2.4-1.5 4.4-1 6.6 0.7 2.5 1.4 3.1 4.6 3.7 2 0.4 3.7 1 3.7 1.4 0 0.5-0.7 0.8-1.5 0.8-0.8 0-1.5 0.5-1.5 1 0 0.5 1.2 1.1 2.8 1.2 1.5 0.1 3.9 0.1 5.5 0 1.5-0.1 2.9 0.3 3.2 0.8 0.3 0.5 0.1 1-0.5 1-0.6 0-1 0.5-1 1 0 0.5 1.3 1 3 1 1.7 0 3-0.5 3-1 0-0.6 1-0.7 2.3-0.4 1.2 0.3 4.2 1.6 6.7 2.7 2.5 1.1 5.8 2.2 7.5 2.2 1.6 0.1 5.5 0.7 8.5 1.4 3 0.6 7.5 1.1 10 1.1 2.8 0.1 6 0.9 8.4 2.3 2.8 1.6 4 1.8 4.3 0.9 0.1-0.6 1.1-1.2 2-1.2 1 0 2.2 0.4 2.8 1 0.6 0.6 5.1 1 10.3 1 5 0 9.2 0.3 9.2 0.7 0 0.5 3.5 1.2 7.7 1.6 4.3 0.4 8.9 0.8 10.3 0.8 1.4 0 3.3-0.7 4.2-1.6 1.1-0.9 1.9-1.1 2-0.5 0.2 0.6 5 1.5 10.8 2.1 5.8 0.5 11.5 0.7 12.7 0.4 1.3-0.3 3.5 0.2 5 1q2.8 1.4 3.3 0.4c0.3-0.6 1.4-0.8 2.5-0.5 1.1 0.3 8.3 0.8 16 1 7.7 0.3 21 1 29.5 1.5 8.5 0.6 32.8 1.3 54 1.6 22.2 0.4 56.5 0.1 81-0.6 23.4-0.6 44.1-1.3 46-1.5 1.9-0.2 8.7-0.5 15-0.8 6.3-0.3 15.1-0.7 19.5-1 4.4-0.3 12-0.8 17-1.2 5-0.3 10.4-1.2 12-2 1.6-0.8 3.7-1.4 4.5-1.4 1.1 0 1.1 0.3 0.2 1.2-0.7 0.7-1.2 1.6-1.2 2 0 0.5 2.1 0.6 4.7 0.3 2.7-0.2 8.1-0.8 12.1-1.2 3.9-0.4 7.2-1.1 7.2-1.6 0-0.4 4.2-0.7 9.2-0.7 5.1 0 9.8-0.4 10.3-0.9 0.5-0.5 2.6-0.9 4.5-0.9 1.9 0 4.7-0.5 6.2-1.1 1.6-0.6 5.9-1.1 9.8-1.1 4.9 0 8.2-0.6 11.2-2 2.8-1.3 6.3-2 10-2 3.2 0 5.8-0.4 5.8-1 0-0.5 1.5-1.5 3.2-2 1.8-0.6 4.5-1 6-1 1.6 0 3.9-0.6 5.3-1.3 1.4-0.6 2.6-1.9 2.8-2.7 0.2-0.9 2-1.8 4.3-2.2 3.3-0.6 4-1.2 4.6-3.7q0.8-3.1-0.7-6.1c-0.8-1.6-1.2-3.5-0.8-4.1 0.5-0.6 0.1-1.5-0.7-2-0.8-0.4-2.5-0.6-3.8-0.4-1.2 0.3-2.2 0-2.2-0.5 0-0.5 0.7-1 1.5-1 0.8 0 1.5-0.5 1.5-1 0-0.5-0.8-0.7-1.8-0.4-0.9 0.4-3.1 0.9-4.7 1.1-1.7 0.2-3.6-0.2-4.3-0.9-1.1-1.1-1.3 0.4-1.2 7.9v9.3c-18.5 0-23 0.4-23 1 0 0.5 0.7 1 1.5 1 0.8 0 1.5 0.5 1.5 1 0 0.5-0.9 1-2 1-1.1 0-2.2 0.5-2.5 1-0.3 0.5-1.2 1-2 1-0.8 0-1.5-0.5-1.5-1 0-0.5 0.6-1.2 1.2-1.3 0.7-0.2-0.1-0.2-1.7 0.1-1.6 0.3-3.5 1-4.2 1.6-0.7 0.6-1.9 1.7-2.8 2.3-0.8 0.7-2 1.3-2.5 1.3-0.5 0-1.9-0.6-3-1.3-1-0.6-2.3-0.8-2.7-0.4-0.4 0.4-0.1 1.3 0.7 1.8 1.2 0.9 1.1 1-0.5 0.5-1.1-0.4-2.9 0-4 0.7-1.1 0.7-4 1.4-6.5 1.5-2.5 0.1-6.1 0.7-8 1.3-1.9 0.7-6 1.4-9 1.5-3 0.2-7.1 0.4-9 0.4-1.9 0.1-9.4 0.6-16.5 1.1-7.1 0.5-19.3 1.6-27 2.4-7.7 0.8-18.8 1.7-24.8 2-5.9 0.3-11.3 0.8-11.9 1.2-0.7 0.4-16.2 0.9-34.3 1.2-18.1 0.3-51.2 0.6-73.5 0.6-22.3 0-53.6-0.3-69.5-0.7-15.9-0.4-30.1-1.1-31.5-1.7-1.4-0.5-2.7-0.8-3-0.6-0.3 0.3-6.6 0.1-14-0.5-7.4-0.5-20.9-1.7-30-2.7-9.1-0.9-20.6-1.9-25.5-2.1-4.9-0.2-11.7-0.4-15-0.6-3.3-0.2-7.6-0.8-9.5-1.5-1.9-0.6-5.5-1.2-8-1.3-2.5-0.1-5.9-1-7.5-2-1.6-1-4.5-1.8-6.3-1.8-1.7 0-4.3-0.6-5.7-1.3-1.4-0.6-2.5-1.5-2.5-2 0-0.4-1.1-0.6-2.4-0.5-1.3 0.2-2.2 0-2-0.5 0.2-0.4-1.4-0.4-3.6 0-3 0.6-4 0.5-4-0.5 0-0.6 0.7-1.2 1.5-1.2 0.8 0 1.5-0.5 1.5-1 0-0.5-0.8-0.9-1.8-0.9-0.9 0.1-5.4 0.1-10 0l-8.2-0.1v-19.6c-9-0.2-9.2-0.1-7.2 0.9z"/>
		<path id="Path 4" class="s3" d="m48.4 518.5c1.2 1.1 2.1 1.2 3.6 0.5 1.1-0.5 2-1.2 2-1.5 0-0.3-1.6-0.5-3.6-0.5-3.3 0-3.5 0.1-2 1.5zm8.6-0.5c0 0.5 0.4 1 1 1 0.6 0 1 0.5 1 1 0 0.5-1.2 0.8-2.7 0.5-2.3-0.4-2.5-0.4-0.8 0.4 1.1 0.5 3.6 1 5.5 1 1.9 0.1 4.5 0.8 5.8 1.6 1.2 0.8 2.4 1.4 2.7 1.3 0.3-0.2-0.3-1.1-1.3-2-0.9-0.9-2.7-2.6-3.9-3.8-1.3-1.1-3.4-2-4.8-2-1.4 0-2.5 0.5-2.5 1zm12.5 0.5c1.1 0.9 2.3 1.5 2.8 1.5 0.4 0 0.5 0.5 0.2 1-0.3 0.6 0.4 0.8 1.5 0.5 1.1-0.3 2.7 0.2 3.5 1 0.9 0.9 2.4 1.3 3.8 0.9 1.2-0.3 3.3-0.3 4.7 0.1 2 0.5 2.2 0.8 1 1.4-1.3 0.7-1.2 0.9 0.3 1.5q1.7 0.6 1.7-0.9c0-1.2 0.6-1.3 3.3-0.5 1.7 0.6 5.3 1 8 1 2.6 0 4.9 0.5 5.1 1 0.2 0.6 3.7 1.3 7.7 1.6 4.1 0.2 9.4 0.6 11.9 0.8 2.5 0.1 5.2 0.7 6 1.2 0.8 0.5 4.6 1.2 8.5 1.6 3.9 0.4 17.1 1.1 29.5 1.7 12.4 0.5 23.2 1.2 24 1.5 0.8 0.3 12.7 0.7 26.3 0.8 13.7 0.2 25.1 0 25.3-0.5 0.2-0.4 8.2-0.7 17.7-0.7 11.3 0 16.7 0.4 15.7 1-1 0.6 5.6 0.8 18.5 0.5 11-0.3 23.1-0.8 27-1.1 3.9-0.2 17.1-0.9 29.5-1.5 12.4-0.5 25.7-1.3 29.6-1.7 4-0.4 7.8-1.4 8.8-2.2 1.2-1.1 1.7-1.1 1.6-0.3 0 0.8 1.4 1.3 4 1.3 2.2 0 4.1-0.5 4.3-1.1 0.1-0.5 3.7-1.3 8-1.7 4.2-0.4 7.7-1 7.7-1.5 0-0.4 3.7-0.7 8.3-0.6 4.5 0.1 8.9 0 9.7 0 1.3-0.1 1.3-0.2 0-1-1.3-0.8-1.2-1 0.5-1.5 1.1-0.3 5.3-1 9.3-1.6 6-0.8 7.4-0.8 8.7 0.5 0.8 0.8 2 1.5 2.5 1.5 0.5 0 1-0.5 1-1 0-0.5 1.7-1 3.8-1.1 2 0 4.6-0.4 5.7-0.8 1.7-0.6 1.8-0.9 0.5-1.6-1-0.6-1.6-0.4-1.8 0.3-0.1 0.7-1.2 1.2-2.5 1.2l-2.2 0.1 4-4.2c-3.9 0.1-5.8 1.1-6.8 2.1-0.9 1.1-2.2 1.8-2.7 1.5-0.5-0.3-1-1.2-1-2 0-1.3-3-1.5-21.3-1.5-11.6 0-22.9 0.5-24.9 1-2.1 0.6-3.8 1.5-3.8 2 0 0.5-1.2 0.8-2.8 0.5l-2.7-0.4c5.8 2.7 5.7 2.7 0.2 2.1-4.7-0.6-5.7-0.4-5.7 0.8 0 1.3-1 1.4-6 0.8-4.8-0.6-6.3-0.5-7.4 0.7-0.8 0.8-2.8 1.5-4.5 1.5-1.7 0-3.1-0.5-3.1-1 0-0.5-0.6-1-1.3-1-0.6-0.1-1.9 0.6-2.7 1.5-1 1-2.2 1.3-3.5 0.9-1.1-0.4-2.5-0.7-3-0.6-0.5 0-5 0.5-10 1.2-5 0.6-20.5 1.4-34.5 1.7-14 0.4-43.5 0.6-65.5 0.5-22-0.1-42.4-0.5-45.2-0.9-2.9-0.5-5.3-0.5-5.3 0 0 0.4-1 0.9-2.3 1.1-1.3 0.3-7.5-0.2-13.8-1-6.2-0.7-15.3-1.6-20.1-1.9-4.9-0.3-9.6-0.9-10.5-1.4-1.2-0.6-3.3-0.5-5.9 0.2-3.6 1-4.3 1-5.8-0.6-1.1-1.2-3.3-1.7-7.8-1.9-3.5 0-7 0-7.8 0-0.8 0.1-2.6-0.1-4-0.4-2-0.4-2.2-0.7-1-1.5q1.5-0.9-1.7-0.1c-2.2 0.5-3.6 0.3-4.9-0.8-0.9-0.8-2.8-1.4-4-1.3-1.3 0.2-2.4-0.2-2.4-0.7 0-0.6-7.6-1-20.7-1-18.6 0.1-20.6 0.2-18.8 1.5z"/>
		<path id="Path 5" class="s4" d="m109 518c0 0.5 1.1 0.9 2.4 0.8 1.2-0.2 3.1 0.4 4 1.2 1.3 1.1 2.7 1.3 4.9 0.8q3.2-0.8 1.7 0.1c-1.2 0.8-1 1.1 1 1.5 1.4 0.3 3.2 0.5 4 0.4 0.8 0 4.3 0 7.8 0 4.5 0.2 6.7 0.7 7.8 1.9 1.5 1.6 2.2 1.6 5.8 0.6 2.6-0.7 4.7-0.8 5.9-0.2 0.9 0.5 5.6 1.1 10.4 1.4 4.9 0.3 13.9 1.2 20.2 1.9 6.3 0.8 12.5 1.3 13.8 1 1.2-0.2 2.3-0.7 2.3-1.1 0-0.5 2.2-0.5 4.8-0.2 2.6 0.4 19.3 0.9 37.2 1.3 17.9 0.4 35.4 0.8 39 1 4.9 0.3 5.5 0.2 2.5-0.4-2.8-0.5-0.4-0.7 8-0.8 6.6-0.1 17.6-0.4 24.5-0.7 7.6-0.3 11.5-0.1 10 0.4-1.6 0.5 0.3 0.7 5.5 0.4 4.4-0.3 9.4-0.9 11-1.4 1.6-0.5 4.8-0.9 7-0.9 2.2 0 5.6-0.4 7.5-0.9 1.9-0.4 4.6-0.4 6 0.1 1.8 0.6 2.9 0.4 4-0.7 0.8-0.8 2.1-1.5 2.7-1.5 0.7 0 1.3 0.5 1.3 1 0 0.5 1.4 1 3.1 1 1.7 0 3.7-0.7 4.5-1.5 1.1-1.2 2.6-1.3 7.4-0.7 5 0.6 6 0.5 6-0.8 0-1.2 1-1.4 5.7-0.8 5.5 0.6 5.6 0.6 2.8-0.7l-3-1.4c4.3 0.7 5.5 0.4 5.5-0.1 0-0.5 1.5-1.4 3.2-1.9 2.3-0.6-3.1-0.9-17.5-1-17.8-0.1-20.7 0.1-20.7 1.4 0 0.8 0.5 1.5 1 1.5 0.5 0 0.8 0.5 0.5 1-0.3 0.5-1.1 0.7-1.8 0.4-0.6-0.4-6.6-0.7-13.2-0.7-6.6 0-12.5 0.3-13 0.6-0.5 0.3-9.1 1.1-19 1.8-9.9 0.7-22 1.3-27 1.5-5 0.1-24.1 0.2-42.5 0.3-18.4 0.1-37.1-0.3-41.5-0.8-4.4-0.6-13.6-1.3-20.5-1.6-8.9-0.4-14.5-1.2-19.3-2.8-4.9-1.6-7-1.9-7.5-1.1-0.4 0.7-1.6 1.3-2.7 1.5-1.1 0.1-3.7-0.1-5.8-0.4-2-0.4-3.7-1.2-3.7-1.7 0-0.6-8-1-22-1-14 0-22 0.4-22 1z"/>
		<path id="Path 6" fill-rule="evenodd" class="s5" d="m33.5 517c10.7 0 13.8 0.3 15 1.5 1.3 1.3 1.8 1.3 4.4-0.3 2.8-1.6 3-1.6 4.5 0 0.9 1 1.6 2 1.6 2.3 0 0.3-1.2 0.3-2.8 0-2.2-0.4-2.4-0.4-0.7 0.4 1.1 0.5 3.6 1 5.5 1 1.9 0 4.4 0.7 5.5 1.6 1.1 0.8 2.3 1.5 2.7 1.5 0.5 0 0.2-0.9-0.5-2-0.6-1.1-2.2-2.4-3.5-3-1.2-0.5-2.2-1.5-2.2-2 0-0.5 0.9-1 2-1 1.1 0 3.4 0.8 5 1.8 1.7 0.9 2.7 2 2.3 2.5-0.5 0.4 0.2 0.5 1.4 0.2 1.3-0.3 2.9 0.1 3.8 1 0.9 0.9 2.4 1.3 3.8 0.9 1.2-0.3 3.3-0.3 4.7 0.1 2 0.5 2.2 0.8 1 1.4-1.3 0.7-1.2 0.9 0.2 1.5q1.8 0.6 1.8-0.9c0-1.2 0.6-1.3 3.2-0.5 1.8 0.6 5.4 1 8 1 2.7 0 4.9 0.5 5 1 0.2 0.6 3.7 1.3 7.8 1.6 4.1 0.2 9.5 0.6 12 0.8 2.5 0.1 5.2 0.7 6 1.2 0.8 0.5 4.6 1.2 8.5 1.6 3.9 0.4 17.1 1.1 29.5 1.6 12.4 0.5 23.1 1.2 23.8 1.5 0.6 0.4 9 0.7 18.4 0.7 9.5 0 20-0.2 23.3-0.4 4.7-0.3 5.2-0.2 2 0.4-3.9 0.7-3.8 0.7 1.7 0.8 3.2 0.1 6-0.3 6.3-0.8 0.3-0.6 7.2-1 17.8-1q17.2 0 15.7 1c-1 0.7 0.5 0.9 5 0.8 6-0.1 6.2-0.1 2-0.7-2.5-0.3 5.9-0.6 18.5-0.6 12.6 0 34-0.6 47.5-1.3 13.5-0.7 27.7-1.6 31.6-2 4-0.4 7.8-1.4 8.8-2.2 1.2-1.1 1.7-1.1 1.6-0.3 0 0.8 1.4 1.3 4 1.3 2.2 0 4.1-0.5 4.2-1.1 0.2-0.5 3.8-1.3 8.1-1.7 4.2-0.4 7.7-1 7.7-1.4 0-0.5 3.7-0.7 8.3-0.7 4.5 0.1 8.9 0 9.7 0 1.3-0.1 1.3-0.2 0-1-1.3-0.8-1.2-1 0.5-1.5 1.1-0.3 5.3-1 9.2-1.6 6.1-0.8 7.5-0.8 8.8 0.5 0.8 0.8 2 1.5 2.5 1.5 0.5 0 1-0.5 1-1 0-0.5 1.7-1 3.7-1.1 2.1 0 4.7-0.4 5.8-0.8 1.7-0.6 1.8-0.9 0.5-1.6-1-0.6-1.6-0.4-1.8 0.3-0.1 0.7-1.2 1.2-2.5 1.2-2.1 0.1-2.1 0-0.5-1.7 1.5-1.5 2.5-1.6 6-0.9 3.1 0.7 4.4 0.6 4.5-0.2 0.2-0.9 4.6-1.2 14.8-1.2 9 0 14.5 0.4 14.5 1 0 0.5 0.7 1 1.5 1 0.8 0 1.5 0.5 1.5 1 0 0.5-0.9 1-2 1-1.1 0-2.2 0.5-2.5 1-0.3 0.5-1.2 1-2 1-0.8 0-1.5-0.5-1.5-1 0-0.5 0.6-1.2 1.2-1.3 0.7-0.2-0.1-0.2-1.7 0.1-1.6 0.3-3.6 1-4.3 1.6-0.7 0.6-1.9 1.7-2.7 2.4-0.7 0.6-1.8 1.2-2.4 1.2-0.6 0-2-0.6-3.1-1.2-1-0.7-2.3-0.9-2.7-0.5-0.4 0.4-0.1 1.3 0.7 1.8 1.2 0.9 1.1 1-0.5 0.5-1.1-0.4-2.9 0-4 0.7-1.1 0.7-4 1.4-6.5 1.5-2.5 0.1-6.1 0.7-8 1.3-1.9 0.7-6 1.4-9 1.5-3 0.2-7.1 0.4-9 0.4-1.9 0.1-9.4 0.6-16.5 1.1-7.1 0.5-19.3 1.6-27 2.4-7.7 0.8-18.8 1.7-24.8 2-5.9 0.3-11.3 0.8-12 1.2-0.6 0.4-16.1 0.9-34.2 1.2-18.1 0.3-51.2 0.6-73.5 0.6-22.3 0-53.6-0.3-69.5-0.7-15.9-0.4-30.1-1.1-31.5-1.7-1.4-0.5-2.7-0.8-3-0.6-0.3 0.3-6.6 0.1-14-0.5-7.4-0.5-20.9-1.7-30-2.7-9.1-0.9-20.6-1.9-25.5-2.1-4.9-0.2-11.7-0.4-15-0.6-3.3-0.2-7.6-0.8-9.5-1.5-1.9-0.6-5.5-1.2-8-1.3-2.5-0.1-5.9-1-7.5-2-1.6-1-4.5-1.8-6.2-1.8-1.8 0-4.4-0.6-5.8-1.2-1.4-0.7-2.5-1.6-2.5-2 0-0.5-1.1-0.7-2.4-0.5-1.3 0.1-2.2-0.1-2-0.5 0.2-0.5-1.4-0.5-3.6 0-3 0.5-4 0.4-4-0.5 0-0.7 0.7-1.3 1.5-1.3 0.8 0 1.5-0.5 1.5-1 0-0.6 5.2-1 13.5-1zm423 0c1.4 0 2.5 0.2 2.5 0.5 0 0.3-0.7 1.2-1.5 2-0.8 0.8-2 1.3-2.5 1-0.5-0.3-1-1.2-1-2 0-0.9 0.9-1.5 2.5-1.5z"/>
		<path id="Path 7" class="s6" d="m250.5-142.3c5.5 0.2 14.7 0.2 20.5 0 5.8-0.1 1.3-0.3-10-0.3-11.3 0-16 0.2-10.5 0.3zm-5.3 3c-2.3 0.2-4.2 0.6-4.2 1.1 0 0.4 4.4 1 9.7 1.3 5.4 0.3 14.4 0.3 20.1 0 5.6-0.3 10.2-0.8 10.2-1.1 0-0.3-2.8-0.8-6.2-1.3-3.5-0.4-10.6-0.6-15.8-0.5-5.2 0.1-11.4 0.3-13.8 0.5zm-44.2 2.8c0 1.1-1.1 1.5-4 1.5-2.2 0-4 0.5-4 1 0 0.6 1.8 1 4 1 2.5 0 4-0.5 4-1.2 0-1 1.4-1.1 6-0.5 3.3 0.4 8.7 0.4 12 0 3.8-0.5 6-1.3 6-2 0-0.8-1.5-1.3-4-1.3-2.9 0-4 0.4-4 1.5 0 1.1-1.1 1.5-4 1.5-2.9 0-4-0.4-4-1.5 0-1.1-1.1-1.5-4-1.5-2.9 0-4 0.4-4 1.5zm96-0.2c0 0.7 2.2 1.5 6 2 3.3 0.4 8.7 0.4 12 0 4.6-0.6 6-0.5 6 0.5 0 0.7 1.5 1.2 4 1.2 2.2 0 4-0.4 4-1 0-0.5-1.8-1-4-1-2.9 0-4-0.4-4-1.5 0-1.1-1.1-1.5-4-1.5-2.9 0-4 0.4-4 1.5 0 1.1-1.1 1.5-4 1.5-2.9 0-4-0.4-4-1.5 0-1.1-1.1-1.5-4-1.5-2.5 0-4 0.5-4 1.3zm-115.8 5.4c-2.9 0.2-4.2 0.8-4.2 1.8 0 1.2 0.8 1.4 3.4 0.9 1.8-0.3 3.7-1 4.2-1.4 0.5-0.5 2.7-1 4.9-1.3l4-0.4c-6.2 0-9.9 0.2-12.2 0.4zm151.7 0c1.9 0.3 3.7 0.8 4 1.3 0.3 0.4 2.2 1.1 4.3 1.4 2.9 0.5 3.7 0.3 3.7-0.9 0-0.8-0.8-1.5-1.7-1.5-1 0-4.5-0.2-7.8-0.4-3.3-0.2-4.4-0.1-2.5 0.1zm-186 5.3c1.4 0.4 5.1 0.8 8.3 0.9 3.2 0.1 5.7-0.3 5.7-0.9 0-0.6-3.4-1-8.2-0.9-5.7 0.1-7.5 0.4-5.8 0.9zm214 0c0 0.6 2.4 1 5.3 0.9 2.8 0 6.1-0.4 7.2-0.9 1.4-0.6-0.3-0.9-5.2-0.9-4.3-0.1-7.3 0.3-7.3 0.9zm-216 4.5c0 1.1 0.7 1.3 2.8 0.9 1.5-0.4 3.4-1 4.2-1.5q1.5-0.8-2.7-0.9c-3.2 0-4.3 0.4-4.3 1.5zm224-0.7c0 0.4 1.4 1 3.2 1.5 1.8 0.4 3.6 0.7 4.1 0.7 0.4 0 0.7-0.7 0.7-1.5 0-1.1-1.1-1.5-4-1.5-2.2 0-4 0.3-4 0.8zm-248 4.2c0 0.6 0.8 1.2 1.8 1.5 0.9 0.2 2.5 1 3.5 1.7 1.3 0.9 2 1 2.5 0.2 0.4-0.6 1.7-1.4 3-1.8 1.2-0.3 2.2-1 2.2-1.6 0-0.5-1.1-1-2.5-1-1.4 0-2.7 0.6-2.9 1.3-0.3 0.9-0.6 0.9-1.7-0.1-0.8-0.7-2.4-1.2-3.6-1.2-1.3 0-2.3 0.5-2.3 1zm267 0c0 0.6 0.7 1.2 1.5 1.5 0.8 0.3 3.8 0.5 6.5 0.5 3.8 0 5-0.4 5-1.5 0-1.2-1.4-1.5-6.5-1.5-3.7 0-6.5 0.4-6.5 1zm-275 5.3c0 0.6 1.5 1.5 3.5 2 1.9 0.4 4.2 0.5 5 0.2 1.3-0.4 1.3-0.7 0-2-0.8-0.8-3.1-1.5-5-1.5-2.1 0-3.5 0.5-3.5 1.3zm294.8 3.7c1.2 1.1 3.4 2 4.9 1.9 2.8-0.1 2.8-0.1-0.5-1.3-1.8-0.6-3.2-1.4-3.2-1.8 0-0.5-0.8-0.8-1.8-0.8-1.4 0-1.4 0.3 0.5 2zm-318.7 7.5c0 0.8 0.4 1.5 1 1.5 0.5 0 1.7-0.2 2.5-0.5 0.8-0.3 1.5-0.9 1.5-1.5 0-0.6-1.1-1-2.5-1-1.6 0-2.5 0.6-2.5 1.5zm339-0.5c0 0.6 0.7 1.2 1.5 1.5 0.8 0.3 2 0.5 2.5 0.5 0.5 0 1-0.7 1-1.5 0-0.9-0.9-1.5-2.5-1.5-1.4 0-2.5 0.5-2.5 1zm-355 8.5c0 0.8 0.4 1.5 1 1.5 0.5 0 1.7-0.2 2.5-0.5 0.8-0.3 1.5-0.9 1.5-1.5 0-0.6-1.1-1-2.5-1-1.6 0-2.5 0.6-2.5 1.5zm371-0.5c0 0.6 0.7 1.2 1.5 1.5 0.8 0.3 2 0.5 2.5 0.5 0.5 0 1-0.7 1-1.5 0-0.9-0.9-1.5-2.5-1.5-1.4 0-2.5 0.5-2.5 1zm-403 18.8c0 3.5-0.1 3.7-4 4.5-3.1 0.5-4 1.2-4 2.7 0 1.1 0.3 2 0.7 2 0.5 0.1 1.5-0.6 2.3-1.5 0.8-0.9 2.1-1.6 2.7-1.5 0.7 0 2.2-0.8 3.3-1.7 1.1-1 2-2.6 2-3.5 0-1.3 1.1-2 3.6-2.5 2-0.5 3.8-1.1 4-1.5 0.2-0.5-2.1-0.8-5.1-0.8h-5.5zm437.2 1c1.6 1 2.8 2.5 2.8 3.5 0 1 0.7 1.7 1.7 1.7 1 0 2.5 0.7 3.3 1.6 0.8 0.8 1.8 1.5 2.2 1.5 0.4 0 0.8-0.9 0.8-2 0-1.1-0.8-2.2-1.8-2.4-1.6-0.4-1.6-0.4 0-0.5 1-0.1 1.8-0.8 1.8-1.6 0-1.1-1.1-1.5-4-1.5-2.2 0-4-0.5-4-1 0-0.6-1.3-1-2.8-1h-2.7zm16 12c0.3 0.4 2.1 1.1 4.1 1.5 2.7 0.5 3.7 1.3 3.9 2.9 0.1 1.2 0.8 2.3 1.5 2.5 0.8 0.2 1.2-1 1.2-3.7v-4c-8.7 0-11 0.4-10.7 0.8zm-488.3 11.2c0 2.9 0.4 4 1.5 4 1.1 0 1.5-1.1 1.5-4 0-2.9-0.4-4-1.5-4-1.1 0-1.5 1.1-1.5 4zm507 2.5c0 1.1 1.1 1.5 4 1.5 2.9 0 4-0.4 4-1.5 0-1.1-1.1-1.5-4-1.5-2.9 0-4 0.4-4 1.5zm56 53.5c0 2.9 0.4 4 1.5 4 1.1 0 1.5-1.1 1.5-4 0-2.9-0.4-4-1.5-4-1.1 0-1.5 1.1-1.5 4zm-624 2.5c0 1.1 1.1 1.5 4 1.5 2.9 0 4-0.4 4-1.5 0-1.1-1.1-1.5-4-1.5-2.9 0-4 0.4-4 1.5zm632 11.5q0 2 1.5 1.5c0.8-0.2 2-0.5 2.5-0.5 0.6 0 1-0.6 1-1.5 0-0.9-0.9-1.5-2.5-1.5-1.8 0-2.5 0.6-2.5 2zm-651 18c0 3.6-0.2 4-2.5 4-2.4 0-2.5 0.3-2.4 5.8 0 5.5 0.1 5.6 1.4 3.2 0.8-1.3 1.5-3.3 1.5-4.2 0-1 0.6-1.8 1.3-1.7 0.7 0 2.2-0.8 3.4-1.8 1.2-1 2.2-2.4 2.2-3.3 0-0.8 0.8-2.1 1.6-3 0.9-0.8 1.6-1.8 1.6-2.2-0.1-0.4-1-0.8-2.1-0.8-1.1 0-2.2 0.6-2.4 1.3-0.3 1-0.4 1-0.5 0 0-0.7-0.8-1.3-1.6-1.3-1.1 0-1.5 1.1-1.5 4zm666.7-0.2c-0.5 3-0.1 4.3 1.9 6.5 1.3 1.5 2.4 3.2 2.4 3.7 0 0.6 0.9 1.9 2 3 1.8 1.8 2 1.9 2 0.3 0-1-0.4-3.5-1-5.5-0.6-2.2-1.6-3.8-2.5-3.8-1.1 0-1.5-1.1-1.5-4 0-2.7-0.4-4-1.4-4-0.8 0-1.6 1.5-1.9 3.8zm-687.6 39.5c0 3.1 0.1 3.1 1.5 1.2 0.8-1.1 1.5-2.5 1.4-3.2 0-0.7-0.7-1.3-1.5-1.3-1 0-1.5 1-1.4 3.3zm708.9-2c0 0.7 0.7 2.1 1.5 3.2 1.4 1.9 1.5 1.9 1.5-1.2 0-2.3-0.4-3.3-1.5-3.3-0.8 0-1.5 0.6-1.5 1.3zm8 14.5c0 1.5 0.7 3.6 1.5 4.7 1.4 1.9 1.5 1.7 1.5-2.7 0-3.6-0.3-4.8-1.5-4.8-0.9 0-1.5 1-1.5 2.8zm-724.8 2c0.2 0.9 1 1.9 1.8 2 0.9 0.2 1.9-0.6 2.3-1.7 0.6-1.8 0.3-2.1-1.9-2.1-1.9 0-2.5 0.5-2.2 1.8zm732.3 19.7c-0.3 0.9 0.4 2.4 1.5 3.5 1.1 1.1 2 3.2 2 4.5 0 1.4 0.5 2.5 1 2.5 0.6 0 1 1.8 1 4 0 2.6 0.5 4 1.3 4 0.9 0 1-1.5 0.5-6.2-0.4-3.5-0.8-7.1-0.8-8 0-1-0.7-1.8-1.5-1.8-0.8 0-1.7-0.9-2-2-0.3-1.1-0.9-2-1.5-2-0.6 0-1.2 0.7-1.5 1.5zm-738.8 1.5c-0.4 0.5-1.6 1-2.7 1-1.6 0-2 0.7-2 4 0 2.6 0.5 4 1.3 4 0.7 0 1.9-2.1 2.8-4.6 0.8-2.6 1.4-4.9 1.4-5.1-0.1-0.2-0.4 0.1-0.8 0.7zm-9.7 11c0 1.1 0.5 2 1 2 0.6 0 1 0.9 1 2 0 1.1-0.5 2.1-1.1 2.3-0.6 0.1-0.9 1.6-0.6 3.2l0.4 3c2.2-5 3.4-6.5 4.1-6.5q1.2 0 0.5-2.2c-0.3-1.3-1.5-3.1-2.5-4-1-1-2-1.8-2.3-1.8-0.3 0-0.5 0.9-0.5 2zm759.2 1.8c-0.1 2.4-0.7 4.4-1.4 4.6-1 0.2-0.9 0.9 0.2 3.2l1.5 2.9c0.5-5.4 0.5-8.8 0.3-11l-0.4-4zm0.3 15c0.3 1.5 1.3 5.3 2.1 8.3 0.9 3 1.8 5.3 2 5 0.3-0.3 0.3-4 0-8.3-0.4-7-0.6-7.7-2.6-7.7-1.7 0-2 0.4-1.5 2.7zm-763.5 9.3c0 2.2 0.3 4 0.7 4 0.5 0 1.1-1.5 1.6-3.3 0.4-1.8 0.7-3.6 0.7-4 0-0.4-0.7-0.7-1.5-0.7-1.1 0-1.5 1.1-1.5 4zm-4 0.7c0 1.8 0.4 3.3 1 3.3 0.5 0 1.1 1.9 1.2 4.2 0.1 3.4 0.2 3.7 0.5 1.3 0.3-1.7-0.2-5-1.1-7.5-1.5-4.4-1.5-4.4-1.6-1.3zm-3 17c0 3.2-0.3 8.6-0.8 12-0.4 4-0.3 6.3 0.3 6.3 0.5 0 1.6-2.2 2.2-5 0.7-2.8 1.3-8.2 1.3-12 0-5.6-0.3-7-1.5-7-1.2 0-1.5 1.3-1.5 5.7zm779-1.7c0 2.9 0.4 4 1.5 4 1.1 0 1.5-1.1 1.5-4 0-2.9-0.4-4-1.5-4-1.1 0-1.5 1.1-1.5 4zm2 16c0 2.2 0.4 4 1 4 0.5 0 1-1.8 1-4 0-2.2-0.5-4-1-4-0.6 0-1 1.8-1 4zm4 0c0 2.2 0.4 4 1 4 0.5 0 1-1.8 1-4 0-2.2-0.5-4-1-4-0.6 0-1 1.8-1 4zm-790 16c0 2.9-0.4 4-1.5 4-1.1 0-1.5 1.1-1.5 4 0 2.9 0.4 4 1.5 4 1.1 0 1.5 1.1 1.5 4 0 2.9-0.4 4-1.5 4-1.1 0-1.5 1.1-1.5 4 0 2.5 0.5 4 1.2 4 0.8 0 1.6-2.3 2-6 0.5-3.3 0.5-8.7 0-12-0.5-4.6-0.4-6 0.5-6 0.8 0 1.3-1.5 1.3-4 0-2.2-0.5-4-1-4-0.6 0-1 1.8-1 4zm790.4 4c0.3 4.4 0.8 11.6 1.1 16 0.4 6.2 0.8 8 2 8 1.1 0 1.5-1.1 1.5-4 0-2.9-0.4-4-1.5-4-1.3 0-1.5-2-1.5-12 0-8.2-0.4-12-1.1-12-0.8 0-0.9 2.4-0.5 8zm3.6 56c0 15.3 0.4 24 1 24 0.6 0 1-8.7 1-24 0-15.4-0.4-24-1-24-0.6 0-1 8.6-1 24zm5.4 0c0 13.5 0.2 18.9 0.3 12 0.2-6.9 0.2-17.9 0-24.5-0.1-6.6-0.3-1-0.3 12.5zm-807 4c0 11.3 0.2 15.8 0.3 10 0.2-5.8 0.2-15 0-20.5-0.1-5.5-0.3-0.8-0.3 10.5zm3.6 0c0 12.6 0.4 20 1 20 0.6 0 1-7.4 1-20 0-12.7-0.4-20-1-20-0.6 0-1 7.3-1 20zm1 40c0 2.9 0.4 4 1.5 4 1.1 0 1.5 1.1 1.5 4 0 2.9-0.4 4-1.5 4-1.1 0-1.5 1.1-1.5 4 0 2.9 0.4 4 1.5 4 1.1 0 1.5 1.1 1.5 4 0 2.2 0.4 4 1 4 0.5 0 1-1.8 1-4 0-2.6-0.5-4-1.3-4-0.9 0-1-1.5-0.5-6 0.5-3.3 0.6-8.7 0.3-12-0.4-4.5-0.9-6-2-6-1.1 0-1.5 1.1-1.5 4zm794.6 4c-0.3 4.4-0.8 11.6-1.1 16-0.3 5-0.1 8 0.5 8 0.6 0 1-4.7 1-12 0-10 0.2-12 1.5-12 1.1 0 1.5-1.1 1.5-4 0-2.8-0.4-4-1.4-4-1.1 0-1.6 2.1-2 8zm-787.6 36c0 3.1 0.4 4 1.7 4 1.5 0 1.7-0.5 1-3.3-0.4-1.8-0.7-3.6-0.7-4 0-0.4-0.5-0.7-1-0.7-0.6 0-1 1.8-1 4zm782 0c0 2.2 0.4 4 1 4 0.5 0 1-1.8 1-4 0-2.2-0.5-4-1-4-0.6 0-1 1.8-1 4zm-781 16c0 2.9 0.4 4 1.5 4 1.1 0 1.5-1.1 1.5-4 0-2.9-0.4-4-1.5-4-1.1 0-1.5 1.1-1.5 4zm779 0c0 2.9 0.4 4 1.5 4 1.1 0 1.5-1.1 1.5-4 0-2.9-0.4-4-1.5-4-1.1 0-1.5 1.1-1.5 4zm-773.8 7.7c-0.1 2.4-0.7 4.3-1.2 4.3-0.6 0-1 1.4-1 3.2 0.1 3.2 0.1 3.1 1.6-1.2 0.9-2.5 1.4-5.9 1.1-7.5-0.3-2.4-0.4-2.2-0.5 1.2zm771 0c-0.2 3.1-0.6 4.3-1.7 4.3-1.1 0-1.5 1.1-1.5 4 0 2.2-0.5 4-1 4-0.6 0-1 1.8-1 4 0 2.9 0.4 4 1.5 4q1.5 0 1.5-3c0-1.7 0.5-5.4 1.2-8.3l1.1-5.2 2.1 7c0.5-4.7 0.3-6.2-0.3-6.5-0.5-0.3-1.1-2.3-1.4-4.5l-0.4-4zm-768.8 10.5c0.4 3.4 0.7 7 0.7 8 0 1.2 0.7 1.7 2.5 1.7 2.1 0 2.4-0.3 1.9-2.2-0.4-1.3-1.3-4.9-2-8-0.8-3.2-1.9-5.8-2.6-5.8-0.8 0-1 1.8-0.5 6.3zm3.7 14.5c0 1.8 0.5 3.4 1.2 3.6 1 0.3 1 0.7 0 1.8-0.7 0.7-1.3 2.3-1.3 3.6 0.1 1.2 0.5 2.2 1.1 2.2 0.5 0 1.2-0.8 1.4-1.7 0.3-1 1.1-2.6 1.8-3.7 1-1.4 1-1.9 0-2.2-0.7-0.2-1.2-0.9-1.2-1.6 0-0.7-0.7-2.2-1.5-3.3-1.4-1.9-1.5-1.8-1.5 1.3zm757.9 0.1c-0.8 1.7-1.8 3.1-2.2 3.1-0.4 0-0.7 1.8-0.7 4 0 2.9-0.5 4-1.5 4-0.9 0-1.5 0.9-1.5 2.3 0 1.2-0.7 3.2-1.5 4.5-0.9 1.3-1.4 3.8-1.2 6l0.3 3.7c0.3-8 0.6-8.5 2.9-8.5 2.2 0 2.5-0.4 2.5-4 0-3.1 0.3-4 1.7-4 1.4 0 1.9-1.3 2.6-6.6 0.5-3.6 0.7-6.9 0.5-7.2-0.3-0.3-1.1 0.9-1.9 2.7zm-751.9 10.7c-0.6 0.8-1 3-1 4.9 0 3.1 0.3 3.5 2.5 3.5 2.1 0 2.4-0.3 1.9-2.2-0.3-1.3-1-3.5-1.5-4.9-0.7-2.2-1-2.4-1.9-1.3zm10 29.2c0 2.2 0.4 3.2 1.5 3.2 0.8 0 1.5-0.5 1.5-1.2 0-0.7-0.7-2.2-1.5-3.3-1.4-1.9-1.5-1.8-1.5 1.3zm725.9-0.8c-0.6 1-1.1 2.4-1 3 0 0.5 0.7 1 1.6 1q1.5 0 1.5-3c0-1.6-0.3-3-0.5-3-0.3 0-1 0.9-1.6 2zm-7.3 15c-0.9 1.7-1.6 4.2-1.6 5.5 0 1.6 0.5 2.5 1.5 2.5 0.8 0 1.5-0.6 1.5-1.5 0-0.8 0.6-1.5 1.5-1.5 1 0 1.5-1.1 1.5-4q0-4-1.4-4c-0.7 0-2 1.4-3 3zm-710.6 1.8c0 2.2 0.4 3.2 1.5 3.2 0.8 0 1.5-0.5 1.5-1.2 0-0.7-0.7-2.2-1.5-3.3-1.4-1.9-1.5-1.8-1.5 1.3zm701.9 15.2c-0.6 1-1.1 2.4-1 3 0 0.5 0.7 1 1.6 1q1.5 0 1.5-3c0-1.6-0.3-3-0.5-3-0.3 0-1 0.9-1.6 2zm-685.9 10.8c0 0.9 0.4 3.4 1 5.5 0.6 2.2 1.6 3.7 2.5 3.7 1 0 1.5 1.1 1.5 4 0 2.9 0.4 4 1.5 4 0.8 0 1.7-0.5 1.9-1.2 0.3-1 0.4-1 0.5 0 0 0.7 1 1.2 2.1 1.2 1.1 0 2-0.3 2-0.7 0-0.4-0.7-1.4-1.5-2.3-0.9-0.8-1.6-2-1.6-2.7 0-0.7-1.1-2.2-2.4-3.3-1.4-1.1-2.8-3-3.2-4.2-0.4-1.3-1.5-3.1-2.5-4-1.8-1.7-1.8-1.7-1.8 0zm670 11.2c0 1.1-1.1 2.9-2.3 4l-2.2 2c3.6 0 4.5-0.6 4.5-1.5 0-0.8 0.4-1.5 1-1.5 0.5 0 1-1.1 1-2.5 0-1.3-0.5-2.5-1-2.5-0.6 0-1 0.9-1 2zm-593.4 8.1c-0.9 0.6-2.6 0.9-3.6 0.8-1.1-0.1-3.6 0.1-5.7 0.6-2.1 0.4-6.1 1.3-8.8 2-2.8 0.8-4.9 1.8-4.8 2.4 0.2 0.7-0.6 0.9-2 0.6-1.3-0.4-3.7 0.2-5.7 1.3-2 1.1-5.2 2.5-7.3 3.1-2.1 0.6-3.7 1.6-3.7 2.1 0 0.6 1.1 1 2.5 1 1.3 0 2.4 0.4 2.4 0.8 0 0.4-0.7 1.4-1.5 2.2-0.8 0.9-1.6 2.5-1.7 3.8-0.2 1.7-0.7 2.1-2.2 1.6-1.1-0.3-2.1-0.7-2.1-0.7 0-0.1-0.6-1.4-1.2-2.9-0.7-1.5-2.4-3.2-3.7-3.8-1.4-0.5-3.2-1.6-4-2.5-0.9-0.8-2.2-1.5-3-1.5-0.9 0-1.6-0.8-1.6-1.7 0-1-0.7-2.9-1.4-4.3-1.4-2.4-1.5-2.2-1.5 3.3v5.7c5.8 0.1 8 0.4 8.6 0.8 0.6 0.4 1.3 2.1 1.5 3.8 0.3 2.5 0 3-1.1 2.6-0.9-0.4 0.1 1 2.2 3.1 2.1 2 4.4 3.7 5.3 3.7 0.8 0 1.4 0.6 1.4 1.3 0 0.7 1.6 2.9 3.5 5 2 2 4 3.5 4.6 3.2 0.5-0.2 1-1.4 1-2.5 0-1.1 0.7-2.2 1.7-2.4 1-0.2 4.8 0.5 8.5 1.5 3.7 1.1 6.8 2.4 6.8 2.9 0 0.6 0.9 1 2 1 1.1 0 2.1-0.5 2.3-1.2 0.2-0.9 1.2-0.6 3.2 0.8 1.6 1.2 4.8 2.5 7 2.9 2.2 0.5 5.5 1 7.5 1.1 1.9 0.2 4.6 0.6 6 0.9 1.3 0.3 4.5 0.8 7 1 2.4 0.2 5.6 0.8 7 1.3 1.3 0.6 5.9 1.3 10.2 1.6 4.3 0.4 7.8 1.1 7.8 1.6 0 0.6 3.1 1 7.7 0.9 4.3-0.1 13.6 0.4 20.8 1.1 7.1 0.6 16.1 1.9 20 2.7 5.8 1.3 7.1 1.3 7.7 0.2 0.5-1 2.7-1.3 8-1.1 4 0.1 7.5 0.6 7.8 1.1 0.2 0.5 6.3 0.9 13.5 0.9 7.1 0.1 17.7 0.6 23.5 1.2 5.7 0.6 33.9 1.5 62.5 1.9 39.3 0.7 65.6 0.5 108-0.6 30.8-0.8 63.2-1.7 72-1.9 8.8-0.3 16.2-0.9 16.5-1.3 0.2-0.4 2.5-1 5-1.3 2.9-0.4 5.4-0.1 7.2 0.8 2.1 1.1 3.6 1.2 6 0.4 1.8-0.5 9.1-1.3 16.3-1.8 7.1-0.5 13.5-1.2 14.2-1.5 0.7-0.4 6.2-0.7 12.3-0.7 6.6 0 11-0.4 11-1 0-0.5 3.6-1.2 8-1.5 6.2-0.4 8-0.8 8-2 0-1 0.6-1.3 2.2-0.9 1.2 0.4 2.7 1.1 3.3 1.6 0.5 0.5 1.3 0.9 1.7 0.8 0.4 0 0.8-0.6 0.8-1.5 0-0.8 0.9-1.6 2-1.7 1.1-0.2 3.2-0.4 4.7-0.5 1.5-0.1 6-0.6 10-1 4.8-0.5 7.3-1.2 7.3-2 0-0.9 1.8-1.3 6-1.3 3.3 0 6-0.4 6-1 0-0.5 2.1-1.7 4.7-2.6 2.6-0.9 6.1-1.6 7.8-1.6 1.6 0 2.2-0.2 1.2-0.4-1-0.2-1.7-0.8-1.7-1.4 0-0.5 0.7-1 1.7-1 1 0 2.8 0.3 4 0.5 1.2 0.3 2.3 1.2 2.3 2 0 0.9-0.8 1.8-1.8 2.1-1.5 0.5-1.5 0.7-0.2 1.4 0.9 0.6 2.2 0.3 3.5-0.6 1.1-0.8 2.9-2.9 4.1-4.7 1.1-1.7 3.9-4.1 6.2-5.2 2.6-1.2 4.2-2.6 4.2-3.7 0-1-0.5-1.8-1-1.8-0.6 0-1-0.8-1-1.7 0-1.1-1.6-2.6-4-3.8-2.2-1.1-4.3-1.6-4.7-1.2-0.4 0.4 0.1 0.7 1 0.7 0.9 0 1.9 0.9 2.2 2 0.3 1.3-0.5 3-2.1 4.8-1.4 1.5-3.5 4.2-4.7 6-1.2 1.8-2.6 3.2-3 3.2-0.4 0-0.2-1 0.5-2.2 0.7-1.2 1.9-2.7 2.6-3.3 1-0.7 1.2-2.1 0.7-5-0.4-2.2-1.2-4.6-1.9-5.3-0.9-1-0.8-1.5 0.4-2.1 0.8-0.5 1.1-1.3 0.7-2-0.4-0.6-1.5-0.8-2.5-0.5-1 0.3-3.3-0.5-5.5-2-2.1-1.4-5.4-2.8-7.5-3.1-2.1-0.3-5.8-1.3-8.2-2.2-3.5-1.1-5.1-1.2-6.8-0.4-1.2 0.6-2.5 1.1-2.7 1.1-0.3 0-0.5-0.4-0.5-1 0-0.5 0.7-1 1.7-1 1.5 0 1.5-0.1 0.3-1-1-0.6-1.6-0.6-1.8 0.1-0.1 0.5-1.1 0.9-2.2 0.9-1.6 0-2 0.7-2.1 3.3 0 1.8 0.6 3.8 1.3 4.5 0.7 0.8 2.6 1.2 4.3 0.9 1.6-0.2 3.7-0.7 4.7-1 1-0.4 1.8-0.2 1.8 0.3 0 0.6-0.7 1-1.5 1-0.9 0-1.5 0.5-1.5 1 0 0.6 1 0.8 2.2 0.6 1.2-0.3 2.9-0.1 3.8 0.4 0.8 0.4 1.1 1.3 0.7 1.9-0.4 0.6-0.1 2.5 0.8 4.1q1.5 3 0.7 6.1c-0.6 2.5-1.4 3.1-4.7 3.7-2.2 0.4-4 1.4-4.2 2.2-0.2 0.9-1.5 2.1-2.9 2.8-1.3 0.7-3.7 1.2-5.2 1.2-1.5 0-4.2 0.5-6 1-1.8 0.6-3.2 1.5-3.2 2 0 0.6-2.6 1-5.8 1-3.7 0-7.2 0.7-10 2-3 1.4-6.3 2-11.2 2-3.9 0-8.3 0.5-9.8 1.1-1.5 0.6-4.3 1.1-6.2 1.1-2 0-4 0.4-4.5 0.9-0.6 0.5-5.2 0.9-10.3 0.9-5.1 0-9.2 0.4-9.2 0.8 0 0.4-3.3 1.1-7.3 1.5-4 0.4-9.4 1-12 1.3-2.6 0.2-4.7 0.1-4.8-0.3 0-0.4 0.6-1.3 1.2-2 1-1 1-1.3-0.2-1.3-0.8 0-2.8 0.6-4.4 1.4-1.7 0.8-7.1 1.7-12 2-5 0.4-12.6 0.9-17 1.2-4.4 0.3-13.2 0.7-19.5 1-6.4 0.3-13.1 0.7-15 0.9-2 0.1-22.7 0.8-46 1.5-24.5 0.6-58.9 0.9-81 0.5-21.2-0.3-45.5-1-54-1.6-8.6-0.5-21.8-1.2-29.5-1.4-7.7-0.3-14.9-0.8-16-1.1-1.1-0.3-2.3-0.1-2.5 0.5q-0.5 1-3.3-0.4c-1.5-0.8-3.8-1.2-5-0.9-1.2 0.3-7 0.1-12.7-0.5-5.8-0.5-10.7-1.4-10.8-2-0.1-0.6-1-0.4-2 0.5-1 0.8-2.9 1.5-4.2 1.5-1.4 0-6-0.3-10.3-0.8-4.3-0.4-7.8-1.1-7.7-1.5 0-0.4-4.2-0.8-9.3-0.7-5.2 0-9.7-0.5-10.2-1.1-0.6-0.5-1.8-1-2.8-1-1 0-1.9 0.6-2.1 1.3-0.2 0.9-1.4 0.6-4.2-1-2.4-1.4-5.7-2.2-8.4-2.2-2.5 0-7-0.6-10-1.2-3.1-0.6-6.9-1.2-8.5-1.3-1.7-0.1-5.1-1.1-7.5-2.3-2.5-1.1-5.6-2.3-6.8-2.7-1.2-0.3-2.2-0.1-2.2 0.4 0 0.6-1.4 1-3 1-1.7 0-3-0.4-3-1 0-0.5 0.4-1 1-1 0.5 0 0.7-0.4 0.5-1-0.3-0.5-1.8-0.9-3.3-0.8-1.5 0.1-4 0.1-5.5 0-1.5-0.1-2.7-0.6-2.7-1.2 0-0.5 0.6-1 1.5-1 0.8 0 1.5-0.3 1.5-0.7 0-0.4-1.7-1.1-3.8-1.5-3.1-0.6-3.9-1.2-4.5-3.7-0.5-2.2-0.2-4.1 1-6.6 1-1.9 2.3-3.5 3-3.5 0.7 0 1.3-0.4 1.3-1 0-0.5 0.6-1 1.5-1 0.8 0 1.5-0.4 1.5-1 0-0.5-0.7-1-1.5-1-0.9 0-1.5-0.4-1.5-1 0-0.5 0.7-0.7 1.7-0.3 1 0.3 3.2 0.8 5 1 1.8 0.2 3.3 0 3.3-0.4 0-0.4-1-1.3-2.3-2-2.1-1.2-2-1.3 1.3-0.9 1.9 0.3 4 0.2 4.8-0.2 0.7-0.4 1.1-2 0.9-3.9-0.3-2.8-0.6-3.1-2.1-2.2zm579.5 11.8c-0.1 1.6 0.4 2.1 2.4 2.1 1.5 0 2.5-0.5 2.5-1.5 0-0.8-0.5-1.5-1-1.5-0.6 0-1.6-0.2-2.4-0.6-0.9-0.4-1.4 0.2-1.5 1.5zm-576.1 67.6c0 1.1 1.1 1.5 4 1.5 2.9 0 4-0.4 4-1.5 0-1.1-1.1-1.5-4-1.5-2.9 0-4 0.4-4 1.5zm16 9c0 1.6 0.5 2.5 1.5 2.5 0.8 0 1.5-0.4 1.5-1 0-0.5 0.2-1.6 0.5-2.5q0.5-1.5-1.5-1.5c-1.5 0-2 0.7-2 2.5zm470 8.2c-0.8 0.3-1.3 1.1-1.2 1.9 0.1 0.9-0.8 1.4-2.3 1.4-1.4 0-2.5 0.5-2.5 1 0 0.6 1.1 1 2.5 1 1.3 0 2.5-0.4 2.5-1 0-0.5 0.6-1 1.5-1 0.8 0 1.5-0.9 1.5-2 0-1.1-0.2-1.9-0.3-1.9-0.1 0-0.9 0.3-1.7 0.6zm-451.3 5c-1.6 0.2-2.7 0.9-2.7 1.8 0 1.1 1.1 1.5 4 1.5 3.3 0 4-0.3 4-2 0-1.1-0.6-1.9-1.3-1.8-0.7 0.1-2.5 0.3-4 0.5zm10 5.7c1.8 0.6 3.3 1.5 3.3 1.9 0 0.4 0.7 0.7 1.7 0.7 1.5 0.1 1.4-0.2-0.5-2-1.2-1.1-3.5-1.9-5-1.9-2.7 0.1-2.7 0.1 0.5 1.3zm11.3 9.1c0 1 0.9 1.5 2.5 1.5 1.3 0 2.5-0.4 2.5-1 0-0.5-0.7-1.2-1.5-1.5-0.9-0.2-2-0.5-2.5-0.5-0.6 0-1 0.7-1 1.5zm404-0.8c-0.8 0.3-1.3 0.9-1.2 1.4 0.1 0.5 1.3 0.9 2.7 0.9 1.5 0 2.5-0.5 2.5-1.5 0-0.8-0.6-1.4-1.3-1.4-0.7 0-1.9 0.3-2.7 0.6zm-388 8.8c0 1 0.9 1.5 2.5 1.5 1.3 0 2.5-0.4 2.5-1 0-0.5-0.7-1.2-1.5-1.5-0.9-0.2-2-0.5-2.5-0.5-0.6 0-1 0.7-1 1.5zm372-0.8c-0.8 0.3-1.3 0.9-1.2 1.4 0.1 0.5 2 0.9 4.2 0.9 2.9 0 4-0.4 4-1.5 0-1-1-1.4-2.8-1.4-1.5 0-3.4 0.3-4.2 0.6zm-359 8.8c0 1.1 1.1 1.5 4 1.5 2.2 0 4-0.4 4-1 0-0.5-0.7-1.2-1.5-1.5-0.9-0.2-2.7-0.5-4-0.5-1.6 0-2.5 0.6-2.5 1.5zm343-0.8c-0.8 0.3-1.3 0.9-1.2 1.4 0.1 0.5 2.1 0.9 4.4 0.8 2.3-0.1 3.5-0.3 2.5-0.5-1-0.2-1.7-0.8-1.7-1.4 0-0.5-0.6-0.9-1.3-0.9-0.7 0-1.9 0.3-2.7 0.6zm-323.9 6.9c-0.1 0.5 2.2 1.2 5.1 1.6 2.9 0.3 5.5 0.4 5.8 0.2 0.2-0.2 0.1-0.7-0.4-1.1-0.5-0.4-3-0.9-5.6-1.2-2.6-0.2-4.8 0.1-4.9 0.5zm301.4 2.4c-0.3 0.6-1.7 1-3 1-1.6 0-2.5 0.6-2.5 1.5 0 1.1 1.1 1.5 4 1.5 2.9 0 4-0.4 4-1.5 0-1.1 1.1-1.5 4-1.5 2.2 0 4-0.4 4-1 0-0.5-2.3-1-5-1-2.7 0-5.2 0.5-5.5 1zm-290.8 0.7c-1.6 0.2-2.7 0.9-2.7 1.8 0 0.9 0.7 1.5 1.7 1.5 1 0 4.6 0.4 8 0.8 4.8 0.5 6.3 0.4 6.3-0.5 0-0.8-1.5-1.3-4-1.3-2.9 0-4-0.4-4-1.5 0-0.8-0.6-1.4-1.3-1.3-0.7 0.1-2.5 0.3-4 0.5zm9.5 6c-2.3 0.2-4.2 0.8-4.2 1.3 0 0.6 2.8 1 6.5 1 3.6 0 6.5-0.4 6.5-1 0-0.5-0.7-1.2-1.5-1.5-0.9-0.2-1.9-0.4-2.3-0.3-0.4 0.1-2.7 0.3-5 0.5zm11.8 2.1l-0.1 2.7c18.3 2.1 23.7 2.4 24 2.1 0.2-0.3-1.5-0.6-3.8-0.6-2.3 0-4.1-0.4-4.1-1 0-0.5-1.8-1-4-1-2.2 0-4-0.4-4-1 0-0.5-1.2-1-2.5-1-1.4 0-2.8-0.6-3-1.5-0.3-0.8-1-1.5-1.5-1.5-0.6 0-1 1.3-1 2.8zm252-2.1c-0.8 0.3-1.3 0.9-1.2 1.4 0.1 0.5 3.1 0.9 6.7 0.9 5.1 0 6.5-0.3 6.5-1.5 0-1.1-1.3-1.5-5.3-1.4-2.9 0-5.9 0.3-6.7 0.6zm-5.3 1.1c-0.4 0.7-2.1 1.2-3.7 1.2-1.7 0-3 0.5-3 1 0 0.6-1.8 1-4 1-2.2 0-4 0.5-4 1 0 0.7 2.8 0.8 7.7 0.4 4.3-0.3 7.9-0.6 8.1-0.7 0.1-0.1 0.1-1.3-0.1-2.7-0.1-1.6-0.5-2-1-1.2zm-238.7 8.2c0 0.6 1.8 1 4 1 2.2 0 4-0.4 4-1 0-0.5-1.8-1-4-1-2.2 0-4 0.5-4 1zm216 0c0 0.6 3.3 1 8 1 4.6 0 8-0.4 8-1 0-0.6-3.4-1-8-1-4.7 0-8 0.4-8 1zm-24 4c0 0.6-2 1-4.3 1-2.3 0-4 0.2-3.7 0.5 0.2 0.4 3.9 0.4 8.2 0.1 4.3-0.3 7.8-1 7.8-1.6 0-0.5-1.8-1-4-1-2.2 0-4 0.5-4 1zm-148 2c0 0.6 0.9 1 2 1 1.1 0 2 0.6 2 1.3-0.1 0.9 1.4 1 6 0.5 3.3-0.4 8.7-0.4 12 0 3.7 0.4 6 1.2 6 2 0 0.8 1.4 1.2 4 1.2 2.9 0 4-0.4 4-1.5 0-1.1-1.8-1.6-8-2-4.4-0.2-8-0.9-8-1.5 0-0.6-3-0.8-8-0.5-5 0.3-8 0.2-8-0.5 0-0.5-0.9-1-2-1-1.1 0-2 0.5-2 1zm124.1 0.9c-0.1 0.7-3.2 1.3-8.1 1.6-6.3 0.4-8 0.9-8 2 0 1.1 1.1 1.5 4 1.5 2.5 0 4-0.4 4-1.2-0.1-0.8 2.2-1.6 6-2 3.3-0.4 8.7-0.4 12 0 4.5 0.5 6 0.4 6-0.5 0-0.7-0.8-1.3-1.8-1.3-1 0-4.5-0.3-7.8-0.6-4.3-0.5-6.2-0.3-6.3 0.5zm23.9 1.1c0 0.6 1.8 1 4 1 2.2 0 4-0.4 4-1 0-0.5-1.8-1-4-1-2.2 0-4 0.5-4 1zm-91.8 2.6c-2.3 0.2-4.2 0.9-4.2 1.4 0 0.6 3.9 1.3 8.7 1.7 4.8 0.3 13.7 0.3 19.8-0.1 6-0.3 11.2-0.8 11.5-1.1 0.2-0.3 0.2-0.7 0-1-0.3-0.3-7.5-0.7-16-0.9-8.6-0.2-17.5-0.2-19.8 0zm-4.2 5.7c0 0.4 9 0.7 20 0.7 11 0 20-0.3 20-0.7 0-0.4-9-0.8-20-0.8-11 0-20 0.4-20 0.8z"/>
		<path id="Path 8" fill-rule="evenodd" class="s7" d="m233-63h28c18 0 28 0.4 28 1 0 0.6 1.9 1.1 8.5 1.3l-4.3 0.4c-2.5 0.2-4.2 0.8-4.2 1.5 0 1 1.4 1.1 6 0.5 3.3-0.4 8.7-1 12-1.5 4.6-0.5 6-0.4 6 0.5 0 0.8-1.7 1.4-4.3 1.6-2.3 0.2 0.1 0.4 5.3 0.5 6.7 0.2 9.1 0.5 8 1.2-1.1 0.8-0.4 1 2.5 0.8 2.2-0.1 5.9-0.1 8.3 0 2.6 0.1 4.2 0.7 4.2 1.4 0 0.7 1.4 1.9 3.2 2.5 1.8 0.7 5.9 1.3 9 1.3 3.2 0 5.8 0.4 5.8 1 0 0.6-0.6 1.2-1.3 1.4-0.6 0.2 1.4 0.3 4.6 0.3 4.3-0.2 6.2 0.2 7 1.3 0.7 0.9 3.7 2.8 6.7 4.3 3 1.4 7.2 2.7 9.3 2.7 2.6 0 3.7 0.4 3.7 1.5 0 0.8 1.2 1.8 2.7 2.2 1.6 0.4 4.1 0.7 5.7 0.8 1.6 0 3.1 0.6 3.3 1.2 0.1 0.7-0.5 1.5-1.5 1.7-0.9 0.2-0.3 0.1 1.3-0.1 1.6-0.2 3.8-0.1 4.7 0.2 1 0.3 1.8 1.2 1.8 2 0 0.8 0.8 1.9 1.7 2.4 1 0.6 3.1 0.9 4.7 0.8 1.6-0.1 3 0.4 3.2 1 0.2 0.7-0.4 1.5-1.4 1.7-0.9 0.1 0 0.1 2 0 3.1-0.3 3.8-0.1 3.8 1.3 0 1.2 1.3 2.3 3.5 3 1.9 0.7 3.8 1.2 4.2 1.2 0.5-0.1 1.3-0.1 1.8-0.1 0.5 0.1 0.3 0.9-0.5 1.8-1.4 1.6-1.3 1.7 0.2 1.1 1-0.4 2.9-0.5 4.3-0.2 1.4 0.3 2.5 1.2 2.5 2 0 0.8 0.7 1.5 1.5 1.5 0.8 0 1.7 0.7 2 1.5 0.3 0.8 1.3 1.5 2.2 1.5 1 0.1 2.4 0.8 3.1 1.8 0.7 0.9 2.1 2.9 5.2 7.2h-187c-124 0-187-0.3-187-1 0-0.6 0.9-1.2 2-1.5 1.1-0.3 2.2-1.4 2.5-2.5 0.3-1.1 1.1-2 1.7-2 0.7 0 3.2-1 5.6-2.2 2.5-1.4 4.2-3 4.2-4.1 0-1 1-1.9 2.2-2.2 1.3-0.2 3.2-0.2 4.3 0.1 1.5 0.4 3-0.6 6-4.1 3.6-4.2 4.3-4.7 7.5-4.2 1.9 0.2 2.7 0.2 1.7 0.1-0.9-0.2-1.5-1-1.3-1.7 0.2-0.6 1.6-1.1 3.2-1 1.6 0.1 3.7-0.2 4.6-0.8 1-0.5 1.8-1.6 1.8-2.4 0-0.8 0.8-1.7 1.7-2 1-0.3 3.4-0.3 5.3 0.1 3.3 0.6 3.4 0.5 1.5-0.8-1.4-1.1-1.7-1.7-0.8-2.1 0.7-0.4 1.7-0.5 2.3-0.2 0.6 0.3 2.6-0.1 4.5-0.8 1.9-0.6 3.5-1.8 3.5-2.5 0-0.7 1.5-1.2 4-1.2 2.9 0 4-0.4 4-1.5 0-1.1 1.4-1.6 5.7-1.8 4.9-0.2 6-0.6 6.8-2.4 0.6-1.2 2-2.5 3.2-2.8 1.3-0.3 3.8-0.2 5.5 0.1 2.3 0.4 2.8 0.3 1.8-0.4-1.3-0.8-1.3-1 0.2-1.6 1-0.3 3.7-0.6 6-0.6 2.4 0 5.8-0.6 7.6-1.3 1.8-0.6 3.2-1.8 3.2-2.5 0-0.7 1.6-1.3 4.2-1.4 2.4-0.1 6.1-0.1 8.3 0 2.8 0.2 3.5-0.1 2.5-0.7-1.3-0.8-1.2-1 0.5-1.5 1.1-0.4 5.1-0.5 9-0.3 3.9 0.2 5.3 0.3 3.2 0.1-2-0.2-3.7-0.8-3.7-1.4 0-0.7 4.2-0.7 24 0.5zm-233.4 133c0.2 0 0.4 85.2 0.3 378.5l-2.9-3.8c-1.7-2-3.7-3.7-4.5-3.7-0.8 0-1.5-0.9-1.5-2 0-1.1-0.7-2.2-1.5-2.5-0.8-0.3-1.5-1.2-1.5-2 0-0.8-0.7-1.5-1.5-1.5-0.8 0-1.7-1.1-2-2.5-0.3-1.4-0.2-3.3 0.2-4.3 0.6-1.5 0.5-1.6-1-0.2-1 0.8-1.8 1-1.9 0.5 0-0.5 0-1.3 0.1-1.8 0.1-0.4-0.5-2.3-1.1-4.2-0.7-1.9-1.9-3.5-2.5-3.5-0.7 0-1.6-0.8-1.9-1.8-0.3-0.9-2.1-4.8-4-8.7-1.8-3.9-3.3-7.5-3.4-8 0-0.5-0.9-1.8-2-2.8-1.1-0.9-1.8-2.2-1.5-2.7 0.3-0.5-0.1-2.6-0.7-4.5-0.7-1.9-1.9-3.5-2.5-3.5-0.8 0-1.3-1.4-1.3-3.8 0-2-1.2-6.2-2.7-9.2-1.5-3-3.4-6-4.3-6.7-1-0.8-1.5-2.9-1.4-7 0-3.2-0.1-4.8-0.3-3.6-0.2 1.3-0.7 2.3-1.3 2.3-0.5 0-1-2.7-1-6 0-3.3-0.4-6-1-6-0.5 0-1-1.8-1-4 0-2.5-0.4-4-1.2-4-0.9 0-1.7-3.7-2.7-11.7-0.7-6.5-1.7-12-2.2-12.3-0.5-0.3-1.2-5.8-1.6-12.3-0.6-8.3-1.2-11.7-2-11.7-1 0-1.3-6.3-1.3-28 0-24.2 0.2-28 1.5-28 1.3 0 1.5-2 1.5-12 0-7.3 0.4-12 1-12 0.6 0 1-1.8 1-4 0-2.2 0.5-4 1-4 0.6 0 1 1.8 1 4 0 2.2-0.4 4-1 4-0.5 0-1 1.8-1 4 0 2.2 0.5 4 1 4 0.6 0 1.3-3.3 1.6-7.3 0.4-3.9 0.3-7.9-0.1-8.7-0.4-0.8-0.5-4.8-0.1-8.8 0.5-5.4 1-7.2 2.1-7.2 1.1 0 1.5-1.1 1.5-4 0-2.2 0.5-4 1-4 0.6 0 1-1.8 1-4 0-2.2 0.3-4 0.8-4 0.4 0 1-2.6 1.5-5.7 0.5-4.2 1.3-6.2 2.7-7.1 1.1-0.6 2-2 2-3 0-0.9 0.9-3.2 2-5 1.1-1.8 2-5 2-7.2 0-2.2 0.5-4 1-4 0.6 0 1.5-1.8 2-4 0.6-2.2 1.5-4 2-4 0.6 0 1-1.8 1-4 0-2.9 0.4-4 1.5-4 0.9 0 2.8-2.8 4.6-6.8 1.6-3.7 3.3-7.2 3.7-7.9 0.4-0.6 2.2-3 4-5.2 1.7-2.3 2.6-4.1 2-4.1-0.9 0.1-0.7-0.6 0.4-1.7 1-1 1.8-2.8 1.8-4.1 0-1.7 0.6-2.2 2.5-2.2 1.7 0 2.5-0.5 2.5-1.8-0.1-0.9 0.6-2.4 1.5-3.2 0.9-0.8 1.6-2.4 1.6-3.5-0.1-1.1 0.9-2.4 2.2-3 1.2-0.6 2.2-1.9 2.2-3 0.1-1.1 0.4-2.6 0.8-3.3 0.5-0.6 1-1.2 1.3-1.2zm527.2 7.7c1.1 0.3 2 1.2 2.1 1.9 0.1 0.8 0.6 1.4 1.1 1.4 0.6 0 1 0.9 1 2 0 1.1 0.7 2.2 1.5 2.5 0.8 0.3 1.5 1.2 1.5 2 0 0.8 0.7 1.5 1.5 1.5 1.1 0 1.5 1.1 1.6 3.7 0 2.9 0.9 4.8 3.9 8.3 2.2 2.5 3.9 5.3 4 6.2 0 1 0.6 2.1 1.4 2.5 0.7 0.5 2.3 2.8 3.5 5.3 1.2 2.5 3 6.1 4.1 8 1.1 1.9 1.9 4.4 2 5.5 0 1.1 0.6 3.5 1.3 5.3 0.7 1.8 1.8 3.2 2.5 3.2 0.8 0 1.2 1.5 1.2 4 0 2.2 0.9 5.4 2 7.2 1.1 1.8 2 4.1 2 5 0 1 0.9 2.4 2 3 1.1 0.7 2 2.1 2 3 0 1 0.3 1.8 0.8 1.8 0.4 0 1.1 3.2 1.5 7.2 0.5 4 1.5 9.3 2.4 11.8 0.8 2.5 2 4.8 2.6 5.2 0.8 0.5 1.2 4.6 1.2 12.5 0 6.5 0.1 9.9 0.3 7.5 0.1-2.3 0.5-4.2 1-4.2 0.4 0 1.4 5.4 2.2 12 1 8.2 1.9 12 2.8 12 0.9 0 1.2 7.9 1.2 36 0 31.3-0.2 36-1.5 36-1.2 0-1.6 1.8-2 8-0.3 4.4-0.8 8-1.2 8-0.5 0-1.5 5.4-2.3 12-0.8 6.6-1.8 12-2.2 12-0.5 0-1.5 2.2-2.3 5-0.8 2.7-1.5 6.4-1.5 8 0 1.6-0.4 3-1 3-0.5 0-1 1.7-1.1 3.7 0 2.1-0.4 4.8-0.7 6-0.4 1.2-1.7 3.3-2.9 4.7-1.5 1.6-2.3 3.9-2.3 6.1 0 2.2-0.5 3.7-1.5 4-0.9 0.3-1.5 1.8-1.5 4 0 2.1-0.5 3.5-1.2 3.5-0.7 0-1.9 1.9-2.6 4.2-0.7 2.4-1.8 5.9-2.4 7.8-0.6 1.9-2 4.6-3 6-1 1.4-2.2 4-2.6 5.9-0.4 1.9-1.3 3.6-1.9 3.8-0.7 0.1-1.4-0.5-1.6-1.5-0.2-0.9-0.2 0 0 2 0.2 3.1 0 3.8-1.4 3.8-1.2 0-2.3 1.3-3.2 4.2-0.8 2.4-2 5-2.7 5.8-0.8 0.8-1.4 2.5-1.4 3.7 0 1.5-0.6 2.3-1.7 2.3-1 0-2.8 1.2-4 2.5-1.3 1.4-2.3 3.2-2.3 4 0 0.8-0.4 1.5-1 1.5-0.5 0-1 0.8-1 1.7 0 1-0.5 2.5-1 3.3-0.6 1-1-64.2-1.1-183.7-0.1-184.7-0.1-185.1 1.9-184.6zm-422.3 467.5h2c1.1-0.1 3.8 0.5 6 1.3 2.2 0.8 6.8 1.5 10.3 1.5 3.9 0 6.3 0.4 6.5 1.2 0.2 0.9 2.5 0.9 9.7 0.1 5.4-0.7 14-0.8 19.8-0.5 8.8 0.6 10.2 0.9 10.2 2.4 0 1.4 0.9 1.8 4 1.8 2.9 0 4-0.4 4-1.5 0-1.2 1.6-1.5 8-1.5 6.5 0 8 0.3 8 1.5 0 1.3 6.2 1.4 51.3 1 28.1-0.2 55.3-0.6 69.2-1.2l-17 1.3 12.3 0.2c10.3 0.2 12.2 0 12.2-1.3 0-1.3 2-1.5 12-1.5 10 0 12 0.2 12 1.5 0 1.1 1.1 1.5 4 1.5 3.2 0 4-0.4 4-1.8 0-1.6 2.2-1.8 25.8-2.5 14.1-0.4 27.5-1 29.7-1.4 3.8-0.5 3.9-0.5 2 1.1-1.1 0.8-3 1.6-4.2 1.6-1.3 0-3 0.2-3.8 0.5-0.8 0.3-1.5 1.1-1.5 1.7 0 0.7-1.8 1.9-4 2.5-2.2 0.7-5.8 1.9-8 2.5-2.2 0.7-4 1.9-4 2.5 0 0.8-1.4 1.3-4 1.3-2.2 0-5.4 0.9-7.2 2-1.8 1.1-5 2-7 2-3.1 0-3.8-0.4-3.8-2 0-1.1-0.4-2-1-2-0.5 0-1 0.9-1 2 0 1.1 0.5 2 1 2 0.6 0 1 0.9 1 2 0 1.4-0.9 2.2-2.7 2.6-1.6 0.3-3.9 0.3-5.3-0.1-2.1-0.6-2.4-0.5-1.7 0.9 0.6 1.4-0.1 1.6-4.5 1.6-2.9 0-6.8 0.6-8.6 1.3-1.7 0.6-3.2 1.8-3.2 2.4 0 0.8-1.3 1.3-3.2 1.3-1.8 0-5.1 0.5-7.3 1.1-2.2 0.5-8 1-13 1.1-4.9 0-7.1 0.3-4.7 0.4 2.3 0.2 4.2 0.9 4.2 1.4 0 0.6-3.3 1-8 1-5.5 0-8.1 0.4-8.3 1.2-0.3 1-8.3 1.3-35.7 1.3-27.4 0-35.4-0.3-35.7-1.3-0.2-0.8-2.7-1.2-8.3-1.2-4.7 0-8-0.4-8-1 0-0.5 1.7-1.2 3.8-1.4 2-0.1 0.3-0.1-3.8 0.2-4.5 0.3-8.4 0-9.7-0.7-1.3-0.6-5-1.4-8.3-1.9-3.3-0.4-6-1.2-6-1.7 0-0.5-1.4-1.6-3.2-2.2-1.8-0.7-6.1-1.3-9.5-1.3-3.5 0-6.5-0.5-6.8-1-0.3-0.5 0.5-1.1 1.8-1.3 1.2-0.2-0.3-0.3-3.3-0.3-4.6 0-5.9-0.4-8.2-2.7-2.3-2.2-3.7-2.7-7.8-2.7-2.7 0-5.2-0.5-5.5-1-0.3-0.5 0.3-1.2 1.3-1.4 0.9-0.2-0.2-0.4-2.5-0.5-2.7-0.1-4.3-0.6-4.3-1.4 0-0.6-1.5-1.8-3.5-2.5-1.9-0.6-3.9-1-4.5-0.7-0.5 0.3-1.6 0.2-2.2-0.2-0.9-0.4-0.7-1 0.7-2 1.8-1.4 1.7-1.4-2.2-0.9-3.4 0.5-4.3 0.3-4.3-0.9 0-0.8-0.8-1.7-1.7-1.9-1-0.2-3.5-0.7-5.5-1-2.1-0.3-4.1-1.2-4.5-2-0.5-0.8-1.7-1.6-2.8-1.9zm112.5 6.1c4.7 0 6.5 0.2 4 0.4-2.5 0.2-6.3 0.2-8.5 0-2.2-0.2-0.2-0.4 4.5-0.4zm44 0.1c6.9 0 9.6 0.1 6 0.3-3.6 0.2-9.2 0.2-12.5 0-3.3-0.2-0.4-0.3 6.5-0.3zm-62.2 30.6c1.2 0 2.2 0.4 2.2 1 0 0.5 1.9 1.1 8.5 1.3l-3.7 0.4c-2.1 0.1-5-0.4-6.5-1.2-2.6-1.3-2.7-1.4-0.5-1.5zm-406.6 207.5c0.7 0.3 2.2 3.1 3.3 6.2 1.1 3.2 2.1 6 2.1 6.3 0.1 0.3 0.5 1.4 0.8 2.5 0.4 1.1 1.6 3.8 2.7 6 1.1 2.2 1.7 3.3 1.5 2.5-0.3-0.8 0-2.1 0.7-2.8 0.6-0.6 0.8-1.2 0.4-1.2-0.4 0 0.5-3 1.8-6.8 1.4-3.7 2.9-7.4 3.2-8.2 0.3-0.8 0.5-2 0.4-2.5q-0.2-1 0.9 0c0.7 0.7 0.1 3.6-2.2 10-1.7 4.9-3.6 9.1-4 9.2-0.4 0.2-0.6 1-0.3 1.8 0.3 0.8-0.2 1.8-1 2.2-0.8 0.5-1.7 0.6-2 0.3-0.2-0.3-2.5-6.2-5-13.2-2.7-7.7-4-12.5-3.3-12.3zm56 0c0.6 0.3 1 1.7 0.9 3.1-0.1 1.5 0.5 2.4 1.4 2.4 0.8 0 1.8 0.5 2.3 1.2 0.5 0.9 0.1 1-1.5 0.5-1.9-0.6-2.3-0.3-2.3 1.3 0 1.1-0.4 2.2-1 2.5-0.6 0.3-1-1.8-0.9-5.6 0.1-3.7 0.5-5.8 1.1-5.4zm48.1 0c2 0.3 4.6 0.9 5.7 1.5 1.2 0.6 1.8 1.6 1.5 2.5-0.4 1.3-0.8 1.3-3.5 0-1.6-0.8-4.4-1.4-6.1-1.3-1.7 0.2-3.3 0.6-3.5 1-0.2 0.5-0.2 1.7 0.1 2.8 0.4 1.4 2.1 2.4 6 3.5 3.4 0.9 6.1 2.3 7 3.7 0.8 1.3 1.5 3.1 1.5 4 0 1-1.3 3.1-3 4.8-2.8 2.8-3.3 3-9.2 2.5-3.5-0.3-6.4-0.6-6.6-0.7-0.1-0.2 0-1.1 0.3-2.1 0.4-1.5 0.9-1.6 3.8-0.6 1.7 0.6 4.6 0.9 6.2 0.6 1.7-0.4 3.6-1.3 4.3-2.2 1-1.2 0.8-1.9-1.3-4-1.4-1.4-3.3-2.5-4.2-2.5-1 0-3.3-0.9-5-2-2.4-1.5-3.3-2.7-3.3-4.8 0-1.5 0.4-3.2 0.8-3.7 0.4-0.6 1.7-1.6 2.7-2.3 1.2-0.7 3.6-1 5.8-0.7zm13.2-0.5q1.5 0 1.5 3c0 2.5 0.4 3 2.5 3 1.6 0 2.5 0.6 2.5 1.5 0 0.9-0.9 1.5-2.5 1.5-2.4 0-2.5 0.2-2.2 6.2 0.2 5.4 0.5 6.4 2.5 7.3 1.2 0.5 2.2 1.3 2.2 1.7 0 0.5-0.7 1-1.5 1.3-0.8 0.3-2.6-0.2-4-1-2.4-1.5-2.5-1.8-2.5-13 0-9.6 0.3-11.5 1.5-11.5zm47.5 0c1.8 0 2 0.7 2.5 12.4l3.5-3.2c1.9-1.7 4.4-3.1 5.5-3.2 1.7 0 1.4 0.6-1.7 3.5-2.1 1.9-3.8 3.8-3.8 4.2 0 0.5 1.8 3.4 4 6.5 3.8 5.5 3.9 5.8 1.8 5.8-1.6 0-3.2-1.5-5.3-4.5-1.6-2.5-3.3-4.5-3.7-4.5-0.5 0-0.8 2-0.8 4.5 0 3.8-0.3 4.5-2 4.5-1.7 0-2-0.7-2-4.5 0-2.7 0.4-4.3 1-4 0.6 0.3 1-0.5 1-1.8 0-1.8-0.2-1.9-1-0.7-0.8 1.2-1 1.1-1-0.8 0-1.2 0.3-2.2 0.8-2.2 0.4 0 0.4-2.2 0-4.8-0.4-2.6-0.7-5.3-0.7-6-0.1-0.6 0.8-1.2 1.9-1.2zm-140 6c0.6 0 1 0.4 1 1 0 0.5-0.7 1.2-1.5 1.5-0.8 0.3-2.2 2-3 3.7-0.8 1.8-1.5 3.3-1.5 3.3 0 0 2.7-0.1 6-0.3 5-0.2 6-0.5 6-2 0-0.9-0.7-2.7-1.5-4-0.8-1.2-1.3-2.5-1.1-2.8 0.2-0.3 1.4 0.8 2.5 2.3 1.2 1.5 2.2 4 2.1 5.5 0 2.8-0.1 2.8-6.5 2.8-4.5 0-6.5 0.4-6.5 1.2 0 0.7 0.6 2.2 1.5 3.3 0.8 1.1 1.5 2.3 1.5 2.7 0 0.5-0.6 0.6-1.2 0.3-0.7-0.2-1.9-1.6-2.5-3-0.7-1.4-1.3-3.9-1.3-5.5 0-1.7 0.4-4.1 0.8-5.5 0.4-1.4 1.6-2.5 2.5-2.5 0.9 0 1.7-0.5 1.7-1 0-0.6 0.5-1 1-1zm21.5 0.3c1.8 0.1 3.1 0.5 2.9 0.9-0.2 0.5-1.8 0.8-3.5 0.8-1.7 0-3.5 0.7-4 1.5-0.5 0.8-1.5 1.2-2.1 0.8-0.9-0.4-0.6-1.1 1-2.4 1.4-1.1 3.7-1.8 5.7-1.6zm23.4 0.2c0.3 0.3-0.4 1.4-1.6 2.5-1.3 1.1-2.6 3-2.9 4.2-0.3 1.3-0.3 3.5 0 5 0.3 1.6 1.3 3.5 2.1 4.3 0.8 0.8 2.7 1.5 4.3 1.5 1.5 0 3.2-0.4 3.8-0.8 0.6-0.4 1.7-1.8 2.4-3.2 0.7-1.4 1.1-3.9 0.9-5.5-0.2-1.7-1.3-3.8-2.4-4.8-1.1-1-2.9-1.8-4-1.8-1.6 0.1-1.7-0.1-0.5-0.9 0.8-0.5 1.8-1 2.3-1 0.4 0 1.9 1.2 3.5 2.6 2.3 2.2 2.7 3.3 2.6 7.7-0.1 4.3-0.6 5.6-2.8 7.4-2 1.8-3.4 2.2-6.3 1.8-2.1-0.2-4.7-1.4-5.8-2.5-1.5-1.5-2-3.4-2-7.1 0-4.4 0.4-5.4 2.9-7.5 1.6-1.4 3.2-2.3 3.5-1.9zm15.8 0.9c0.3 1.3 0.6 1.4 1.9 0.3 0.8-0.7 1.5-0.8 1.5-0.2 0 0.5-0.7 1.7-1.6 2.5-1.2 1.1-1.6 3.4-1.5 8.7 0 4.6-0.4 7.1-1 6.8-0.5-0.3-1.1-4.5-1.2-9.3 0-4.9 0.3-9.2 0.8-9.6 0.4-0.5 1-0.1 1.1 0.8zm48.8-1.4c2.4 0 4.3 0.8 6 2.5 2 2 2.5 3.5 2.5 7.5 0 4-0.5 5.5-2.4 7.5-1.7 1.7-3.6 2.5-6 2.5-2.5 0-4.4-0.8-6.1-2.5-2-2-2.5-3.5-2.4-7.5 0-4 0.5-5.6 2.4-7.5 1.7-1.7 3.5-2.5 6-2.5zm21 0.4c2 0.1 3 0.6 3 1.6 0 1-0.8 1.4-2.6 1.2-1.4-0.2-3.4 0.4-4.5 1.2-1.3 1-1.9 2.7-1.9 5.6 0 3 0.6 4.6 2 5.6 1.1 0.8 3.4 1.3 5 1.2 2.1-0.2 3 0.1 3 1.2 0 1-1.2 1.6-3.7 1.7-3.1 0.2-4.4-0.3-6.8-2.7-2.2-2.2-3-3.9-3-6.5 0-1.9 0.6-4.6 1.3-6 0.6-1.4 2.1-2.9 3.2-3.4 1.1-0.4 3.4-0.8 5-0.7zm601.3 4.6c0.1 0 0 1.1-0.3 2.5-0.4 2.1 0 2.7 2.5 3.5 1.8 0.6 3.2 1.9 3.6 3.2 0.4 1.5 0 2.8-1.1 3.8-1.6 1.4-1.7 1.3-1.1-1.3 0.5-2 0.2-2.9-1.1-3.4-1-0.4-2.5-1.4-3.3-2.2-0.8-0.8-1.5-1.9-1.5-2.5 0-0.6 0.4-1.6 1-2.3 0.6-0.7 1.1-1.2 1.3-1.3zm37.8 0c0.3 0 0.4 1.8 0.2 4-0.2 2.7 0.1 4 1 4 0.6 0 1.4-0.9 1.7-2 0.3-1.1 1-1.8 1.5-1.5 0.6 0.3 0.3 1.3-0.7 2.5q-1.8 2.1-0.5 2c0.6 0 1.4 0.8 1.7 1.7 0.3 1 0.3 2 0 2.3-0.2 0.3-1.3-0.6-4.4-4.5l-0.1 2.7c0 1.6-0.3 2.6-0.7 2.4-0.5-0.2-0.8-2.1-0.7-4.3 0-2.1 0.1-5 0.2-6.6 0.1-1.5 0.5-2.7 0.8-2.7zm73.7 0c0.6-0.1 1.9 0.7 2.8 1.7 0.9 1 1.7 2.7 1.7 3.8 0 1.1-0.5 3.2-1.1 4.8-0.7 1.5-1.8 3-2.4 3.2-0.7 0.3-1.5 0-1.8-0.5-0.3-0.6 0.2-1.2 1-1.5 0.8-0.3 1.5-1.2 1.5-2 0-0.8-0.5-1.3-1.2-0.9-0.7 0.3-2.1-0.2-3-1-1-0.9-1.8-2.5-1.8-3.6 0-1.1 0.5-2 1-2 0.6 0 1.1 1 1.3 2.2q0.2 2.3 2.2 2.3 2 0 2.3-2.3c0.1-1.6-0.3-2.2-1.8-2.2-1.1 0-2-0.5-2-1 0-0.6 0.6-1 1.3-1zm10.7 0c0.8 0 2.2 0.8 3.1 1.7 0.8 1 1.4 2.9 1.3 4.3-0.1 1.4-0.3 3.1-0.3 3.7-0.1 0.7-0.8 2-1.7 2.8-0.8 0.8-2.2 1.5-3 1.5-0.7 0-1.4-0.5-1.4-1 0-0.6 0.9-1.2 2-1.5 1.1-0.3 2-1.2 2-2 0-0.8-0.5-1.3-1.2-0.9-0.7 0.3-2.1-0.2-3-1-1-0.9-1.8-2.3-1.8-3.1 0-0.8 0.6-2.2 1.3-3 0.6-0.8 1.9-1.4 2.7-1.5zm11.1 0c1.6 0 3.1 0.4 3.4 1 0.3 0.5-0.6 1-2 1-1.4 0-2.5 0.4-2.5 1 0 0.5 1.1 1.2 2.5 1.5 1.4 0.3 2.7 1.4 3 2.5 0.3 1.1 0.3 2.9 0 4-0.3 1.2-1.6 2.2-3.2 2.6-1.6 0.3-3 0.3-3.3 0-0.3-0.3 0.7-1 2.3-1.6 2-0.8 2.7-1.7 2.7-3.8 0-2.5-0.2-2.7-3.2-2.1-3.2 0.7-3.3 0.6-2.9-2.7 0.3-3 0.6-3.4 3.2-3.4zm10.9 0c1.4 0 3.1 0.5 3.8 1.2 0.7 0.7 1.2 2.1 1.2 3 0 1-1.3 2.8-3 4-1.7 1.3-3 2.6-3 3 0 0.5 1.6 0.8 3.5 0.8 2 0 3.3 0.4 3 1-0.3 0.5-2.5 1-5 1-4 0-4.4-0.2-4-2 0.3-1.1 1.9-3.2 3.6-4.8 2-1.8 2.8-3.3 2.5-4.5-0.3-0.9-0.9-1.5-1.3-1.3-0.5 0.3-1.5 0.1-2.3-0.5-1.2-0.7-0.9-0.9 1-0.9zm12.1 0c0.5 0 0.9 0.4 0.9 1 0 0.5-0.7 1.2-1.5 1.5-0.8 0.3-1.5 1.2-1.5 2 0 0.8 0.6 1.2 1.3 0.9 0.6-0.3 2.3 0.4 3.7 1.4 2.2 1.7 2.4 2.3 1.4 4.3-0.7 1.6-2 2.4-3.6 2.4-1.4 0-3.2-0.7-4.2-1.5-0.9-0.8-1.7-2.7-1.7-4.1-0.1-1.5 0.9-3.8 2.1-5.3 1.2-1.4 2.6-2.6 3.1-2.6zm11 0c1.1 0 2.2 0.6 2.6 1.2 0.4 0.7 0.8 3.3 1.1 10.3l-2.5-2.5c-1.9-2-2.7-2.2-3.6-1.3-0.7 0.7-0.9 1.9-0.4 2.8 0.4 0.8 1.5 1.3 2.5 1.2 0.9-0.2 1.7 0.2 1.7 1 0 0.9-0.9 1.3-2.4 1.1-1.3-0.2-2.9-1.1-3.5-2.1-0.8-1.2-0.8-2.2 0.2-3.7 0.6-1.1 1-2.7 0.7-3.5-0.3-0.8 0-2.2 0.6-3 0.6-0.8 2-1.5 3-1.5zm10.9 0.5c1.4 0.1 3.1 0.4 3.8 0.8 0.6 0.4 1.2 1.6 1.2 2.7 0 1.1-1.5 3.1-3.2 4.4-1.8 1.4-3.7 2.2-4.3 1.8-0.6-0.3-0.4-0.8 0.5-1.1 0.8-0.2 2.3-1.4 3.2-2.5 1-1.2 1.8-2.4 1.8-2.9 0-0.4-1.1-1.2-2.5-1.7-1.4-0.6-2.6-1.1-2.7-1.3-0.1-0.1 0.9-0.2 2.2-0.2zm-896 0.5c0.6 0 1 0.4 1 1 0 0.5-0.5 1.1-1.1 1.2-0.7 0.2-0.7 1.2 0.2 3.3 0.7 1.6 2 3.8 2.9 4.8 0.8 1 2.7 1.7 4.3 1.7 1.5 0 2.9 0.3 3.1 0.7 0.2 0.5-1.1 0.9-3 1-2.2 0.2-3.4-0.1-3.4-1 0.1-0.6-0.3-0.9-0.7-0.5-0.4 0.4-1.4 0.3-2-0.2-0.7-0.6-1.1-1.5-0.8-2 0.3-0.6 0.1-1-0.5-1-0.5 0-0.8-0.7-0.5-1.5 0.3-0.8 0-1.6-0.6-1.8-0.8-0.1-1-1.2-0.5-3 0.3-1.5 1.1-2.7 1.6-2.7zm665.1 1.3c0.4 0.6 0.2 2.7-0.5 4.4-0.6 1.8-1.4 3-1.8 2.5-0.4-0.4-0.2-2.4 0.5-4.4 0.7-2.2 1.5-3.3 1.8-2.5zm62.1 0.7c0.4 0 1 0.4 1.2 0.9 0.2 0.4-0.1 2.2-0.5 4-0.7 2.5-0.6 3.3 0.9 4 1.2 0.6 1.4 1 0.5 1.5-0.7 0.3-1.7 0-2.2-0.7-0.4-0.6-1.2-2.9-1.7-4.9-0.4-2-0.4-3.9 0.1-4.2 0.5-0.3 1.2-0.6 1.7-0.6zm-67.8 3.5c0.5 1.6 1.6 3.4 2.4 4 0.8 0.5 1.2 1.6 0.9 2.2-0.4 0.7-1.1 1.3-1.7 1.3-0.5 0-0.8-0.7-0.5-1.5 0.3-0.8 0.1-1.3-0.5-1-0.5 0.3-1 0-1-0.5 0-0.6 0-1.3-0.1-1.8 0-0.4-0.5-1.3-1-2-0.5-0.6-0.6-1.8-0.2-2.5 0.4-0.8 1-0.1 1.7 1.8zm12.8-2c1.3 0.1 2.9 0.4 3.6 0.8 0.6 0.4 1.2 1.4 1.2 2.2 0 1-1 1.5-3.5 1.5-2.7 0-3.4 0.4-3 1.5 0.3 0.8 0.1 1.7-0.5 2-0.5 0.3-1.2-0.2-1.5-1-0.3-0.8-0.6-2.3-0.7-3.3-0.1-1 0.3-2.2 1-2.8 0.6-0.5 2.2-0.9 3.4-0.9zm12.1-0.5c0.9 0 1.7 0.4 1.7 1 0 0.5-0.6 0.8-1.2 0.6-0.7-0.3-1.9 0.1-2.6 0.7-0.7 0.7-1.2 2.2-1.2 3.4 0 1.6 0.6 2.3 2 2.3 1.1 0 1.8 0.4 1.5 1-0.3 0.5-0.9 1-1.5 1-0.5 0-1.7-0.7-2.5-1.5-0.9-0.9-1.3-2.6-1-4.2 0.3-1.4 1-3 1.7-3.5 0.7-0.4 2.1-0.8 3.1-0.8zm25.9 0.6c0.6 0.3 1 0.9 0.9 1.5 0 0.5-0.4 0.7-0.8 0.5-0.5-0.2-0.6 1.5-0.4 3.7 0.3 3 0.1 4-0.7 3.4-0.7-0.4-1.3-2.4-1.4-4.5 0-2.1 0.2-4.2 0.7-4.5 0.4-0.4 1.2-0.4 1.7-0.1zm26.9-0.6c1 0 2.6 0.7 3.4 1.5 0.8 0.8 1.5 2.4 1.5 3.5 0 1.1-0.7 2.7-1.6 3.5-0.8 0.8-2.4 1.5-3.5 1.5-1 0-2.6-0.7-3.4-1.5-0.8-0.8-1.5-2.4-1.6-3.4 0-1.1 0.7-2.7 1.6-3.5 0.9-0.9 2.5-1.6 3.6-1.6zm11 0c0.5 0 1.1 0.4 1.4 1 0.3 0.5-0.4 1.2-1.5 1.5-1.4 0.3-1.9 1.2-1.7 2.7q0.2 2.3 2.5 2.5c1.2 0.2 2.2 0.7 2.2 1.3 0 0.5-0.9 1-2 1-1.1 0-2.7-0.7-3.5-1.5-0.8-0.8-1.5-2.4-1.6-3.4 0-1.1 0.7-2.7 1.6-3.5 0.9-0.9 2.1-1.6 2.6-1.6zm26 0c1 0 1.9 0.4 1.9 1 0 0.5-0.9 1-2 1-1.1 0-2.3 0.8-2.6 1.7-0.4 1-0.2 2.5 0.4 3.3 0.5 0.8 1.5 1.4 2.1 1.2 0.6-0.1 0.9 0.2 0.6 0.8-0.3 0.5-0.9 1-1.5 1-0.5 0-1.7-0.7-2.5-1.5-0.8-0.8-1.5-2.4-1.6-3.4 0-1.1 0.7-2.7 1.6-3.5 0.9-0.9 2.5-1.6 3.6-1.6zm9.6 0.5c1 0.2 2 0.4 2.3 0.5 0.3 0.1 0.8 0.2 1.3 0.1 0.4-0.1 1 1.1 1.3 2.6q0.6 2.8-1 4.3c-1.4 1.3-1.5 1.1-1.3-2 0.2-3.1-0.1-3.5-2.3-3.5-1.9 0-2.5 0.5-2.6 2.5-0.1 1.4-0.2 2.9-0.3 3.5-0.1 0.5-0.6 0.3-1.1-0.5-0.5-0.8-1-2.3-1-3.2-0.1-0.9 0.6-2.3 1.4-3.1 0.8-0.9 2.3-1.4 3.3-1.2zm8.4-0.5c0.5 0 1.1 0.4 1.4 1 0.3 0.5 0.1 1.6-0.5 2.2-0.5 0.7-0.8 1.5-0.6 1.8 0.3 0.3-0.1 0.5-0.7 0.6-0.7 0-1.1-1.1-0.8-2.8 0.2-1.5 0.7-2.8 1.2-2.8zm4.4 0c0.8 0 1.7 0.4 2 1 0.3 0.5 1.1 0.7 1.7 0.2 0.9-0.5 1-0.2 0.4 1.3-0.5 1.1-0.8 3.2-0.7 4.7 0.1 1.6-0.3 2.6-0.9 2.3-0.5-0.3-1-2.1-1-4 0-2.4-0.4-3.5-1.5-3.5-0.8 0-1.5-0.5-1.5-1 0-0.6 0.7-1 1.5-1zm7.6 0c0.5 0 1.1 0.7 1.4 1.5 0.3 0.8 0.5 3.1 0.5 5 0 2-0.4 3.3-1 3-0.5-0.3-1-2.1-1-4 0-1.9-0.4-3.5-1-3.5-0.5 0-0.7-0.5-0.4-1 0.3-0.6 0.9-1 1.5-1zm-106.3 1c0.4 0 0.8 1.5 0.8 3.4-0.1 1.9-0.5 3.8-1 4.2-0.5 0.5-0.6 0.4-0.3-0.4 0.4-0.6 0.4-1.2 0-1.2-0.5 0-0.7-1-0.7-2.3 0.1-1.2 0.2-2.5 0.3-3 0.1-0.4 0.5-0.7 0.9-0.7zm6.6 0c0.5 0 1 0.8 1.2 1.7 0.1 1 0 2.8-0.2 4-0.2 1.3-0.7 2.3-1.1 2.3-0.5 0-0.8-1.8-0.8-4 0-2.2 0.4-4 0.9-4zm-14.1 2c1.2 0 1.7 0.8 1.7 2.5 0 1.4 0.5 2.5 1 2.5 0.6 0 0.8 0.4 0.5 1-0.3 0.6-1.1 0.5-2-0.3-0.9-0.6-1.4-1.7-1.1-2.2 0.3-0.6 0-1.6-0.7-2.3-0.9-1-0.8-1.2 0.6-1.2zm130.3 1c0.1 0.3 0.4 1.7 0.8 3.2 0.5 2.5 0.3 2.8-1.9 2.8-1.4 0-2.5-0.5-2.5-1 0-0.6 0.5-1 1-1 0.6 0 1.3-1 1.7-2.2 0.4-1.2 0.8-2 0.9-1.8zm73.1 3.4c0.7 0.3 2.7 0.6 4.3 0.6 1.7 0 2.8 0.4 2.5 1-0.3 0.5-2.3 1-4.5 1-3.1 0-4-0.4-3.8-1.6 0.1-1 0.7-1.4 1.5-1z"/>
		<path id="Path 9" class="s8" d="m153 518c0 0.6 1.7 1.3 3.8 1.7 2 0.3 4.6 0.5 5.7 0.4 1.1-0.2 2.3-0.8 2.7-1.5 0.5-0.8 2.7-0.5 7.9 1 4.2 1.2 12.3 2.3 19.3 2.8 6.7 0.4 15.7 1.1 20.1 1.7 4.4 0.5 23.1 0.9 41.5 0.8 18.4-0.1 37.5-0.2 42.5-0.3 5-0.2 17.1-0.8 27-1.5 9.9-0.7 18.5-1.5 19-1.8 0.5-0.3 6.4-0.6 13-0.6 6.6 0 12.6 0.3 13.2 0.7 0.7 0.3 1.5 0.1 1.8-0.4 0.3-0.5 0-1-0.5-1-0.5 0-1-0.7-1-1.5 0-1.3-2.5-1.5-17.3-1.4-11.1 0.1-18.3 0.6-20.2 1.4-1.7 0.7-12.9 1.7-26.5 2.4-12.9 0.6-27.8 1.3-33 1.4-5.2 0.2-23-0.3-39.5-1-16.5-0.7-33.8-1.9-38.5-2.7-4.7-0.7-15.8-1.4-24.8-1.4-9.9-0.1-16.3 0.3-16.2 0.8z"/>
		<path id="Path 10" class="s9" d="m187 517.4c0.3 0.2 6.1 1.1 13 1.9 6.9 0.9 21.5 1.9 32.5 2.4 11 0.4 27.4 0.6 36.5 0.5 9.1-0.1 26.2-0.7 38-1.3 12.7-0.7 22.7-1.8 24.5-2.5 2.5-1.1-9.6-1.3-71-1.4-40.7 0-73.8 0.1-73.5 0.4z"/>
		<path id="Path 11" class="s1" d="m-140.4 798.5c-0.9 0.8-1.9 2.5-2.2 3.8-0.3 1.2-0.3 3.4 0 5 0.3 1.5 1.3 3.4 2.1 4.2 0.8 0.8 2.8 1.5 4.4 1.5 1.6 0 3.7-0.7 4.5-1.5 0.9-0.8 1.9-2.5 2.2-3.8 0.3-1.2 0.3-3.4 0-5-0.3-1.5-1.3-3.4-2.1-4.2-0.8-0.8-2.8-1.5-4.4-1.5-1.6 0-3.7 0.7-4.5 1.5zm853.7 10c-0.5 0.9-0.3 2.1 0.4 2.8 0.7 0.7 1.9 0.9 2.8 0.5 0.8-0.5 1.5-1.2 1.6-1.8 0-0.5-0.9-1.4-2-2-1.6-0.9-2.2-0.8-2.8 0.5z"/>
		<path id="Path 12" class="s0" d="m237-15.1c-2.5 0.3 8.3 0.6 24 0.6 15.7 0 26.3-0.3 23.5-0.7-2.8-0.3-13.6-0.6-24-0.6-10.4 0.1-21 0.4-23.5 0.7zm-20 2.1c0 0.6 1.8 1 4 1 2.2 0 4-0.4 4-1 0-0.6-1.8-1-4-1-2.2 0-4 0.4-4 1zm88.1 1.9c-0.1 0.7 2.8 1.3 7.7 1.6 4.2 0.3 7.9 0.3 8.2 0 0.3-0.3 0.3-0.7 0-0.9-0.3-0.2-3.9-0.7-8.1-1.1-5.4-0.5-7.7-0.4-7.8 0.4zm-104.1 1.1c0 0.6 1.8 1 4 1 2.2 0 4-0.4 4-1 0-0.6-1.8-1-4-1-2.2 0-4 0.4-4 1zm-212 215c0 2.2 0.4 4 1 4 0.6 0 1-1.8 1-4 0-2.2-0.4-4-1-4-0.6 0-1 1.8-1 4zm542 0c0 2.2 0.5 4 1 4 0.5 0 1-1.8 1-4 0-2.2-0.5-4-1-4-0.5 0-1 1.8-1 4zm3.1 11.8c0 4.9 0.3 8.2 0.9 8.2 0.5 0 1-1.5 0.9-3.3 0-1.7-0.4-5.5-0.9-8.2-0.7-4.7-0.7-4.5-0.9 3.2zm-554.7 44.3c0 11.3 0.2 15.8 0.3 10 0.2-5.8 0.2-15 0-20.5-0.1-5.5-0.3-0.8-0.3 10.5zm5 0c0 11.3 0.2 15.8 0.3 10 0.2-5.8 0.2-15 0-20.5-0.1-5.5-0.3-0.8-0.3 10.5zm552.6 0c0 2.2 0.5 4 1 4 0.5 0 1-1.8 1-4 0-2.2-0.5-4-1-4-0.5 0-1 1.8-1 4zm0.3 20c0 4.7 0.2 6.5 0.4 4 0.2-2.5 0.2-6.3 0-8.5-0.2-2.2-0.4-0.2-0.4 4.5zm5 0c0 4.7 0.2 6.5 0.4 4 0.2-2.5 0.2-6.3 0-8.5-0.2-2.2-0.4-0.2-0.4 4.5zm-8.3 20c0 2.2 0.5 4 1 4 0.5 0 1-1.8 1-4 0-2.2-0.5-4-1-4-0.5 0-1 1.8-1 4zm-545 16c0 2.2 0.5 4 1 4 0.6 0 1-1.8 1-4 0-2.2-0.4-4-1-4-0.5 0-1 1.8-1 4zm542 0c0 2.2 0.5 4 1 4 0.5 0 1-1.8 1-4 0-2.2-0.5-4-1-4-0.5 0-1 1.8-1 4zm-306 264c0 0.5 1.8 1 4 1 2.2 0 4-0.5 4-1 0-0.5-1.8-1-4-1-2.2 0-4 0.5-4 1zm64 0c0 0.5 1.8 1 4 1 2.2 0 4-0.5 4-1 0-0.5-1.8-1-4-1-2.2 0-4 0.5-4 1zm-34.5 79.7c3.3 0.2 8.9 0.2 12.5 0 3.6-0.2 0.9-0.3-6-0.3-6.9 0-9.8 0.1-6.5 0.3z"/>
		<path id="Path 13" class="s2" d="m-25.2 504.8c-0.9 0.1-1.9 2.2-2.4 4.7-0.8 4.2-0.7 4.7 1.9 7.3 2.2 2.2 2.7 2.4 2.7 0.9 0-0.9-0.7-1.9-1.5-2.2-0.8-0.3-1.5-1.6-1.5-3 0-1.4 0.7-3.2 1.5-4 0.8-0.8 1.3-2.1 1.1-2.8-0.2-0.7-1-1.1-1.8-0.9zm570.2 1.7c0 0.8 0.5 1.5 1 1.5 0.5 0 1.2 1.1 1.5 2.5 0.3 1.4 1.1 2.5 1.8 2.5 0.9 0 1-0.9 0.4-3.2-0.4-1.8-0.7-3.6-0.7-4.1 0-0.4-0.9-0.7-2-0.7-1.1 0-2 0.7-2 1.5z"/>
		<path id="Path 14" class="s1" d="m-77.5 800.2c-1 1.2-1.7 3.4-1.6 4.8 0 1.4 0.8 3.5 1.6 4.7 0.9 1.4 2.5 2.3 4 2.3 1.5 0 3.1-0.9 4-2.3 0.8-1.2 1.5-3.3 1.5-4.7 0-1.4-0.7-3.5-1.5-4.8-0.9-1.3-2.5-2.2-4-2.2-1.3 0-3.1 1-4 2.2zm791.5 3.1c0.3 1.2 1.3 2.3 2.2 2.4q1.8 0.3 1.7-1.6c-0.1-1-1.1-2.1-2.2-2.4-1.8-0.5-2.1-0.2-1.7 1.6zm-44.7 0.2c-0.5 0.9-0.3 2.1 0.4 2.8 0.7 0.7 1.9 0.9 2.8 0.4 0.8-0.4 1.4-1.5 1.2-2.5-0.1-0.9-1-1.8-1.9-2-0.9-0.2-2 0.4-2.5 1.3zm-103.9 3.7c-0.3 0.7-0.3 2.1 0 3 0.4 1.1 1.4 1.7 2.8 1.5 1.7-0.1 2.3-0.9 2.3-2.7 0-1.8-0.7-2.6-2.2-2.8-1.2-0.2-2.5 0.3-2.9 1zm136.9 1.3c-0.4 0.9-0.4 2 0.2 2.6 0.5 0.6 1.9 0.9 3 0.7 1.2-0.2 2-1.1 2-2.3 0-1.3-0.8-2.1-2.2-2.3-1.3-0.2-2.5 0.3-3 1.3z"/>
		<path id="Path 15" fill-rule="evenodd" class="s10" d="m425.5 11.1c3.3-0.1 9.9 0.6 14.8 1.4 4.8 0.8 12 2.7 15.9 4.3 4 1.5 10.7 4.8 14.8 7.4 4.1 2.5 10.4 7.5 14 11 3.6 3.5 8.8 9.7 11.6 13.8 2.7 4.1 6.5 11.2 8.2 15.8 1.8 4.5 3.9 12.4 4.8 17.4 1.1 6.5 1.4 12 1 18.3-0.3 4.9-1.5 12.6-2.7 17-1.1 4.4-3.6 11.1-5.4 15-1.8 3.9-5.3 9.7-12.2 19l3.3 3.7c1.9 2.1 3.4 4.8 3.4 6 0 1.6-3.5 5.8-11.2 13.5-6.2 6.2-12.1 11.3-13.1 11.3-0.9 0-3.7-1.8-10.7-8l-68.5 34.2-11 10.7c-6.1 5.8-76 71.6-155.3 146.1-112.5 105.7-145.5 136.2-150 138.5-4.8 2.4-6.9 2.9-13.2 3q-7.5 0-12.5-1.9c-4-1.5-8-4.9-20.3-17-11.4-11.4-15.8-16.3-17.4-20.1-1.7-3.8-2.2-7-2.2-13 0-6.8 0.4-8.8 2.8-13.5 1.7-3.3 7.6-10.6 15-18.5 6.7-7.1 61.7-65.6 122.1-130 60.5-64.4 119.9-127.7 132.2-140.8 12.3-13 22.8-23.7 23.3-23.7 0.5 0 9.1-16.2 37-72l-4-4.5c-2.2-2.5-4-5.3-4-6.2 0-1 5.1-6.9 11.3-13.1 7.7-7.7 11.9-11.2 13.5-11.2 1.2 0 3.9 1.5 9.7 6.7l6-4.4c3.3-2.5 9.2-6 13-7.8 3.9-1.8 9.7-4 13-5 3.3-0.9 8.5-2 11.5-2.5 3-0.4 8.2-0.8 11.5-0.9zm-22.7 16c-3.5 1.1-9 3.6-12.3 5.4-3.3 1.9-7.2 4.4-8.8 5.7l-2.8 2.3 102.6 102.7c5.1-6.7 8.1-11.8 10-15.7 1.8-3.9 4.1-9.9 5.1-13.5 1.2-4.4 1.8-10.2 1.8-18 0-9-0.5-13.2-2.3-19.5-1.2-4.4-3.8-10.9-5.7-14.5-1.8-3.6-5.4-9-7.9-12-2.5-3-7.1-7.6-10.2-10.3-3.2-2.6-8.7-6.3-12.3-8.1-3.6-1.9-9.9-4.4-14-5.6-4.2-1.1-11.7-2.2-17-2.5-5.2-0.2-11.9 0-14.7 0.5-2.9 0.6-8.1 1.9-11.5 3.1zm-51.8 22.4l121.5 121.5 10-10c-93.8-93.8-121.2-121-121.5-121-0.3 0-2.7 2.1-5.3 4.8zm-29.5 82.5l68.5 68.5c48.2-24.1 62.3-31.3 62.5-31.5 0.2-0.3-22.1-23-49.5-50.5l-49.9-50zm-75.5 81.4c-4.2 4.4-18.3 19.5-31.5 33.5-13.1 14.1-26.8 28.7-30.5 32.5-3.6 3.9-10.8 11.5-16 17-5.2 5.5-29.7 31.6-54.5 58-24.7 26.4-53.7 57.2-64.3 68.5-10.7 11.3-20.7 22.3-22.3 24.5-1.7 2.4-3.1 5.9-3.5 8.5-0.3 2.6-0.1 6.3 0.6 8.5 1 3.1 4.6 7.4 14.9 17.8 10.5 10.6 14.7 14.2 18.1 15.4 3.2 1.2 5.9 1.5 9 1 2.5-0.4 5.8-1.5 7.2-2.4 1.5-1 30.3-27.6 64-59.3 33.7-31.6 77-72.3 96.3-90.4 19.3-18.1 38.2-35.9 42-39.5 3.9-3.7 29-27.2 55.8-52.4 26.8-25.1 48.7-46 48.7-46.4 0-0.4-14.7-15.5-32.7-33.5-18-18-33.1-32.8-33.4-32.8-0.4 0-14.1 14.3-30.5 31.8-16.4 17.4-33.3 35.3-37.4 39.7zm17.3 11.6c1.6 0 7 4.8 18 15.7 10.9 10.9 15.7 16.4 15.7 18 0 1.2-0.9 3.1-2 4.2-1.1 1.1-3 2-4.2 2-1.6 0-7-4.7-18-15.7-11-11-15.8-16.4-15.8-18 0-1.2 0.9-3.2 2-4.3 1.1-1.1 3.1-2 4.3-1.9zm-18.3 19c1.9 0 6.2 3.7 17.8 15.5 10.5 10.6 15.2 16.1 15.3 17.7 0 1.2-0.6 3-1.3 3.9-0.7 0.9-2.3 1.9-3.5 2.2-1.8 0.5-3.8-0.8-10-6.6-4.3-4-11.7-11.4-16.5-16.5-7.1-7.5-8.6-9.7-8.2-11.5 0.4-1.2 1.4-2.8 2.3-3.5 0.9-0.7 2.7-1.2 4.1-1.2z"/>
	</g>
</svg>