<svg version="1.2" xmlns="http://www.w3.org/2000/svg" viewBox="0 0 525 517" width="525" height="517"><style>.a{fill:#4b8dc2}</style><path fill-rule="evenodd" class="a" d="m425.5 11.1c3.3-0.1 9.9 0.6 14.8 1.4 4.8 0.8 12 2.7 15.9 4.3 4 1.5 10.7 4.8 14.8 7.4 4.1 2.5 10.4 7.5 14 11 3.6 3.5 8.8 9.7 11.6 13.8 2.7 4.1 6.5 11.2 8.2 15.8 1.8 4.5 3.9 12.4 4.8 17.4 1.1 6.5 1.4 12 1 18.3-0.3 4.9-1.5 12.6-2.7 17-1.1 4.4-3.6 11.1-5.4 15-1.8 3.9-5.3 9.7-12.2 19l3.3 3.7c1.9 2.1 3.4 4.8 3.4 6 0 1.6-3.5 5.8-11.2 13.5-6.2 6.2-12.1 11.3-13.1 11.3-0.9 0-3.7-1.8-10.7-8l-68.5 34.2-11 10.7c-6.1 5.8-76 71.6-155.3 146.1-112.5 105.7-145.5 136.2-150 138.5-4.8 2.4-6.9 2.9-13.2 3q-7.5 0-12.5-1.9c-4-1.5-8-4.9-20.3-17-11.4-11.4-15.8-16.3-17.4-20.1-1.7-3.8-2.2-7-2.2-13 0-6.8 0.4-8.8 2.8-13.5 1.7-3.3 7.6-10.6 15-18.5 6.7-7.1 61.7-65.6 122.1-130 60.5-64.4 119.9-127.7 132.2-140.8 12.3-13 22.8-23.7 23.3-23.7 0.5 0 9.1-16.2 37-72l-4-4.5c-2.2-2.5-4-5.3-4-6.2 0-1 5.1-6.9 11.3-13.1 7.7-7.7 11.9-11.2 13.5-11.2 1.2 0 3.9 1.5 9.7 6.7l6-4.4c3.3-2.5 9.2-6 13-7.8 3.9-1.8 9.7-4 13-5 3.3-0.9 8.5-2 11.5-2.5 3-0.4 8.2-0.8 11.5-0.9zm-22.7 16c-3.5 1.1-9 3.6-12.3 5.4-3.3 1.9-7.2 4.4-8.8 5.7l-2.8 2.3 102.6 102.7c5.1-6.7 8.1-11.8 10-15.7 1.8-3.9 4.1-9.9 5.1-13.5 1.2-4.4 1.8-10.2 1.8-18 0-9-0.5-13.2-2.3-19.5-1.2-4.4-3.8-10.9-5.7-14.5-1.8-3.6-5.4-9-7.9-12-2.5-3-7.1-7.6-10.2-10.3-3.2-2.6-8.7-6.3-12.3-8.1-3.6-1.9-9.9-4.4-14-5.6-4.2-1.1-11.7-2.2-17-2.5-5.2-0.2-11.9 0-14.7 0.5-2.9 0.6-8.1 1.9-11.5 3.1zm-51.8 22.4l121.5 121.5 10-10c-93.8-93.8-121.2-121-121.5-121-0.3 0-2.7 2.1-5.3 4.8zm-29.5 82.5l68.5 68.5c48.2-24.1 62.3-31.3 62.5-31.5 0.2-0.3-22.1-23-49.5-50.5l-49.9-50zm-75.5 81.4c-4.2 4.4-18.3 19.5-31.5 33.5-13.1 14.1-26.8 28.7-30.5 32.5-3.6 3.9-10.8 11.5-16 17-5.2 5.5-29.7 31.6-54.5 58-24.7 26.4-53.7 57.2-64.3 68.5-10.7 11.3-20.7 22.3-22.3 24.5-1.7 2.4-3.1 5.9-3.5 8.5-0.3 2.6-0.1 6.3 0.6 8.5 1 3.1 4.6 7.4 14.9 17.8 10.5 10.6 14.7 14.2 18.1 15.4 3.2 1.2 5.9 1.5 9 1 2.5-0.4 5.8-1.5 7.2-2.4 1.5-1 30.3-27.6 64-59.3 33.7-31.6 77-72.3 96.3-90.4 19.3-18.1 38.2-35.9 42-39.5 3.9-3.7 29-27.2 55.8-52.4 26.8-25.1 48.7-46 48.7-46.4 0-0.4-14.7-15.5-32.7-33.5-18-18-33.1-32.8-33.4-32.8-0.4 0-14.1 14.3-30.5 31.8-16.4 17.4-33.3 35.3-37.4 39.7zm17.3 11.6c1.6 0 7 4.8 18 15.7 10.9 10.9 15.7 16.4 15.7 18 0 1.2-0.9 3.1-2 4.2-1.1 1.1-3 2-4.2 2-1.6 0-7-4.7-18-15.7-11-11-15.8-16.4-15.8-18 0-1.2 0.9-3.2 2-4.3 1.1-1.1 3.1-2 4.3-1.9zm-18.3 19c1.9 0 6.2 3.7 17.8 15.5 10.5 10.6 15.2 16.1 15.3 17.7 0 1.2-0.6 3-1.3 3.9-0.7 0.9-2.3 1.9-3.5 2.2-1.8 0.5-3.8-0.8-10-6.6-4.3-4-11.7-11.4-16.5-16.5-7.1-7.5-8.6-9.7-8.2-11.5 0.4-1.2 1.4-2.8 2.3-3.5 0.9-0.7 2.7-1.2 4.1-1.2z"/></svg>