<svg version="1.2" xmlns="http://www.w3.org/2000/svg" viewBox="0 0 232 325" width="232" height="325">
	<title>Layer 1</title>
	<style>
		.s0 { fill: #f1db2b } 
	</style>
	<path id="Path 0" class="s0" d="m114.2 15.8c-0.7 8.6-2.2 23.6-3.3 33.2-1.1 9.6-2.9 22.2-4 28-1.1 5.8-2.9 14.1-4.1 18.5-1.2 4.4-3.5 11.4-5.3 15.5-1.7 4.1-4.9 10.2-7 13.4-2.2 3.3-6.7 8.4-10 11.3-3.3 3-9.4 7.1-13.5 9.2-4.1 2.2-11.9 5.3-17.3 7-5.3 1.7-15.2 4.2-22 5.5-6.7 1.3-15.8 3-20.2 3.7-4.4 0.7-7.6 1.4-7 1.6 0.5 0.1 9.4 1.8 19.7 3.8 10.4 1.9 23.2 4.9 28.5 6.6 5.4 1.7 12.9 4.6 16.8 6.5 3.8 1.9 9.6 5.4 12.7 7.9 3.2 2.5 7.9 7.3 10.4 10.7 2.5 3.5 5.7 8.8 7.1 11.8 1.4 3 3.7 8.7 5 12.5 1.3 3.8 3.2 11.2 4.3 16.2 1.1 5.1 2.9 15.3 3.9 22.5 1.1 7.3 2.7 20.9 3.6 30.3 0.8 9.4 1.9 20.8 2.4 25.5 0.4 4.7 1 7.8 1.3 7 0.3-0.8 1.3-10.7 2.2-22 1-11.3 2.6-27.3 3.7-35.5 1.1-8.3 3.2-20.4 4.5-27 1.4-6.6 3.9-15.6 5.5-20 1.6-4.4 4.5-10.7 6.3-14 1.9-3.3 5.6-8.4 8.2-11.4 2.7-3 7.6-7.2 10.9-9.5 3.3-2.2 9.6-5.5 14-7.4 4.4-1.8 12.1-4.4 17-5.7 4.9-1.3 16.7-3.8 26-5.6 9.3-1.7 17.1-3.2 17.2-3.3 0.1 0-4.6-0.9-10.5-1.9-5.9-0.9-15.6-2.9-21.7-4.2-6.1-1.4-14.6-3.7-19-5.1-4.4-1.4-11.6-4.5-16-6.7-5.8-2.9-10.1-6.2-15.6-11.6-5.4-5.5-8.6-9.8-11.6-15.6-2.2-4.4-5-10.9-6.1-14.5-1.2-3.6-3-10.3-4.1-15-1.1-4.7-2.9-14.8-4-22.5-1.1-7.7-3-23.2-4.1-34.5-1.1-11.3-1.9-22.6-1.9-25.2 0.1-2.6-0.3-4.9-0.8-5.2-0.4-0.3-1.4 6.6-2.1 15.2z"/>
</svg>