<svg version="1.2" xmlns="http://www.w3.org/2000/svg" viewBox="0 0 275 267" width="275" height="267">
	<title>Layer 5</title>
	<style>
		.s0 { fill: #5dab54 } 
	</style>
	<path id="Path 0" class="s0" d="m121.7 4.7c-0.2 0.5-0.7 3.7-1.1 7.3-0.4 3.6-1.6 12.8-2.7 20.5-1.1 7.7-3 18.5-4.3 24-1.3 5.5-3.7 13.4-5.3 17.5-1.5 4.1-4.3 9.8-6 12.5-1.8 2.8-5.1 6.9-7.5 9.2-2.4 2.3-7 5.8-10.3 7.8-3.3 2-10.3 4.9-15.5 6.6-5.2 1.7-13.5 3.9-18.5 4.9-5 1-12.8 2.3-17.5 3-4.7 0.6-13 1.7-18.4 2.3-5.5 0.7-10.1 1.7-10.3 2.2-0.2 0.6 4.6 1.5 11.4 2.3 6.5 0.7 17.2 2.2 23.8 3.3 6.6 1 15.8 2.9 20.5 4 4.7 1.2 11.4 3.4 15 4.8 3.6 1.4 8.9 4.2 11.9 6.1 3 1.9 7.7 6 10.4 9 2.7 3 6.4 8.7 8.3 12.5 1.8 3.8 4.5 11.1 5.9 16 1.4 4.9 3.7 15.3 5 23 1.2 7.7 2.9 19.1 3.6 25.3 0.8 6.2 1.8 11.2 2.4 11.2 0.5 0 1.3-3.2 1.8-7.2 0.4-4 1.7-13.6 2.8-21.3 1.1-7.7 3.3-19.4 5-26 1.6-6.6 4.7-15.6 6.8-20 2.1-4.4 6-10.4 8.7-13.4 2.7-3 7.6-7.2 10.9-9.3 3.3-2.1 8.9-5 12.5-6.3 3.6-1.4 9.9-3.3 14-4.4 4.1-1 11.8-2.6 17-3.5 5.2-0.9 14.7-2.3 21-3.1 6.3-0.8 13-1.5 14.7-1.5 2.3 0 3.1-0.4 2.8-1.2-0.3-0.8-4.8-1.8-11.8-2.6-6.1-0.7-16.8-2.2-23.7-3.4-6.9-1.1-16.8-3.1-22-4.4-5.2-1.4-13.2-4.3-17.8-6.4-5.5-2.7-10.3-6-14.8-10.2-5.3-5-7.5-8.2-11-15.3-2.5-5.3-5.6-13.9-7.3-21-1.7-6.6-3.9-18.3-5-26-1.1-7.7-2.2-17.3-2.4-21.3-0.2-4-0.8-7.5-1.4-7.7-0.6-0.3-1.3-0.2-1.6 0.2zm85.8 149.1c-0.9 6.4-2.9 15.3-4.3 19.7-2.2 6.8-3.4 8.9-8.1 13.6-4.8 4.9-6.7 6-13.6 8.2-4.4 1.4-13.2 3.3-19.5 4.2-6.3 0.9-11.6 1.9-11.8 2.1-0.1 0.2 0.6 0.8 1.5 1.3 1 0.4 4.3 1.1 7.3 1.5 3 0.4 9.1 1.4 13.5 2.2 4.4 0.9 10.3 2.6 13 3.8 2.8 1.3 6.7 3.8 8.9 5.7 2.1 1.9 4.9 5.4 6.1 7.9 1.2 2.5 2.9 7 3.8 10 0.9 3 2.4 10.6 3.4 16.8 1 6.2 2.1 11.2 2.5 11.2 0.5 0 1-1 1.2-2.2 0.2-1.3 1.1-7 2-12.8 0.9-5.8 2.5-13.2 3.6-16.5 1.1-3.3 3.2-7.7 4.5-9.7 1.4-2.1 4.4-5.2 6.8-6.9 2.3-1.6 7.1-3.9 10.7-5 3.6-1.1 10.6-2.7 15.5-3.5 4.9-0.8 10.5-1.7 12.3-1.9 1.7-0.3 3.2-0.8 3.2-1.2 0-0.5-5-1.6-11.2-2.6-6.2-1-13.8-2.5-16.8-3.4-3-0.9-7.5-2.6-10-3.8-2.5-1.3-5.9-3.8-7.7-5.7-1.8-1.8-4.3-5.8-5.6-8.8-1.4-3-3.2-9.1-4-13.5-0.9-4.4-1.9-10-2.2-12.5-0.3-2.5-0.7-5.7-0.9-7.2-0.2-1.6-0.8-2.8-1.3-2.8-0.6 0-1.8 5.3-2.8 11.8z"/>
</svg>