<svg version="1.2" xmlns="http://www.w3.org/2000/svg" viewBox="0 0 243 181" width="243" height="181">
	<title>Layer 4</title>
	<style>
		.s0 { fill: #f7893b } 
	</style>
	<path id="Path 0" class="s0" d="m49.8 1.8c-0.8 0.9-1.8 2.3-2.1 3-0.4 0.6 0 6.9 0.8 13.9 0.8 7.1 2.2 18.6 3 25.8 0.8 7.2 1.7 14.1 2 15.5 0.3 1.4-0.1 3.4-0.8 4.5-0.7 1.1-12.1 8-25.3 15.4-13.1 7.3-24.7 14.3-25.7 15.5-1 1.1-1.8 3.1-1.7 4.3 0 1.3 1 3.3 2.3 4.6 1.8 1.9 6.4 3.1 29.2 7.6 14.9 3 27.9 5.9 29 6.6 1.7 1 3 5.9 7.8 29.6 3.2 15.6 6.3 29 7 29.8 0.7 0.7 2.2 1.8 3.5 2.2 1.3 0.6 3.2 0.5 4.7-0.1 1.8-0.7 5-5.4 11.4-16.8 4.8-8.6 10.8-19.3 13.2-23.7 2.4-4.4 5.4-9.1 6.5-10.5l2.2-2.5c14.5 1.9 26.6 3.4 36.2 4.5 9.6 1.2 19 2 20.9 1.8 2.2-0.2 4.1-1.2 5.4-2.8 1.2-1.6 1.7-3.4 1.4-5-0.3-1.4-9.1-11.7-19.6-23-10.5-11.3-19.4-21.6-19.7-23-0.5-1.9 1.6-7.3 8.1-21.5 4.9-10.5 10.3-22.5 12.2-26.8 3-7 3.2-7.9 1.9-10.5-0.7-1.5-2.1-3-3-3.5-0.9-0.4-2.4-0.7-3.3-0.7-1 0-13 5.2-26.8 11.6-13.7 6.4-26.2 11.7-27.6 11.8-2 0.1-5.2-2.3-14-10.5-6.3-5.8-15.9-14.7-21.4-19.8-8.1-7.4-10.6-9.1-13.1-9.1-1.7 0-3.8 0.8-4.6 1.8zm144.9 17.9c-0.3 0.4-1.9 6.4-3.7 13.3-1.8 6.9-3.7 13-4.4 13.6-0.6 0.6-6.7 1.9-13.6 2.9-6.9 0.9-13.1 2.2-13.8 2.8-0.7 0.7-1.2 2-1 3.1 0.2 1.1 4.6 4.6 11.3 8.9 6.1 3.8 11.3 7.5 11.6 8.1 0.4 0.6-0.2 5.8-1.2 11.6-1 5.8-2.1 11.7-2.4 13.3-0.3 1.7 0.1 3.3 1 4.2 0.8 0.8 1.9 1.5 2.5 1.5 0.6 0 5.2-3.4 10.2-7.7 5.1-4.2 10.1-8.2 11-9 1.6-1.1 3.4-0.5 14.3 5.2 8.2 4.2 13 6.2 14 5.8 0.9-0.5 1.8-1.4 2-2 0.3-0.7-1.9-7.2-4.8-14.4l-5.2-13.1c15.9-15 20.5-20 20.5-20.8 0.1-0.8-0.5-2.1-1.2-2.8-1-1-4.2-1-14.8-0.3-8.7 0.6-13.9 0.6-14.5 0-0.6-0.6-3.7-6.3-7-12.7-4.5-8.8-6.5-11.8-8.1-12-1.2-0.2-2.4 0-2.7 0.5zm17.8 92l-5 3.6c-9.2-5.6-11-6.1-11.9-5.4-0.8 0.8-0.6 2.6 0.8 6.9l1.8 5.7c-7.1 6.2-9.2 8.6-9.2 9.3 0 0.8 2 1.2 6.5 1.2h6.5c4.3 9.4 5.8 12.1 6.2 12 0.5 0 1.4-1.2 2.2-2.8 0.7-1.5 1.6-4 2-5.7 0.4-1.9 1.4-3.3 2.8-3.7 1.3-0.4 4.2-0.8 6.5-0.8 2.4 0 4.6-0.6 5-1.2 0.3-0.7-0.3-2-1.4-2.8-1.1-0.8-3.4-2.6-5.2-4l-3.3-2.5c2.3-9.7 2.4-11.8 1.7-12.5q-1.1-0.9-6 2.7z"/>
</svg>