<svg version="1.2" xmlns="http://www.w3.org/2000/svg" viewBox="0 0 285 272" width="285" height="272">
	<title>Layer 6</title>
	<style>
		.s0 { fill: #ca403f } 
	</style>
	<path id="Path 0" class="s0" d="m125.6 3.8c-0.3 0.9-1.8 9.1-3.5 18.2-1.6 9.1-5.6 31-8.8 48.7l-5.8 32.3c-7.7 1.5-26.9 4.6-47.5 8-20.6 3.3-42.1 6.8-47.8 7.8-5.6 0.9-10.2 2-10.2 2.5 0 0.4 1 0.9 2.3 1.2 1.2 0.3 11.6 2.1 23.2 3.9 11.6 1.9 32.3 5.3 46 7.5 13.8 2.3 27 4.5 29.5 4.9 4.4 0.7 4.5 0.9 5.3 5.2 0.5 2.5 4.6 24.7 9 49.4 4.5 24.7 8.7 45.1 9.2 45.3 0.6 0.2 4.8-20.4 10.1-49.4l9-49.8c35.6-5.8 59.1-9.6 75.3-12.2 16.2-2.7 29.6-5.3 29.8-5.8 0.2-0.6-6.8-2.2-16.4-3.8-9.3-1.6-30.7-5.1-47.8-7.8-17.1-2.7-33.4-5.4-36.3-5.9-4.4-0.9-5.2-1.3-5.2-3.3 0-1.2-1.5-10.3-3.4-20.2-1.8-9.9-5.6-31.6-8.6-48.3-2.9-16.6-5.6-30.2-6.1-30.2-0.4 0-1 0.8-1.3 1.7zm88.4 137.8c0 0.3-1.3 7.6-2.9 16.2-1.6 8.7-3.8 20.5-4.8 26.2-1 5.7-2 10.7-2.3 11-0.3 0.4-11.1 2.4-24 4.5-12.9 2.1-25.4 4.1-27.8 4.5-2.4 0.3-4.2 1.1-4.2 1.8 0 0.7 0.3 1.3 0.7 1.3 0.5 0 12 1.8 25.8 4 13.7 2.3 26.1 4.4 27.4 4.8 2.3 0.7 2.6 2.1 7.3 27.2 2.7 14.6 5.1 26.7 5.3 27 0.3 0.3 0.7 0.3 1 0 0.3-0.3 2.6-12.3 5.3-26.7 2.6-14.4 4.9-26.4 5.2-26.7 0.3-0.3 12.7-2.6 27.5-5.1 14.9-2.5 27.3-4.5 27.7-4.5 0.5 0 0.8-0.6 0.8-1.3 0-0.8-8.3-2.5-26.8-5.5-14.7-2.4-27.3-4.3-28-4.2-0.6 0-1.4-1-1.7-2.3-0.3-1.2-2.3-12.6-4.5-25.2-2.2-12.7-4.3-24-4.5-25.3-0.3-1.2-0.9-2.2-1.5-2.2-0.6 0-1 0.2-1 0.5z"/>
</svg>