<svg version="1.2" xmlns="http://www.w3.org/2000/svg" viewBox="0 0 512 512" width="512" height="512">
	<title>piano</title>
	<style>
		.s0 { fill: #f1db2b } 
	</style>
	<path id="Path 0" fill-rule="evenodd" class="s0" d="m488.5 0.5l5 2.7c2.8 1.4 6.7 4.3 8.8 6.5 2.2 2.1 5.1 6 9.2 13.8v465l-2.7 5c-1.4 2.7-4.3 6.7-6.5 8.8-2.1 2.2-6 5.1-13.8 9.2h-465l-5-2.7c-2.7-1.4-6.7-4.3-8.8-6.5-2.2-2.1-5.1-6.1-9.2-13.8v-465l2.7-5c1.4-2.8 4.3-6.7 6.5-8.8 2.1-2.2 5.6-4.8 7.8-6 2.2-1.1 5.1-2.4 6.5-2.8 1.4-0.4 106.4-0.7 464.5-0.4zm-469.2 19.6c-1.2 1.3-2.9 4.1-3.7 6.1-1.4 3.4-1.6 27.6-1.6 229.8 0 202.2 0.2 226.4 1.6 229.8 0.8 2 2.5 4.8 3.7 6 1.2 1.3 3.6 3.1 5.2 4 2.6 1.5 8.1 1.7 45.3 1.9l42.2 0.3v-207c-26.7 0-35-0.4-35.7-0.8-0.6-0.4-1.6-1.9-2.2-3.5-0.8-1.9-1.1-43.7-1.1-137.7v-135c-40.8 0-44 0.3-47.5 1.9-2.2 1-5 2.9-6.2 4.2zm68.7 256.9h63v-263h-63zm77-126c0 123.2-0.2 137.2-1.6 138.5-1.2 1.2-4.8 1.5-19 1.5h-17.4v207h121v-207c-32.7 0-36.3-0.3-37.5-1.5-1.3-1.3-1.5-18.1-1.5-138.5v-137h-44zm58 126h64v-263h-64zm77.8-125.9c-0.3 135.8-0.3 137.1-2.3 138.5-1.6 1.1-5.8 1.4-19.2 1.4h-17.3v207h120v-207l-36.4-0.5c-2.3-4.5-2.6-33.4-2.6-140.8v-135.7h-42zm57.3 125.9h64v-263h-64zm78-126.7c0 119.7-0.2 136.5-1.5 138.5-1.5 2.2-2 2.2-19.5 2.2h-18v207c82.1 0 85.8-0.2 89.5-1.9 2.2-1 4.9-2.9 6.2-4.2 1.2-1.3 2.8-4.1 3.7-6.1 1.4-3.4 1.6-27.5 1.6-229.8 0-202.2-0.2-226.4-1.6-229.7-0.9-2.1-2.5-4.9-3.7-6.2-1.3-1.3-4-3.2-6.2-4.2-3.6-1.6-6.8-1.8-27.3-1.9h-23.2z"/>
</svg>