<svg version="1.2" xmlns="http://www.w3.org/2000/svg" viewBox="0 0 452 452" width="452" height="452"><style>.a{fill:#f7a1d5}</style><path fill-rule="evenodd" class="a" d="m451 154.1v210c0 15.7-12.8 28.6-28.6 28.6h-393.8c-15.8 0-28.6-12.9-28.6-28.6v-210c0-15.8 12.8-28.6 28.6-28.6h54.3v-36.2c0-17 13.9-31 31-31h223.2c17.1 0 31 14 31 31v36.2h54.3c15.8 0 28.6 12.8 28.6 28.6zm-352.2-70.1h253.4c-2.2-6.2-8.1-10.7-15.1-10.7h-223.2c-7 0-12.9 4.5-15.1 10.7zm-0.9 41.5h255.2v-26.5h-255.2zm338.1 28.6c0-7.5-6.1-13.6-13.6-13.6h-393.8c-7.5 0-13.6 6.1-13.6 13.6v210c0 7.5 6.1 13.6 13.6 13.6h393.8c7.5 0 13.6-6.1 13.6-13.6zm-285.4 149.6c0 34-27.6 61.7-61.6 61.7-34 0-61.7-27.7-61.7-61.7 0-34 27.7-61.6 61.7-61.6 34 0 61.6 27.6 61.6 61.6zm-15 0c0-25.7-20.9-46.6-46.6-46.6-25.8 0-46.7 20.9-46.7 46.6 0 25.8 20.9 46.7 46.7 46.7 25.7 0 46.6-20.9 46.6-46.7zm-108.3-109.7c0-22.7 18.5-41.2 41.1-41.2 22.7 0 41.2 18.5 41.2 41.2 0 22.7-18.5 41.1-41.2 41.1-22.6 0-41.1-18.4-41.1-41.1zm15 0c0 14.4 11.7 26.1 26.1 26.1 14.5 0 26.2-11.7 26.2-26.1 0-14.4-11.7-26.2-26.2-26.2-14.4 0-26.1 11.8-26.1 26.2zm381.4 109.7c0 34-27.7 61.7-61.7 61.7-34 0-61.6-27.7-61.6-61.7 0-34 27.6-61.6 61.6-61.6 34 0 61.7 27.6 61.7 61.6zm-15 0c0-25.7-20.9-46.6-46.7-46.6-25.7 0-46.6 20.9-46.6 46.6 0 25.8 20.9 46.7 46.6 46.7 25.8 0 46.7-20.9 46.7-46.7zm-21 0c0 14.2-11.5 25.7-25.7 25.7-14.1 0-25.6-11.5-25.6-25.7 0-14.1 11.5-25.6 25.6-25.6 14.2 0 25.7 11.5 25.7 25.6zm-15 0c0-5.8-4.8-10.6-10.7-10.6-5.8 0-10.6 4.8-10.6 10.6 0 5.9 4.8 10.7 10.6 10.7 5.9 0 10.7-4.8 10.7-10.7zm-258.1 0c0 14.2-11.5 25.7-25.6 25.7-14.2 0-25.7-11.5-25.7-25.7 0-14.1 11.5-25.6 25.7-25.6 14.1 0 25.6 11.5 25.6 25.6zm-15 0c0-5.8-4.8-10.6-10.6-10.6-5.9 0-10.7 4.8-10.7 10.6 0 5.9 4.8 10.7 10.7 10.7 5.8 0 10.6-4.8 10.6-10.7zm324.1-109.7c0 22.7-18.5 41.1-41.1 41.1-22.7 0-41.2-18.4-41.2-41.1 0-22.7 18.5-41.2 41.2-41.2 22.6 0 41.1 18.5 41.1 41.2zm-15 0c0-14.4-11.7-26.2-26.1-26.2-14.5 0-26.2 11.8-26.2 26.2 0 14.4 11.7 26.1 26.2 26.1 14.4 0 26.1-11.7 26.1-26.1zm-125.7 46.2v72.1c0 4.1-3.4 7.5-7.5 7.5h-100c-4.1 0-7.5-3.4-7.5-7.5v-72.1c0-4.1 3.4-7.5 7.5-7.5h100c4.1 0 7.5 3.4 7.5 7.5zm-15 7.5h-85v57.1h85zm-65.9 34.8q0.1 0-0.1 0 0 0 0-0.1-0.1-0.1-0.1 0c-2.7-2-3.9-5.5-2.8-8.7 1.1-3 3.9-5 7.1-5 3.2 0 6.2 2.2 7.1 5.3 0.9 2.8 0 6-2.3 7.9-2.5 2.1-6.1 2.4-8.9 0.6zm-0.1-0.1q0 0.1 0 0.1 0.1 0 0.1 0c0 0-0.2-0.1-0.2-0.1q0 0 0.1 0zm35.9-3.3c-1.1-2.8-0.5-6.1 1.6-8.2 2.9-2.9 7.8-2.9 10.6 0 2.9 2.8 2.9 7.8 0 10.6-2.8 2.9-7.7 2.9-10.6 0-0.7-0.7-1.2-1.5-1.6-2.4zm-112.9-109.9c0-4.2 3.4-7.5 7.5-7.5h186c4.1 0 7.5 3.3 7.5 7.5 0 4.1-3.4 7.5-7.5 7.5h-186c-4.1 0-7.5-3.4-7.5-7.5zm44 35.5c-4.1 0-7.5-3.4-7.5-7.5 0-4.2 3.4-7.5 7.5-7.5h91c4.1 0 7.5 3.3 7.5 7.5 0 4.1-3.4 7.5-7.5 7.5zm119.9-10.5q0 0 0 0.1 0 0 0 0 0 0 0 0 0.1 0.1 0.1 0.1c2 5.4-2.6 11.2-8.4 10.1-5.7-1.1-8.2-8.5-3.9-12.6 3.7-3.8 10.1-2.4 12.2 2.3zm0 0.1q0-0.1 0-0.1c0 0 0.1 0.2 0.1 0.2q0 0-0.1-0.1 0 0 0 0 0 0 0 0z"/></svg>