<svg version="1.2" xmlns="http://www.w3.org/2000/svg" viewBox="0 0 512 512" width="512" height="512">
	<title>settings</title>
	<style>
		.s0 { fill: #5dab54 } 
	</style>
	<path id="Path 0" fill-rule="evenodd" class="s0" d="m488.5 0.5l4.9 2.5c2.7 1.4 6.7 4.3 8.9 6.5 2.2 2.2 5.2 6.5 9.2 15v464l-2.7 5c-1.4 2.8-4.3 6.7-6.5 8.8-2.1 2.2-6 5.1-13.8 9.2h-465l-5-2.7c-2.7-1.4-6.7-4.3-8.8-6.5-2.2-2.1-5.1-6-9.2-13.8v-465l2.7-5c1.4-2.7 4.3-6.7 6.5-8.8 2.1-2.2 5.6-4.8 7.8-6 2.2-1.1 5.1-2.4 6.5-2.8 1.4-0.4 106.4-0.7 464.5-0.4zm-463.1 15.1c-3 1.6-6.3 4.3-8 6.7l-2.9 4.1c-0.4 351.1-0.3 454.4-0.1 456.1 0.3 1.6 2.3 5.1 4.6 7.7 3.1 3.8 5.1 5.1 9.3 6.3 4.6 1.3 32.3 1.5 229.7 1.3l224.5-0.3c7.9-4.6 10.4-7.1 12.3-10.3l2.7-4.7v-456.1c-4.2-6.5-7-8.9-10.6-10.7l-5.4-2.7h-451zm94.4 26.9c0.7 0.3 1.9 0.5 2.7 0.5 0.8 0 2.2 1.5 3 3.5 1.3 3 1.5 16.1 1.5 191.5l21.3 0.3c16.4 0.3 22.2 0.7 25.7 2 2.5 0.9 6.5 3.4 9 5.5 2.5 2.1 5.6 6.1 7 8.8 2.4 4.6 2.5 5.8 2.5 20.4 0 14.7-0.1 15.7-2.6 20.5-1.4 2.7-4.4 6.5-6.5 8.4-2.1 1.9-5.9 4.3-8.4 5.5-4 1.8-6.7 2.1-48 2.6l-0.5 155.1-2.5 2c-1.4 1.1-3.4 2-4.5 2-1.1 0-3.1-0.9-7-4l-0.5-156.1h-21c-18.4 0-21.6-0.3-26.2-2-3.3-1.2-7.1-3.8-10.1-6.7-3-3-5.5-6.8-6.7-10.1-1.6-4.2-2-7.8-2-17.7 0-9.9 0.4-13.6 1.9-17.8 1.3-3.3 3.7-7 6.8-10.1 3-3 6.7-5.5 10.1-6.7 4.5-1.7 8-1.9 47.2-1.9v-94.5c0-71 0.3-95.2 1.2-97.1 0.7-1.4 2.1-2.9 3.3-3.4 1.1-0.5 2.6-0.7 3.3-0.5zm-57.8 217.6c-1.9 2.6-2.5 5-2.8 10.9-0.3 4.1-0.2 9.6 0.2 12.2 0.5 3.6 1.5 5.8 4.4 8.8 2.1 2.4 5.2 4.5 7.2 5 1.9 0.5 23.5 1 48 1 24.5 0 45.9-0.2 47.5-0.5 1.7-0.3 4.7-2 6.8-3.8 2.1-1.8 4.4-4.8 5-6.8 0.8-2.3 1-7.1 0.7-13.6-0.4-8.2-0.9-10.7-2.6-13-1.1-1.6-3.6-3.9-5.5-5.1l-3.4-2.3c-94.3 0.1-97.2 0.2-100 2-1.7 1-4.2 3.4-5.5 5.2zm194.5-217.5c1.1 0.3 2.7 1.2 3.5 2 1.3 1.2 1.6 6.9 2 72.4h21c19 0 21.6 0.2 26.8 2.1 3.7 1.4 7.3 3.8 10.3 6.8 3 2.9 5.4 6.6 6.8 10.3 1.7 4.6 2.1 8 2.1 17 0 6.8-0.5 13.2-1.4 16.3-0.8 2.7-3.2 7.2-5.3 10-2.3 2.9-6.2 6.2-14.8 11l-45.5 0.5v275l-2.4 2.5c-1.4 1.3-3.5 2.5-4.8 2.5-1.3 0-3.3-0.7-6.8-3v-277l-21.2-0.3c-20.4-0.3-21.5-0.4-26.8-2.9-3-1.4-7-3.8-8.8-5.4-1.9-1.6-4.7-5.6-6.3-8.9-2.8-5.8-2.9-6.7-2.9-19.3 0-10.7 0.4-14.2 2-18.5 1.1-2.9 3.7-7 5.9-9.2 2.1-2.2 6.1-5.2 8.8-6.5 4.7-2.5 5.5-2.5 49.3-3v-35.3c0-19.4 0.4-35.8 0.9-36.4 0.5-0.7 1.9-1.7 3.2-2.2 1.3-0.5 3.3-0.7 4.4-0.5zm-59.2 97.4c-1.9 3.7-2.3 5.9-2.3 13 0 4.6 0.5 10 1 12 0.5 1.9 2.6 5 4.5 7l3.6 3.5c91.8 0.4 99.3 0.2 101.9-1 1.7-0.9 4.3-3.2 5.8-5.2 2.5-3.4 2.7-4.5 3-14.3 0.3-9.6 0.1-10.9-2.1-15-1.7-3.2-3.7-5.2-6.8-6.8-4.4-2.3-4.5-2.3-50.9-2.3-46.3 0.1-46.6 0.1-50.9 2.3-3.1 1.6-5.1 3.6-6.8 6.8zm194.2-97.3c1.1 0.3 2.8 1.2 3.8 2.1 1.7 1.6 1.8 8.3 1.7 264.2l22.3 0.2c19.9 0.2 22.7 0.5 26.7 2.3 2.5 1.1 6.5 4.1 8.8 6.5 2.6 2.7 5.2 6.7 6.4 10 1.7 4.7 1.9 7.3 1.6 19-0.2 11.4-0.6 14.2-2.5 18-1.2 2.4-3.9 6.2-6 8.4-2.1 2.1-6.3 5-9.3 6.4-5.3 2.5-6.3 2.6-49 3.2v85l-2.2 1.5c-1.3 0.8-3.5 1.5-5 1.5q-2.8 0-4.8-2.8c-2-2.6-2.1-4-2-85.2l-21.2-0.4c-12.6-0.2-22.7-0.9-24.8-1.6-1.9-0.6-5.7-2.8-8.5-4.9-3.5-2.6-6-5.6-11.7-16.6l0.4-15c0.3-13 0.6-15.6 2.5-19 1.2-2.2 3.6-5.6 5.5-7.4 1.8-1.9 5.8-4.6 8.8-6 5.4-2.6 6.2-2.6 50-3.1v-131.3c0-124.7 0-131.3 1.7-132.9 1-0.8 2.5-1.8 3.3-2.1 0.8-0.3 2.4-0.3 3.5 0zm-55.4 284.1c-1.9 1.5-4.1 4.1-4.8 5.9-0.8 2-1.3 7.3-1.3 13.5 0.1 8.3 0.5 10.9 2.1 13.8 1 1.9 3.6 4.5 5.7 5.7 3.7 2.2 4 2.2 51.5 2.2 43.4 0.1 48-0.1 51.4-1.7 2-0.9 4.6-3.1 5.7-4.7 1.8-2.6 2.2-4.8 2.4-15 0.3-11.2 0.2-12.3-2-15.4-1.2-1.9-3.6-4.4-5.1-5.5-2.8-2.1-3.8-2.1-50.5-2.3-26.2-0.1-48.6 0.1-49.7 0.4-1.1 0.2-3.5 1.7-5.4 3.1z"/>
</svg>