<svg version="1.2" xmlns="http://www.w3.org/2000/svg" viewBox="0 0 512 512" width="512" height="512">
	<title>speaker</title>
	<style>
		.s0 { fill: #4b8dc2 } 
	</style>
	<path id="Path 0" fill-rule="evenodd" class="s0" d="m397.5 0.5l5.5 2.7c3 1.4 7.6 4.7 10.3 7.2 2.7 2.7 6.1 7.4 11.2 18.1v455l-3.3 6.7c-1.8 4-5.2 8.7-8 11.4-2.6 2.5-7.2 5.8-15.7 9.9h-283l-5.5-2.7c-3-1.4-7.6-4.7-10.3-7.2-2.7-2.7-6.1-7.4-11.2-18.1v-455l2.3-5c1.3-2.8 3.5-6.7 5-8.9 1.5-2.1 4.9-5.5 7.7-7.5 2.7-2 7.2-4.4 10-5.3 4.7-1.6 14.7-1.7 285-1.3zm-282 15.8c-2.7 1.3-6.5 4-8.2 6-1.8 2.1-4 6.1-4.8 8.9-1.3 4.7-1.5 32-1.5 224.8 0 192.8 0.2 220.1 1.5 224.8 0.8 2.8 3 6.8 4.8 8.9 1.7 2 5.5 4.7 8.2 6l5 2.3h271c7.8-3.6 11.5-6.3 13.3-8.3 1.7-2.1 3.9-6.1 4.7-9 1.3-4.6 1.5-31.9 1.5-224.7 0-192.8-0.2-220.1-1.5-224.8-0.8-2.8-3-6.8-4.7-8.9-1.8-2-5.5-4.7-8.3-6l-5-2.3h-271zm139.8 31.8c5.9-0.1 14 0.5 18 1.3 3.9 0.9 10.3 2.8 14.2 4.4 3.9 1.5 9.7 4.5 13 6.6 3.3 2.1 9.1 6.8 12.8 10.5 3.8 3.6 8.8 9.5 11.2 13.1 2.4 3.5 5.8 9.8 7.5 14 1.7 4.1 3.7 10.7 4.5 14.7 0.8 4 1.5 11.8 1.5 17.3 0 5.5-0.7 13.2-1.5 17.2-0.8 4-2.8 10.6-4.5 14.8-1.7 4.1-5.1 10.4-7.5 14-2.4 3.5-7.4 9.4-11.2 13.1-3.7 3.6-9.5 8.3-12.8 10.4-3.3 2.1-9.1 5.1-13 6.7-3.9 1.5-10.3 3.5-14.2 4.3-4 0.8-11.8 1.5-17.3 1.5-5.5 0-13.3-0.7-17.2-1.5-4-0.8-10.7-2.9-14.8-4.6-4.1-1.7-10.4-5-14-7.4-3.6-2.4-9.5-7.4-13.1-11.2-3.6-3.7-8.3-9.5-10.4-12.8-2.1-3.3-5.1-9.2-6.7-13-1.6-3.9-3.5-10.3-4.3-14.3-0.8-4-1.5-11.7-1.5-17.2 0-5.5 0.7-13.3 1.5-17.3 0.8-4 2.8-10.6 4.5-14.7 1.7-4.2 5.1-10.5 7.5-14 2.3-3.6 7.6-9.7 11.6-13.5 4.1-3.9 10.1-8.7 13.4-10.7 3.3-2 8.9-4.8 12.5-6.2 3.6-1.5 9.4-3.3 13-4.1 3.6-0.7 11.3-1.4 17.3-1.4zm-26.8 20.4c-3.3 1.4-8.7 4.5-12 6.9-3.3 2.3-8.4 6.9-11.3 10.2-3 3.3-7.2 9.7-9.8 14.9-2.4 4.9-5.1 12.1-5.9 16-0.8 3.8-1.5 9.9-1.5 13.5 0 3.5 0.5 9.2 1.1 12.5 0.6 3.3 2.2 8.9 3.6 12.5 1.4 3.5 4.5 9.4 6.8 13 2.3 3.5 7.3 9.3 11.1 12.8 4.8 4.4 9.7 7.7 15.9 10.7 5 2.3 11.5 4.9 14.5 5.6 3 0.7 9.8 1.3 15 1.3 5.2 0 12-0.6 15-1.3 3-0.7 9.8-3.4 15-5.9 7.9-3.7 10.8-5.8 17.6-12.6 4.8-4.8 9.5-10.8 11.6-14.6 2-3.6 4.6-9.7 5.8-13.5 1.2-4.1 2.4-11 2.7-16.5 0.3-6.6 0-11.8-1.1-17-0.9-4.3-3.6-11.6-6.3-17-3.7-7.7-6.1-11-12.3-17-4.1-4.2-10-9-13-10.8-3-1.8-8.9-4.4-13-5.9-6.3-2.3-9.5-2.7-20-3-8.3-0.2-14.4 0.2-18 1.1-3 0.8-8.2 2.6-11.5 4.1zm31.5 168.1c5.8 0.2 13.2 0.8 16.5 1.4 3.3 0.6 9.1 2 13 3.1 3.9 1.2 10.6 3.6 15 5.6 4.4 1.9 11.8 6 16.5 9.1 4.7 3.1 12.1 9 16.4 13.2 4.4 4.1 10.4 10.8 13.5 15 3.1 4.1 7.7 11.5 10.2 16.5 2.6 4.9 5.9 12.6 7.3 17 1.5 4.4 3.4 12 4.3 17 1.1 6.7 1.4 12.9 1 24.5-0.4 11.1-1.1 17.9-2.7 24-1.2 4.6-3.7 12.3-5.7 17-1.9 4.6-5.1 11.2-7.1 14.5-1.9 3.3-5.6 8.7-8.1 12-2.5 3.3-7.9 9.3-12.1 13.3-4.1 4.1-11.1 9.8-15.5 12.7-4.4 2.9-10.8 6.7-14.2 8.4-3.5 1.7-10.2 4.4-15 6-4.9 1.6-13.3 3.7-18.8 4.6-7.5 1.3-13.3 1.6-23 1.2-7.1-0.3-16.4-1.3-20.5-2.2-4.1-1-10.2-2.6-13.5-3.8-3.3-1.1-9.6-3.8-14-5.9-4.4-2.2-11.1-6.1-15-8.6-3.8-2.6-10.8-8.5-15.6-13.2-4.7-4.7-10.6-11.5-13.1-15-2.5-3.6-6.2-9.5-8.2-13-1.9-3.6-4.9-10.2-6.6-14.8-1.6-4.5-3.9-12.7-5-18.2-1.4-6.9-2-14.1-2-22.8 0-7 0.6-16.6 1.4-21.2 0.9-4.7 2.7-12.1 4.2-16.5 1.4-4.4 4.7-12.1 7.3-17 2.5-5 7.1-12.4 10.2-16.5 3.1-4.2 9.1-10.9 13.5-15 4.3-4.2 11.7-10.1 16.4-13.2 4.7-3.1 12.1-7.2 16.5-9.1 4.4-2 11.2-4.5 15-5.6 3.9-1.1 9.9-2.5 13.5-3.1 3.6-0.5 8.1-1.2 10-1.4 1.9-0.3 8.2-0.3 14 0zm-37 19.5c-3.6 1.2-9.9 3.8-14 5.9-4.1 2-11.1 6.4-15.5 9.7-4.4 3.2-10.5 8.6-13.5 11.9-3 3.2-7.6 9.1-10.2 12.9-2.6 3.8-6.3 10.6-8.4 15-2 4.4-4.8 12.2-6.1 17.5-1.5 5.8-2.7 13.8-3 20.5-0.4 6.7-0.1 14.3 0.7 19.5 0.7 4.6 2.6 12.5 4.2 17.5 1.6 4.9 4.7 12.3 6.9 16.5 2.3 4.1 6.2 10.4 8.9 14 2.6 3.5 7.9 9.4 11.6 13 3.8 3.5 10.3 8.7 14.4 11.4 4.1 2.8 10.9 6.5 15 8.3 4.1 1.8 12 4.4 17.5 5.9 8.6 2.2 12 2.6 24.5 2.6 12.5 0 15.9-0.4 24.5-2.6 5.5-1.5 13.4-4.1 17.5-5.9 4.1-1.8 10.9-5.5 15-8.3 4.1-2.7 10.6-7.9 14.4-11.4 3.7-3.6 9-9.5 11.6-13 2.7-3.6 6.6-9.9 8.8-14 2.3-4.2 5.3-11.1 6.7-15.5 1.5-4.4 3.3-11.6 4.1-16 0.8-4.4 1.4-12.2 1.4-17.3 0-5.2-0.9-13.5-1.9-19-1.1-5.3-3.4-13.3-5.1-17.7-1.7-4.4-4.8-11-6.9-14.5-2.1-3.6-6.6-9.9-9.9-14-3.3-4.2-8.8-10-12.3-12.9-3.5-3-8.9-7-11.9-9-3-1.9-8.6-5-12.5-6.8-3.9-1.8-11-4.4-16-5.9-7.7-2.3-11.3-2.7-25-3-11.5-0.3-17.8 0-22.5 1.1-3.6 0.8-9.4 2.4-13 3.6zm32-170c1.4-0.1 5.2 0.3 8.5 0.9 3.3 0.5 8.5 2.2 11.5 3.6 3 1.4 7.3 4 9.5 5.8 2.2 1.9 5.7 5.7 7.7 8.7 2.1 3 4.7 8.1 5.8 11.4 1.4 4.1 2 8.5 2 14 0 4.4-0.6 10-1.4 12.5-0.7 2.4-2.2 6.3-3.3 8.5-1.2 2.2-4.1 6.2-6.6 9-2.5 2.7-6.9 6.4-9.8 8.2-3 1.7-8.1 3.9-11.4 4.7-3.3 0.9-8.5 1.6-11.5 1.6-3 0-8.2-0.7-11.5-1.6-3.3-0.8-8.4-3-11.4-4.7-2.9-1.8-7.3-5.5-9.8-8.2-2.5-2.8-5.4-6.8-6.6-9-1.1-2.2-2.6-6.1-3.3-8.5-0.8-2.5-1.4-8.1-1.4-12.5 0-5.5 0.6-9.9 2-14 1.1-3.3 3.7-8.4 5.8-11.4 2-3 5.5-6.8 7.7-8.7 2.2-1.8 6.7-4.5 10-6 3.3-1.5 8-3.1 10.5-3.5 2.5-0.4 5.6-0.7 7-0.8zm-13.7 18.1c-1.5 0.9-4.5 3.3-6.6 5.4-2.1 2.1-4.8 5.9-6 8.4-1.7 3.5-2.2 6.3-2.2 12.5 0 6.2 0.5 9 2.2 12.5 1.2 2.4 3.9 6.2 6 8.4 2.1 2.2 6.3 5.1 9.3 6.5 4.1 1.8 7.2 2.5 12 2.5 4.8 0 7.9-0.7 12-2.5 3-1.4 7.2-4.3 9.3-6.5 2.1-2.2 4.8-6 6-8.4 1.7-3.5 2.2-6.3 2.2-12.5-0.1-6.6-0.5-8.9-2.6-13-1.5-2.8-4.8-7-7.5-9.3-2.7-2.4-6.9-5-9.4-5.8-2.5-0.8-7.2-1.4-10.5-1.4-3.3 0.1-7.2 0.5-8.7 0.9-1.5 0.4-4 1.5-5.5 2.3zm14.2 193.9c5.9-0.1 12.3 0.5 15.5 1.4 3 0.8 8.4 2.9 12 4.7 4 2 9.1 5.8 13 9.8 3.9 3.9 8 9.2 10.2 13.5 2 3.8 4.4 9.9 5.2 13.5 0.9 3.5 1.6 9.6 1.6 13.5 0 3.9-0.9 10.5-2 15-1.2 4.4-3.5 10.4-5.2 13.5-1.8 3-6.1 8.5-9.7 12.1-4.7 4.8-8.7 7.7-14.1 10.3-4.1 1.9-10.6 4.2-14.5 5.1-3.9 0.8-9 1.4-11.5 1.4-2.5 0-7.6-0.6-11.5-1.4-3.8-0.9-10.4-3.2-14.5-5.1-5.4-2.6-9.4-5.5-14.1-10.3-3.6-3.6-7.9-9.1-9.7-12.1-1.7-3.1-4-9.1-5.2-13.5-1.1-4.5-2-11.1-2-15 0-3.9 0.7-10 1.6-13.5 0.8-3.6 3.2-9.7 5.2-13.5 2.2-4.3 6.3-9.6 10.2-13.5 3.9-4 9.1-7.8 13-9.8 3.6-1.8 8.8-3.9 11.5-4.7 2.8-0.7 9.5-1.4 15-1.4zm-19.2 18.8c-2.1 1-5.8 3.6-8.2 5.7-2.5 2.1-6 6.3-7.9 9.4-1.9 3-4.1 7.5-4.8 10-0.7 2.4-1.5 6.3-1.9 8.5-0.3 2.2-0.1 6.9 0.4 10.5 0.6 3.5 2.4 9.2 4 12.5 1.6 3.3 5.1 8.1 7.8 10.7 2.6 2.7 6.6 5.8 8.8 7.1 2.2 1.3 6.3 3.1 9 4 3 1 8.1 1.7 12.5 1.7 4.4 0 9.5-0.7 12.5-1.7 2.8-0.9 6.8-2.7 9-4 2.2-1.3 6.2-4.4 8.8-7.1 2.7-2.6 6.2-7.4 7.8-10.7 1.6-3.3 3.4-9 4-12.5 0.5-3.6 0.7-8.3 0.4-10.5-0.4-2.2-1.3-6.3-2.1-9-0.8-2.8-3.1-7.5-5.2-10.5-2-3-5.9-7.3-8.7-9.5-2.7-2.3-7.7-5.2-11-6.4-3.6-1.4-9-2.5-13.5-2.7-4.8-0.3-9.4 0.1-12.7 1.1-2.9 0.8-7 2.3-9 3.4zm22.2 5.7c3.3 0.3 8 1.4 10.5 2.5 2.5 1.1 6.5 3.9 8.9 6.2 2.4 2.3 5.6 6.9 7.2 10.4 2.4 5.1 2.9 7.7 2.9 13.5 0 5.9-0.5 8.4-2.8 13.3-1.8 3.8-4.6 7.5-7.8 10.3-2.7 2.3-7.3 5.2-10.1 6.2-3.1 1.2-7.8 2-11.3 2-3.7 0-8.2-0.8-11.7-2.2-3.2-1.2-7.8-4-10.2-6.3-2.4-2.2-5.7-6.7-7.2-10-2.4-4.9-2.9-7.4-2.9-13.3 0-4.8 0.7-9 2-12.5 1.1-2.9 3.4-7 5.2-9.1 1.8-2.2 5.3-5.1 7.8-6.5 2.5-1.4 6.5-3.1 9-3.8 2.7-0.8 7-1.1 10.5-0.7zm-17.3 21.4c-1.2 1.9-2.5 5-2.8 7-0.4 1.9-0.4 4.8 0 6.5 0.3 1.6 1.6 4.5 2.8 6.5 1.3 1.9 4.3 4.5 6.8 5.7 2.5 1.3 6.1 2.3 8 2.3 1.9 0 5.5-1.1 7.9-2.3 2.5-1.2 5.5-3.8 6.8-5.7 1.3-2 2.6-5.3 3-7.5 0.3-2.2 0.1-5.6-0.5-7.5-0.6-2-2.2-4.8-3.4-6.5-1.3-1.6-4.1-3.7-6.3-4.7-2.2-1-5.6-1.8-7.5-1.8-1.9 0-5.5 1-8 2.2-2.5 1.3-5.5 3.8-6.8 5.8z"/>
</svg>