<svg version="1.2" xmlns="http://www.w3.org/2000/svg" viewBox="0 0 512 512" width="512" height="512">
	<title>trombone</title>
	<style>
		.s0 { fill: #9b5de5 } 
	</style>
	<path id="Path 0" fill-rule="evenodd" class="s0" d="m488.5 0.2c5.2 0.3 8.2 1.1 11.5 3 2.7 1.5 5.8 4.5 7.8 7.4 1.8 2.7 3.5 6.5 3.9 8.4 0.3 1.9 0.4 6 0.2 9.1-0.3 3.9-1.2 6.8-3.1 9.7-1.6 2.3-69.1 80.1-297.4 341.7l-1.4 8.5c-1 6.4-1.9 9.1-3.7 10.8-1.5 1.4-2.9 2-4.1 1.5-0.9-0.3-5.2-3.6-9.5-7.2-4.3-3.6-8-7.4-8.2-8.3-0.3-1-0.3-2.7 0-3.8 0.3-1.3 2.1-2.6 4.7-3.5 2.4-0.8 6.8-2.4 9.8-3.6 3.4-1.2 6.7-3.5 11.9-9.4l-10.8-9.5c-6-5.2-11.1-9.5-11.4-9.5-0.3 0-13.4 14.9-29.3 33-15.8 18.2-32.2 37.3-36.4 42.5-4.2 5.2-11.5 14.7-16.1 21-4.7 6.3-16.2 22.3-25.5 35.5-14.3 20-18 24.6-22.5 27.7-3 2-8.1 4.4-11.4 5.4-4.1 1.1-8.2 1.5-13 1.2-4.9-0.3-9-1.4-13.4-3.4-3.8-1.7-8-4.7-10.6-7.4-2.3-2.5-5.5-7-7.1-10-2.7-5.1-2.9-6.3-2.9-16 0-8.5 0.4-11.3 2.1-15 1.1-2.5 38.9-56.2 83.9-119.5 45-63.2 83.5-117.7 85.5-121 2-3.3 4.8-8.9 6.3-12.5 1.5-3.6 3.3-9.4 4.1-13 0.8-3.6 1.8-9.6 2.1-13.5 0.4-3.8 0.2-10.8-0.5-15.5-0.6-4.7-2-11.4-3.2-15-1.1-3.6-3.4-9.1-4.9-12.2-1.6-3.2-2.9-6.8-2.9-8-0.1-1.3 0.7-3.1 1.7-4 1.5-1.4 2.5-1.6 5.3-0.8 1.9 0.5 9.3 3.8 16.5 7.3 7.1 3.5 17.3 9 22.5 12.3 5.2 3.3 13.2 8.7 17.6 12 4.5 3.2 12.8 10 18.5 15.1 5.7 5.1 13.8 12.9 17.9 17.5 4.2 4.6 10 11.4 18.5 22.1l2.5-2.9c1.4-1.6 41.9-48.1 90-103.2 76.2-87.4 88.1-100.7 92.5-102.8 4.2-2.2 6.1-2.5 12-2.2zm-139.4 160.7c-70.7 81.1-128.7 147.7-128.9 148-0.2 0.4 4.7 5 10.8 10.4l11 9.7c198.8-228.1 257.3-295.7 258.3-297.4 0.9-1.7 1.7-4.7 1.7-6.6 0-1.9-0.8-5.1-1.8-7-1.1-2.3-3.3-4.3-6.2-5.8-2.5-1.2-5.6-2.2-7-2.1-1.4 0-4 0.8-5.9 1.7-2.2 1.1-47.2 52-132 149.1zm-156.9-8.9c1.6 5.9 2.1 10.6 2.1 22 0.1 9.9-0.4 16.7-1.5 21.5-0.8 3.9-3 10.6-4.7 15-1.8 4.4-4.8 10.7-6.8 14-2 3.3-20.5 29.9-41.2 59-20.6 29.2-41.2 58.4-45.9 65-4.6 6.6-7.3 10.9-6 9.5 1.4-1.4 25.9-29.5 54.5-62.5 30.1-34.8 54.7-62.3 58.5-65.5 3.6-3 9.9-7.4 14-9.7 4-2.4 11.3-5.6 16.3-7.3 4.9-1.7 11.7-3.5 15-4 3.3-0.6 11.1-1 17.2-1h11.3c-3-4.3-7.3-9.3-11.7-13.9-4.3-4.6-12.8-12.7-18.8-17.8-6.1-5.2-16.6-13.2-23.5-17.8-6.9-4.6-16.9-10.7-22.3-13.6-9.2-5-9.7-5.1-9.2-2.8 0.3 1.3 1.5 5.8 2.7 9.9zm39.3 72.1c-3.9 1.5-9.8 4.5-13.2 6.6-3.4 2.1-8.6 5.9-11.5 8.4-2.9 2.5-21.3 23-40.8 45.5-19.5 22.5-36.1 41.7-36.8 42.7-1.1 1.5 0.8 3.1 17.5 14.7l18.8 12.9c4.9-5 31.4-35.2 62.1-70.4l55.7-64c-7.6-1.8-14.5-2.3-20.3-2.3-5.8 0-13.7 0.6-17.5 1.5-3.9 0.8-10.2 2.8-14 4.4zm-35 112.9c0 0.6 4.6 5 10.2 10 5.7 4.9 10.6 9 11 8.9 0.5 0 4.5-4.3 9-9.5l8.3-9.4c-16.7-14.7-21.8-19-22.2-19-0.3 0-4.2 4.1-8.5 9.1-4.3 5-7.8 9.4-7.8 9.9zm-148.3 83.8c-0.1 0.4 3.7 2.6 8.5 4.9 4.8 2.2 15 7.1 22.5 10.7l13.8 6.6c14.2-19 22.5-29.4 27.6-35.5 5-6 15.7-18.5 23.8-27.7l14.6-16.8c-28.3-19.6-37-25.4-37.5-25.6-0.6-0.3-17.2 18.3-37 41.1-19.8 22.8-36.1 41.9-36.3 42.3zm-18.4 20.5c-5.7 6.7-10.4 12.4-10.6 12.9-0.1 0.4 2.3 2 5.3 3.6 4.4 2.1 5.9 2.5 7.3 1.6 0.9-0.7 3.3-1.5 5.2-1.9 2-0.4 5.1-0.2 7.2 0.4 2.1 0.6 4.9 2.3 6.3 3.9 1.4 1.5 2.9 4.4 3.3 6.6 0.6 3.6 1.2 4.1 7.2 6.7 5.2 2.4 6.7 2.7 7.7 1.7 0.7-0.7 5-6.7 9.7-13.3 8.1-11.5 8.3-12 6.3-13-1.2-0.5-11.7-5.5-23.4-11.1l-21.2-10.1zm-19.3 33.7c0.1 5.6 0.6 8.5 2.2 11.5 1.1 2.2 3.8 5.7 5.9 7.8 2.2 2 6.4 4.7 9.4 5.8 4 1.5 7 1.9 11 1.6 3-0.3 7.4-1.4 9.8-2.6 2.3-1.2 6-4 8.2-6.4 2.3-2.3 4.1-4.6 4-5 0-0.4-2.2-1.8-5-3.2l-5-2.5c-6.6 3.1-9.5 4-10.7 4-1.3 0-4.2-0.8-6.4-1.8-2.3-0.9-5-3.1-6-4.7-1.1-1.7-2-4.5-2.2-6.4-0.2-2.9-0.8-3.7-4.7-5.6-2.5-1.2-5.5-2.6-6.7-3-1.6-0.5-2.4-0.2-3 1.2-0.4 1-0.8 5.2-0.8 9.3zm25.3-3.3c0.1 1.2 1 2.7 2 3.2 1.2 0.7 2.4 0.5 4-0.5 1.2-0.8 2.2-2.1 2.2-2.9 0-0.8-0.7-2.2-1.5-3-0.8-0.8-2.1-1.5-2.8-1.5-0.7 0-1.9 0.5-2.7 1.2-0.8 0.6-1.3 2.2-1.2 3.5zm165.9-320.7c1.6 0 6.1 2.1 10.3 4.7 4.1 2.6 11.1 7.4 15.5 10.6 4.4 3.3 10.7 8.2 14 11 3.3 2.8 9.3 8.2 13.3 12.1 5.1 5 7.2 7.8 7.2 9.6 0 1.4-0.5 3-1.2 3.7-0.7 0.7-2.3 1.3-3.7 1.2-1.9 0-5.2-2.5-11.6-8.7-5-4.8-12.8-11.7-17.5-15.3-4.7-3.7-13.3-9.9-19.2-13.8-6-3.9-11.1-7.9-11.4-8.9-0.4-0.9-0.2-2.7 0.5-4 0.7-1.5 1.9-2.2 3.8-2.2z"/>
</svg>