<svg version="1.2" xmlns="http://www.w3.org/2000/svg" viewBox="0 0 512 512" width="512" height="512"><style></style><filter id="f0"><feFlood flood-color="#9b5de5" flood-opacity="1" /><feBlend mode="normal" in2="SourceGraphic"/><feComposite in2="SourceAlpha" operator="in" /></filter><g filter="url(#f0)"><path fill-rule="evenodd" d="m512 256c0 141.5-114.5 256-256 256-141.5 0-256-114.5-256-256 0-141.5 114.5-256 256-256 141.5 0 256 114.5 256 256zm-33.4 0c0-122.7-99.9-222.6-222.6-222.6-122.7 0-222.6 99.9-222.6 222.6 0 122.7 99.9 222.6 222.6 222.6 122.7 0 222.6-99.9 222.6-222.6z"/></g><filter id="f1"><feFlood flood-color="#9b5de5" flood-opacity="1" /><feBlend mode="normal" in2="SourceGraphic"/><feComposite in2="SourceAlpha" operator="in" /></filter><g filter="url(#f1)"><path  d="m389.7 122.3c-35.7-35.8-83.2-55.5-133.7-55.5-9.2 0-16.7 7.5-16.7 16.7 0 9.2 7.5 16.7 16.7 16.7 41.6 0 80.7 16.2 110.1 45.7 29.5 29.4 45.7 68.5 45.7 110.1 0 9.2 7.5 16.7 16.7 16.7 9.2 0 16.7-7.5 16.7-16.7 0-50.5-19.7-98-55.5-133.7z"/></g><filter id="f2"><feFlood flood-color="#9b5de5" flood-opacity="1" /><feBlend mode="normal" in2="SourceGraphic"/><feComposite in2="SourceAlpha" operator="in" /></filter><g filter="url(#f2)"><path  d="m256 411.8c-41.6 0-80.7-16.2-110.1-45.7-29.5-29.4-45.7-68.5-45.7-110.1 0-9.2-7.5-16.7-16.7-16.7-9.2 0-16.7 7.5-16.7 16.7 0 50.5 19.7 98 55.5 133.7 35.7 35.8 83.2 55.5 133.7 55.5 9.2 0 16.7-7.5 16.7-16.7 0-9.2-7.5-16.7-16.7-16.7z"/></g><filter id="f3"><feFlood flood-color="#9b5de5" flood-opacity="1" /><feBlend mode="normal" in2="SourceGraphic"/><feComposite in2="SourceAlpha" operator="in" /></filter><g filter="url(#f3)"><path fill-rule="evenodd" d="m378.4 256c0 67.5-54.9 122.4-122.4 122.4-67.5 0-122.4-54.9-122.4-122.4 0-67.5 54.9-122.4 122.4-122.4 67.5 0 122.4 54.9 122.4 122.4zm-33.4 0c0-49.1-39.9-89-89-89-49.1 0-89 39.9-89 89 0 49.1 39.9 89 89 89 49.1 0 89-39.9 89-89z"/></g><filter id="f4"><feFlood flood-color="#9b5de5" flood-opacity="1" /><feBlend mode="normal" in2="SourceGraphic"/><feComposite in2="SourceAlpha" operator="in" /></filter><g filter="url(#f4)"><path  d="m256 233.7c-12.3 0-22.3 10-22.3 22.3 0 12.3 10 22.3 22.3 22.3 12.3 0 22.3-10 22.3-22.3 0-12.3-10-22.3-22.3-22.3z"/></g></svg>