<svg version="1.2" xmlns="http://www.w3.org/2000/svg" viewBox="0 0 512 512" width="512" height="512">
	<title>xylophone</title>
	<style>
		.s0 { fill: #f7a1d5 } 
	</style>
	<path id="Path 0" fill-rule="evenodd" class="s0" d="m48 130.4c14 0.1 17 0.4 19.3 1.8 1.5 1 3.4 3.4 4.2 5.3 1.2 2.8 1.5 8.3 1.5 50.5h6l0.2-22.3c0.3-18.8 0.6-22.6 2-24.7 0.9-1.4 2.9-3.2 4.4-4 2.1-1.2 6.6-1.5 20.8-1.5 16.5 0 18.4 0.2 21 2 1.6 1.1 3.5 3.5 4.3 5.2 0.9 2.4 1.3 9.1 1.3 45.3h6v-17.8c0-9.7 0.3-19.3 0.7-21.2 0.5-1.9 2.1-4.7 6.5-9h39.8l2.8 2.8c1.5 1.5 3 4.3 3.5 6.2 0.4 1.9 0.7 11.5 0.7 39h6v-16.3c0-8.9 0.4-17.8 1-19.7 0.5-1.9 2.1-4.6 3.5-6 2.6-2.4 3-2.5 20.8-2.9 15.1-0.3 18.8 0 21.7 1.3 1.9 0.9 4.2 2.6 5 3.8 1.2 1.8 1.6 6.4 2 39.8h6l0.3-16.4c0.2-14.9 0.4-16.7 2.3-19.3 1.1-1.5 3.8-3.4 6-4.1 2.8-1 8.6-1.2 20.4-1 14 0.3 16.9 0.6 19 2.1 1.4 1 3.2 2.8 4 4 1.2 1.7 1.6 6 2 34.7h6v-12.3c0-6.7 0.3-13.8 0.7-15.7 0.5-1.9 2.1-4.7 6.5-9h39.8l2.8 2.8c1.5 1.5 3 4.3 3.5 6.2 0.4 1.9 0.7 9 0.7 28h6v-12.3c0-9.6 0.4-12.9 1.8-15.7 1-2 3.2-4.2 5.2-5.2 2.9-1.5 6.3-1.8 19.8-1.8 12.2 0 17.1 0.4 19.7 1.5 1.9 0.8 4.3 2.7 5.3 4.2 1.4 2.2 1.7 5.3 2.2 29.3h6v-10q0-10 1.5-13.5 1.5-3.5 5-5c2.7-1.1 7.6-1.5 20.5-1.5 12.4 0 17.7 0.4 19.8 1.4 1.5 0.7 3.5 2.5 4.5 4 1.4 2.1 1.7 4.8 1.7 24.6h8c6.7 0 8.3 0.3 10 2 1.9 1.9 2 3.4 2 21.7 0.1 19 0 19.9-2.1 21.8-1.7 1.6-3.7 2.1-17.9 2.5v40l7.9 0.2c6.3 0.2 8.3 0.7 10 2.3 2.1 1.9 2.2 2.8 2.1 21.7 0 18.4-0.1 19.9-2 21.8-1.7 1.7-3.3 2-18 2v11c0 8.8-0.3 11.5-1.7 13.6-1 1.5-3 3.3-4.5 4-2.1 1-7.4 1.4-19.8 1.4-12.9 0-17.8-0.4-20.5-1.5q-3.5-1.5-5-5c-1-2.3-1.5-6.8-1.5-23.5h-6l-0.2 13.3c-0.3 10.7-0.6 13.8-2 16-1 1.5-3.4 3.4-5.3 4.2-2.6 1.1-7.5 1.5-19.7 1.5-13.5 0-16.9-0.3-19.8-1.8-2-1-4.2-3.2-5.2-5.2-1.4-2.8-1.8-6.1-1.8-28h-6v12.2c0 6.8-0.3 13.9-0.7 15.8-0.5 1.9-2.1 4.7-6.5 9h-39.8l-2.7-2.8c-1.6-1.5-3.1-4.3-3.6-6.2-0.4-1.9-0.7-9-0.7-28h-6l-0.2 16.2c-0.3 13.9-0.6 16.7-2.1 18.8-1 1.4-2.8 3.2-4 4-1.7 1.1-6.1 1.6-18.7 1.8-11.8 0.2-17.6 0-20.4-1-2.2-0.7-4.9-2.6-6-4.1-1.9-2.6-2.1-4.4-2.6-35.7h-6l-0.3 18.7c-0.1 14.7-0.5 19.3-1.7 21.1-0.8 1.2-3.1 2.9-5 3.8-2.9 1.3-6.6 1.6-21.7 1.3-17.8-0.4-18.2-0.5-20.8-2.9-1.4-1.4-3-4.1-3.5-6-0.6-1.9-1-10.8-1-36h-6v17.7c0 9.8-0.3 19.4-0.7 21.3-0.5 1.9-2.1 4.7-6.5 9h-39.8l-2.8-2.8c-1.5-1.5-3-4.3-3.5-6.2-0.4-1.9-0.7-11.5-0.7-39h-6v21c0 15.2-0.4 21.9-1.3 24.2-0.8 1.8-2.7 4.2-4.3 5.3-2.6 1.8-4.5 2-21 2-14.2 0-18.7-0.3-20.8-1.5-1.5-0.8-3.5-2.6-4.4-4-1.4-2.1-1.7-5.9-2.2-47h-6v23.5c0 18.7-0.3 24.2-1.5 27-0.8 1.9-2.7 4.3-4.2 5.2-2.3 1.6-5.3 1.8-20.9 1.8-14.2 0-18.7-0.3-20.8-1.5-1.5-0.8-3.5-2.6-4.4-4-1.5-2.1-1.7-6-2.2-52h-7.5c-6.2 0-7.9-0.4-9.5-2-1.9-1.9-2-3.4-2-21.8-0.1-18.9 0-19.8 2.1-21.7 1.6-1.6 3.7-2.1 16.9-2.5v-40l-7.4-0.3c-5.8-0.1-7.9-0.6-9.5-2.2-2.1-1.9-2.2-2.8-2.1-21.8 0-18.3 0.1-19.8 2-21.7 1.6-1.6 3.3-2 17-2v-21.8c0-11.9 0.4-23.5 0.8-25.7 0.4-2.1 1.9-5.1 3.3-6.6 1.5-1.5 3.9-3 5.5-3.2 1.6-0.3 10.3-0.4 19.4-0.3zm-19.2 125.5c0.1 91.5 0.4 113.8 1.4 114.8 0.9 0.9 5.6 1.2 16.8 1l15.5-0.2v-231c-26.7-0.5-31.5-0.2-32.5 0.7-1.2 1-1.4 17.6-1.2 114.7zm60 0c0.1 86.1 0.4 108.9 1.4 109.9 0.9 0.9 5.4 1.2 15.5 1.2 7.9 0 15-0.2 15.8-0.5 1.3-0.4 1.5-13.6 1.5-110.5 0-96.9-0.2-110.1-1.5-110.5-0.8-0.3-7.9-0.5-15.8-0.5-9.7 0-14.8 0.4-15.7 1.2-1.2 1-1.4 17.8-1.2 109.7zm60 0c0.1 82.9 0.4 104.9 1.4 105.9 0.9 0.9 5.4 1.2 15.5 1.2 7.9 0 15-0.2 15.8-0.5 1.3-0.4 1.5-13.2 1.5-106.5 0-93.3-0.2-106.1-1.5-106.5-0.8-0.3-7.9-0.5-15.8-0.5-9.7 0-14.8 0.4-15.7 1.2-1.2 1-1.4 17.2-1.2 105.7zm60 0.1c0.2 100.9 0.2 102 2.2 103 1.1 0.5 7.8 1 15 1 7.1 0 13.9-0.5 15-1 2-1 2-2 2-103 0-101 0-102-2-103-1.1-0.6-8-1-15.3-1-7.2 0-14.1 0.5-15.1 1.1-1.9 1-1.9 3.3-1.8 102.9zm60.4 1l0.3 97.5h33v-197c-28.7-0.5-32.6-0.3-33 0.7-0.3 0.7-0.4 45.2-0.3 98.8zm59.6-0.9c0.2 83.3 0.4 95 1.7 95.4 0.8 0.3 7.9 0.5 15.8 0.5 10.1 0 14.7-0.4 15.5-1.3 1-0.9 1.2-22.6 1.2-94.7 0-74.1-0.2-93.8-1.2-94.8-0.9-0.9-5.3-1.2-15.8-1.1-8 0-15.2 0.3-15.9 0.6-1.3 0.4-1.5 13.2-1.3 95.4zm60.4 0.9l0.3 91.5h33v-185c-28.7-0.5-32.6-0.3-33 0.7-0.3 0.7-0.4 42.5-0.3 92.8zm59.8 87c30.3 0 33.1-0.2 33.5-1.5 0.3-0.8 0.5-39.8 0.5-86.5 0-46.8-0.2-85.7-0.5-86.5-0.4-1.3-3.2-1.5-17-1.5h-16.5zm-440-118h10v-29h-10zm64 0h6v-29h-6zm60 0h6v-29h-6zm60 0h6v-29h-6zm60 0h6v-29h-6zm60 0h6v-29h-6zm60 0h6v-29h-6zm60 0h6v-29h-6zm59 0h11v-29h-11zm-419 50h6v-40h-6zm60 0h6v-40h-6zm60 0h6v-40h-6zm60 0h6v-40h-6zm60 0h6v-40h-6zm60 0h6v-40h-6zm60 0h6v-40h-6zm-424 39h10v-29h-10zm64 0h6v-29h-6zm60 0h6v-29h-6zm60 0h6v-29h-6zm60 0h6v-29h-6zm60 0h6v-29h-6zm60 0h6v-29h-6zm60 0h6v-29h-6zm59 0h11v-29h-11zm-446.3-116c2.3 0 5.6 0.8 7.3 1.7 1.6 1 3.6 3 4.5 4.5 0.8 1.6 1.5 4.5 1.5 6.5 0 2.1-0.8 5.1-1.8 6.8-1 1.6-3.5 3.8-5.5 4.7-2 1-4.5 1.8-5.4 1.8-1 0-3.6-0.9-5.8-1.9-2.6-1.3-4.6-3.2-5.7-5.5-1-2-1.8-4.7-1.8-6.1 0-1.4 0.7-3.9 1.5-5.5 0.8-1.7 2.7-3.9 4.2-5 1.7-1.3 4.2-2 7-2zm-2.1 13.8c0.6 1 1.9 1.8 2.8 1.9 0.9 0.2 2.1-0.6 2.6-1.7 0.7-1.5 0.6-2.4-0.5-3.5-0.8-0.8-1.9-1.5-2.4-1.5-0.5 0-1.5 0.7-2.2 1.6-1.1 1.2-1.1 2-0.3 3.2zm62.1-13.8c2.3 0 5.6 0.8 7.3 1.7 1.6 1 3.6 3 4.5 4.5 0.8 1.6 1.5 4.5 1.5 6.5 0 2.1-0.9 5.1-1.9 6.8-1 1.6-3.5 3.8-5.5 4.7-2 1-4.4 1.8-5.3 1.8-1 0-3.6-0.9-5.8-1.9-2.6-1.3-4.6-3.2-5.7-5.5-1-2-1.8-4.7-1.8-6.1 0-1.4 0.7-3.9 1.5-5.5 0.8-1.7 2.7-3.9 4.2-5 1.7-1.3 4.2-2 7-2zm-2.9 13.2c0.1 1 1.1 2 2.2 2.3 1.1 0.3 2.5 0.3 3 0 0.6-0.3 1.1-1.6 1.2-2.9 0.2-1.5-0.4-2.6-1.5-3-0.9-0.3-1.8-0.6-2-0.6-0.2 0-0.9 0.5-1.7 1.2-0.8 0.7-1.3 2-1.2 3zm62.9-13.2c2.3 0 5.6 0.8 7.3 1.7 1.6 1 3.6 3 4.5 4.5 0.8 1.6 1.5 4.5 1.5 6.5 0 2.1-0.8 5-1.8 6.5-0.9 1.5-2.8 3.5-4.2 4.5-1.5 1-4.3 1.7-7 1.7-2.5 0-5.6-0.7-7-1.6-1.4-0.9-3.3-3.2-4.2-5.2-1-2-1.8-4.7-1.8-6.1 0-1.4 0.7-3.9 1.5-5.5 0.8-1.7 2.7-3.9 4.2-5 1.7-1.3 4.2-2 7-2zm-2.9 13.2c0.1 1 1.1 2 2.2 2.3 1.1 0.3 2.5 0.3 3 0 0.6-0.3 1.1-1.6 1.2-2.9 0.2-1.5-0.4-2.6-1.5-3-0.9-0.3-1.8-0.6-2-0.6-0.2 0-0.9 0.5-1.7 1.2-0.8 0.7-1.3 2-1.2 3zm62.7-13.2c2.5 0 5.9 0.8 7.5 1.7 1.7 1 3.7 3.3 4.5 5 0.8 1.8 1.5 4.8 1.5 6.5 0 1.8-0.8 4.5-1.8 6-0.9 1.5-2.8 3.5-4.2 4.4-1.4 1-4.3 1.8-6.6 1.8-2.3 0.1-5.3-0.6-6.8-1.4-1.5-0.8-3.7-3.1-4.9-5-1.5-2.7-1.9-4.5-1.4-8 0.4-3.5 1.3-5.2 4.1-7.8 2.9-2.6 4.4-3.2 8.1-3.2zm-2.7 13.2c0.1 1 1.1 2 2.2 2.3 1.1 0.3 2.5 0.3 3 0 0.6-0.3 1-1.3 1-2.3 0-0.9-0.5-2.3-1.2-3-0.7-0.7-1.5-1.2-1.8-1.2-0.4 0-1.2 0.5-2 1.2-0.8 0.7-1.3 2-1.2 3zm63.5-13.2c3.9 0 5.3 0.5 8.3 3.2 2.8 2.6 3.7 4.3 4.1 7.8 0.5 3.5 0.1 5.3-1.4 8-1.2 1.9-3.4 4.2-4.9 5-1.5 0.8-4.5 1.5-6.8 1.4-2.3 0-5.2-0.8-6.6-1.8-1.4-0.9-3.3-2.9-4.2-4.4-1-1.5-1.8-4.2-1.8-6 0-1.7 0.7-4.7 1.5-6.5 0.8-1.7 2.7-4 4.2-4.9 1.6-1 4.8-1.8 7.6-1.8zm-3.5 13.2c0.1 1 0.7 2 1.2 2.3 0.6 0.3 1.9 0.3 3 0 1.1-0.3 2-1.3 2-2.3 0-0.9-0.5-2.3-1.2-3-0.7-0.7-1.5-1.2-1.8-1.2-0.4 0-1.2 0.5-2 1.2-0.8 0.7-1.3 2-1.2 3zm63.2-13.2c3 0 5.4 0.6 7.3 2 1.5 1.1 3.4 3.3 4.2 5 0.8 1.6 1.5 4.1 1.5 5.5 0 1.4-0.8 4.1-1.7 6.1-1 2-2.9 4.3-4.3 5.2-1.4 0.9-4.5 1.6-7 1.6-2.7 0-5.5-0.7-7-1.7-1.4-1-3.3-3-4.2-4.5-1-1.5-1.8-4.4-1.8-6.5 0-2 0.7-4.9 1.5-6.5 0.9-1.5 2.8-3.5 4.3-4.4 1.5-1 4.7-1.8 7.2-1.8zm-3.2 12.6c0.1 1.3 0.7 2.6 1.2 2.9 0.6 0.3 1.9 0.3 3 0 1.1-0.3 2-1.3 2-2.3 0-0.9-0.5-2.3-1.2-3-0.7-0.7-1.5-1.2-1.8-1.1-0.3 0-1.2 0.3-1.9 0.6-0.9 0.2-1.4 1.5-1.3 2.9zm63.2-12.6c3 0 5.4 0.6 7.3 2 1.5 1.1 3.4 3.3 4.2 5 0.8 1.6 1.5 4.1 1.5 5.5 0 1.4-0.8 4.1-1.7 6.1-1.2 2.3-3.2 4.2-5.8 5.5-2.2 1-4.8 1.9-5.7 1.9-1 0-3.4-0.8-5.4-1.8-2-0.9-4.5-3.1-5.5-4.7-1-1.7-1.9-4.7-1.9-6.8 0-2 0.7-4.9 1.5-6.5 0.9-1.5 2.8-3.5 4.3-4.4 1.5-1 4.7-1.8 7.2-1.8zm-3.2 12.6c0.1 1.3 0.7 2.6 1.2 2.9 0.6 0.3 1.9 0.3 3 0 1.1-0.3 2-1.3 2-2.3 0-0.9-0.5-2.3-1.2-3-0.7-0.7-1.5-1.2-1.8-1.1-0.3 0-1.2 0.3-1.9 0.6-0.9 0.2-1.4 1.5-1.3 2.9zm62.7-12.6c4.9 0 5.9 0.4 9 3.5 1.9 1.9 3.8 4.7 4.1 6.2 0.3 1.6 0.1 4.4-0.4 6.3-0.6 1.9-2.5 4.7-4.1 6.2-1.7 1.6-4.6 3.1-6.3 3.4q-3.3 0.6-7.2-1.2c-2.1-1.1-4.7-3.1-5.7-4.7-1.2-1.7-1.9-4.5-1.9-7.7-0.1-4.4 0.3-5.3 3.5-8.5 3.2-3.1 4.1-3.5 9-3.5zm-3 13.5c0.3 0.8 1.2 1.8 2 2.2 1 0.5 2.2 0.1 3.3-1 1.3-1.3 1.5-2.1 0.6-3.5-0.6-0.9-1.8-1.8-2.6-2-0.8-0.2-2 0.4-2.6 1.3-0.7 0.8-1 2.2-0.7 3zm-416.3 74.5c1 0 3.5 0.8 5.5 1.7 2 1 4.5 3.1 5.5 4.8 1 1.6 1.8 4.7 1.8 6.7 0 2.1-0.7 5-1.5 6.5-0.9 1.6-2.9 3.6-4.5 4.5-1.7 1-4.9 1.8-7.2 1.8-2.8 0.1-5.3-0.6-7-2-1.6-1.1-3.5-3.4-4.3-5-0.8-1.7-1.5-4.1-1.5-5.5 0-1.4 0.8-4.1 1.8-6.1 1.1-2.3 3.1-4.2 5.7-5.5 2.2-1 4.8-1.9 5.8-1.9zm-2.8 14.7c0.6 0.9 1.6 1.8 2.3 1.9 0.6 0.2 1.9-0.3 2.7-1.1 1.1-1.1 1.2-2 0.5-3.5-0.5-1.1-1.6-2-2.4-2-0.8 0-2 0.7-2.7 1.6-1 1.1-1.1 2-0.4 3.1zm62.8-14.7c0.9 0 3.3 0.8 5.3 1.7 2 1 4.5 3.1 5.5 4.8 1 1.6 1.9 4.7 1.9 6.7 0 2.1-0.7 5-1.5 6.5-0.9 1.6-2.9 3.6-4.5 4.5-1.7 1-4.9 1.8-7.2 1.8-2.8 0.1-5.3-0.6-7-2-1.6-1.1-3.5-3.4-4.3-5-0.8-1.7-1.5-4.1-1.5-5.5 0-1.4 0.8-4.1 1.8-6.1 1.1-2.3 3.1-4.2 5.7-5.5 2.2-1 4.8-1.9 5.8-1.9zm-3.5 12.8c0 0.9 0.7 2.3 1.4 3 0.8 0.7 2 0.9 3.1 0.5 1.3-0.6 1.8-1.6 1.5-3.3-0.2-1.4-1-2.6-1.8-2.7-0.8-0.1-2.2 0.1-2.9 0.4-0.8 0.2-1.4 1.2-1.3 2.1zm65.2-12.1c1.9 0.3 4.4 1.2 5.5 1.9 1.1 0.8 2.8 2.7 3.7 4.2 1 1.5 1.8 4.4 1.8 6.4 0 2.1-0.7 5-1.5 6.5-0.9 1.6-2.9 3.6-4.5 4.5-1.7 1-5 1.8-7.5 1.8-3.7 0-5.1-0.6-7.9-3.3-1.9-1.7-3.7-4.6-4.1-6.2-0.4-1.7-0.5-4.5-0.1-6.3 0.3-1.7 1.9-4.5 3.5-6.1 1.6-1.6 3.9-3.2 5.2-3.4 1.3-0.3 4-0.3 5.9 0zm-5.2 12.1c0 0.9 0.7 2.3 1.4 3 0.8 0.7 2 0.9 3.1 0.5 1.3-0.6 1.8-1.6 1.5-3.3-0.2-1.4-1-2.6-1.8-2.7-0.8-0.1-2.2 0.1-2.9 0.4-0.8 0.2-1.4 1.2-1.3 2.1zm65.2-12.2c1.9 0.4 4.4 1.3 5.5 2 1.1 0.8 2.8 2.7 3.7 4.2 1 1.5 1.8 4.2 1.8 5.9 0 1.8-0.7 4.8-1.5 6.5-0.8 1.8-2.8 4.1-4.5 5-1.6 1-5 1.8-7.5 1.8-3.7 0-5.2-0.6-8.1-3.3-2.8-2.5-3.7-4.2-4.1-7.7-0.5-3.5-0.1-5.3 1.4-8 1.2-1.9 3.2-4 4.5-4.7 1.2-0.6 3-1.4 3.8-1.7 0.8-0.3 3.1-0.3 5 0zm-5.2 12.2c0 0.9 0.8 2.3 1.7 2.9 1.2 1 1.8 1 3.1 0 0.8-0.6 1.4-2.1 1.2-3.2-0.2-1.1-1-2.1-1.8-2.2-0.8-0.1-2.2 0.1-2.9 0.4-0.8 0.2-1.4 1.2-1.3 2.1zm65.2-12.1c1.9 0.3 4.3 1 5.3 1.7 1 0.6 2.8 2.7 3.9 4.6 1.7 2.7 2 4.5 1.5 8-0.4 3.5-1.3 5.2-4.1 7.7-2.9 2.7-4.4 3.3-8.1 3.3-2.5 0-5.9-0.8-7.5-1.8-1.7-0.9-3.7-3.2-4.5-5-0.8-1.7-1.5-4.7-1.5-6.5 0-1.7 0.9-4.6 1.9-6.2 1.1-1.7 3-3.5 4.3-4.2 1.2-0.6 3-1.4 3.8-1.7 0.8-0.3 3.1-0.2 5 0.1zm-5.2 12.2c0.1 0.9 0.8 2.2 1.7 2.8 1.2 1 1.8 1 3 0 0.9-0.6 1.6-2 1.5-3 0-0.9-0.7-1.9-1.5-2.2-0.8-0.3-1.9-0.5-2.3-0.5-0.5 0-1.2 0.3-1.7 0.7-0.5 0.3-0.8 1.3-0.7 2.2zm65.2-12.2c1.9 0.3 4.4 1.1 5.5 1.8 1.1 0.7 2.8 2.9 3.8 4.9 0.9 2 1.7 4.7 1.7 6.1 0 1.4-0.7 3.8-1.5 5.5-0.8 1.6-2.7 3.9-4.2 5-1.8 1.4-4.3 2.1-7 2-2.4 0-5.6-0.8-7.3-1.8-1.6-0.9-3.6-2.9-4.5-4.5-0.8-1.5-1.5-4.4-1.5-6.5 0-2 0.9-5.1 1.9-6.7 1.1-1.7 3-3.5 4.3-4.2 1.2-0.6 3-1.4 3.8-1.7 0.8-0.3 3.1-0.3 5 0.1zm-5.2 13c0.1 1.2 1 2.5 2 2.8 0.9 0.3 2.3-0.1 3-0.7 0.7-0.7 1.3-2.1 1.2-3.1 0-0.9-0.7-1.9-1.5-2.2-0.8-0.3-1.9-0.5-2.3-0.5-0.5 0-1.2 0.3-1.7 0.7-0.5 0.3-0.8 1.7-0.7 3zm62.7-13.7c1.1 0 3.8 0.9 6 1.9 2.6 1.3 4.6 3.2 5.8 5.5 0.9 2 1.7 4.7 1.7 6.1 0 1.4-0.7 3.8-1.5 5.5-0.8 1.6-2.7 3.9-4.2 5-1.8 1.4-4.3 2.1-7 2-2.4 0-5.5-0.7-7-1.5-1.6-0.9-3.6-2.9-4.5-4.5-1-1.7-1.8-4.7-1.8-6.8 0-2.1 1-5 2.2-6.8 1.2-1.7 3.6-3.9 5.2-4.8 1.7-0.8 4-1.6 5.1-1.6zm-2.7 13.7c0.1 1.2 1 2.5 2 2.8 0.9 0.3 2.3-0.1 3-0.7 0.7-0.7 1.3-2.1 1.2-3.1 0-0.9-0.7-1.9-1.5-2.2-0.8-0.3-1.9-0.5-2.3-0.5-0.5 0-1.2 0.3-1.7 0.7-0.5 0.3-0.8 1.7-0.7 3zm64.2-13.3c1.9 0.3 4.6 1.4 6 2.4 1.4 1 3.3 3.6 4.4 5.8 1.2 2.6 1.7 4.9 1.2 7.1-0.3 1.8-2.2 4.9-4.1 6.8-3.2 3.1-4.1 3.5-9 3.5-4.9 0-5.9-0.4-9-3.5-3.1-3.1-3.5-4.1-3.5-8.8 0-3.9 0.6-5.9 2.3-7.9 1.2-1.5 3.6-3.4 5.2-4.3 1.9-1 4.3-1.4 6.5-1.1zm-4.5 14.1c0.3 0.8 1.2 1.8 2 2.2 1 0.5 2.2 0.1 3.3-1 1.3-1.3 1.5-2.1 0.6-3.5-0.6-0.9-1.8-1.8-2.6-2-0.8-0.2-2 0.4-2.6 1.3-0.7 0.8-1 2.2-0.7 3z"/>
</svg>